<?xml version="1.0" encoding="UTF-8"?>
<!DOCTYPE svg PUBLIC "-//W3C//DTD SVG 1.1//EN" "http://www.w3.org/Graphics/SVG/1.1/DTD/svg11.dtd">
<svg xmlns="http://www.w3.org/2000/svg" version="1.1" width="512px" height="512px" style="shape-rendering:geometricPrecision; text-rendering:geometricPrecision; image-rendering:optimizeQuality; fill-rule:evenodd; clip-rule:evenodd" xmlns:xlink="http://www.w3.org/1999/xlink">
<g><path style="opacity:0.021" fill="#43443f" d="M -0.5,-0.5 C 0.166667,-0.5 0.833333,-0.5 1.5,-0.5C 1.16667,0.5 0.5,1.16667 -0.5,1.5C -0.5,0.833333 -0.5,0.166667 -0.5,-0.5 Z"/></g>
<g><path style="opacity:0.022" fill="#43443f" d="M 16.5,-0.5 C 18.1667,-0.5 19.8333,-0.5 21.5,-0.5C 14.5,7.16667 7.16667,14.5 -0.5,21.5C -0.5,19.8333 -0.5,18.1667 -0.5,16.5C 5.5,11.1667 11.1667,5.5 16.5,-0.5 Z"/></g>
<g><path style="opacity:0.022" fill="#43443f" d="M 36.5,-0.5 C 38.1667,-0.5 39.8333,-0.5 41.5,-0.5C 27.8333,13.8333 13.8333,27.8333 -0.5,41.5C -0.5,39.8333 -0.5,38.1667 -0.5,36.5C 12.1667,24.5 24.5,12.1667 36.5,-0.5 Z"/></g>
<g><path style="opacity:0.022" fill="#43443f" d="M 56.5,-0.5 C 58.1667,-0.5 59.8333,-0.5 61.5,-0.5C 41.1667,20.5 20.5,41.1667 -0.5,61.5C -0.5,59.8333 -0.5,58.1667 -0.5,56.5C 18.8333,37.8333 37.8333,18.8333 56.5,-0.5 Z"/></g>
<g><path style="opacity:0.022" fill="#43443f" d="M 76.5,-0.5 C 78.1667,-0.5 79.8333,-0.5 81.5,-0.5C 54.5,27.1667 27.1667,54.5 -0.5,81.5C -0.5,79.8333 -0.5,78.1667 -0.5,76.5C 25.5,51.1667 51.1667,25.5 76.5,-0.5 Z"/></g>
<g><path style="opacity:0.022" fill="#43443f" d="M 96.5,-0.5 C 98.1667,-0.5 99.8333,-0.5 101.5,-0.5C 87.5,13.8333 73.5,28.1667 59.5,42.5C 57.8333,42.5 56.1667,42.5 54.5,42.5C 68.5,28.1667 82.5,13.8333 96.5,-0.5 Z"/></g>
<g><path style="opacity:0.022" fill="#43443f" d="M 116.5,-0.5 C 118.167,-0.5 119.833,-0.5 121.5,-0.5C 107.5,13.8333 93.5,28.1667 79.5,42.5C 77.8333,42.5 76.1667,42.5 74.5,42.5C 88.5,28.1667 102.5,13.8333 116.5,-0.5 Z"/></g>
<g><path style="opacity:0.022" fill="#43443f" d="M 136.5,-0.5 C 138.167,-0.5 139.833,-0.5 141.5,-0.5C 127.5,13.8333 113.5,28.1667 99.5,42.5C 97.8333,42.5 96.1667,42.5 94.5,42.5C 108.5,28.1667 122.5,13.8333 136.5,-0.5 Z"/></g>
<g><path style="opacity:0.022" fill="#43443f" d="M 156.5,-0.5 C 158.167,-0.5 159.833,-0.5 161.5,-0.5C 147.5,13.8333 133.5,28.1667 119.5,42.5C 117.833,42.5 116.167,42.5 114.5,42.5C 128.5,28.1667 142.5,13.8333 156.5,-0.5 Z"/></g>
<g><path style="opacity:0.022" fill="#43443f" d="M 176.5,-0.5 C 178.167,-0.5 179.833,-0.5 181.5,-0.5C 167.5,13.8333 153.5,28.1667 139.5,42.5C 137.833,42.5 136.167,42.5 134.5,42.5C 148.5,28.1667 162.5,13.8333 176.5,-0.5 Z"/></g>
<g><path style="opacity:0.022" fill="#43443f" d="M 196.5,-0.5 C 198.167,-0.5 199.833,-0.5 201.5,-0.5C 187.5,13.8333 173.5,28.1667 159.5,42.5C 157.833,42.5 156.167,42.5 154.5,42.5C 168.5,28.1667 182.5,13.8333 196.5,-0.5 Z"/></g>
<g><path style="opacity:0.022" fill="#43443f" d="M 216.5,-0.5 C 218.167,-0.5 219.833,-0.5 221.5,-0.5C 207.5,13.8333 193.5,28.1667 179.5,42.5C 177.833,42.5 176.167,42.5 174.5,42.5C 188.5,28.1667 202.5,13.8333 216.5,-0.5 Z"/></g>
<g><path style="opacity:0.022" fill="#43443f" d="M 236.5,-0.5 C 238.167,-0.5 239.833,-0.5 241.5,-0.5C 227.5,13.8333 213.5,28.1667 199.5,42.5C 197.833,42.5 196.167,42.5 194.5,42.5C 208.5,28.1667 222.5,13.8333 236.5,-0.5 Z"/></g>
<g><path style="opacity:0.022" fill="#43443f" d="M 256.5,-0.5 C 258.167,-0.5 259.833,-0.5 261.5,-0.5C 247.5,13.8333 233.5,28.1667 219.5,42.5C 217.833,42.5 216.167,42.5 214.5,42.5C 228.5,28.1667 242.5,13.8333 256.5,-0.5 Z"/></g>
<g><path style="opacity:0.022" fill="#43443f" d="M 276.5,-0.5 C 278.167,-0.5 279.833,-0.5 281.5,-0.5C 267.5,13.8333 253.5,28.1667 239.5,42.5C 237.833,42.5 236.167,42.5 234.5,42.5C 248.5,28.1667 262.5,13.8333 276.5,-0.5 Z"/></g>
<g><path style="opacity:0.022" fill="#43443f" d="M 296.5,-0.5 C 298.167,-0.5 299.833,-0.5 301.5,-0.5C 287.5,13.8333 273.5,28.1667 259.5,42.5C 257.833,42.5 256.167,42.5 254.5,42.5C 268.5,28.1667 282.5,13.8333 296.5,-0.5 Z"/></g>
<g><path style="opacity:0.022" fill="#43443f" d="M 316.5,-0.5 C 318.167,-0.5 319.833,-0.5 321.5,-0.5C 307.5,13.8333 293.5,28.1667 279.5,42.5C 277.833,42.5 276.167,42.5 274.5,42.5C 288.5,28.1667 302.5,13.8333 316.5,-0.5 Z"/></g>
<g><path style="opacity:0.022" fill="#43443f" d="M 336.5,-0.5 C 338.167,-0.5 339.833,-0.5 341.5,-0.5C 327.5,13.8333 313.5,28.1667 299.5,42.5C 297.833,42.5 296.167,42.5 294.5,42.5C 308.5,28.1667 322.5,13.8333 336.5,-0.5 Z"/></g>
<g><path style="opacity:0.022" fill="#43443f" d="M 356.5,-0.5 C 358.167,-0.5 359.833,-0.5 361.5,-0.5C 347.5,13.8333 333.5,28.1667 319.5,42.5C 317.833,42.5 316.167,42.5 314.5,42.5C 328.5,28.1667 342.5,13.8333 356.5,-0.5 Z"/></g>
<g><path style="opacity:0.022" fill="#43443f" d="M 376.5,-0.5 C 378.167,-0.5 379.833,-0.5 381.5,-0.5C 367.5,13.8333 353.5,28.1667 339.5,42.5C 337.833,42.5 336.167,42.5 334.5,42.5C 348.5,28.1667 362.5,13.8333 376.5,-0.5 Z"/></g>
<g><path style="opacity:0.022" fill="#43443f" d="M 396.5,-0.5 C 398.167,-0.5 399.833,-0.5 401.5,-0.5C 387.5,13.8333 373.5,28.1667 359.5,42.5C 357.833,42.5 356.167,42.5 354.5,42.5C 368.5,28.1667 382.5,13.8333 396.5,-0.5 Z"/></g>
<g><path style="opacity:0.022" fill="#43443f" d="M 416.5,-0.5 C 418.167,-0.5 419.833,-0.5 421.5,-0.5C 407.5,13.8333 393.5,28.1667 379.5,42.5C 377.833,42.5 376.167,42.5 374.5,42.5C 388.5,28.1667 402.5,13.8333 416.5,-0.5 Z"/></g>
<g><path style="opacity:0.022" fill="#43443f" d="M 436.5,-0.5 C 438.167,-0.5 439.833,-0.5 441.5,-0.5C 427.5,13.8333 413.5,28.1667 399.5,42.5C 397.833,42.5 396.167,42.5 394.5,42.5C 408.5,28.1667 422.5,13.8333 436.5,-0.5 Z"/></g>
<g><path style="opacity:0.022" fill="#43443f" d="M 456.5,-0.5 C 458.167,-0.5 459.833,-0.5 461.5,-0.5C 447.5,13.8333 433.5,28.1667 419.5,42.5C 417.833,42.5 416.167,42.5 414.5,42.5C 428.5,28.1667 442.5,13.8333 456.5,-0.5 Z"/></g>
<g><path style="opacity:0.022" fill="#43443f" d="M 476.5,-0.5 C 478.167,-0.5 479.833,-0.5 481.5,-0.5C 467.5,13.8333 453.5,28.1667 439.5,42.5C 437.833,42.5 436.167,42.5 434.5,42.5C 448.5,28.1667 462.5,13.8333 476.5,-0.5 Z"/></g>
<g><path style="opacity:0.022" fill="#43443f" d="M 496.5,-0.5 C 498.167,-0.5 499.833,-0.5 501.5,-0.5C 487.5,13.8333 473.5,28.1667 459.5,42.5C 457.833,42.5 456.167,42.5 454.5,42.5C 468.5,28.1667 482.5,13.8333 496.5,-0.5 Z"/></g>
<g><path style="opacity:0.022" fill="#43443f" d="M 511.5,5.5 C 511.5,7.16667 511.5,8.83333 511.5,10.5C 497.167,24.5 482.833,38.5 468.5,52.5C 468.5,50.8333 468.5,49.1667 468.5,47.5C 482.833,33.5 497.167,19.5 511.5,5.5 Z"/></g>
<g><path style="opacity:0.022" fill="#43443f" d="M 511.5,25.5 C 511.5,27.1667 511.5,28.8333 511.5,30.5C 497.167,44.5 482.833,58.5 468.5,72.5C 468.5,70.8333 468.5,69.1667 468.5,67.5C 482.833,53.5 497.167,39.5 511.5,25.5 Z"/></g>
<g><path style="opacity:0.996" fill="#c2d82e" d="M 54.5,42.5 C 56.1667,42.5 57.8333,42.5 59.5,42.5C 64.5,42.5 69.5,42.5 74.5,42.5C 76.1667,42.5 77.8333,42.5 79.5,42.5C 84.5,42.5 89.5,42.5 94.5,42.5C 96.1667,42.5 97.8333,42.5 99.5,42.5C 104.5,42.5 109.5,42.5 114.5,42.5C 116.167,42.5 117.833,42.5 119.5,42.5C 124.5,42.5 129.5,42.5 134.5,42.5C 136.167,42.5 137.833,42.5 139.5,42.5C 144.5,42.5 149.5,42.5 154.5,42.5C 156.167,42.5 157.833,42.5 159.5,42.5C 164.5,42.5 169.5,42.5 174.5,42.5C 176.167,42.5 177.833,42.5 179.5,42.5C 184.5,42.5 189.5,42.5 194.5,42.5C 196.167,42.5 197.833,42.5 199.5,42.5C 204.5,42.5 209.5,42.5 214.5,42.5C 216.167,42.5 217.833,42.5 219.5,42.5C 224.5,42.5 229.5,42.5 234.5,42.5C 236.167,42.5 237.833,42.5 239.5,42.5C 244.5,42.5 249.5,42.5 254.5,42.5C 256.167,42.5 257.833,42.5 259.5,42.5C 264.5,42.5 269.5,42.5 274.5,42.5C 276.167,42.5 277.833,42.5 279.5,42.5C 284.5,42.5 289.5,42.5 294.5,42.5C 296.167,42.5 297.833,42.5 299.5,42.5C 304.5,42.5 309.5,42.5 314.5,42.5C 316.167,42.5 317.833,42.5 319.5,42.5C 324.5,42.5 329.5,42.5 334.5,42.5C 336.167,42.5 337.833,42.5 339.5,42.5C 344.5,42.5 349.5,42.5 354.5,42.5C 356.167,42.5 357.833,42.5 359.5,42.5C 364.5,42.5 369.5,42.5 374.5,42.5C 376.167,42.5 377.833,42.5 379.5,42.5C 384.5,42.5 389.5,42.5 394.5,42.5C 396.167,42.5 397.833,42.5 399.5,42.5C 404.5,42.5 409.5,42.5 414.5,42.5C 416.167,42.5 417.833,42.5 419.5,42.5C 424.5,42.5 429.5,42.5 434.5,42.5C 436.167,42.5 437.833,42.5 439.5,42.5C 444.5,42.5 449.5,42.5 454.5,42.5C 456.167,42.5 457.833,42.5 459.5,42.5C 462.5,42.5 465.5,42.5 468.5,42.5C 468.5,44.1667 468.5,45.8333 468.5,47.5C 468.5,49.1667 468.5,50.8333 468.5,52.5C 468.5,57.5 468.5,62.5 468.5,67.5C 468.5,69.1667 468.5,70.8333 468.5,72.5C 468.5,77.5 468.5,82.5 468.5,87.5C 468.5,89.1667 468.5,90.8333 468.5,92.5C 468.5,97.5 468.5,102.5 468.5,107.5C 468.5,109.167 468.5,110.833 468.5,112.5C 468.5,115.833 468.5,119.167 468.5,122.5C 465.167,122.5 461.833,122.5 458.5,122.5C 456.833,122.5 455.167,122.5 453.5,122.5C 448.5,122.5 443.5,122.5 438.5,122.5C 436.833,122.5 435.167,122.5 433.5,122.5C 428.5,122.5 423.5,122.5 418.5,122.5C 416.833,122.5 415.167,122.5 413.5,122.5C 408.5,122.5 403.5,122.5 398.5,122.5C 396.833,122.5 395.167,122.5 393.5,122.5C 388.5,122.5 383.5,122.5 378.5,122.5C 376.833,122.5 375.167,122.5 373.5,122.5C 368.5,122.5 363.5,122.5 358.5,122.5C 356.833,122.5 355.167,122.5 353.5,122.5C 348.5,122.5 343.5,122.5 338.5,122.5C 336.833,122.5 335.167,122.5 333.5,122.5C 328.5,122.5 323.5,122.5 318.5,122.5C 316.833,122.5 315.167,122.5 313.5,122.5C 308.5,122.5 303.5,122.5 298.5,122.5C 296.833,122.5 295.167,122.5 293.5,122.5C 288.5,122.5 283.5,122.5 278.5,122.5C 276.833,122.5 275.167,122.5 273.5,122.5C 268.5,122.5 263.5,122.5 258.5,122.5C 256.833,122.5 255.167,122.5 253.5,122.5C 248.5,122.5 243.5,122.5 238.5,122.5C 236.833,122.5 235.167,122.5 233.5,122.5C 228.5,122.5 223.5,122.5 218.5,122.5C 216.833,122.5 215.167,122.5 213.5,122.5C 208.5,122.5 203.5,122.5 198.5,122.5C 196.833,122.5 195.167,122.5 193.5,122.5C 188.5,122.5 183.5,122.5 178.5,122.5C 176.833,122.5 175.167,122.5 173.5,122.5C 168.5,122.5 163.5,122.5 158.5,122.5C 156.833,122.5 155.167,122.5 153.5,122.5C 148.5,122.5 143.5,122.5 138.5,122.5C 136.833,122.5 135.167,122.5 133.5,122.5C 128.5,122.5 123.5,122.5 118.5,122.5C 116.833,122.5 115.167,122.5 113.5,122.5C 108.5,122.5 103.5,122.5 98.5,122.5C 96.8333,122.5 95.1667,122.5 93.5,122.5C 88.5,122.5 83.5,122.5 78.5,122.5C 76.8333,122.5 75.1667,122.5 73.5,122.5C 68.5,122.5 63.5,122.5 58.5,122.5C 56.8333,122.5 55.1667,122.5 53.5,122.5C 49.8333,122.5 46.1667,122.5 42.5,122.5C 42.5,121.5 42.5,120.5 42.5,119.5C 42.5,117.833 42.5,116.167 42.5,114.5C 42.5,109.5 42.5,104.5 42.5,99.5C 42.5,97.8333 42.5,96.1667 42.5,94.5C 42.5,89.5 42.5,84.5 42.5,79.5C 42.5,77.8333 42.5,76.1667 42.5,74.5C 42.5,69.5 42.5,64.5 42.5,59.5C 42.5,57.8333 42.5,56.1667 42.5,54.5C 42.5,50.5 42.5,46.5 42.5,42.5C 46.5,42.5 50.5,42.5 54.5,42.5 Z"/></g>
<g><path style="opacity:0.022" fill="#43443f" d="M 511.5,45.5 C 511.5,47.1667 511.5,48.8333 511.5,50.5C 497.167,64.5 482.833,78.5 468.5,92.5C 468.5,90.8333 468.5,89.1667 468.5,87.5C 482.833,73.5 497.167,59.5 511.5,45.5 Z"/></g>
<g><path style="opacity:0.022" fill="#43443f" d="M 42.5,54.5 C 42.5,56.1667 42.5,57.8333 42.5,59.5C 28.1667,73.5 13.8333,87.5 -0.5,101.5C -0.5,99.8333 -0.5,98.1667 -0.5,96.5C 13.8333,82.5 28.1667,68.5 42.5,54.5 Z"/></g>
<g><path style="opacity:0.022" fill="#43443f" d="M 511.5,65.5 C 511.5,67.1667 511.5,68.8333 511.5,70.5C 497.167,84.5 482.833,98.5 468.5,112.5C 468.5,110.833 468.5,109.167 468.5,107.5C 482.833,93.5 497.167,79.5 511.5,65.5 Z"/></g>
<g><path style="opacity:0.022" fill="#43443f" d="M 42.5,74.5 C 42.5,76.1667 42.5,77.8333 42.5,79.5C 28.1667,93.5 13.8333,107.5 -0.5,121.5C -0.5,119.833 -0.5,118.167 -0.5,116.5C 13.8333,102.5 28.1667,88.5 42.5,74.5 Z"/></g>
<g><path style="opacity:0.022" fill="#43443f" d="M 511.5,85.5 C 511.5,87.1667 511.5,88.8333 511.5,90.5C 468.833,132.833 426.167,175.167 383.5,217.5C 383.5,215.833 383.5,214.167 383.5,212.5C 426.167,170.167 468.833,127.833 511.5,85.5 Z"/></g>
<g><path style="opacity:0.022" fill="#43443f" d="M 42.5,94.5 C 42.5,96.1667 42.5,97.8333 42.5,99.5C 28.1667,113.5 13.8333,127.5 -0.5,141.5C -0.5,139.833 -0.5,138.167 -0.5,136.5C 13.8333,122.5 28.1667,108.5 42.5,94.5 Z"/></g>
<g><path style="opacity:0.022" fill="#43443f" d="M 511.5,105.5 C 511.5,107.167 511.5,108.833 511.5,110.5C 468.833,152.833 426.167,195.167 383.5,237.5C 383.5,235.833 383.5,234.167 383.5,232.5C 426.167,190.167 468.833,147.833 511.5,105.5 Z"/></g>
<g><path style="opacity:0.022" fill="#43443f" d="M 42.5,114.5 C 42.5,116.167 42.5,117.833 42.5,119.5C 28.1667,133.5 13.8333,147.5 -0.5,161.5C -0.5,159.833 -0.5,158.167 -0.5,156.5C 13.8333,142.5 28.1667,128.5 42.5,114.5 Z"/></g>
<g><path style="opacity:0.022" fill="#43443f" d="M 53.5,122.5 C 55.1667,122.5 56.8333,122.5 58.5,122.5C 39.1667,142.5 19.5,162.167 -0.5,181.5C -0.5,179.833 -0.5,178.167 -0.5,176.5C 17.8333,158.833 35.8333,140.833 53.5,122.5 Z"/></g>
<g><path style="opacity:0.022" fill="#43443f" d="M 73.5,122.5 C 75.1667,122.5 76.8333,122.5 78.5,122.5C 52.5,149.167 26.1667,175.5 -0.5,201.5C -0.5,199.833 -0.5,198.167 -0.5,196.5C 24.5,172.167 49.1667,147.5 73.5,122.5 Z"/></g>
<g><path style="opacity:0.022" fill="#43443f" d="M 93.5,122.5 C 95.1667,122.5 96.8333,122.5 98.5,122.5C 85.8333,135.5 73.1667,148.5 60.5,161.5C 58.8333,161.5 57.1667,161.5 55.5,161.5C 68.1667,148.5 80.8333,135.5 93.5,122.5 Z"/></g>
<g><path style="opacity:0.022" fill="#43443f" d="M 113.5,122.5 C 115.167,122.5 116.833,122.5 118.5,122.5C 105.833,135.5 93.1667,148.5 80.5,161.5C 78.8333,161.5 77.1667,161.5 75.5,161.5C 88.1667,148.5 100.833,135.5 113.5,122.5 Z"/></g>
<g><path style="opacity:0.022" fill="#43443f" d="M 133.5,122.5 C 135.167,122.5 136.833,122.5 138.5,122.5C 125.833,135.5 113.167,148.5 100.5,161.5C 98.8333,161.5 97.1667,161.5 95.5,161.5C 108.167,148.5 120.833,135.5 133.5,122.5 Z"/></g>
<g><path style="opacity:0.022" fill="#43443f" d="M 153.5,122.5 C 155.167,122.5 156.833,122.5 158.5,122.5C 145.833,135.5 133.167,148.5 120.5,161.5C 118.833,161.5 117.167,161.5 115.5,161.5C 128.167,148.5 140.833,135.5 153.5,122.5 Z"/></g>
<g><path style="opacity:0.022" fill="#43443f" d="M 173.5,122.5 C 175.167,122.5 176.833,122.5 178.5,122.5C 165.833,135.5 153.167,148.5 140.5,161.5C 138.833,161.5 137.167,161.5 135.5,161.5C 148.167,148.5 160.833,135.5 173.5,122.5 Z"/></g>
<g><path style="opacity:0.022" fill="#43443f" d="M 193.5,122.5 C 195.167,122.5 196.833,122.5 198.5,122.5C 185.833,135.5 173.167,148.5 160.5,161.5C 158.833,161.5 157.167,161.5 155.5,161.5C 168.167,148.5 180.833,135.5 193.5,122.5 Z"/></g>
<g><path style="opacity:0.022" fill="#43443f" d="M 213.5,122.5 C 215.167,122.5 216.833,122.5 218.5,122.5C 205.833,135.5 193.167,148.5 180.5,161.5C 178.833,161.5 177.167,161.5 175.5,161.5C 188.167,148.5 200.833,135.5 213.5,122.5 Z"/></g>
<g><path style="opacity:0.022" fill="#43443f" d="M 233.5,122.5 C 235.167,122.5 236.833,122.5 238.5,122.5C 225.833,135.5 213.167,148.5 200.5,161.5C 198.833,161.5 197.167,161.5 195.5,161.5C 208.167,148.5 220.833,135.5 233.5,122.5 Z"/></g>
<g><path style="opacity:0.022" fill="#43443f" d="M 253.5,122.5 C 255.167,122.5 256.833,122.5 258.5,122.5C 245.833,135.5 233.167,148.5 220.5,161.5C 218.833,161.5 217.167,161.5 215.5,161.5C 228.167,148.5 240.833,135.5 253.5,122.5 Z"/></g>
<g><path style="opacity:0.022" fill="#43443f" d="M 273.5,122.5 C 275.167,122.5 276.833,122.5 278.5,122.5C 265.833,135.5 253.167,148.5 240.5,161.5C 238.833,161.5 237.167,161.5 235.5,161.5C 248.167,148.5 260.833,135.5 273.5,122.5 Z"/></g>
<g><path style="opacity:0.022" fill="#43443f" d="M 293.5,122.5 C 295.167,122.5 296.833,122.5 298.5,122.5C 285.833,135.5 273.167,148.5 260.5,161.5C 258.833,161.5 257.167,161.5 255.5,161.5C 268.167,148.5 280.833,135.5 293.5,122.5 Z"/></g>
<g><path style="opacity:0.022" fill="#43443f" d="M 313.5,122.5 C 315.167,122.5 316.833,122.5 318.5,122.5C 305.833,135.5 293.167,148.5 280.5,161.5C 278.833,161.5 277.167,161.5 275.5,161.5C 288.167,148.5 300.833,135.5 313.5,122.5 Z"/></g>
<g><path style="opacity:0.022" fill="#43443f" d="M 333.5,122.5 C 335.167,122.5 336.833,122.5 338.5,122.5C 325.833,135.5 313.167,148.5 300.5,161.5C 298.833,161.5 297.167,161.5 295.5,161.5C 308.167,148.5 320.833,135.5 333.5,122.5 Z"/></g>
<g><path style="opacity:0.022" fill="#43443f" d="M 353.5,122.5 C 355.167,122.5 356.833,122.5 358.5,122.5C 345.833,135.5 333.167,148.5 320.5,161.5C 318.833,161.5 317.167,161.5 315.5,161.5C 328.167,148.5 340.833,135.5 353.5,122.5 Z"/></g>
<g><path style="opacity:0.022" fill="#43443f" d="M 373.5,122.5 C 375.167,122.5 376.833,122.5 378.5,122.5C 365.833,135.5 353.167,148.5 340.5,161.5C 338.833,161.5 337.167,161.5 335.5,161.5C 348.167,148.5 360.833,135.5 373.5,122.5 Z"/></g>
<g><path style="opacity:0.022" fill="#43443f" d="M 393.5,122.5 C 395.167,122.5 396.833,122.5 398.5,122.5C 385.833,135.5 373.167,148.5 360.5,161.5C 358.833,161.5 357.167,161.5 355.5,161.5C 368.167,148.5 380.833,135.5 393.5,122.5 Z"/></g>
<g><path style="opacity:0.022" fill="#43443f" d="M 413.5,122.5 C 415.167,122.5 416.833,122.5 418.5,122.5C 405.833,135.5 393.167,148.5 380.5,161.5C 378.833,161.5 377.167,161.5 375.5,161.5C 388.167,148.5 400.833,135.5 413.5,122.5 Z"/></g>
<g><path style="opacity:0.022" fill="#43443f" d="M 433.5,122.5 C 435.167,122.5 436.833,122.5 438.5,122.5C 420.5,141.167 402.167,159.5 383.5,177.5C 383.5,175.833 383.5,174.167 383.5,172.5C 400.5,156.167 417.167,139.5 433.5,122.5 Z"/></g>
<g><path style="opacity:0.022" fill="#43443f" d="M 453.5,122.5 C 455.167,122.5 456.833,122.5 458.5,122.5C 433.833,147.833 408.833,172.833 383.5,197.5C 383.5,195.833 383.5,194.167 383.5,192.5C 407.167,169.5 430.5,146.167 453.5,122.5 Z"/></g>
<g><path style="opacity:0.022" fill="#43443f" d="M 511.5,125.5 C 511.5,127.167 511.5,128.833 511.5,130.5C 440.5,201.167 369.5,271.833 298.5,342.5C 298.5,340.833 298.5,339.167 298.5,337.5C 369.5,266.833 440.5,196.167 511.5,125.5 Z"/></g>
<g><path style="opacity:0.022" fill="#43443f" d="M 511.5,145.5 C 511.5,147.167 511.5,148.833 511.5,150.5C 411.833,249.833 312.167,349.167 212.5,448.5C 212.5,446.833 212.5,445.167 212.5,443.5C 240.833,415.833 268.833,387.833 296.5,359.5C 297.833,359.5 298.5,358.833 298.5,357.5C 369.5,286.833 440.5,216.167 511.5,145.5 Z"/></g>
<g><path style="opacity:1" fill="#c2d82e" d="M 55.5,161.5 C 57.1667,161.5 58.8333,161.5 60.5,161.5C 65.5,161.5 70.5,161.5 75.5,161.5C 77.1667,161.5 78.8333,161.5 80.5,161.5C 85.5,161.5 90.5,161.5 95.5,161.5C 97.1667,161.5 98.8333,161.5 100.5,161.5C 105.5,161.5 110.5,161.5 115.5,161.5C 117.167,161.5 118.833,161.5 120.5,161.5C 125.5,161.5 130.5,161.5 135.5,161.5C 137.167,161.5 138.833,161.5 140.5,161.5C 145.5,161.5 150.5,161.5 155.5,161.5C 157.167,161.5 158.833,161.5 160.5,161.5C 165.5,161.5 170.5,161.5 175.5,161.5C 177.167,161.5 178.833,161.5 180.5,161.5C 185.5,161.5 190.5,161.5 195.5,161.5C 197.167,161.5 198.833,161.5 200.5,161.5C 205.5,161.5 210.5,161.5 215.5,161.5C 217.167,161.5 218.833,161.5 220.5,161.5C 225.5,161.5 230.5,161.5 235.5,161.5C 237.167,161.5 238.833,161.5 240.5,161.5C 245.5,161.5 250.5,161.5 255.5,161.5C 257.167,161.5 258.833,161.5 260.5,161.5C 265.5,161.5 270.5,161.5 275.5,161.5C 277.167,161.5 278.833,161.5 280.5,161.5C 285.5,161.5 290.5,161.5 295.5,161.5C 297.167,161.5 298.833,161.5 300.5,161.5C 305.5,161.5 310.5,161.5 315.5,161.5C 317.167,161.5 318.833,161.5 320.5,161.5C 325.5,161.5 330.5,161.5 335.5,161.5C 337.167,161.5 338.833,161.5 340.5,161.5C 345.5,161.5 350.5,161.5 355.5,161.5C 357.167,161.5 358.833,161.5 360.5,161.5C 365.5,161.5 370.5,161.5 375.5,161.5C 377.167,161.5 378.833,161.5 380.5,161.5C 381.5,161.5 382.5,161.5 383.5,161.5C 383.5,165.167 383.5,168.833 383.5,172.5C 383.5,174.167 383.5,175.833 383.5,177.5C 383.5,182.5 383.5,187.5 383.5,192.5C 383.5,194.167 383.5,195.833 383.5,197.5C 383.5,202.5 383.5,207.5 383.5,212.5C 383.5,214.167 383.5,215.833 383.5,217.5C 383.5,222.5 383.5,227.5 383.5,232.5C 383.5,234.167 383.5,235.833 383.5,237.5C 383.5,238.5 383.5,239.5 383.5,240.5C 382.5,240.5 381.5,240.5 380.5,240.5C 378.833,240.5 377.167,240.5 375.5,240.5C 370.5,240.5 365.5,240.5 360.5,240.5C 358.833,240.5 357.167,240.5 355.5,240.5C 350.5,240.5 345.5,240.5 340.5,240.5C 338.833,240.5 337.167,240.5 335.5,240.5C 330.5,240.5 325.5,240.5 320.5,240.5C 318.833,240.5 317.167,240.5 315.5,240.5C 310.5,240.5 305.5,240.5 300.5,240.5C 298.833,240.5 297.167,240.5 295.5,240.5C 290.5,240.5 285.5,240.5 280.5,240.5C 278.833,240.5 277.167,240.5 275.5,240.5C 270.5,240.5 265.5,240.5 260.5,240.5C 258.833,240.5 257.167,240.5 255.5,240.5C 250.5,240.5 245.5,240.5 240.5,240.5C 238.833,240.5 237.167,240.5 235.5,240.5C 230.5,240.5 225.5,240.5 220.5,240.5C 218.833,240.5 217.167,240.5 215.5,240.5C 210.5,240.5 205.5,240.5 200.5,240.5C 198.833,240.5 197.167,240.5 195.5,240.5C 190.5,240.5 185.5,240.5 180.5,240.5C 178.833,240.5 177.167,240.5 175.5,240.5C 170.5,240.5 165.5,240.5 160.5,240.5C 158.833,240.5 157.167,240.5 155.5,240.5C 150.5,240.5 145.5,240.5 140.5,240.5C 138.833,240.5 137.167,240.5 135.5,240.5C 130.5,240.5 125.5,240.5 120.5,240.5C 118.833,240.5 117.167,240.5 115.5,240.5C 110.5,240.5 105.5,240.5 100.5,240.5C 98.8333,240.5 97.1667,240.5 95.5,240.5C 90.5,240.5 85.5,240.5 80.5,240.5C 78.8333,240.5 77.1667,240.5 75.5,240.5C 70.5,240.5 65.5,240.5 60.5,240.5C 58.8333,240.5 57.1667,240.5 55.5,240.5C 50.9677,240.818 46.6344,240.485 42.5,239.5C 42.5,237.833 42.5,236.167 42.5,234.5C 42.5,229.5 42.5,224.5 42.5,219.5C 42.5,217.833 42.5,216.167 42.5,214.5C 42.5,209.5 42.5,204.5 42.5,199.5C 42.5,197.833 42.5,196.167 42.5,194.5C 42.5,189.5 42.5,184.5 42.5,179.5C 42.5,177.833 42.5,176.167 42.5,174.5C 42.5,170.167 42.5,165.833 42.5,161.5C 46.8333,161.5 51.1667,161.5 55.5,161.5 Z"/></g>
<g><path style="opacity:0.022" fill="#43443f" d="M 511.5,165.5 C 511.5,167.167 511.5,168.833 511.5,170.5C 411.833,269.833 312.167,369.167 212.5,468.5C 212.5,466.833 212.5,465.167 212.5,463.5C 312.167,364.167 411.833,264.833 511.5,165.5 Z"/></g>
<g><path style="opacity:0.022" fill="#43443f" d="M 42.5,174.5 C 42.5,176.167 42.5,177.833 42.5,179.5C 28.1667,193.5 13.8333,207.5 -0.5,221.5C -0.5,219.833 -0.5,218.167 -0.5,216.5C 13.8333,202.5 28.1667,188.5 42.5,174.5 Z"/></g>
<g><path style="opacity:0.022" fill="#43443f" d="M 511.5,185.5 C 511.5,187.167 511.5,188.833 511.5,190.5C 404.167,297.167 297.167,404.167 190.5,511.5C 188.833,511.5 187.167,511.5 185.5,511.5C 293.833,402.5 402.5,293.833 511.5,185.5 Z"/></g>
<g><path style="opacity:0.022" fill="#43443f" d="M 42.5,194.5 C 42.5,196.167 42.5,197.833 42.5,199.5C 28.1667,213.5 13.8333,227.5 -0.5,241.5C -0.5,239.833 -0.5,238.167 -0.5,236.5C 13.8333,222.5 28.1667,208.5 42.5,194.5 Z"/></g>
<g><path style="opacity:0.022" fill="#43443f" d="M 511.5,205.5 C 511.5,207.167 511.5,208.833 511.5,210.5C 410.833,310.5 310.5,410.833 210.5,511.5C 208.833,511.5 207.167,511.5 205.5,511.5C 307.167,409.167 409.167,307.167 511.5,205.5 Z"/></g>
<g><path style="opacity:0.022" fill="#43443f" d="M 42.5,214.5 C 42.5,216.167 42.5,217.833 42.5,219.5C 28.1667,233.5 13.8333,247.5 -0.5,261.5C -0.5,259.833 -0.5,258.167 -0.5,256.5C 13.8333,242.5 28.1667,228.5 42.5,214.5 Z"/></g>
<g><path style="opacity:0.022" fill="#43443f" d="M 511.5,225.5 C 511.5,227.167 511.5,228.833 511.5,230.5C 417.5,323.833 323.833,417.5 230.5,511.5C 228.833,511.5 227.167,511.5 225.5,511.5C 320.5,415.833 415.833,320.5 511.5,225.5 Z"/></g>
<g><path style="opacity:0.022" fill="#43443f" d="M 42.5,234.5 C 42.5,236.167 42.5,237.833 42.5,239.5C 28.1667,253.5 13.8333,267.5 -0.5,281.5C -0.5,279.833 -0.5,278.167 -0.5,276.5C 13.8333,262.5 28.1667,248.5 42.5,234.5 Z"/></g>
<g><path style="opacity:0.022" fill="#43443f" d="M 55.5,240.5 C 57.1667,240.5 58.8333,240.5 60.5,240.5C 40.5,261.167 20.1667,281.5 -0.5,301.5C -0.5,299.833 -0.5,298.167 -0.5,296.5C 18.5,278.167 37.1667,259.5 55.5,240.5 Z"/></g>
<g><path style="opacity:0.022" fill="#43443f" d="M 75.5,240.5 C 77.1667,240.5 78.8333,240.5 80.5,240.5C 53.8333,267.833 26.8333,294.833 -0.5,321.5C -0.5,319.833 -0.5,318.167 -0.5,316.5C 25.1667,291.5 50.5,266.167 75.5,240.5 Z"/></g>
<g><path style="opacity:0.022" fill="#43443f" d="M 95.5,240.5 C 97.1667,240.5 98.8333,240.5 100.5,240.5C 87.5,253.833 74.5,267.167 61.5,280.5C 59.8333,280.5 58.1667,280.5 56.5,280.5C 69.5,267.167 82.5,253.833 95.5,240.5 Z"/></g>
<g><path style="opacity:0.022" fill="#43443f" d="M 115.5,240.5 C 117.167,240.5 118.833,240.5 120.5,240.5C 107.5,253.833 94.5,267.167 81.5,280.5C 79.8333,280.5 78.1667,280.5 76.5,280.5C 89.5,267.167 102.5,253.833 115.5,240.5 Z"/></g>
<g><path style="opacity:0.022" fill="#43443f" d="M 135.5,240.5 C 137.167,240.5 138.833,240.5 140.5,240.5C 127.5,253.833 114.5,267.167 101.5,280.5C 99.8333,280.5 98.1667,280.5 96.5,280.5C 109.5,267.167 122.5,253.833 135.5,240.5 Z"/></g>
<g><path style="opacity:0.022" fill="#43443f" d="M 155.5,240.5 C 157.167,240.5 158.833,240.5 160.5,240.5C 147.5,253.833 134.5,267.167 121.5,280.5C 119.833,280.5 118.167,280.5 116.5,280.5C 129.5,267.167 142.5,253.833 155.5,240.5 Z"/></g>
<g><path style="opacity:0.022" fill="#43443f" d="M 175.5,240.5 C 177.167,240.5 178.833,240.5 180.5,240.5C 167.5,253.833 154.5,267.167 141.5,280.5C 139.833,280.5 138.167,280.5 136.5,280.5C 149.5,267.167 162.5,253.833 175.5,240.5 Z"/></g>
<g><path style="opacity:0.022" fill="#43443f" d="M 195.5,240.5 C 197.167,240.5 198.833,240.5 200.5,240.5C 187.5,253.833 174.5,267.167 161.5,280.5C 159.833,280.5 158.167,280.5 156.5,280.5C 169.5,267.167 182.5,253.833 195.5,240.5 Z"/></g>
<g><path style="opacity:0.022" fill="#43443f" d="M 215.5,240.5 C 217.167,240.5 218.833,240.5 220.5,240.5C 207.5,253.833 194.5,267.167 181.5,280.5C 179.833,280.5 178.167,280.5 176.5,280.5C 189.5,267.167 202.5,253.833 215.5,240.5 Z"/></g>
<g><path style="opacity:0.022" fill="#43443f" d="M 235.5,240.5 C 237.167,240.5 238.833,240.5 240.5,240.5C 227.5,253.833 214.5,267.167 201.5,280.5C 199.833,280.5 198.167,280.5 196.5,280.5C 209.5,267.167 222.5,253.833 235.5,240.5 Z"/></g>
<g><path style="opacity:0.022" fill="#43443f" d="M 255.5,240.5 C 257.167,240.5 258.833,240.5 260.5,240.5C 247.5,253.833 234.5,267.167 221.5,280.5C 219.833,280.5 218.167,280.5 216.5,280.5C 229.5,267.167 242.5,253.833 255.5,240.5 Z"/></g>
<g><path style="opacity:0.022" fill="#43443f" d="M 275.5,240.5 C 277.167,240.5 278.833,240.5 280.5,240.5C 267.5,253.833 254.5,267.167 241.5,280.5C 239.833,280.5 238.167,280.5 236.5,280.5C 249.5,267.167 262.5,253.833 275.5,240.5 Z"/></g>
<g><path style="opacity:0.022" fill="#43443f" d="M 295.5,240.5 C 297.167,240.5 298.833,240.5 300.5,240.5C 287.5,253.833 274.5,267.167 261.5,280.5C 259.833,280.5 258.167,280.5 256.5,280.5C 269.5,267.167 282.5,253.833 295.5,240.5 Z"/></g>
<g><path style="opacity:0.022" fill="#43443f" d="M 315.5,240.5 C 317.167,240.5 318.833,240.5 320.5,240.5C 307.5,253.833 294.5,267.167 281.5,280.5C 279.833,280.5 278.167,280.5 276.5,280.5C 289.5,267.167 302.5,253.833 315.5,240.5 Z"/></g>
<g><path style="opacity:0.022" fill="#43443f" d="M 335.5,240.5 C 337.167,240.5 338.833,240.5 340.5,240.5C 326.833,254.833 312.833,268.833 298.5,282.5C 298.5,281.167 297.833,280.5 296.5,280.5C 309.5,267.167 322.5,253.833 335.5,240.5 Z"/></g>
<g><path style="opacity:0.022" fill="#43443f" d="M 355.5,240.5 C 357.167,240.5 358.833,240.5 360.5,240.5C 340.167,261.5 319.5,282.167 298.5,302.5C 298.5,300.833 298.5,299.167 298.5,297.5C 317.833,278.833 336.833,259.833 355.5,240.5 Z"/></g>
<g><path style="opacity:0.022" fill="#43443f" d="M 375.5,240.5 C 377.167,240.5 378.833,240.5 380.5,240.5C 353.5,268.167 326.167,295.5 298.5,322.5C 298.5,320.833 298.5,319.167 298.5,317.5C 324.5,292.167 350.167,266.5 375.5,240.5 Z"/></g>
<g><path style="opacity:0.022" fill="#43443f" d="M 511.5,245.5 C 511.5,247.167 511.5,248.833 511.5,250.5C 424.167,337.167 337.167,424.167 250.5,511.5C 248.833,511.5 247.167,511.5 245.5,511.5C 333.833,422.5 422.5,333.833 511.5,245.5 Z"/></g>
<g><path style="opacity:0.022" fill="#43443f" d="M 511.5,265.5 C 511.5,267.167 511.5,268.833 511.5,270.5C 430.833,350.5 350.5,430.833 270.5,511.5C 268.833,511.5 267.167,511.5 265.5,511.5C 347.167,429.167 429.167,347.167 511.5,265.5 Z"/></g>
<g><path style="opacity:1" fill="#c2d82e" d="M 56.5,280.5 C 58.1667,280.5 59.8333,280.5 61.5,280.5C 66.5,280.5 71.5,280.5 76.5,280.5C 78.1667,280.5 79.8333,280.5 81.5,280.5C 86.5,280.5 91.5,280.5 96.5,280.5C 98.1667,280.5 99.8333,280.5 101.5,280.5C 106.5,280.5 111.5,280.5 116.5,280.5C 118.167,280.5 119.833,280.5 121.5,280.5C 126.5,280.5 131.5,280.5 136.5,280.5C 138.167,280.5 139.833,280.5 141.5,280.5C 146.5,280.5 151.5,280.5 156.5,280.5C 158.167,280.5 159.833,280.5 161.5,280.5C 166.5,280.5 171.5,280.5 176.5,280.5C 178.167,280.5 179.833,280.5 181.5,280.5C 186.5,280.5 191.5,280.5 196.5,280.5C 198.167,280.5 199.833,280.5 201.5,280.5C 206.5,280.5 211.5,280.5 216.5,280.5C 218.167,280.5 219.833,280.5 221.5,280.5C 226.5,280.5 231.5,280.5 236.5,280.5C 238.167,280.5 239.833,280.5 241.5,280.5C 246.5,280.5 251.5,280.5 256.5,280.5C 258.167,280.5 259.833,280.5 261.5,280.5C 266.5,280.5 271.5,280.5 276.5,280.5C 278.167,280.5 279.833,280.5 281.5,280.5C 286.5,280.5 291.5,280.5 296.5,280.5C 297.833,280.5 298.5,281.167 298.5,282.5C 298.5,287.5 298.5,292.5 298.5,297.5C 298.5,299.167 298.5,300.833 298.5,302.5C 298.5,307.5 298.5,312.5 298.5,317.5C 298.5,319.167 298.5,320.833 298.5,322.5C 298.5,327.5 298.5,332.5 298.5,337.5C 298.5,339.167 298.5,340.833 298.5,342.5C 298.5,347.5 298.5,352.5 298.5,357.5C 298.5,358.833 297.833,359.5 296.5,359.5C 291.5,359.5 286.5,359.5 281.5,359.5C 279.833,359.5 278.167,359.5 276.5,359.5C 271.5,359.5 266.5,359.5 261.5,359.5C 259.833,359.5 258.167,359.5 256.5,359.5C 251.5,359.5 246.5,359.5 241.5,359.5C 239.833,359.5 238.167,359.5 236.5,359.5C 231.5,359.5 226.5,359.5 221.5,359.5C 219.833,359.5 218.167,359.5 216.5,359.5C 211.5,359.5 206.5,359.5 201.5,359.5C 199.833,359.5 198.167,359.5 196.5,359.5C 191.5,359.5 186.5,359.5 181.5,359.5C 179.833,359.5 178.167,359.5 176.5,359.5C 171.5,359.5 166.5,359.5 161.5,359.5C 159.833,359.5 158.167,359.5 156.5,359.5C 151.5,359.5 146.5,359.5 141.5,359.5C 139.833,359.5 138.167,359.5 136.5,359.5C 131.5,359.5 126.5,359.5 121.5,359.5C 119.833,359.5 118.167,359.5 116.5,359.5C 111.5,359.5 106.5,359.5 101.5,359.5C 99.8333,359.5 98.1667,359.5 96.5,359.5C 91.5,359.5 86.5,359.5 81.5,359.5C 79.8333,359.5 78.1667,359.5 76.5,359.5C 71.5,359.5 66.5,359.5 61.5,359.5C 59.8333,359.5 58.1667,359.5 56.5,359.5C 51.8333,359.5 47.1667,359.5 42.5,359.5C 42.5,357.833 42.5,356.167 42.5,354.5C 42.5,349.5 42.5,344.5 42.5,339.5C 42.5,337.833 42.5,336.167 42.5,334.5C 42.5,329.5 42.5,324.5 42.5,319.5C 42.5,317.833 42.5,316.167 42.5,314.5C 42.5,309.5 42.5,304.5 42.5,299.5C 42.5,297.833 42.5,296.167 42.5,294.5C 42.5,289.833 42.5,285.167 42.5,280.5C 47.1667,280.5 51.8333,280.5 56.5,280.5 Z"/></g>
<g><path style="opacity:0.022" fill="#43443f" d="M 511.5,285.5 C 511.5,287.167 511.5,288.833 511.5,290.5C 437.5,363.833 363.833,437.5 290.5,511.5C 288.833,511.5 287.167,511.5 285.5,511.5C 360.5,435.833 435.833,360.5 511.5,285.5 Z"/></g>
<g><path style="opacity:0.022" fill="#43443f" d="M 42.5,294.5 C 42.5,296.167 42.5,297.833 42.5,299.5C 28.1667,313.5 13.8333,327.5 -0.5,341.5C -0.5,339.833 -0.5,338.167 -0.5,336.5C 13.8333,322.5 28.1667,308.5 42.5,294.5 Z"/></g>
<g><path style="opacity:0.022" fill="#43443f" d="M 511.5,305.5 C 511.5,307.167 511.5,308.833 511.5,310.5C 444.167,377.167 377.167,444.167 310.5,511.5C 308.833,511.5 307.167,511.5 305.5,511.5C 373.833,442.5 442.5,373.833 511.5,305.5 Z"/></g>
<g><path style="opacity:0.022" fill="#43443f" d="M 42.5,314.5 C 42.5,316.167 42.5,317.833 42.5,319.5C 28.1667,333.5 13.8333,347.5 -0.5,361.5C -0.5,359.833 -0.5,358.167 -0.5,356.5C 13.8333,342.5 28.1667,328.5 42.5,314.5 Z"/></g>
<g><path style="opacity:0.022" fill="#43443f" d="M 511.5,325.5 C 511.5,327.167 511.5,328.833 511.5,330.5C 450.833,390.5 390.5,450.833 330.5,511.5C 328.833,511.5 327.167,511.5 325.5,511.5C 387.167,449.167 449.167,387.167 511.5,325.5 Z"/></g>
<g><path style="opacity:0.022" fill="#43443f" d="M 42.5,334.5 C 42.5,336.167 42.5,337.833 42.5,339.5C 28.1667,353.5 13.8333,367.5 -0.5,381.5C -0.5,379.833 -0.5,378.167 -0.5,376.5C 13.8333,362.5 28.1667,348.5 42.5,334.5 Z"/></g>
<g><path style="opacity:0.022" fill="#43443f" d="M 511.5,345.5 C 511.5,347.167 511.5,348.833 511.5,350.5C 457.5,403.833 403.833,457.5 350.5,511.5C 348.833,511.5 347.167,511.5 345.5,511.5C 400.5,455.833 455.833,400.5 511.5,345.5 Z"/></g>
<g><path style="opacity:0.022" fill="#43443f" d="M 42.5,354.5 C 42.5,356.167 42.5,357.833 42.5,359.5C 28.1667,373.5 13.8333,387.5 -0.5,401.5C -0.5,399.833 -0.5,398.167 -0.5,396.5C 13.8333,382.5 28.1667,368.5 42.5,354.5 Z"/></g>
<g><path style="opacity:0.022" fill="#43443f" d="M 56.5,359.5 C 58.1667,359.5 59.8333,359.5 61.5,359.5C 41.1667,380.5 20.5,401.167 -0.5,421.5C -0.5,419.833 -0.5,418.167 -0.5,416.5C 18.8333,397.833 37.8333,378.833 56.5,359.5 Z"/></g>
<g><path style="opacity:0.022" fill="#43443f" d="M 76.5,359.5 C 78.1667,359.5 79.8333,359.5 81.5,359.5C 71.8333,369.5 62.1667,379.5 52.5,389.5C 50.8333,389.5 49.1667,389.5 47.5,389.5C 57.1667,379.5 66.8333,369.5 76.5,359.5 Z"/></g>
<g><path style="opacity:0.022" fill="#43443f" d="M 96.5,359.5 C 98.1667,359.5 99.8333,359.5 101.5,359.5C 91.8333,369.5 82.1667,379.5 72.5,389.5C 70.8333,389.5 69.1667,389.5 67.5,389.5C 77.1667,379.5 86.8333,369.5 96.5,359.5 Z"/></g>
<g><path style="opacity:0.022" fill="#43443f" d="M 116.5,359.5 C 118.167,359.5 119.833,359.5 121.5,359.5C 111.833,369.5 102.167,379.5 92.5,389.5C 90.8333,389.5 89.1667,389.5 87.5,389.5C 97.1667,379.5 106.833,369.5 116.5,359.5 Z"/></g>
<g><path style="opacity:0.022" fill="#43443f" d="M 136.5,359.5 C 138.167,359.5 139.833,359.5 141.5,359.5C 131.833,369.5 122.167,379.5 112.5,389.5C 110.833,389.5 109.167,389.5 107.5,389.5C 117.167,379.5 126.833,369.5 136.5,359.5 Z"/></g>
<g><path style="opacity:0.022" fill="#43443f" d="M 156.5,359.5 C 158.167,359.5 159.833,359.5 161.5,359.5C 151.833,369.5 142.167,379.5 132.5,389.5C 130.833,389.5 129.167,389.5 127.5,389.5C 137.167,379.5 146.833,369.5 156.5,359.5 Z"/></g>
<g><path style="opacity:0.022" fill="#43443f" d="M 176.5,359.5 C 178.167,359.5 179.833,359.5 181.5,359.5C 171.833,369.5 162.167,379.5 152.5,389.5C 150.833,389.5 149.167,389.5 147.5,389.5C 157.167,379.5 166.833,369.5 176.5,359.5 Z"/></g>
<g><path style="opacity:0.022" fill="#43443f" d="M 196.5,359.5 C 198.167,359.5 199.833,359.5 201.5,359.5C 191.833,369.5 182.167,379.5 172.5,389.5C 170.833,389.5 169.167,389.5 167.5,389.5C 177.167,379.5 186.833,369.5 196.5,359.5 Z"/></g>
<g><path style="opacity:0.022" fill="#43443f" d="M 216.5,359.5 C 218.167,359.5 219.833,359.5 221.5,359.5C 211.833,369.5 202.167,379.5 192.5,389.5C 190.833,389.5 189.167,389.5 187.5,389.5C 197.167,379.5 206.833,369.5 216.5,359.5 Z"/></g>
<g><path style="opacity:0.022" fill="#43443f" d="M 236.5,359.5 C 238.167,359.5 239.833,359.5 241.5,359.5C 231.833,369.5 222.167,379.5 212.5,389.5C 210.833,389.5 209.167,389.5 207.5,389.5C 217.167,379.5 226.833,369.5 236.5,359.5 Z"/></g>
<g><path style="opacity:0.022" fill="#43443f" d="M 256.5,359.5 C 258.167,359.5 259.833,359.5 261.5,359.5C 245.5,376.167 229.167,392.5 212.5,408.5C 212.5,406.833 212.5,405.167 212.5,403.5C 227.5,389.167 242.167,374.5 256.5,359.5 Z"/></g>
<g><path style="opacity:0.022" fill="#43443f" d="M 276.5,359.5 C 278.167,359.5 279.833,359.5 281.5,359.5C 258.833,382.833 235.833,405.833 212.5,428.5C 212.5,426.833 212.5,425.167 212.5,423.5C 234.167,402.5 255.5,381.167 276.5,359.5 Z"/></g>
<g><path style="opacity:0.022" fill="#43443f" d="M 511.5,365.5 C 511.5,367.167 511.5,368.833 511.5,370.5C 464.167,417.167 417.167,464.167 370.5,511.5C 368.833,511.5 367.167,511.5 365.5,511.5C 413.833,462.5 462.5,413.833 511.5,365.5 Z"/></g>
<g><path style="opacity:0.022" fill="#43443f" d="M 511.5,385.5 C 511.5,387.167 511.5,388.833 511.5,390.5C 470.833,430.5 430.5,470.833 390.5,511.5C 388.833,511.5 387.167,511.5 385.5,511.5C 427.167,469.167 469.167,427.167 511.5,385.5 Z"/></g>
<g><path style="opacity:0.998" fill="#c2d82e" d="M 47.5,389.5 C 49.1667,389.5 50.8333,389.5 52.5,389.5C 57.5,389.5 62.5,389.5 67.5,389.5C 69.1667,389.5 70.8333,389.5 72.5,389.5C 77.5,389.5 82.5,389.5 87.5,389.5C 89.1667,389.5 90.8333,389.5 92.5,389.5C 97.5,389.5 102.5,389.5 107.5,389.5C 109.167,389.5 110.833,389.5 112.5,389.5C 117.5,389.5 122.5,389.5 127.5,389.5C 129.167,389.5 130.833,389.5 132.5,389.5C 137.5,389.5 142.5,389.5 147.5,389.5C 149.167,389.5 150.833,389.5 152.5,389.5C 157.5,389.5 162.5,389.5 167.5,389.5C 169.167,389.5 170.833,389.5 172.5,389.5C 177.5,389.5 182.5,389.5 187.5,389.5C 189.167,389.5 190.833,389.5 192.5,389.5C 197.5,389.5 202.5,389.5 207.5,389.5C 209.167,389.5 210.833,389.5 212.5,389.5C 212.5,394.167 212.5,398.833 212.5,403.5C 212.5,405.167 212.5,406.833 212.5,408.5C 212.5,413.5 212.5,418.5 212.5,423.5C 212.5,425.167 212.5,426.833 212.5,428.5C 212.5,433.5 212.5,438.5 212.5,443.5C 212.5,445.167 212.5,446.833 212.5,448.5C 212.5,453.5 212.5,458.5 212.5,463.5C 212.5,465.167 212.5,466.833 212.5,468.5C 212.5,469.167 212.167,469.5 211.5,469.5C 209.833,469.5 208.167,469.5 206.5,469.5C 201.5,469.5 196.5,469.5 191.5,469.5C 189.833,469.5 188.167,469.5 186.5,469.5C 181.5,469.5 176.5,469.5 171.5,469.5C 169.833,469.5 168.167,469.5 166.5,469.5C 161.5,469.5 156.5,469.5 151.5,469.5C 149.833,469.5 148.167,469.5 146.5,469.5C 141.5,469.5 136.5,469.5 131.5,469.5C 129.833,469.5 128.167,469.5 126.5,469.5C 121.5,469.5 116.5,469.5 111.5,469.5C 109.833,469.5 108.167,469.5 106.5,469.5C 101.5,469.5 96.5,469.5 91.5,469.5C 89.8333,469.5 88.1667,469.5 86.5,469.5C 81.5,469.5 76.5,469.5 71.5,469.5C 69.8333,469.5 68.1667,469.5 66.5,469.5C 61.5,469.5 56.5,469.5 51.5,469.5C 49.8333,469.5 48.1667,469.5 46.5,469.5C 45.1667,469.5 43.8333,469.5 42.5,469.5C 42.5,466.167 42.5,462.833 42.5,459.5C 42.5,457.833 42.5,456.167 42.5,454.5C 42.5,449.5 42.5,444.5 42.5,439.5C 42.5,437.833 42.5,436.167 42.5,434.5C 42.5,429.5 42.5,424.5 42.5,419.5C 42.5,417.833 42.5,416.167 42.5,414.5C 42.5,409.5 42.5,404.5 42.5,399.5C 42.5,397.833 42.5,396.167 42.5,394.5C 42.5,392.833 42.5,391.167 42.5,389.5C 44.1667,389.5 45.8333,389.5 47.5,389.5 Z"/></g>
<g><path style="opacity:0.022" fill="#43443f" d="M 42.5,394.5 C 42.5,396.167 42.5,397.833 42.5,399.5C 28.1667,413.5 13.8333,427.5 -0.5,441.5C -0.5,439.833 -0.5,438.167 -0.5,436.5C 13.8333,422.5 28.1667,408.5 42.5,394.5 Z"/></g>
<g><path style="opacity:0.022" fill="#43443f" d="M 511.5,405.5 C 511.5,407.167 511.5,408.833 511.5,410.5C 477.5,443.833 443.833,477.5 410.5,511.5C 408.833,511.5 407.167,511.5 405.5,511.5C 440.5,475.833 475.833,440.5 511.5,405.5 Z"/></g>
<g><path style="opacity:0.022" fill="#43443f" d="M 42.5,414.5 C 42.5,416.167 42.5,417.833 42.5,419.5C 28.1667,433.5 13.8333,447.5 -0.5,461.5C -0.5,459.833 -0.5,458.167 -0.5,456.5C 13.8333,442.5 28.1667,428.5 42.5,414.5 Z"/></g>
<g><path style="opacity:0.022" fill="#43443f" d="M 511.5,425.5 C 511.5,427.167 511.5,428.833 511.5,430.5C 484.167,457.167 457.167,484.167 430.5,511.5C 428.833,511.5 427.167,511.5 425.5,511.5C 453.833,482.5 482.5,453.833 511.5,425.5 Z"/></g>
<g><path style="opacity:0.022" fill="#43443f" d="M 42.5,434.5 C 42.5,436.167 42.5,437.833 42.5,439.5C 28.1667,453.5 13.8333,467.5 -0.5,481.5C -0.5,479.833 -0.5,478.167 -0.5,476.5C 13.8333,462.5 28.1667,448.5 42.5,434.5 Z"/></g>
<g><path style="opacity:0.022" fill="#43443f" d="M 511.5,445.5 C 511.5,447.167 511.5,448.833 511.5,450.5C 490.833,470.5 470.5,490.833 450.5,511.5C 448.833,511.5 447.167,511.5 445.5,511.5C 467.167,489.167 489.167,467.167 511.5,445.5 Z"/></g>
<g><path style="opacity:0.022" fill="#43443f" d="M 42.5,454.5 C 42.5,456.167 42.5,457.833 42.5,459.5C 28.1667,473.5 13.8333,487.5 -0.5,501.5C -0.5,499.833 -0.5,498.167 -0.5,496.5C 13.8333,482.5 28.1667,468.5 42.5,454.5 Z"/></g>
<g><path style="opacity:0.022" fill="#43443f" d="M 511.5,465.5 C 511.5,467.167 511.5,468.833 511.5,470.5C 497.5,483.833 483.833,497.5 470.5,511.5C 468.833,511.5 467.167,511.5 465.5,511.5C 480.5,495.833 495.833,480.5 511.5,465.5 Z"/></g>
<g><path style="opacity:0.022" fill="#43443f" d="M 46.5,469.5 C 48.1667,469.5 49.8333,469.5 51.5,469.5C 37.8333,483.5 24.1667,497.5 10.5,511.5C 8.83333,511.5 7.16667,511.5 5.5,511.5C 19.1667,497.5 32.8333,483.5 46.5,469.5 Z"/></g>
<g><path style="opacity:0.022" fill="#43443f" d="M 66.5,469.5 C 68.1667,469.5 69.8333,469.5 71.5,469.5C 57.8333,483.5 44.1667,497.5 30.5,511.5C 28.8333,511.5 27.1667,511.5 25.5,511.5C 39.1667,497.5 52.8333,483.5 66.5,469.5 Z"/></g>
<g><path style="opacity:0.022" fill="#43443f" d="M 86.5,469.5 C 88.1667,469.5 89.8333,469.5 91.5,469.5C 77.8333,483.5 64.1667,497.5 50.5,511.5C 48.8333,511.5 47.1667,511.5 45.5,511.5C 59.1667,497.5 72.8333,483.5 86.5,469.5 Z"/></g>
<g><path style="opacity:0.022" fill="#43443f" d="M 106.5,469.5 C 108.167,469.5 109.833,469.5 111.5,469.5C 97.8333,483.5 84.1667,497.5 70.5,511.5C 68.8333,511.5 67.1667,511.5 65.5,511.5C 79.1667,497.5 92.8333,483.5 106.5,469.5 Z"/></g>
<g><path style="opacity:0.022" fill="#43443f" d="M 126.5,469.5 C 128.167,469.5 129.833,469.5 131.5,469.5C 117.833,483.5 104.167,497.5 90.5,511.5C 88.8333,511.5 87.1667,511.5 85.5,511.5C 99.1667,497.5 112.833,483.5 126.5,469.5 Z"/></g>
<g><path style="opacity:0.022" fill="#43443f" d="M 146.5,469.5 C 148.167,469.5 149.833,469.5 151.5,469.5C 137.833,483.5 124.167,497.5 110.5,511.5C 108.833,511.5 107.167,511.5 105.5,511.5C 119.167,497.5 132.833,483.5 146.5,469.5 Z"/></g>
<g><path style="opacity:0.022" fill="#43443f" d="M 166.5,469.5 C 168.167,469.5 169.833,469.5 171.5,469.5C 157.833,483.5 144.167,497.5 130.5,511.5C 128.833,511.5 127.167,511.5 125.5,511.5C 139.167,497.5 152.833,483.5 166.5,469.5 Z"/></g>
<g><path style="opacity:0.022" fill="#43443f" d="M 186.5,469.5 C 188.167,469.5 189.833,469.5 191.5,469.5C 177.833,483.5 164.167,497.5 150.5,511.5C 148.833,511.5 147.167,511.5 145.5,511.5C 159.167,497.5 172.833,483.5 186.5,469.5 Z"/></g>
<g><path style="opacity:0.022" fill="#43443f" d="M 206.5,469.5 C 208.167,469.5 209.833,469.5 211.5,469.5C 197.833,483.5 184.167,497.5 170.5,511.5C 168.833,511.5 167.167,511.5 165.5,511.5C 179.167,497.5 192.833,483.5 206.5,469.5 Z"/></g>
<g><path style="opacity:0.022" fill="#43443f" d="M 511.5,485.5 C 511.5,487.167 511.5,488.833 511.5,490.5C 504.167,497.167 497.167,504.167 490.5,511.5C 488.833,511.5 487.167,511.5 485.5,511.5C 493.833,502.5 502.5,493.833 511.5,485.5 Z"/></g>
<g><path style="opacity:0.022" fill="#43443f" d="M 511.5,505.5 C 511.5,507.167 511.5,508.833 511.5,510.5C 510.833,510.5 510.5,510.833 510.5,511.5C 508.833,511.5 507.167,511.5 505.5,511.5C 507.167,509.167 509.167,507.167 511.5,505.5 Z"/></g>
</svg>
