<?xml version="1.0" encoding="UTF-8"?>
<svg xmlns="http://www.w3.org/2000/svg" xmlns:xlink="http://www.w3.org/1999/xlink" width="25px" height="25px" viewBox="0 0 25 25" version="1.1">
  <defs>
    <filter id="alpha" filterUnits="objectBoundingBox" x="0%" y="0%" width="100%" height="100%">
      <feColorMatrix type="matrix" in="SourceGraphic" values="0 0 0 0 1 0 0 0 0 1 0 0 0 0 1 0 0 0 1 0" />
    </filter>
    <mask id="mask0">
      <g filter="url(#alpha)">
        <rect x="0" y="0" width="25" height="25" style="fill: rgb(0%, 0%, 0%); fill-opacity: 0.0196078; stroke: none" />
      </g>
    </mask>
    <clipPath id="clip1">
      <rect x="0" y="0" width="25" height="25" />
    </clipPath>
    <g id="surface5" clip-path="url(#clip1)">
      <path
        style="stroke: none; fill-rule: evenodd; fill: rgb(26.274511%, 26.666668%, 24.705882%); fill-opacity: 1"
        d="M -0.046875 -0.046875 C 0.015625 -0.046875 0.0820312 -0.046875 0.148438 -0.046875 C 0.113281 0.046875 0.046875 0.113281 -0.046875 0.148438 C -0.046875 0.0820312 -0.046875 0.015625 -0.046875 -0.046875 Z M -0.046875 -0.046875 "
      />
    </g>
    <mask id="mask1">
      <g filter="url(#alpha)">
        <rect x="0" y="0" width="25" height="25" style="fill: rgb(0%, 0%, 0%); fill-opacity: 0.0235294; stroke: none" />
      </g>
    </mask>
    <clipPath id="clip2">
      <rect x="0" y="0" width="25" height="25" />
    </clipPath>
    <g id="surface8" clip-path="url(#clip2)">
      <path
        style="stroke: none; fill-rule: evenodd; fill: rgb(26.274511%, 26.666668%, 24.705882%); fill-opacity: 1"
        d="M 1.609375 -0.046875 C 1.773438 -0.046875 1.9375 -0.046875 2.101562 -0.046875 C 1.414062 0.699219 0.699219 1.414062 -0.046875 2.101562 C -0.046875 1.9375 -0.046875 1.773438 -0.046875 1.609375 C 0.539062 1.089844 1.089844 0.539062 1.609375 -0.046875 Z M 1.609375 -0.046875 "
      />
    </g>
    <mask id="mask2">
      <g filter="url(#alpha)">
        <rect x="0" y="0" width="25" height="25" style="fill: rgb(0%, 0%, 0%); fill-opacity: 0.0235294; stroke: none" />
      </g>
    </mask>
    <clipPath id="clip3">
      <rect x="0" y="0" width="25" height="25" />
    </clipPath>
    <g id="surface11" clip-path="url(#clip3)">
      <path
        style="stroke: none; fill-rule: evenodd; fill: rgb(26.274511%, 26.666668%, 24.705882%); fill-opacity: 1"
        d="M 3.5625 -0.046875 C 3.726562 -0.046875 3.890625 -0.046875 4.054688 -0.046875 C 2.71875 1.351562 1.351562 2.71875 -0.046875 4.054688 C -0.046875 3.890625 -0.046875 3.726562 -0.046875 3.5625 C 1.1875 2.390625 2.390625 1.1875 3.5625 -0.046875 Z M 3.5625 -0.046875 "
      />
    </g>
    <mask id="mask3">
      <g filter="url(#alpha)">
        <rect x="0" y="0" width="25" height="25" style="fill: rgb(0%, 0%, 0%); fill-opacity: 0.0235294; stroke: none" />
      </g>
    </mask>
    <clipPath id="clip4">
      <rect x="0" y="0" width="25" height="25" />
    </clipPath>
    <g id="surface14" clip-path="url(#clip4)">
      <path
        style="stroke: none; fill-rule: evenodd; fill: rgb(26.274511%, 26.666668%, 24.705882%); fill-opacity: 1"
        d="M 5.515625 -0.046875 C 5.679688 -0.046875 5.84375 -0.046875 6.007812 -0.046875 C 4.898438 1.089844 3.792969 2.230469 2.6875 3.367188 C 2.523438 3.238281 2.359375 3.238281 2.195312 3.367188 C 3.304688 2.230469 4.410156 1.089844 5.515625 -0.046875 Z M 5.515625 -0.046875 "
      />
    </g>
    <mask id="mask4">
      <g filter="url(#alpha)">
        <rect x="0" y="0" width="25" height="25" style="fill: rgb(0%, 0%, 0%); fill-opacity: 0.0235294; stroke: none" />
      </g>
    </mask>
    <clipPath id="clip5">
      <rect x="0" y="0" width="25" height="25" />
    </clipPath>
    <g id="surface17" clip-path="url(#clip5)">
      <path
        style="stroke: none; fill-rule: evenodd; fill: rgb(26.274511%, 26.666668%, 24.705882%); fill-opacity: 1"
        d="M 7.46875 -0.046875 C 7.632812 -0.046875 7.796875 -0.046875 7.960938 -0.046875 C 6.265625 1.710938 4.539062 3.433594 2.78125 5.125 C 2.78125 4.964844 2.78125 4.800781 2.78125 4.640625 C 4.378906 3.109375 5.941406 1.546875 7.46875 -0.046875 Z M 7.46875 -0.046875 "
      />
    </g>
    <mask id="mask5">
      <g filter="url(#alpha)">
        <rect x="0" y="0" width="25" height="25" style="fill: rgb(0%, 0%, 0%); fill-opacity: 0.0235294; stroke: none" />
      </g>
    </mask>
    <clipPath id="clip6">
      <rect x="0" y="0" width="25" height="25" />
    </clipPath>
    <g id="surface20" clip-path="url(#clip6)">
      <path
        style="stroke: none; fill-rule: evenodd; fill: rgb(26.274511%, 26.666668%, 24.705882%); fill-opacity: 1"
        d="M 9.421875 -0.046875 C 9.585938 -0.046875 9.75 -0.046875 9.914062 -0.046875 C 7.570312 2.359375 5.191406 4.734375 2.78125 7.078125 C 2.78125 6.917969 2.78125 6.753906 2.78125 6.59375 C 5.03125 4.410156 7.242188 2.195312 9.421875 -0.046875 Z M 9.421875 -0.046875 "
      />
    </g>
    <mask id="mask6">
      <g filter="url(#alpha)">
        <rect x="0" y="0" width="25" height="25" style="fill: rgb(0%, 0%, 0%); fill-opacity: 0.0235294; stroke: none" />
      </g>
    </mask>
    <clipPath id="clip7">
      <rect x="0" y="0" width="25" height="25" />
    </clipPath>
    <g id="surface23" clip-path="url(#clip7)">
      <path
        style="stroke: none; fill-rule: evenodd; fill: rgb(26.274511%, 26.666668%, 24.705882%); fill-opacity: 1"
        d="M 11.375 -0.046875 C 11.539062 -0.046875 11.703125 -0.046875 11.867188 -0.046875 C 8.871094 3.011719 5.84375 6.039062 2.78125 9.03125 C 2.78125 8.871094 2.78125 8.707031 2.78125 8.546875 C 5.679688 5.710938 8.546875 2.847656 11.375 -0.046875 Z M 11.375 -0.046875 "
      />
    </g>
    <mask id="mask7">
      <g filter="url(#alpha)">
        <rect x="0" y="0" width="25" height="25" style="fill: rgb(0%, 0%, 0%); fill-opacity: 0.0235294; stroke: none" />
      </g>
    </mask>
    <clipPath id="clip8">
      <rect x="0" y="0" width="25" height="25" />
    </clipPath>
    <g id="surface26" clip-path="url(#clip8)">
      <path
        style="stroke: none; fill-rule: evenodd; fill: rgb(26.274511%, 26.666668%, 24.705882%); fill-opacity: 1"
        d="M 13.328125 -0.046875 C 13.492188 -0.046875 13.65625 -0.046875 13.820312 -0.046875 C 11.019531 2.78125 8.21875 5.617188 5.421875 8.445312 C 5.355469 8.445312 5.320312 8.480469 5.320312 8.546875 C 5.257812 8.546875 5.226562 8.578125 5.226562 8.640625 C 5.160156 8.640625 5.125 8.675781 5.125 8.742188 C 5.0625 8.742188 5.03125 8.773438 5.03125 8.835938 C 4.28125 9.554688 3.53125 10.269531 2.78125 10.984375 C 2.78125 10.824219 2.78125 10.660156 2.78125 10.5 C 6.332031 7.015625 9.847656 3.5 13.328125 -0.046875 Z M 13.328125 -0.046875 "
      />
    </g>
    <mask id="mask8">
      <g filter="url(#alpha)">
        <rect x="0" y="0" width="25" height="25" style="fill: rgb(0%, 0%, 0%); fill-opacity: 0.0235294; stroke: none" />
      </g>
    </mask>
    <clipPath id="clip9">
      <rect x="0" y="0" width="25" height="25" />
    </clipPath>
    <g id="surface29" clip-path="url(#clip9)">
      <path
        style="stroke: none; fill-rule: evenodd; fill: rgb(26.274511%, 26.274511%, 24.705882%); fill-opacity: 1"
        d="M 15.28125 -0.046875 C 15.445312 -0.046875 15.609375 -0.046875 15.773438 -0.046875 C 14.304688 1.449219 12.84375 2.945312 11.375 4.445312 C 11.257812 4.371094 11.128906 4.339844 10.984375 4.34375 C 12.417969 2.882812 13.851562 1.414062 15.28125 -0.046875 Z M 15.28125 -0.046875 "
      />
    </g>
    <mask id="mask9">
      <g filter="url(#alpha)">
        <rect x="0" y="0" width="25" height="25" style="fill: rgb(0%, 0%, 0%); fill-opacity: 0.0235294; stroke: none" />
      </g>
    </mask>
    <clipPath id="clip10">
      <rect x="0" y="0" width="25" height="25" />
    </clipPath>
    <g id="surface32" clip-path="url(#clip10)">
      <path
        style="stroke: none; fill-rule: evenodd; fill: rgb(26.274511%, 26.666668%, 24.705882%); fill-opacity: 1"
        d="M 17.234375 -0.046875 C 17.398438 -0.046875 17.5625 -0.046875 17.726562 -0.046875 C 15.933594 1.773438 14.144531 3.597656 12.351562 5.421875 C 12.269531 5.304688 12.207031 5.175781 12.15625 5.03125 C 13.882812 3.367188 15.578125 1.675781 17.234375 -0.046875 Z M 17.234375 -0.046875 "
      />
    </g>
    <mask id="mask10">
      <g filter="url(#alpha)">
        <rect x="0" y="0" width="25" height="25" style="fill: rgb(0%, 0%, 0%); fill-opacity: 0.0235294; stroke: none" />
      </g>
    </mask>
    <clipPath id="clip11">
      <rect x="0" y="0" width="25" height="25" />
    </clipPath>
    <g id="surface35" clip-path="url(#clip11)">
      <path
        style="stroke: none; fill-rule: evenodd; fill: rgb(26.274511%, 26.666668%, 24.705882%); fill-opacity: 1"
        d="M 19.1875 -0.046875 C 19.351562 -0.046875 19.515625 -0.046875 19.679688 -0.046875 C 16.945312 2.75 14.175781 5.515625 11.375 8.25 C 11.222656 8.277344 11.089844 8.246094 10.984375 8.15625 C 11.246094 7.960938 11.476562 7.730469 11.671875 7.46875 C 11.734375 7.46875 11.765625 7.4375 11.765625 7.375 C 11.832031 7.375 11.867188 7.339844 11.867188 7.273438 C 11.929688 7.273438 11.960938 7.242188 11.960938 7.179688 C 12.027344 7.179688 12.0625 7.144531 12.0625 7.078125 C 12.125 7.078125 12.15625 7.046875 12.15625 6.984375 C 14.535156 4.671875 16.878906 2.328125 19.1875 -0.046875 Z M 19.1875 -0.046875 "
      />
    </g>
    <mask id="mask11">
      <g filter="url(#alpha)">
        <rect x="0" y="0" width="25" height="25" style="fill: rgb(0%, 0%, 0%); fill-opacity: 0.0235294; stroke: none" />
      </g>
    </mask>
    <clipPath id="clip12">
      <rect x="0" y="0" width="25" height="25" />
    </clipPath>
    <g id="surface38" clip-path="url(#clip12)">
      <path
        style="stroke: none; fill-rule: evenodd; fill: rgb(26.274511%, 26.274511%, 24.705882%); fill-opacity: 1"
        d="M 21.140625 -0.046875 C 21.304688 -0.046875 21.46875 -0.046875 21.632812 -0.046875 C 18.539062 3.078125 15.445312 6.203125 12.351562 9.328125 C 12.269531 9.210938 12.207031 9.082031 12.15625 8.9375 C 15.1875 5.972656 18.179688 2.976562 21.140625 -0.046875 Z M 21.140625 -0.046875 "
      />
    </g>
    <mask id="mask12">
      <g filter="url(#alpha)">
        <rect x="0" y="0" width="25" height="25" style="fill: rgb(0%, 0%, 0%); fill-opacity: 0.0235294; stroke: none" />
      </g>
    </mask>
    <clipPath id="clip13">
      <rect x="0" y="0" width="25" height="25" />
    </clipPath>
    <g id="surface41" clip-path="url(#clip13)">
      <path
        style="stroke: none; fill-rule: evenodd; fill: rgb(26.274511%, 26.274511%, 24.705882%); fill-opacity: 1"
        d="M 23.09375 -0.046875 C 23.257812 -0.046875 23.421875 -0.046875 23.585938 -0.046875 C 19.546875 4.054688 15.476562 8.121094 11.375 12.15625 C 11.222656 12.183594 11.089844 12.152344 10.984375 12.0625 C 11.246094 11.867188 11.476562 11.636719 11.671875 11.375 C 11.734375 11.375 11.765625 11.34375 11.765625 11.28125 C 11.832031 11.28125 11.867188 11.246094 11.867188 11.179688 C 11.929688 11.179688 11.960938 11.148438 11.960938 11.085938 C 12.027344 11.085938 12.0625 11.050781 12.0625 10.984375 C 12.125 10.984375 12.15625 10.953125 12.15625 10.890625 C 15.835938 7.273438 19.484375 3.628906 23.09375 -0.046875 Z M 23.09375 -0.046875 "
      />
    </g>
    <mask id="mask13">
      <g filter="url(#alpha)">
        <rect x="0" y="0" width="25" height="25" style="fill: rgb(0%, 0%, 0%); fill-opacity: 0.0235294; stroke: none" />
      </g>
    </mask>
    <clipPath id="clip14">
      <rect x="0" y="0" width="25" height="25" />
    </clipPath>
    <g id="surface44" clip-path="url(#clip14)">
      <path
        style="stroke: none; fill-rule: evenodd; fill: rgb(26.274511%, 26.274511%, 24.705882%); fill-opacity: 1"
        d="M 24.953125 0.148438 C 24.953125 0.308594 24.953125 0.472656 24.953125 0.632812 C 20.71875 4.800781 16.519531 9 12.351562 13.234375 C 12.269531 13.117188 12.207031 12.988281 12.15625 12.84375 C 16.421875 8.609375 20.6875 4.378906 24.953125 0.148438 Z M 24.953125 0.148438 "
      />
    </g>
    <mask id="mask14">
      <g filter="url(#alpha)">
        <rect x="0" y="0" width="25" height="25" style="fill: rgb(0%, 0%, 0%); fill-opacity: 0.0235294; stroke: none" />
      </g>
    </mask>
    <clipPath id="clip15">
      <rect x="0" y="0" width="25" height="25" />
    </clipPath>
    <g id="surface47" clip-path="url(#clip15)">
      <path
        style="stroke: none; fill-rule: evenodd; fill: rgb(26.274511%, 26.274511%, 24.705882%); fill-opacity: 1"
        d="M 24.953125 2.101562 C 24.953125 2.261719 24.953125 2.425781 24.953125 2.585938 C 23.0625 4.410156 21.207031 6.265625 19.382812 8.15625 C 19.183594 8.15625 18.988281 8.1875 18.796875 8.25 C 20.816406 6.167969 22.867188 4.117188 24.953125 2.101562 Z M 24.953125 2.101562 "
      />
    </g>
    <mask id="mask15">
      <g filter="url(#alpha)">
        <rect x="0" y="0" width="25" height="25" style="fill: rgb(0%, 0%, 0%); fill-opacity: 0.862745; stroke: none" />
      </g>
    </mask>
    <clipPath id="clip16">
      <rect x="0" y="0" width="25" height="25" />
    </clipPath>
    <g id="surface50" clip-path="url(#clip16)">
      <path
        style="stroke: none; fill-rule: evenodd; fill: rgb(76.078433%, 84.705883%, 18.039216%); fill-opacity: 1"
        d="M 2.6875 3.367188 C 2.777344 3.78125 2.808594 4.207031 2.78125 4.640625 C 2.78125 4.800781 2.78125 4.964844 2.78125 5.125 C 2.78125 5.617188 2.78125 6.101562 2.78125 6.59375 C 2.78125 6.753906 2.78125 6.917969 2.78125 7.078125 C 2.78125 7.570312 2.78125 8.054688 2.78125 8.546875 C 2.78125 8.707031 2.78125 8.871094 2.78125 9.03125 C 2.78125 9.523438 2.78125 10.007812 2.78125 10.5 C 2.78125 10.660156 2.78125 10.824219 2.78125 10.984375 C 2.78125 11.476562 2.78125 11.960938 2.78125 12.453125 C 2.78125 12.613281 2.78125 12.777344 2.78125 12.9375 C 2.78125 13.429688 2.78125 13.914062 2.78125 14.40625 C 2.78125 14.566406 2.78125 14.730469 2.78125 14.890625 C 2.78125 15.382812 2.78125 15.867188 2.78125 16.359375 C 2.78125 16.519531 2.78125 16.683594 2.78125 16.84375 C 2.78125 17.335938 2.78125 17.820312 2.78125 18.3125 C 2.78125 18.472656 2.78125 18.636719 2.78125 18.796875 C 2.78125 19.289062 2.78125 19.773438 2.78125 20.265625 C 2.78125 20.425781 2.78125 20.589844 2.78125 20.75 C 3.253906 20.847656 3.742188 20.882812 4.25 20.851562 C 4.410156 20.851562 4.574219 20.851562 4.734375 20.851562 C 5.226562 20.851562 5.710938 20.851562 6.203125 20.851562 C 6.363281 20.851562 6.527344 20.851562 6.6875 20.851562 C 7.179688 20.851562 7.664062 20.851562 8.15625 20.851562 C 8.316406 20.851562 8.480469 20.851562 8.640625 20.851562 C 9.132812 20.851562 9.617188 20.851562 10.109375 20.851562 C 10.269531 20.851562 10.433594 20.851562 10.59375 20.851562 C 11.085938 20.851562 11.570312 20.851562 12.0625 20.851562 C 12.222656 20.851562 12.386719 20.851562 12.546875 20.851562 C 13.039062 20.851562 13.523438 20.851562 14.015625 20.851562 C 14.175781 20.851562 14.339844 20.851562 14.5 20.851562 C 14.992188 20.851562 15.476562 20.851562 15.96875 20.851562 C 16.128906 20.851562 16.292969 20.851562 16.453125 20.851562 C 16.945312 20.851562 17.429688 20.851562 17.921875 20.851562 C 18.082031 20.851562 18.246094 20.851562 18.40625 20.851562 C 18.898438 20.851562 19.382812 20.851562 19.875 20.851562 C 20.035156 20.851562 20.199219 20.851562 20.359375 20.851562 C 20.851562 20.851562 21.335938 20.851562 21.828125 20.851562 C 21.988281 20.851562 22.152344 20.851562 22.3125 20.851562 C 22.75 20.878906 22.882812 21.089844 22.703125 21.484375 C 22.296875 21.617188 21.871094 21.667969 21.4375 21.632812 C 21.273438 21.632812 21.109375 21.632812 20.945312 21.632812 C 20.460938 21.632812 19.96875 21.632812 19.484375 21.632812 C 19.320312 21.632812 19.15625 21.632812 18.992188 21.632812 C 18.507812 21.632812 18.015625 21.632812 17.53125 21.632812 C 17.367188 21.632812 17.203125 21.632812 17.039062 21.632812 C 16.554688 21.632812 16.0625 21.632812 15.578125 21.632812 C 15.414062 21.632812 15.25 21.632812 15.085938 21.632812 C 14.601562 21.632812 14.109375 21.632812 13.625 21.632812 C 13.460938 21.632812 13.296875 21.632812 13.132812 21.632812 C 12.648438 21.632812 12.15625 21.632812 11.671875 21.632812 C 11.507812 21.632812 11.34375 21.632812 11.179688 21.632812 C 10.695312 21.632812 10.203125 21.632812 9.71875 21.632812 C 9.554688 21.632812 9.390625 21.632812 9.226562 21.632812 C 8.742188 21.632812 8.25 21.632812 7.765625 21.632812 C 7.601562 21.632812 7.4375 21.632812 7.273438 21.632812 C 6.789062 21.632812 6.296875 21.632812 5.8125 21.632812 C 5.648438 21.632812 5.484375 21.632812 5.320312 21.632812 C 4.835938 21.632812 4.34375 21.632812 3.859375 21.632812 C 3.695312 21.632812 3.53125 21.632812 3.367188 21.632812 C 2.921875 21.675781 2.5 21.609375 2.101562 21.4375 C 2.101562 21.304688 2.101562 21.175781 2.101562 21.046875 C 2.101562 20.554688 2.101562 20.070312 2.101562 19.578125 C 2.101562 19.417969 2.101562 19.253906 2.101562 19.09375 C 2.101562 18.601562 2.101562 18.117188 2.101562 17.625 C 2.101562 17.464844 2.101562 17.300781 2.101562 17.140625 C 2.101562 16.648438 2.101562 16.164062 2.101562 15.671875 C 2.101562 15.511719 2.101562 15.347656 2.101562 15.1875 C 2.101562 14.695312 2.101562 14.210938 2.101562 13.71875 C 2.101562 13.558594 2.101562 13.394531 2.101562 13.234375 C 2.101562 12.742188 2.101562 12.257812 2.101562 11.765625 C 2.101562 11.605469 2.101562 11.441406 2.101562 11.28125 C 2.101562 10.789062 2.101562 10.304688 2.101562 9.8125 C 2.101562 9.652344 2.101562 9.488281 2.101562 9.328125 C 2.101562 8.835938 2.101562 8.351562 2.101562 7.859375 C 2.101562 7.699219 2.101562 7.535156 2.101562 7.375 C 2.101562 6.882812 2.101562 6.398438 2.101562 5.90625 C 2.101562 5.746094 2.101562 5.582031 2.101562 5.421875 C 2.101562 4.929688 2.101562 4.445312 2.101562 3.953125 C 2.101562 3.792969 2.101562 3.628906 2.101562 3.46875 C 2.101562 3.402344 2.132812 3.367188 2.195312 3.367188 C 2.359375 3.238281 2.523438 3.238281 2.6875 3.367188 Z M 2.6875 3.367188 "
      />
    </g>
    <mask id="mask16">
      <g filter="url(#alpha)">
        <rect x="0" y="0" width="25" height="25" style="fill: rgb(0%, 0%, 0%); fill-opacity: 0.0235294; stroke: none" />
      </g>
    </mask>
    <clipPath id="clip17">
      <rect x="0" y="0" width="25" height="25" />
    </clipPath>
    <g id="surface53" clip-path="url(#clip17)">
      <path
        style="stroke: none; fill-rule: evenodd; fill: rgb(26.274511%, 26.666668%, 24.705882%); fill-opacity: 1"
        d="M 2.101562 3.46875 C 2.101562 3.628906 2.101562 3.792969 2.101562 3.953125 C 1.382812 4.640625 0.667969 5.320312 -0.046875 6.007812 C -0.046875 5.84375 -0.046875 5.679688 -0.046875 5.515625 C 0.667969 4.835938 1.382812 4.148438 2.101562 3.46875 Z M 2.101562 3.46875 "
      />
    </g>
    <mask id="mask17">
      <g filter="url(#alpha)">
        <rect x="0" y="0" width="25" height="25" style="fill: rgb(0%, 0%, 0%); fill-opacity: 0.0235294; stroke: none" />
      </g>
    </mask>
    <clipPath id="clip18">
      <rect x="0" y="0" width="25" height="25" />
    </clipPath>
    <g id="surface56" clip-path="url(#clip18)">
      <path
        style="stroke: none; fill-rule: evenodd; fill: rgb(26.274511%, 26.666668%, 24.705882%); fill-opacity: 1"
        d="M 24.953125 4.054688 C 24.953125 4.214844 24.953125 4.378906 24.953125 4.539062 C 23.484375 5.941406 22.054688 7.375 20.65625 8.835938 C 20.523438 8.773438 20.425781 8.675781 20.359375 8.546875 C 21.890625 7.046875 23.421875 5.550781 24.953125 4.054688 Z M 24.953125 4.054688 "
      />
    </g>
    <mask id="mask18">
      <g filter="url(#alpha)">
        <rect x="0" y="0" width="25" height="25" style="fill: rgb(0%, 0%, 0%); fill-opacity: 0.937255; stroke: none" />
      </g>
    </mask>
    <clipPath id="clip19">
      <rect x="0" y="0" width="25" height="25" />
    </clipPath>
    <g id="surface59" clip-path="url(#clip19)">
      <path
        style="stroke: none; fill-rule: evenodd; fill: rgb(76.078433%, 84.705883%, 18.039216%); fill-opacity: 1"
        d="M 10.984375 4.34375 C 11.128906 4.339844 11.257812 4.371094 11.375 4.445312 C 11.710938 4.546875 11.972656 4.742188 12.15625 5.03125 C 12.207031 5.175781 12.269531 5.304688 12.351562 5.421875 C 12.453125 5.957031 12.390625 6.476562 12.15625 6.984375 C 12.09375 6.984375 12.0625 7.015625 12.0625 7.078125 C 11.996094 7.078125 11.960938 7.113281 11.960938 7.179688 C 11.898438 7.179688 11.867188 7.210938 11.867188 7.273438 C 11.800781 7.273438 11.765625 7.308594 11.765625 7.375 C 11.703125 7.375 11.671875 7.40625 11.671875 7.46875 C 11.15625 7.671875 10.636719 7.703125 10.109375 7.570312 C 10.019531 7.507812 9.921875 7.476562 9.8125 7.46875 C 9.519531 7.273438 9.292969 7.011719 9.132812 6.6875 C 9.097656 6.558594 9.066406 6.429688 9.03125 6.296875 C 8.96875 5.125 9.523438 4.441406 10.695312 4.25 C 10.800781 4.265625 10.898438 4.296875 10.984375 4.34375 Z M 10.984375 4.34375 "
      />
    </g>
    <mask id="mask19">
      <g filter="url(#alpha)">
        <rect x="0" y="0" width="25" height="25" style="fill: rgb(0%, 0%, 0%); fill-opacity: 0.0235294; stroke: none" />
      </g>
    </mask>
    <clipPath id="clip20">
      <rect x="0" y="0" width="25" height="25" />
    </clipPath>
    <g id="surface62" clip-path="url(#clip20)">
      <path
        style="stroke: none; fill-rule: evenodd; fill: rgb(26.274511%, 26.666668%, 24.705882%); fill-opacity: 1"
        d="M 2.101562 5.421875 C 2.101562 5.582031 2.101562 5.746094 2.101562 5.90625 C 1.382812 6.59375 0.667969 7.273438 -0.046875 7.960938 C -0.046875 7.796875 -0.046875 7.632812 -0.046875 7.46875 C 0.667969 6.789062 1.382812 6.101562 2.101562 5.421875 Z M 2.101562 5.421875 "
      />
    </g>
    <mask id="mask20">
      <g filter="url(#alpha)">
        <rect x="0" y="0" width="25" height="25" style="fill: rgb(0%, 0%, 0%); fill-opacity: 0.0235294; stroke: none" />
      </g>
    </mask>
    <clipPath id="clip21">
      <rect x="0" y="0" width="25" height="25" />
    </clipPath>
    <g id="surface65" clip-path="url(#clip21)">
      <path
        style="stroke: none; fill-rule: evenodd; fill: rgb(26.274511%, 26.666668%, 24.705882%); fill-opacity: 1"
        d="M 24.953125 6.007812 C 24.953125 6.167969 24.953125 6.332031 24.953125 6.492188 C 23.585938 7.828125 22.21875 9.164062 20.851562 10.5 C 20.851562 10.296875 20.882812 10.101562 20.945312 9.914062 C 22.28125 8.609375 23.617188 7.308594 24.953125 6.007812 Z M 24.953125 6.007812 "
      />
    </g>
    <mask id="mask21">
      <g filter="url(#alpha)">
        <rect x="0" y="0" width="25" height="25" style="fill: rgb(0%, 0%, 0%); fill-opacity: 0.0235294; stroke: none" />
      </g>
    </mask>
    <clipPath id="clip22">
      <rect x="0" y="0" width="25" height="25" />
    </clipPath>
    <g id="surface68" clip-path="url(#clip22)">
      <path
        style="stroke: none; fill-rule: evenodd; fill: rgb(26.274511%, 26.666668%, 24.705882%); fill-opacity: 1"
        d="M 9.03125 6.296875 C 9.066406 6.429688 9.097656 6.558594 9.132812 6.6875 C 8.511719 7.242188 7.925781 7.828125 7.375 8.445312 C 7.253906 8.40625 7.15625 8.339844 7.078125 8.25 C 7.699219 7.570312 8.351562 6.917969 9.03125 6.296875 Z M 9.03125 6.296875 "
      />
    </g>
    <mask id="mask22">
      <g filter="url(#alpha)">
        <rect x="0" y="0" width="25" height="25" style="fill: rgb(0%, 0%, 0%); fill-opacity: 0.0235294; stroke: none" />
      </g>
    </mask>
    <clipPath id="clip23">
      <rect x="0" y="0" width="25" height="25" />
    </clipPath>
    <g id="surface71" clip-path="url(#clip23)">
      <path
        style="stroke: none; fill-rule: evenodd; fill: rgb(26.274511%, 26.666668%, 24.705882%); fill-opacity: 1"
        d="M 2.101562 7.375 C 2.101562 7.535156 2.101562 7.699219 2.101562 7.859375 C 1.382812 8.546875 0.667969 9.226562 -0.046875 9.914062 C -0.046875 9.75 -0.046875 9.585938 -0.046875 9.421875 C 0.667969 8.742188 1.382812 8.054688 2.101562 7.375 Z M 2.101562 7.375 "
      />
    </g>
    <mask id="mask23">
      <g filter="url(#alpha)">
        <rect x="0" y="0" width="25" height="25" style="fill: rgb(0%, 0%, 0%); fill-opacity: 0.0235294; stroke: none" />
      </g>
    </mask>
    <clipPath id="clip24">
      <rect x="0" y="0" width="25" height="25" />
    </clipPath>
    <g id="surface74" clip-path="url(#clip24)">
      <path
        style="stroke: none; fill-rule: evenodd; fill: rgb(26.274511%, 26.274511%, 24.705882%); fill-opacity: 1"
        d="M 9.8125 7.46875 C 9.921875 7.476562 10.019531 7.507812 10.109375 7.570312 C 9.488281 8.25 8.835938 8.902344 8.15625 9.523438 C 8.0625 9.417969 8.03125 9.285156 8.054688 9.132812 C 8.640625 8.578125 9.226562 8.023438 9.8125 7.46875 Z M 9.8125 7.46875 "
      />
    </g>
    <mask id="mask24">
      <g filter="url(#alpha)">
        <rect x="0" y="0" width="25" height="25" style="fill: rgb(0%, 0%, 0%); fill-opacity: 0.0235294; stroke: none" />
      </g>
    </mask>
    <clipPath id="clip25">
      <rect x="0" y="0" width="25" height="25" />
    </clipPath>
    <g id="surface77" clip-path="url(#clip25)">
      <path
        style="stroke: none; fill-rule: evenodd; fill: rgb(26.274511%, 26.666668%, 24.705882%); fill-opacity: 1"
        d="M 24.953125 7.960938 C 24.953125 8.121094 24.953125 8.285156 24.953125 8.445312 C 23.484375 9.847656 22.054688 11.28125 20.65625 12.742188 C 20.523438 12.679688 20.425781 12.582031 20.359375 12.453125 C 21.890625 10.953125 23.421875 9.457031 24.953125 7.960938 Z M 24.953125 7.960938 "
      />
    </g>
    <mask id="mask25">
      <g filter="url(#alpha)">
        <rect x="0" y="0" width="25" height="25" style="fill: rgb(0%, 0%, 0%); fill-opacity: 0.933333; stroke: none" />
      </g>
    </mask>
    <clipPath id="clip26">
      <rect x="0" y="0" width="25" height="25" />
    </clipPath>
    <g id="surface80" clip-path="url(#clip26)">
      <path
        style="stroke: none; fill-rule: evenodd; fill: rgb(76.078433%, 84.705883%, 18.039216%); fill-opacity: 1"
        d="M 7.078125 8.25 C 7.15625 8.339844 7.253906 8.40625 7.375 8.445312 C 7.636719 8.644531 7.863281 8.875 8.054688 9.132812 C 8.03125 9.285156 8.0625 9.417969 8.15625 9.523438 C 8.21875 10.953125 7.535156 11.636719 6.101562 11.570312 C 5.984375 11.5 5.855469 11.46875 5.710938 11.476562 C 5.457031 11.28125 5.226562 11.054688 5.03125 10.789062 C 4.988281 10.671875 4.921875 10.574219 4.835938 10.5 C 4.679688 9.917969 4.746094 9.367188 5.03125 8.835938 C 5.09375 8.835938 5.125 8.804688 5.125 8.742188 C 5.191406 8.742188 5.226562 8.707031 5.226562 8.640625 C 5.289062 8.640625 5.320312 8.609375 5.320312 8.546875 C 5.386719 8.546875 5.421875 8.511719 5.421875 8.445312 C 5.949219 8.179688 6.503906 8.113281 7.078125 8.25 Z M 7.078125 8.25 "
      />
    </g>
    <mask id="mask26">
      <g filter="url(#alpha)">
        <rect x="0" y="0" width="25" height="25" style="fill: rgb(0%, 0%, 0%); fill-opacity: 0.933333; stroke: none" />
      </g>
    </mask>
    <clipPath id="clip27">
      <rect x="0" y="0" width="25" height="25" />
    </clipPath>
    <g id="surface83" clip-path="url(#clip27)">
      <path
        style="stroke: none; fill-rule: evenodd; fill: rgb(76.078433%, 84.705883%, 18.039216%); fill-opacity: 1"
        d="M 10.984375 8.15625 C 11.089844 8.246094 11.222656 8.277344 11.375 8.25 C 11.679688 8.433594 11.9375 8.664062 12.15625 8.9375 C 12.207031 9.082031 12.269531 9.210938 12.351562 9.328125 C 12.453125 9.863281 12.390625 10.382812 12.15625 10.890625 C 12.09375 10.890625 12.0625 10.921875 12.0625 10.984375 C 11.996094 10.984375 11.960938 11.019531 11.960938 11.085938 C 11.898438 11.085938 11.867188 11.117188 11.867188 11.179688 C 11.800781 11.179688 11.765625 11.214844 11.765625 11.28125 C 11.703125 11.28125 11.671875 11.3125 11.671875 11.375 C 11.15625 11.578125 10.636719 11.609375 10.109375 11.476562 C 10.019531 11.414062 9.921875 11.382812 9.8125 11.375 C 9.519531 11.179688 9.292969 10.917969 9.132812 10.59375 C 9.097656 10.464844 9.066406 10.335938 9.03125 10.203125 C 9.015625 8.886719 9.667969 8.203125 10.984375 8.15625 Z M 10.984375 8.15625 "
      />
    </g>
    <mask id="mask27">
      <g filter="url(#alpha)">
        <rect x="0" y="0" width="25" height="25" style="fill: rgb(0%, 0%, 0%); fill-opacity: 0.945098; stroke: none" />
      </g>
    </mask>
    <clipPath id="clip28">
      <rect x="0" y="0" width="25" height="25" />
    </clipPath>
    <g id="surface86" clip-path="url(#clip28)">
      <path
        style="stroke: none; fill-rule: evenodd; fill: rgb(76.078433%, 84.705883%, 18.039216%); fill-opacity: 1"
        d="M 19.382812 8.15625 C 19.730469 8.230469 20.058594 8.359375 20.359375 8.546875 C 20.425781 8.675781 20.523438 8.773438 20.65625 8.835938 C 20.796875 9.183594 20.894531 9.539062 20.945312 9.914062 C 20.882812 10.101562 20.851562 10.296875 20.851562 10.5 C 20.621094 10.921875 20.296875 11.246094 19.875 11.476562 C 19.683594 11.539062 19.488281 11.570312 19.289062 11.570312 C 18.898438 11.574219 18.542969 11.476562 18.210938 11.28125 C 18.136719 11.191406 18.039062 11.125 17.921875 11.085938 C 17.707031 10.753906 17.578125 10.398438 17.53125 10.007812 C 17.53125 9.847656 17.53125 9.683594 17.53125 9.523438 C 17.726562 8.867188 18.148438 8.445312 18.796875 8.25 C 18.988281 8.1875 19.183594 8.15625 19.382812 8.15625 Z M 19.382812 8.15625 "
      />
    </g>
    <mask id="mask28">
      <g filter="url(#alpha)">
        <rect x="0" y="0" width="25" height="25" style="fill: rgb(0%, 0%, 0%); fill-opacity: 0.0235294; stroke: none" />
      </g>
    </mask>
    <clipPath id="clip29">
      <rect x="0" y="0" width="25" height="25" />
    </clipPath>
    <g id="surface89" clip-path="url(#clip29)">
      <path
        style="stroke: none; fill-rule: evenodd; fill: rgb(26.274511%, 26.666668%, 24.705882%); fill-opacity: 1"
        d="M 2.101562 9.328125 C 2.101562 9.488281 2.101562 9.652344 2.101562 9.8125 C 1.382812 10.5 0.667969 11.179688 -0.046875 11.867188 C -0.046875 11.703125 -0.046875 11.539062 -0.046875 11.375 C 0.667969 10.695312 1.382812 10.007812 2.101562 9.328125 Z M 2.101562 9.328125 "
      />
    </g>
    <mask id="mask29">
      <g filter="url(#alpha)">
        <rect x="0" y="0" width="25" height="25" style="fill: rgb(0%, 0%, 0%); fill-opacity: 0.0235294; stroke: none" />
      </g>
    </mask>
    <clipPath id="clip30">
      <rect x="0" y="0" width="25" height="25" />
    </clipPath>
    <g id="surface92" clip-path="url(#clip30)">
      <path
        style="stroke: none; fill-rule: evenodd; fill: rgb(26.274511%, 26.666668%, 24.705882%); fill-opacity: 1"
        d="M 17.53125 9.523438 C 17.53125 9.683594 17.53125 9.847656 17.53125 10.007812 C 16.78125 10.695312 16.0625 11.410156 15.382812 12.15625 C 15.261719 12.085938 15.132812 12.054688 14.992188 12.0625 C 15.804688 11.179688 16.648438 10.335938 17.53125 9.523438 Z M 17.53125 9.523438 "
      />
    </g>
    <mask id="mask30">
      <g filter="url(#alpha)">
        <rect x="0" y="0" width="25" height="25" style="fill: rgb(0%, 0%, 0%); fill-opacity: 0.0235294; stroke: none" />
      </g>
    </mask>
    <clipPath id="clip31">
      <rect x="0" y="0" width="25" height="25" />
    </clipPath>
    <g id="surface95" clip-path="url(#clip31)">
      <path
        style="stroke: none; fill-rule: evenodd; fill: rgb(26.274511%, 26.666668%, 24.705882%); fill-opacity: 1"
        d="M 24.953125 9.914062 C 24.953125 10.074219 24.953125 10.238281 24.953125 10.398438 C 23.585938 11.734375 22.21875 13.070312 20.851562 14.40625 C 20.851562 14.203125 20.882812 14.007812 20.945312 13.820312 C 22.28125 12.515625 23.617188 11.214844 24.953125 9.914062 Z M 24.953125 9.914062 "
      />
    </g>
    <mask id="mask31">
      <g filter="url(#alpha)">
        <rect x="0" y="0" width="25" height="25" style="fill: rgb(0%, 0%, 0%); fill-opacity: 0.0235294; stroke: none" />
      </g>
    </mask>
    <clipPath id="clip32">
      <rect x="0" y="0" width="25" height="25" />
    </clipPath>
    <g id="surface98" clip-path="url(#clip32)">
      <path
        style="stroke: none; fill-rule: evenodd; fill: rgb(26.274511%, 26.274511%, 24.705882%); fill-opacity: 1"
        d="M 9.03125 10.203125 C 9.066406 10.335938 9.097656 10.464844 9.132812 10.59375 C 8.511719 11.148438 7.925781 11.734375 7.375 12.351562 C 7.253906 12.3125 7.15625 12.246094 7.078125 12.15625 C 7.699219 11.476562 8.351562 10.824219 9.03125 10.203125 Z M 9.03125 10.203125 "
      />
    </g>
    <mask id="mask32">
      <g filter="url(#alpha)">
        <rect x="0" y="0" width="25" height="25" style="fill: rgb(0%, 0%, 0%); fill-opacity: 0.0235294; stroke: none" />
      </g>
    </mask>
    <clipPath id="clip33">
      <rect x="0" y="0" width="25" height="25" />
    </clipPath>
    <g id="surface101" clip-path="url(#clip33)">
      <path
        style="stroke: none; fill-rule: evenodd; fill: rgb(26.274511%, 26.274511%, 24.705882%); fill-opacity: 1"
        d="M 4.835938 10.5 C 4.921875 10.574219 4.988281 10.671875 5.03125 10.789062 C 4.28125 11.507812 3.53125 12.222656 2.78125 12.9375 C 2.78125 12.777344 2.78125 12.613281 2.78125 12.453125 C 3.46875 11.800781 4.148438 11.148438 4.835938 10.5 Z M 4.835938 10.5 "
      />
    </g>
    <mask id="mask33">
      <g filter="url(#alpha)">
        <rect x="0" y="0" width="25" height="25" style="fill: rgb(0%, 0%, 0%); fill-opacity: 0.0235294; stroke: none" />
      </g>
    </mask>
    <clipPath id="clip34">
      <rect x="0" y="0" width="25" height="25" />
    </clipPath>
    <g id="surface104" clip-path="url(#clip34)">
      <path
        style="stroke: none; fill-rule: evenodd; fill: rgb(26.274511%, 26.274511%, 24.705882%); fill-opacity: 1"
        d="M 17.921875 11.085938 C 18.039062 11.125 18.136719 11.191406 18.210938 11.28125 C 17.625 11.832031 17.039062 12.386719 16.453125 12.9375 C 16.390625 12.84375 16.324219 12.742188 16.257812 12.648438 C 16.8125 12.125 17.367188 11.605469 17.921875 11.085938 Z M 17.921875 11.085938 "
      />
    </g>
    <mask id="mask34">
      <g filter="url(#alpha)">
        <rect x="0" y="0" width="25" height="25" style="fill: rgb(0%, 0%, 0%); fill-opacity: 0.0235294; stroke: none" />
      </g>
    </mask>
    <clipPath id="clip35">
      <rect x="0" y="0" width="25" height="25" />
    </clipPath>
    <g id="surface107" clip-path="url(#clip35)">
      <path
        style="stroke: none; fill-rule: evenodd; fill: rgb(26.274511%, 26.666668%, 24.705882%); fill-opacity: 1"
        d="M 2.101562 11.28125 C 2.101562 11.441406 2.101562 11.605469 2.101562 11.765625 C 1.382812 12.453125 0.667969 13.132812 -0.046875 13.820312 C -0.046875 13.65625 -0.046875 13.492188 -0.046875 13.328125 C 0.667969 12.648438 1.382812 11.960938 2.101562 11.28125 Z M 2.101562 11.28125 "
      />
    </g>
    <mask id="mask35">
      <g filter="url(#alpha)">
        <rect x="0" y="0" width="25" height="25" style="fill: rgb(0%, 0%, 0%); fill-opacity: 0.0235294; stroke: none" />
      </g>
    </mask>
    <clipPath id="clip36">
      <rect x="0" y="0" width="25" height="25" />
    </clipPath>
    <g id="surface110" clip-path="url(#clip36)">
      <path
        style="stroke: none; fill-rule: evenodd; fill: rgb(26.274511%, 26.666668%, 24.705882%); fill-opacity: 1"
        d="M 9.8125 11.375 C 9.921875 11.382812 10.019531 11.414062 10.109375 11.476562 C 9.488281 12.15625 8.835938 12.808594 8.15625 13.429688 C 8.082031 13.308594 8.050781 13.179688 8.054688 13.039062 C 8.640625 12.484375 9.226562 11.929688 9.8125 11.375 Z M 9.8125 11.375 "
      />
    </g>
    <mask id="mask36">
      <g filter="url(#alpha)">
        <rect x="0" y="0" width="25" height="25" style="fill: rgb(0%, 0%, 0%); fill-opacity: 0.0235294; stroke: none" />
      </g>
    </mask>
    <clipPath id="clip37">
      <rect x="0" y="0" width="25" height="25" />
    </clipPath>
    <g id="surface113" clip-path="url(#clip37)">
      <path
        style="stroke: none; fill-rule: evenodd; fill: rgb(26.274511%, 26.666668%, 24.705882%); fill-opacity: 1"
        d="M 5.710938 11.476562 C 5.855469 11.46875 5.984375 11.5 6.101562 11.570312 C 5.875 11.832031 5.648438 12.09375 5.421875 12.351562 C 5.355469 12.351562 5.320312 12.386719 5.320312 12.453125 C 5.257812 12.453125 5.226562 12.484375 5.226562 12.546875 C 5.160156 12.546875 5.125 12.582031 5.125 12.648438 C 5.0625 12.648438 5.03125 12.679688 5.03125 12.742188 C 4.28125 13.460938 3.53125 14.175781 2.78125 14.890625 C 2.78125 14.730469 2.78125 14.566406 2.78125 14.40625 C 3.792969 13.460938 4.769531 12.484375 5.710938 11.476562 Z M 5.710938 11.476562 "
      />
    </g>
    <mask id="mask37">
      <g filter="url(#alpha)">
        <rect x="0" y="0" width="25" height="25" style="fill: rgb(0%, 0%, 0%); fill-opacity: 0.0235294; stroke: none" />
      </g>
    </mask>
    <clipPath id="clip38">
      <rect x="0" y="0" width="25" height="25" />
    </clipPath>
    <g id="surface116" clip-path="url(#clip38)">
      <path
        style="stroke: none; fill-rule: evenodd; fill: rgb(26.274511%, 26.666668%, 24.705882%); fill-opacity: 1"
        d="M 19.875 11.476562 C 19.710938 11.671875 19.546875 11.867188 19.382812 12.0625 C 19.222656 12.0625 19.058594 12.0625 18.898438 12.0625 C 19.027344 11.898438 19.15625 11.734375 19.289062 11.570312 C 19.488281 11.570312 19.683594 11.539062 19.875 11.476562 Z M 19.875 11.476562 "
      />
    </g>
    <mask id="mask38">
      <g filter="url(#alpha)">
        <rect x="0" y="0" width="25" height="25" style="fill: rgb(0%, 0%, 0%); fill-opacity: 0.0235294; stroke: none" />
      </g>
    </mask>
    <clipPath id="clip39">
      <rect x="0" y="0" width="25" height="25" />
    </clipPath>
    <g id="surface119" clip-path="url(#clip39)">
      <path
        style="stroke: none; fill-rule: evenodd; fill: rgb(26.274511%, 26.666668%, 24.705882%); fill-opacity: 1"
        d="M 24.953125 11.867188 C 24.953125 12.027344 24.953125 12.191406 24.953125 12.351562 C 23.484375 13.753906 22.054688 15.1875 20.65625 16.648438 C 20.523438 16.585938 20.425781 16.488281 20.359375 16.359375 C 21.890625 14.859375 23.421875 13.363281 24.953125 11.867188 Z M 24.953125 11.867188 "
      />
    </g>
    <mask id="mask39">
      <g filter="url(#alpha)">
        <rect x="0" y="0" width="25" height="25" style="fill: rgb(0%, 0%, 0%); fill-opacity: 0.933333; stroke: none" />
      </g>
    </mask>
    <clipPath id="clip40">
      <rect x="0" y="0" width="25" height="25" />
    </clipPath>
    <g id="surface122" clip-path="url(#clip40)">
      <path
        style="stroke: none; fill-rule: evenodd; fill: rgb(76.078433%, 84.705883%, 18.039216%); fill-opacity: 1"
        d="M 7.078125 12.15625 C 7.15625 12.246094 7.253906 12.3125 7.375 12.351562 C 7.636719 12.550781 7.863281 12.78125 8.054688 13.039062 C 8.050781 13.179688 8.082031 13.308594 8.15625 13.429688 C 8.1875 14.828125 7.503906 15.511719 6.101562 15.476562 C 6 15.386719 5.867188 15.355469 5.710938 15.382812 C 5.457031 15.1875 5.226562 14.960938 5.03125 14.695312 C 4.988281 14.578125 4.921875 14.480469 4.835938 14.40625 C 4.679688 13.824219 4.746094 13.273438 5.03125 12.742188 C 5.09375 12.742188 5.125 12.710938 5.125 12.648438 C 5.191406 12.648438 5.226562 12.613281 5.226562 12.546875 C 5.289062 12.546875 5.320312 12.515625 5.320312 12.453125 C 5.386719 12.453125 5.421875 12.417969 5.421875 12.351562 C 5.949219 12.070312 6.5 12.003906 7.078125 12.15625 Z M 7.078125 12.15625 "
      />
    </g>
    <mask id="mask40">
      <g filter="url(#alpha)">
        <rect x="0" y="0" width="25" height="25" style="fill: rgb(0%, 0%, 0%); fill-opacity: 0.937255; stroke: none" />
      </g>
    </mask>
    <clipPath id="clip41">
      <rect x="0" y="0" width="25" height="25" />
    </clipPath>
    <g id="surface125" clip-path="url(#clip41)">
      <path
        style="stroke: none; fill-rule: evenodd; fill: rgb(76.078433%, 84.705883%, 18.039216%); fill-opacity: 1"
        d="M 10.984375 12.0625 C 11.089844 12.152344 11.222656 12.183594 11.375 12.15625 C 11.695312 12.3125 11.957031 12.542969 12.15625 12.84375 C 12.207031 12.988281 12.269531 13.117188 12.351562 13.234375 C 12.453125 13.769531 12.390625 14.289062 12.15625 14.796875 C 12.09375 14.796875 12.0625 14.828125 12.0625 14.890625 C 11.996094 14.890625 11.960938 14.925781 11.960938 14.992188 C 11.898438 14.992188 11.867188 15.023438 11.867188 15.085938 C 11.800781 15.085938 11.765625 15.121094 11.765625 15.1875 C 11.238281 15.46875 10.683594 15.53125 10.109375 15.382812 C 10.019531 15.320312 9.921875 15.289062 9.8125 15.28125 C 9.515625 15.082031 9.289062 14.824219 9.132812 14.5 C 9.097656 14.371094 9.066406 14.242188 9.03125 14.109375 C 8.957031 12.734375 9.609375 12.050781 10.984375 12.0625 Z M 10.984375 12.0625 "
      />
    </g>
    <mask id="mask41">
      <g filter="url(#alpha)">
        <rect x="0" y="0" width="25" height="25" style="fill: rgb(0%, 0%, 0%); fill-opacity: 0.941176; stroke: none" />
      </g>
    </mask>
    <clipPath id="clip42">
      <rect x="0" y="0" width="25" height="25" />
    </clipPath>
    <g id="surface128" clip-path="url(#clip42)">
      <path
        style="stroke: none; fill-rule: evenodd; fill: rgb(76.078433%, 84.705883%, 18.039216%); fill-opacity: 1"
        d="M 14.992188 12.0625 C 15.132812 12.054688 15.261719 12.085938 15.382812 12.15625 C 15.746094 12.195312 16.039062 12.359375 16.257812 12.648438 C 16.324219 12.742188 16.390625 12.84375 16.453125 12.9375 C 16.621094 13.34375 16.683594 13.765625 16.648438 14.210938 C 16.585938 14.210938 16.554688 14.242188 16.554688 14.304688 C 16.359375 14.828125 16 15.1875 15.476562 15.382812 C 15.414062 15.382812 15.382812 15.414062 15.382812 15.476562 C 14.9375 15.511719 14.515625 15.449219 14.109375 15.28125 C 14.035156 15.195312 13.9375 15.128906 13.820312 15.085938 C 13.578125 14.839844 13.417969 14.546875 13.328125 14.210938 C 13.296875 14.078125 13.265625 13.949219 13.234375 13.820312 C 13.332031 12.742188 13.917969 12.15625 14.992188 12.0625 Z M 14.992188 12.0625 "
      />
    </g>
    <mask id="mask42">
      <g filter="url(#alpha)">
        <rect x="0" y="0" width="25" height="25" style="fill: rgb(0%, 0%, 0%); fill-opacity: 0.941176; stroke: none" />
      </g>
    </mask>
    <clipPath id="clip43">
      <rect x="0" y="0" width="25" height="25" />
    </clipPath>
    <g id="surface131" clip-path="url(#clip43)">
      <path
        style="stroke: none; fill-rule: evenodd; fill: rgb(76.078433%, 84.705883%, 18.039216%); fill-opacity: 1"
        d="M 18.898438 12.0625 C 19.058594 12.0625 19.222656 12.0625 19.382812 12.0625 C 19.734375 12.136719 20.058594 12.265625 20.359375 12.453125 C 20.425781 12.582031 20.523438 12.679688 20.65625 12.742188 C 20.796875 13.089844 20.894531 13.445312 20.945312 13.820312 C 20.882812 14.007812 20.851562 14.203125 20.851562 14.40625 C 20.621094 14.828125 20.296875 15.152344 19.875 15.382812 C 19.679688 15.414062 19.484375 15.445312 19.289062 15.476562 C 18.898438 15.480469 18.542969 15.382812 18.210938 15.1875 C 18.167969 15.046875 18.070312 14.984375 17.921875 14.992188 C 17.707031 14.660156 17.578125 14.304688 17.53125 13.914062 C 17.53125 13.753906 17.53125 13.589844 17.53125 13.429688 C 17.757812 12.742188 18.214844 12.289062 18.898438 12.0625 Z M 18.898438 12.0625 "
      />
    </g>
    <mask id="mask43">
      <g filter="url(#alpha)">
        <rect x="0" y="0" width="25" height="25" style="fill: rgb(0%, 0%, 0%); fill-opacity: 0.0235294; stroke: none" />
      </g>
    </mask>
    <clipPath id="clip44">
      <rect x="0" y="0" width="25" height="25" />
    </clipPath>
    <g id="surface134" clip-path="url(#clip44)">
      <path
        style="stroke: none; fill-rule: evenodd; fill: rgb(26.274511%, 26.666668%, 24.705882%); fill-opacity: 1"
        d="M 2.101562 13.234375 C 2.101562 13.394531 2.101562 13.558594 2.101562 13.71875 C 1.382812 14.40625 0.667969 15.085938 -0.046875 15.773438 C -0.046875 15.609375 -0.046875 15.445312 -0.046875 15.28125 C 0.667969 14.601562 1.382812 13.914062 2.101562 13.234375 Z M 2.101562 13.234375 "
      />
    </g>
    <mask id="mask44">
      <g filter="url(#alpha)">
        <rect x="0" y="0" width="25" height="25" style="fill: rgb(0%, 0%, 0%); fill-opacity: 0.0235294; stroke: none" />
      </g>
    </mask>
    <clipPath id="clip45">
      <rect x="0" y="0" width="25" height="25" />
    </clipPath>
    <g id="surface137" clip-path="url(#clip45)">
      <path
        style="stroke: none; fill-rule: evenodd; fill: rgb(26.274511%, 26.274511%, 24.705882%); fill-opacity: 1"
        d="M 17.53125 13.429688 C 17.53125 13.589844 17.53125 13.753906 17.53125 13.914062 C 16.8125 14.601562 16.097656 15.28125 15.382812 15.96875 C 15.25 15.96875 15.121094 15.96875 14.992188 15.96875 C 15.121094 15.804688 15.25 15.640625 15.382812 15.476562 C 15.445312 15.476562 15.476562 15.445312 15.476562 15.382812 C 16 15.1875 16.359375 14.828125 16.554688 14.304688 C 16.617188 14.304688 16.648438 14.273438 16.648438 14.210938 C 16.945312 13.949219 17.234375 13.6875 17.53125 13.429688 Z M 17.53125 13.429688 "
      />
    </g>
    <mask id="mask45">
      <g filter="url(#alpha)">
        <rect x="0" y="0" width="25" height="25" style="fill: rgb(0%, 0%, 0%); fill-opacity: 0.0235294; stroke: none" />
      </g>
    </mask>
    <clipPath id="clip46">
      <rect x="0" y="0" width="25" height="25" />
    </clipPath>
    <g id="surface140" clip-path="url(#clip46)">
      <path
        style="stroke: none; fill-rule: evenodd; fill: rgb(26.274511%, 26.666668%, 24.705882%); fill-opacity: 1"
        d="M 13.234375 13.820312 C 13.265625 13.949219 13.296875 14.078125 13.328125 14.210938 C 12.679688 14.828125 12.027344 15.445312 11.375 16.0625 C 11.25 16.085938 11.152344 16.054688 11.085938 15.96875 C 11.3125 15.707031 11.539062 15.445312 11.765625 15.1875 C 11.832031 15.1875 11.867188 15.152344 11.867188 15.085938 C 11.929688 15.085938 11.960938 15.054688 11.960938 14.992188 C 12.027344 14.992188 12.0625 14.957031 12.0625 14.890625 C 12.125 14.890625 12.15625 14.859375 12.15625 14.796875 C 12.515625 14.46875 12.875 14.144531 13.234375 13.820312 Z M 13.234375 13.820312 "
      />
    </g>
    <mask id="mask46">
      <g filter="url(#alpha)">
        <rect x="0" y="0" width="25" height="25" style="fill: rgb(0%, 0%, 0%); fill-opacity: 0.0235294; stroke: none" />
      </g>
    </mask>
    <clipPath id="clip47">
      <rect x="0" y="0" width="25" height="25" />
    </clipPath>
    <g id="surface143" clip-path="url(#clip47)">
      <path
        style="stroke: none; fill-rule: evenodd; fill: rgb(26.274511%, 26.666668%, 24.705882%); fill-opacity: 1"
        d="M 24.953125 13.820312 C 24.953125 13.980469 24.953125 14.144531 24.953125 14.304688 C 23.585938 15.640625 22.21875 16.976562 20.851562 18.3125 C 20.851562 18.109375 20.882812 17.914062 20.945312 17.726562 C 22.28125 16.421875 23.617188 15.121094 24.953125 13.820312 Z M 24.953125 13.820312 "
      />
    </g>
    <mask id="mask47">
      <g filter="url(#alpha)">
        <rect x="0" y="0" width="25" height="25" style="fill: rgb(0%, 0%, 0%); fill-opacity: 0.0235294; stroke: none" />
      </g>
    </mask>
    <clipPath id="clip48">
      <rect x="0" y="0" width="25" height="25" />
    </clipPath>
    <g id="surface146" clip-path="url(#clip48)">
      <path
        style="stroke: none; fill-rule: evenodd; fill: rgb(26.274511%, 26.666668%, 24.705882%); fill-opacity: 1"
        d="M 9.03125 14.109375 C 9.066406 14.242188 9.097656 14.371094 9.132812 14.5 C 8.546875 15.054688 7.960938 15.609375 7.375 16.164062 C 7.265625 16.15625 7.167969 16.125 7.078125 16.0625 C 7.699219 15.382812 8.351562 14.730469 9.03125 14.109375 Z M 9.03125 14.109375 "
      />
    </g>
    <mask id="mask48">
      <g filter="url(#alpha)">
        <rect x="0" y="0" width="25" height="25" style="fill: rgb(0%, 0%, 0%); fill-opacity: 0.0235294; stroke: none" />
      </g>
    </mask>
    <clipPath id="clip49">
      <rect x="0" y="0" width="25" height="25" />
    </clipPath>
    <g id="surface149" clip-path="url(#clip49)">
      <path
        style="stroke: none; fill-rule: evenodd; fill: rgb(26.274511%, 26.666668%, 24.705882%); fill-opacity: 1"
        d="M 4.835938 14.40625 C 4.921875 14.480469 4.988281 14.578125 5.03125 14.695312 C 4.28125 15.414062 3.53125 16.128906 2.78125 16.84375 C 2.78125 16.683594 2.78125 16.519531 2.78125 16.359375 C 3.46875 15.707031 4.148438 15.054688 4.835938 14.40625 Z M 4.835938 14.40625 "
      />
    </g>
    <mask id="mask49">
      <g filter="url(#alpha)">
        <rect x="0" y="0" width="25" height="25" style="fill: rgb(0%, 0%, 0%); fill-opacity: 0.0235294; stroke: none" />
      </g>
    </mask>
    <clipPath id="clip50">
      <rect x="0" y="0" width="25" height="25" />
    </clipPath>
    <g id="surface152" clip-path="url(#clip50)">
      <path
        style="stroke: none; fill-rule: evenodd; fill: rgb(26.274511%, 26.274511%, 24.705882%); fill-opacity: 1"
        d="M 17.921875 14.992188 C 18.070312 14.984375 18.167969 15.046875 18.210938 15.1875 C 17.625 15.738281 17.039062 16.292969 16.453125 16.84375 C 16.390625 16.75 16.324219 16.648438 16.257812 16.554688 C 16.8125 16.03125 17.367188 15.511719 17.921875 14.992188 Z M 17.921875 14.992188 "
      />
    </g>
    <mask id="mask50">
      <g filter="url(#alpha)">
        <rect x="0" y="0" width="25" height="25" style="fill: rgb(0%, 0%, 0%); fill-opacity: 0.0235294; stroke: none" />
      </g>
    </mask>
    <clipPath id="clip51">
      <rect x="0" y="0" width="25" height="25" />
    </clipPath>
    <g id="surface155" clip-path="url(#clip51)">
      <path
        style="stroke: none; fill-rule: evenodd; fill: rgb(26.274511%, 26.274511%, 24.705882%); fill-opacity: 1"
        d="M 13.820312 15.085938 C 13.9375 15.128906 14.035156 15.195312 14.109375 15.28125 C 13.558594 15.902344 12.972656 16.488281 12.351562 17.039062 C 12.265625 16.964844 12.199219 16.867188 12.15625 16.75 C 12.742188 16.226562 13.296875 15.671875 13.820312 15.085938 Z M 13.820312 15.085938 "
      />
    </g>
    <mask id="mask51">
      <g filter="url(#alpha)">
        <rect x="0" y="0" width="25" height="25" style="fill: rgb(0%, 0%, 0%); fill-opacity: 0.0235294; stroke: none" />
      </g>
    </mask>
    <clipPath id="clip52">
      <rect x="0" y="0" width="25" height="25" />
    </clipPath>
    <g id="surface158" clip-path="url(#clip52)">
      <path
        style="stroke: none; fill-rule: evenodd; fill: rgb(26.274511%, 26.666668%, 24.705882%); fill-opacity: 1"
        d="M 2.101562 15.1875 C 2.101562 15.347656 2.101562 15.511719 2.101562 15.671875 C 1.382812 16.359375 0.667969 17.039062 -0.046875 17.726562 C -0.046875 17.5625 -0.046875 17.398438 -0.046875 17.234375 C 0.667969 16.554688 1.382812 15.867188 2.101562 15.1875 Z M 2.101562 15.1875 "
      />
    </g>
    <mask id="mask52">
      <g filter="url(#alpha)">
        <rect x="0" y="0" width="25" height="25" style="fill: rgb(0%, 0%, 0%); fill-opacity: 0.0235294; stroke: none" />
      </g>
    </mask>
    <clipPath id="clip53">
      <rect x="0" y="0" width="25" height="25" />
    </clipPath>
    <g id="surface161" clip-path="url(#clip53)">
      <path
        style="stroke: none; fill-rule: evenodd; fill: rgb(26.274511%, 26.666668%, 24.705882%); fill-opacity: 1"
        d="M 9.8125 15.28125 C 9.921875 15.289062 10.019531 15.320312 10.109375 15.382812 C 9.488281 16.0625 8.835938 16.714844 8.15625 17.335938 C 8.082031 17.214844 8.050781 17.085938 8.054688 16.945312 C 8.640625 16.390625 9.226562 15.835938 9.8125 15.28125 Z M 9.8125 15.28125 "
      />
    </g>
    <mask id="mask53">
      <g filter="url(#alpha)">
        <rect x="0" y="0" width="25" height="25" style="fill: rgb(0%, 0%, 0%); fill-opacity: 0.0235294; stroke: none" />
      </g>
    </mask>
    <clipPath id="clip54">
      <rect x="0" y="0" width="25" height="25" />
    </clipPath>
    <g id="surface164" clip-path="url(#clip54)">
      <path
        style="stroke: none; fill-rule: evenodd; fill: rgb(26.274511%, 26.274511%, 24.705882%); fill-opacity: 1"
        d="M 5.710938 15.382812 C 5.867188 15.355469 6 15.386719 6.101562 15.476562 C 5.875 15.738281 5.648438 16 5.421875 16.257812 C 5.355469 16.257812 5.320312 16.292969 5.320312 16.359375 C 5.257812 16.359375 5.226562 16.390625 5.226562 16.453125 C 5.160156 16.453125 5.125 16.488281 5.125 16.554688 C 5.0625 16.554688 5.03125 16.585938 5.03125 16.648438 C 4.28125 17.367188 3.53125 18.082031 2.78125 18.796875 C 2.78125 18.636719 2.78125 18.472656 2.78125 18.3125 C 3.792969 17.367188 4.769531 16.390625 5.710938 15.382812 Z M 5.710938 15.382812 "
      />
    </g>
    <mask id="mask54">
      <g filter="url(#alpha)">
        <rect x="0" y="0" width="25" height="25" style="fill: rgb(0%, 0%, 0%); fill-opacity: 0.0235294; stroke: none" />
      </g>
    </mask>
    <clipPath id="clip55">
      <rect x="0" y="0" width="25" height="25" />
    </clipPath>
    <g id="surface167" clip-path="url(#clip55)">
      <path
        style="stroke: none; fill-rule: evenodd; fill: rgb(26.274511%, 26.274511%, 24.705882%); fill-opacity: 1"
        d="M 19.875 15.382812 C 19.710938 15.578125 19.546875 15.773438 19.382812 15.96875 C 19.222656 15.96875 19.058594 15.96875 18.898438 15.96875 C 19.027344 15.804688 19.15625 15.640625 19.289062 15.476562 C 19.484375 15.445312 19.679688 15.414062 19.875 15.382812 Z M 19.875 15.382812 "
      />
    </g>
    <mask id="mask55">
      <g filter="url(#alpha)">
        <rect x="0" y="0" width="25" height="25" style="fill: rgb(0%, 0%, 0%); fill-opacity: 0.0235294; stroke: none" />
      </g>
    </mask>
    <clipPath id="clip56">
      <rect x="0" y="0" width="25" height="25" />
    </clipPath>
    <g id="surface170" clip-path="url(#clip56)">
      <path
        style="stroke: none; fill-rule: evenodd; fill: rgb(26.274511%, 26.666668%, 24.705882%); fill-opacity: 1"
        d="M 24.953125 15.773438 C 24.953125 15.933594 24.953125 16.097656 24.953125 16.257812 C 23.390625 17.757812 21.859375 19.289062 20.359375 20.851562 C 20.199219 20.851562 20.035156 20.851562 19.875 20.851562 C 21.53125 19.125 23.226562 17.429688 24.953125 15.773438 Z M 24.953125 15.773438 "
      />
    </g>
    <mask id="mask56">
      <g filter="url(#alpha)">
        <rect x="0" y="0" width="25" height="25" style="fill: rgb(0%, 0%, 0%); fill-opacity: 0.937255; stroke: none" />
      </g>
    </mask>
    <clipPath id="clip57">
      <rect x="0" y="0" width="25" height="25" />
    </clipPath>
    <g id="surface173" clip-path="url(#clip57)">
      <path
        style="stroke: none; fill-rule: evenodd; fill: rgb(76.078433%, 84.705883%, 18.039216%); fill-opacity: 1"
        d="M 7.078125 16.0625 C 7.167969 16.125 7.265625 16.15625 7.375 16.164062 C 7.605469 16.425781 7.832031 16.683594 8.054688 16.945312 C 8.050781 17.085938 8.082031 17.214844 8.15625 17.335938 C 8.15625 18.703125 7.46875 19.382812 6.101562 19.382812 C 6.035156 19.296875 5.9375 19.265625 5.8125 19.289062 C 5.492188 19.132812 5.230469 18.902344 5.03125 18.601562 C 4.988281 18.484375 4.921875 18.386719 4.835938 18.3125 C 4.679688 17.730469 4.746094 17.179688 5.03125 16.648438 C 5.09375 16.648438 5.125 16.617188 5.125 16.554688 C 5.191406 16.554688 5.226562 16.519531 5.226562 16.453125 C 5.289062 16.453125 5.320312 16.421875 5.320312 16.359375 C 5.386719 16.359375 5.421875 16.324219 5.421875 16.257812 C 5.945312 15.980469 6.496094 15.914062 7.078125 16.0625 Z M 7.078125 16.0625 "
      />
    </g>
    <mask id="mask57">
      <g filter="url(#alpha)">
        <rect x="0" y="0" width="25" height="25" style="fill: rgb(0%, 0%, 0%); fill-opacity: 0.937255; stroke: none" />
      </g>
    </mask>
    <clipPath id="clip58">
      <rect x="0" y="0" width="25" height="25" />
    </clipPath>
    <g id="surface176" clip-path="url(#clip58)">
      <path
        style="stroke: none; fill-rule: evenodd; fill: rgb(76.078433%, 84.705883%, 18.039216%); fill-opacity: 1"
        d="M 11.085938 15.96875 C 11.152344 16.054688 11.25 16.085938 11.375 16.0625 C 11.695312 16.21875 11.957031 16.449219 12.15625 16.75 C 12.199219 16.867188 12.265625 16.964844 12.351562 17.039062 C 12.46875 17.613281 12.402344 18.164062 12.15625 18.703125 C 12.09375 18.703125 12.0625 18.734375 12.0625 18.796875 C 11.996094 18.796875 11.960938 18.832031 11.960938 18.898438 C 11.898438 18.898438 11.867188 18.929688 11.867188 18.992188 C 11.800781 18.992188 11.765625 19.027344 11.765625 19.09375 C 11.238281 19.375 10.683594 19.4375 10.109375 19.289062 C 10.019531 19.226562 9.921875 19.195312 9.8125 19.1875 C 9.515625 18.988281 9.289062 18.730469 9.132812 18.40625 C 9.097656 18.277344 9.066406 18.148438 9.03125 18.015625 C 8.964844 16.585938 9.648438 15.902344 11.085938 15.96875 Z M 11.085938 15.96875 "
      />
    </g>
    <mask id="mask58">
      <g filter="url(#alpha)">
        <rect x="0" y="0" width="25" height="25" style="fill: rgb(0%, 0%, 0%); fill-opacity: 0.945098; stroke: none" />
      </g>
    </mask>
    <clipPath id="clip59">
      <rect x="0" y="0" width="25" height="25" />
    </clipPath>
    <g id="surface179" clip-path="url(#clip59)">
      <path
        style="stroke: none; fill-rule: evenodd; fill: rgb(76.078433%, 84.705883%, 18.039216%); fill-opacity: 1"
        d="M 14.992188 15.96875 C 15.121094 15.96875 15.25 15.96875 15.382812 15.96875 C 15.722656 16.089844 16.015625 16.285156 16.257812 16.554688 C 16.324219 16.648438 16.390625 16.75 16.453125 16.84375 C 16.621094 17.25 16.683594 17.671875 16.648438 18.117188 C 16.585938 18.117188 16.554688 18.148438 16.554688 18.210938 C 16.359375 18.734375 16 19.09375 15.476562 19.289062 C 15.414062 19.289062 15.382812 19.320312 15.382812 19.382812 C 14.941406 19.40625 14.519531 19.34375 14.109375 19.1875 C 14.035156 19.101562 13.9375 19.035156 13.820312 18.992188 C 13.578125 18.746094 13.417969 18.453125 13.328125 18.117188 C 13.296875 17.984375 13.265625 17.855469 13.234375 17.726562 C 13.332031 16.648438 13.917969 16.0625 14.992188 15.96875 Z M 14.992188 15.96875 "
      />
    </g>
    <mask id="mask59">
      <g filter="url(#alpha)">
        <rect x="0" y="0" width="25" height="25" style="fill: rgb(0%, 0%, 0%); fill-opacity: 0.941176; stroke: none" />
      </g>
    </mask>
    <clipPath id="clip60">
      <rect x="0" y="0" width="25" height="25" />
    </clipPath>
    <g id="surface182" clip-path="url(#clip60)">
      <path
        style="stroke: none; fill-rule: evenodd; fill: rgb(76.078433%, 84.705883%, 18.039216%); fill-opacity: 1"
        d="M 18.898438 15.96875 C 19.058594 15.96875 19.222656 15.96875 19.382812 15.96875 C 19.734375 16.042969 20.058594 16.171875 20.359375 16.359375 C 20.425781 16.488281 20.523438 16.585938 20.65625 16.648438 C 20.796875 16.996094 20.894531 17.351562 20.945312 17.726562 C 20.882812 17.914062 20.851562 18.109375 20.851562 18.3125 C 20.621094 18.734375 20.296875 19.058594 19.875 19.289062 C 19.679688 19.320312 19.484375 19.351562 19.289062 19.382812 C 18.898438 19.386719 18.542969 19.289062 18.210938 19.09375 C 18.148438 18.960938 18.050781 18.863281 17.921875 18.796875 C 17.683594 18.519531 17.550781 18.191406 17.53125 17.820312 C 17.53125 17.660156 17.53125 17.496094 17.53125 17.335938 C 17.691406 16.585938 18.148438 16.128906 18.898438 15.96875 Z M 18.898438 15.96875 "
      />
    </g>
    <mask id="mask60">
      <g filter="url(#alpha)">
        <rect x="0" y="0" width="25" height="25" style="fill: rgb(0%, 0%, 0%); fill-opacity: 0.0235294; stroke: none" />
      </g>
    </mask>
    <clipPath id="clip61">
      <rect x="0" y="0" width="25" height="25" />
    </clipPath>
    <g id="surface185" clip-path="url(#clip61)">
      <path
        style="stroke: none; fill-rule: evenodd; fill: rgb(26.274511%, 26.666668%, 24.705882%); fill-opacity: 1"
        d="M 2.101562 17.140625 C 2.101562 17.300781 2.101562 17.464844 2.101562 17.625 C 1.382812 18.3125 0.667969 18.992188 -0.046875 19.679688 C -0.046875 19.515625 -0.046875 19.351562 -0.046875 19.1875 C 0.667969 18.507812 1.382812 17.820312 2.101562 17.140625 Z M 2.101562 17.140625 "
      />
    </g>
    <mask id="mask61">
      <g filter="url(#alpha)">
        <rect x="0" y="0" width="25" height="25" style="fill: rgb(0%, 0%, 0%); fill-opacity: 0.0235294; stroke: none" />
      </g>
    </mask>
    <clipPath id="clip62">
      <rect x="0" y="0" width="25" height="25" />
    </clipPath>
    <g id="surface188" clip-path="url(#clip62)">
      <path
        style="stroke: none; fill-rule: evenodd; fill: rgb(26.274511%, 26.666668%, 24.705882%); fill-opacity: 1"
        d="M 17.53125 17.335938 C 17.53125 17.496094 17.53125 17.660156 17.53125 17.820312 C 16.488281 18.796875 15.476562 19.808594 14.5 20.851562 C 14.339844 20.851562 14.175781 20.851562 14.015625 20.851562 C 14.46875 20.359375 14.925781 19.875 15.382812 19.382812 C 15.445312 19.382812 15.476562 19.351562 15.476562 19.289062 C 16 19.09375 16.359375 18.734375 16.554688 18.210938 C 16.617188 18.210938 16.648438 18.179688 16.648438 18.117188 C 16.945312 17.855469 17.234375 17.59375 17.53125 17.335938 Z M 17.53125 17.335938 "
      />
    </g>
    <mask id="mask62">
      <g filter="url(#alpha)">
        <rect x="0" y="0" width="25" height="25" style="fill: rgb(0%, 0%, 0%); fill-opacity: 0.0235294; stroke: none" />
      </g>
    </mask>
    <clipPath id="clip63">
      <rect x="0" y="0" width="25" height="25" />
    </clipPath>
    <g id="surface191" clip-path="url(#clip63)">
      <path
        style="stroke: none; fill-rule: evenodd; fill: rgb(26.274511%, 26.666668%, 24.705882%); fill-opacity: 1"
        d="M 13.234375 17.726562 C 13.265625 17.855469 13.296875 17.984375 13.328125 18.117188 C 12.386719 18.992188 11.476562 19.90625 10.59375 20.851562 C 10.433594 20.851562 10.269531 20.851562 10.109375 20.851562 C 10.660156 20.265625 11.214844 19.679688 11.765625 19.09375 C 11.832031 19.09375 11.867188 19.058594 11.867188 18.992188 C 11.929688 18.992188 11.960938 18.960938 11.960938 18.898438 C 12.027344 18.898438 12.0625 18.863281 12.0625 18.796875 C 12.125 18.796875 12.15625 18.765625 12.15625 18.703125 C 12.515625 18.375 12.875 18.050781 13.234375 17.726562 Z M 13.234375 17.726562 "
      />
    </g>
    <mask id="mask63">
      <g filter="url(#alpha)">
        <rect x="0" y="0" width="25" height="25" style="fill: rgb(0%, 0%, 0%); fill-opacity: 0.0235294; stroke: none" />
      </g>
    </mask>
    <clipPath id="clip64">
      <rect x="0" y="0" width="25" height="25" />
    </clipPath>
    <g id="surface194" clip-path="url(#clip64)">
      <path
        style="stroke: none; fill-rule: evenodd; fill: rgb(26.274511%, 26.666668%, 24.705882%); fill-opacity: 1"
        d="M 24.953125 17.726562 C 24.953125 17.886719 24.953125 18.050781 24.953125 18.210938 C 24.039062 19.058594 23.160156 19.9375 22.3125 20.851562 C 22.152344 20.851562 21.988281 20.851562 21.828125 20.851562 C 22.835938 19.773438 23.875 18.734375 24.953125 17.726562 Z M 24.953125 17.726562 "
      />
    </g>
    <mask id="mask64">
      <g filter="url(#alpha)">
        <rect x="0" y="0" width="25" height="25" style="fill: rgb(0%, 0%, 0%); fill-opacity: 0.0235294; stroke: none" />
      </g>
    </mask>
    <clipPath id="clip65">
      <rect x="0" y="0" width="25" height="25" />
    </clipPath>
    <g id="surface197" clip-path="url(#clip65)">
      <path
        style="stroke: none; fill-rule: evenodd; fill: rgb(26.274511%, 26.666668%, 24.705882%); fill-opacity: 1"
        d="M 9.03125 18.015625 C 9.066406 18.148438 9.097656 18.277344 9.132812 18.40625 C 8.285156 19.1875 7.46875 20.003906 6.6875 20.851562 C 6.527344 20.851562 6.363281 20.851562 6.203125 20.851562 C 7.113281 19.875 8.054688 18.929688 9.03125 18.015625 Z M 9.03125 18.015625 "
      />
    </g>
    <mask id="mask65">
      <g filter="url(#alpha)">
        <rect x="0" y="0" width="25" height="25" style="fill: rgb(0%, 0%, 0%); fill-opacity: 0.0235294; stroke: none" />
      </g>
    </mask>
    <clipPath id="clip66">
      <rect x="0" y="0" width="25" height="25" />
    </clipPath>
    <g id="surface200" clip-path="url(#clip66)">
      <path
        style="stroke: none; fill-rule: evenodd; fill: rgb(26.274511%, 26.666668%, 24.705882%); fill-opacity: 1"
        d="M 4.835938 18.3125 C 4.921875 18.386719 4.988281 18.484375 5.03125 18.601562 C 4.28125 19.320312 3.53125 20.035156 2.78125 20.75 C 2.78125 20.589844 2.78125 20.425781 2.78125 20.265625 C 3.46875 19.613281 4.148438 18.960938 4.835938 18.3125 Z M 4.835938 18.3125 "
      />
    </g>
    <mask id="mask66">
      <g filter="url(#alpha)">
        <rect x="0" y="0" width="25" height="25" style="fill: rgb(0%, 0%, 0%); fill-opacity: 0.0235294; stroke: none" />
      </g>
    </mask>
    <clipPath id="clip67">
      <rect x="0" y="0" width="25" height="25" />
    </clipPath>
    <g id="surface203" clip-path="url(#clip67)">
      <path
        style="stroke: none; fill-rule: evenodd; fill: rgb(26.274511%, 26.274511%, 24.705882%); fill-opacity: 1"
        d="M 17.921875 18.796875 C 18.050781 18.863281 18.148438 18.960938 18.210938 19.09375 C 17.59375 19.644531 17.007812 20.230469 16.453125 20.851562 C 16.292969 20.851562 16.128906 20.851562 15.96875 20.851562 C 16.617188 20.164062 17.269531 19.484375 17.921875 18.796875 Z M 17.921875 18.796875 "
      />
    </g>
    <mask id="mask67">
      <g filter="url(#alpha)">
        <rect x="0" y="0" width="25" height="25" style="fill: rgb(0%, 0%, 0%); fill-opacity: 0.0235294; stroke: none" />
      </g>
    </mask>
    <clipPath id="clip68">
      <rect x="0" y="0" width="25" height="25" />
    </clipPath>
    <g id="surface206" clip-path="url(#clip68)">
      <path
        style="stroke: none; fill-rule: evenodd; fill: rgb(26.274511%, 26.666668%, 24.705882%); fill-opacity: 1"
        d="M 13.820312 18.992188 C 13.9375 19.035156 14.035156 19.101562 14.109375 19.1875 C 13.589844 19.742188 13.070312 20.296875 12.546875 20.851562 C 12.386719 20.851562 12.222656 20.851562 12.0625 20.851562 C 12.648438 20.230469 13.234375 19.613281 13.820312 18.992188 Z M 13.820312 18.992188 "
      />
    </g>
    <mask id="mask68">
      <g filter="url(#alpha)">
        <rect x="0" y="0" width="25" height="25" style="fill: rgb(0%, 0%, 0%); fill-opacity: 0.0235294; stroke: none" />
      </g>
    </mask>
    <clipPath id="clip69">
      <rect x="0" y="0" width="25" height="25" />
    </clipPath>
    <g id="surface209" clip-path="url(#clip69)">
      <path
        style="stroke: none; fill-rule: evenodd; fill: rgb(26.274511%, 26.666668%, 24.705882%); fill-opacity: 1"
        d="M 2.101562 19.09375 C 2.101562 19.253906 2.101562 19.417969 2.101562 19.578125 C 1.382812 20.265625 0.667969 20.945312 -0.046875 21.632812 C -0.046875 21.46875 -0.046875 21.304688 -0.046875 21.140625 C 0.667969 20.460938 1.382812 19.773438 2.101562 19.09375 Z M 2.101562 19.09375 "
      />
    </g>
    <mask id="mask69">
      <g filter="url(#alpha)">
        <rect x="0" y="0" width="25" height="25" style="fill: rgb(0%, 0%, 0%); fill-opacity: 0.0235294; stroke: none" />
      </g>
    </mask>
    <clipPath id="clip70">
      <rect x="0" y="0" width="25" height="25" />
    </clipPath>
    <g id="surface212" clip-path="url(#clip70)">
      <path
        style="stroke: none; fill-rule: evenodd; fill: rgb(26.274511%, 26.666668%, 24.705882%); fill-opacity: 1"
        d="M 9.8125 19.1875 C 9.921875 19.195312 10.019531 19.226562 10.109375 19.289062 C 9.617188 19.808594 9.132812 20.328125 8.640625 20.851562 C 8.480469 20.851562 8.316406 20.851562 8.15625 20.851562 C 8.675781 20.265625 9.226562 19.710938 9.8125 19.1875 Z M 9.8125 19.1875 "
      />
    </g>
    <mask id="mask70">
      <g filter="url(#alpha)">
        <rect x="0" y="0" width="25" height="25" style="fill: rgb(0%, 0%, 0%); fill-opacity: 0.0235294; stroke: none" />
      </g>
    </mask>
    <clipPath id="clip71">
      <rect x="0" y="0" width="25" height="25" />
    </clipPath>
    <g id="surface215" clip-path="url(#clip71)">
      <path
        style="stroke: none; fill-rule: evenodd; fill: rgb(26.274511%, 26.666668%, 24.705882%); fill-opacity: 1"
        d="M 5.8125 19.289062 C 5.9375 19.265625 6.035156 19.296875 6.101562 19.382812 C 5.648438 19.875 5.191406 20.359375 4.734375 20.851562 C 4.574219 20.851562 4.410156 20.851562 4.25 20.851562 C 4.734375 20.296875 5.257812 19.773438 5.8125 19.289062 Z M 5.8125 19.289062 "
      />
    </g>
    <mask id="mask71">
      <g filter="url(#alpha)">
        <rect x="0" y="0" width="25" height="25" style="fill: rgb(0%, 0%, 0%); fill-opacity: 0.0235294; stroke: none" />
      </g>
    </mask>
    <clipPath id="clip72">
      <rect x="0" y="0" width="25" height="25" />
    </clipPath>
    <g id="surface218" clip-path="url(#clip72)">
      <path
        style="stroke: none; fill-rule: evenodd; fill: rgb(26.274511%, 26.666668%, 24.705882%); fill-opacity: 1"
        d="M 19.875 19.289062 C 19.382812 19.808594 18.898438 20.328125 18.40625 20.851562 C 18.246094 20.851562 18.082031 20.851562 17.921875 20.851562 C 18.375 20.359375 18.832031 19.875 19.289062 19.382812 C 19.484375 19.351562 19.679688 19.320312 19.875 19.289062 Z M 19.875 19.289062 "
      />
    </g>
    <mask id="mask72">
      <g filter="url(#alpha)">
        <rect x="0" y="0" width="25" height="25" style="fill: rgb(0%, 0%, 0%); fill-opacity: 0.0235294; stroke: none" />
      </g>
    </mask>
    <clipPath id="clip73">
      <rect x="0" y="0" width="25" height="25" />
    </clipPath>
    <g id="surface221" clip-path="url(#clip73)">
      <path
        style="stroke: none; fill-rule: evenodd; fill: rgb(26.274511%, 26.666668%, 24.705882%); fill-opacity: 1"
        d="M 24.953125 19.679688 C 24.953125 19.839844 24.953125 20.003906 24.953125 20.164062 C 23.324219 21.726562 21.726562 23.324219 20.164062 24.953125 C 20.003906 24.953125 19.839844 24.953125 19.679688 24.953125 C 21.402344 23.160156 23.160156 21.402344 24.953125 19.679688 Z M 24.953125 19.679688 "
      />
    </g>
    <mask id="mask73">
      <g filter="url(#alpha)">
        <rect x="0" y="0" width="25" height="25" style="fill: rgb(0%, 0%, 0%); fill-opacity: 0.0235294; stroke: none" />
      </g>
    </mask>
    <clipPath id="clip74">
      <rect x="0" y="0" width="25" height="25" />
    </clipPath>
    <g id="surface224" clip-path="url(#clip74)">
      <path
        style="stroke: none; fill-rule: evenodd; fill: rgb(26.274511%, 26.666668%, 24.705882%); fill-opacity: 1"
        d="M 2.101562 21.046875 C 2.101562 21.175781 2.101562 21.304688 2.101562 21.4375 C 1.414062 22.183594 0.699219 22.898438 -0.046875 23.585938 C -0.046875 23.421875 -0.046875 23.257812 -0.046875 23.09375 C 0.667969 22.414062 1.382812 21.726562 2.101562 21.046875 Z M 2.101562 21.046875 "
      />
    </g>
    <mask id="mask74">
      <g filter="url(#alpha)">
        <rect x="0" y="0" width="25" height="25" style="fill: rgb(0%, 0%, 0%); fill-opacity: 0.0235294; stroke: none" />
      </g>
    </mask>
    <clipPath id="clip75">
      <rect x="0" y="0" width="25" height="25" />
    </clipPath>
    <g id="surface227" clip-path="url(#clip75)">
      <path
        style="stroke: none; fill-rule: evenodd; fill: rgb(26.274511%, 26.666668%, 24.705882%); fill-opacity: 1"
        d="M 3.367188 21.632812 C 3.53125 21.632812 3.695312 21.632812 3.859375 21.632812 C 2.78125 22.738281 1.710938 23.84375 0.632812 24.953125 C 0.472656 24.953125 0.308594 24.953125 0.148438 24.953125 C 1.21875 23.84375 2.296875 22.738281 3.367188 21.632812 Z M 3.367188 21.632812 "
      />
    </g>
    <mask id="mask75">
      <g filter="url(#alpha)">
        <rect x="0" y="0" width="25" height="25" style="fill: rgb(0%, 0%, 0%); fill-opacity: 0.0235294; stroke: none" />
      </g>
    </mask>
    <clipPath id="clip76">
      <rect x="0" y="0" width="25" height="25" />
    </clipPath>
    <g id="surface230" clip-path="url(#clip76)">
      <path
        style="stroke: none; fill-rule: evenodd; fill: rgb(26.274511%, 26.666668%, 24.705882%); fill-opacity: 1"
        d="M 5.320312 21.632812 C 5.484375 21.632812 5.648438 21.632812 5.8125 21.632812 C 4.734375 22.738281 3.664062 23.84375 2.585938 24.953125 C 2.425781 24.953125 2.261719 24.953125 2.101562 24.953125 C 3.171875 23.84375 4.25 22.738281 5.320312 21.632812 Z M 5.320312 21.632812 "
      />
    </g>
    <mask id="mask76">
      <g filter="url(#alpha)">
        <rect x="0" y="0" width="25" height="25" style="fill: rgb(0%, 0%, 0%); fill-opacity: 0.0235294; stroke: none" />
      </g>
    </mask>
    <clipPath id="clip77">
      <rect x="0" y="0" width="25" height="25" />
    </clipPath>
    <g id="surface233" clip-path="url(#clip77)">
      <path
        style="stroke: none; fill-rule: evenodd; fill: rgb(26.274511%, 26.666668%, 24.705882%); fill-opacity: 1"
        d="M 7.273438 21.632812 C 7.4375 21.632812 7.601562 21.632812 7.765625 21.632812 C 6.6875 22.738281 5.617188 23.84375 4.539062 24.953125 C 4.378906 24.953125 4.214844 24.953125 4.054688 24.953125 C 5.125 23.84375 6.203125 22.738281 7.273438 21.632812 Z M 7.273438 21.632812 "
      />
    </g>
    <mask id="mask77">
      <g filter="url(#alpha)">
        <rect x="0" y="0" width="25" height="25" style="fill: rgb(0%, 0%, 0%); fill-opacity: 0.0235294; stroke: none" />
      </g>
    </mask>
    <clipPath id="clip78">
      <rect x="0" y="0" width="25" height="25" />
    </clipPath>
    <g id="surface236" clip-path="url(#clip78)">
      <path
        style="stroke: none; fill-rule: evenodd; fill: rgb(26.274511%, 26.666668%, 24.705882%); fill-opacity: 1"
        d="M 9.226562 21.632812 C 9.390625 21.632812 9.554688 21.632812 9.71875 21.632812 C 8.640625 22.738281 7.570312 23.84375 6.492188 24.953125 C 6.332031 24.953125 6.167969 24.953125 6.007812 24.953125 C 7.078125 23.84375 8.15625 22.738281 9.226562 21.632812 Z M 9.226562 21.632812 "
      />
    </g>
    <mask id="mask78">
      <g filter="url(#alpha)">
        <rect x="0" y="0" width="25" height="25" style="fill: rgb(0%, 0%, 0%); fill-opacity: 0.0235294; stroke: none" />
      </g>
    </mask>
    <clipPath id="clip79">
      <rect x="0" y="0" width="25" height="25" />
    </clipPath>
    <g id="surface239" clip-path="url(#clip79)">
      <path
        style="stroke: none; fill-rule: evenodd; fill: rgb(26.274511%, 26.666668%, 24.705882%); fill-opacity: 1"
        d="M 11.179688 21.632812 C 11.34375 21.632812 11.507812 21.632812 11.671875 21.632812 C 10.59375 22.738281 9.523438 23.84375 8.445312 24.953125 C 8.285156 24.953125 8.121094 24.953125 7.960938 24.953125 C 9.03125 23.84375 10.109375 22.738281 11.179688 21.632812 Z M 11.179688 21.632812 "
      />
    </g>
    <mask id="mask79">
      <g filter="url(#alpha)">
        <rect x="0" y="0" width="25" height="25" style="fill: rgb(0%, 0%, 0%); fill-opacity: 0.0235294; stroke: none" />
      </g>
    </mask>
    <clipPath id="clip80">
      <rect x="0" y="0" width="25" height="25" />
    </clipPath>
    <g id="surface242" clip-path="url(#clip80)">
      <path
        style="stroke: none; fill-rule: evenodd; fill: rgb(26.274511%, 26.666668%, 24.705882%); fill-opacity: 1"
        d="M 13.132812 21.632812 C 13.296875 21.632812 13.460938 21.632812 13.625 21.632812 C 12.546875 22.738281 11.476562 23.84375 10.398438 24.953125 C 10.238281 24.953125 10.074219 24.953125 9.914062 24.953125 C 10.984375 23.84375 12.0625 22.738281 13.132812 21.632812 Z M 13.132812 21.632812 "
      />
    </g>
    <mask id="mask80">
      <g filter="url(#alpha)">
        <rect x="0" y="0" width="25" height="25" style="fill: rgb(0%, 0%, 0%); fill-opacity: 0.0235294; stroke: none" />
      </g>
    </mask>
    <clipPath id="clip81">
      <rect x="0" y="0" width="25" height="25" />
    </clipPath>
    <g id="surface245" clip-path="url(#clip81)">
      <path
        style="stroke: none; fill-rule: evenodd; fill: rgb(26.274511%, 26.666668%, 24.705882%); fill-opacity: 1"
        d="M 15.085938 21.632812 C 15.25 21.632812 15.414062 21.632812 15.578125 21.632812 C 14.5 22.738281 13.429688 23.84375 12.351562 24.953125 C 12.191406 24.953125 12.027344 24.953125 11.867188 24.953125 C 12.9375 23.84375 14.015625 22.738281 15.085938 21.632812 Z M 15.085938 21.632812 "
      />
    </g>
    <mask id="mask81">
      <g filter="url(#alpha)">
        <rect x="0" y="0" width="25" height="25" style="fill: rgb(0%, 0%, 0%); fill-opacity: 0.0235294; stroke: none" />
      </g>
    </mask>
    <clipPath id="clip82">
      <rect x="0" y="0" width="25" height="25" />
    </clipPath>
    <g id="surface248" clip-path="url(#clip82)">
      <path
        style="stroke: none; fill-rule: evenodd; fill: rgb(26.274511%, 26.666668%, 24.705882%); fill-opacity: 1"
        d="M 17.039062 21.632812 C 17.203125 21.632812 17.367188 21.632812 17.53125 21.632812 C 16.453125 22.738281 15.382812 23.84375 14.304688 24.953125 C 14.144531 24.953125 13.980469 24.953125 13.820312 24.953125 C 14.890625 23.84375 15.96875 22.738281 17.039062 21.632812 Z M 17.039062 21.632812 "
      />
    </g>
    <mask id="mask82">
      <g filter="url(#alpha)">
        <rect x="0" y="0" width="25" height="25" style="fill: rgb(0%, 0%, 0%); fill-opacity: 0.0235294; stroke: none" />
      </g>
    </mask>
    <clipPath id="clip83">
      <rect x="0" y="0" width="25" height="25" />
    </clipPath>
    <g id="surface251" clip-path="url(#clip83)">
      <path
        style="stroke: none; fill-rule: evenodd; fill: rgb(26.274511%, 26.666668%, 24.705882%); fill-opacity: 1"
        d="M 18.992188 21.632812 C 19.15625 21.632812 19.320312 21.632812 19.484375 21.632812 C 18.40625 22.738281 17.335938 23.84375 16.257812 24.953125 C 16.097656 24.953125 15.933594 24.953125 15.773438 24.953125 C 16.84375 23.84375 17.921875 22.738281 18.992188 21.632812 Z M 18.992188 21.632812 "
      />
    </g>
    <mask id="mask83">
      <g filter="url(#alpha)">
        <rect x="0" y="0" width="25" height="25" style="fill: rgb(0%, 0%, 0%); fill-opacity: 0.0235294; stroke: none" />
      </g>
    </mask>
    <clipPath id="clip84">
      <rect x="0" y="0" width="25" height="25" />
    </clipPath>
    <g id="surface254" clip-path="url(#clip84)">
      <path
        style="stroke: none; fill-rule: evenodd; fill: rgb(26.274511%, 26.666668%, 24.705882%); fill-opacity: 1"
        d="M 20.945312 21.632812 C 21.109375 21.632812 21.273438 21.632812 21.4375 21.632812 C 20.359375 22.738281 19.289062 23.84375 18.210938 24.953125 C 18.050781 24.953125 17.886719 24.953125 17.726562 24.953125 C 18.796875 23.84375 19.875 22.738281 20.945312 21.632812 Z M 20.945312 21.632812 "
      />
    </g>
    <mask id="mask84">
      <g filter="url(#alpha)">
        <rect x="0" y="0" width="25" height="25" style="fill: rgb(0%, 0%, 0%); fill-opacity: 0.0235294; stroke: none" />
      </g>
    </mask>
    <clipPath id="clip85">
      <rect x="0" y="0" width="25" height="25" />
    </clipPath>
    <g id="surface257" clip-path="url(#clip85)">
      <path
        style="stroke: none; fill-rule: evenodd; fill: rgb(26.274511%, 26.666668%, 24.705882%); fill-opacity: 1"
        d="M 24.953125 21.632812 C 24.953125 21.792969 24.953125 21.957031 24.953125 22.117188 C 23.976562 23.03125 23.03125 23.976562 22.117188 24.953125 C 21.957031 24.953125 21.792969 24.953125 21.632812 24.953125 C 22.703125 23.8125 23.8125 22.703125 24.953125 21.632812 Z M 24.953125 21.632812 "
      />
    </g>
    <mask id="mask85">
      <g filter="url(#alpha)">
        <rect x="0" y="0" width="25" height="25" style="fill: rgb(0%, 0%, 0%); fill-opacity: 0.0235294; stroke: none" />
      </g>
    </mask>
    <clipPath id="clip86">
      <rect x="0" y="0" width="25" height="25" />
    </clipPath>
    <g id="surface260" clip-path="url(#clip86)">
      <path
        style="stroke: none; fill-rule: evenodd; fill: rgb(26.274511%, 26.666668%, 24.705882%); fill-opacity: 1"
        d="M 24.953125 23.585938 C 24.953125 23.746094 24.953125 23.910156 24.953125 24.070312 C 24.625 24.332031 24.332031 24.625 24.070312 24.953125 C 23.910156 24.953125 23.746094 24.953125 23.585938 24.953125 C 24.007812 24.460938 24.460938 24.007812 24.953125 23.585938 Z M 24.953125 23.585938 "
      />
    </g>
  </defs>
  <g id="surface1">
    <use xlink:href="#surface5" mask="url(#mask0)" />
    <use xlink:href="#surface8" mask="url(#mask1)" />
    <use xlink:href="#surface11" mask="url(#mask2)" />
    <use xlink:href="#surface14" mask="url(#mask3)" />
    <use xlink:href="#surface17" mask="url(#mask4)" />
    <use xlink:href="#surface20" mask="url(#mask5)" />
    <use xlink:href="#surface23" mask="url(#mask6)" />
    <use xlink:href="#surface26" mask="url(#mask7)" />
    <use xlink:href="#surface29" mask="url(#mask8)" />
    <use xlink:href="#surface32" mask="url(#mask9)" />
    <use xlink:href="#surface35" mask="url(#mask10)" />
    <use xlink:href="#surface38" mask="url(#mask11)" />
    <use xlink:href="#surface41" mask="url(#mask12)" />
    <use xlink:href="#surface44" mask="url(#mask13)" />
    <use xlink:href="#surface47" mask="url(#mask14)" />
    <use xlink:href="#surface50" mask="url(#mask15)" />
    <use xlink:href="#surface53" mask="url(#mask16)" />
    <use xlink:href="#surface56" mask="url(#mask17)" />
    <use xlink:href="#surface59" mask="url(#mask18)" />
    <use xlink:href="#surface62" mask="url(#mask19)" />
    <use xlink:href="#surface65" mask="url(#mask20)" />
    <use xlink:href="#surface68" mask="url(#mask21)" />
    <use xlink:href="#surface71" mask="url(#mask22)" />
    <use xlink:href="#surface74" mask="url(#mask23)" />
    <use xlink:href="#surface77" mask="url(#mask24)" />
    <use xlink:href="#surface80" mask="url(#mask25)" />
    <use xlink:href="#surface83" mask="url(#mask26)" />
    <use xlink:href="#surface86" mask="url(#mask27)" />
    <use xlink:href="#surface89" mask="url(#mask28)" />
    <use xlink:href="#surface92" mask="url(#mask29)" />
    <use xlink:href="#surface95" mask="url(#mask30)" />
    <use xlink:href="#surface98" mask="url(#mask31)" />
    <use xlink:href="#surface101" mask="url(#mask32)" />
    <use xlink:href="#surface104" mask="url(#mask33)" />
    <use xlink:href="#surface107" mask="url(#mask34)" />
    <use xlink:href="#surface110" mask="url(#mask35)" />
    <use xlink:href="#surface113" mask="url(#mask36)" />
    <use xlink:href="#surface116" mask="url(#mask37)" />
    <use xlink:href="#surface119" mask="url(#mask38)" />
    <use xlink:href="#surface122" mask="url(#mask39)" />
    <use xlink:href="#surface125" mask="url(#mask40)" />
    <use xlink:href="#surface128" mask="url(#mask41)" />
    <use xlink:href="#surface131" mask="url(#mask42)" />
    <use xlink:href="#surface134" mask="url(#mask43)" />
    <use xlink:href="#surface137" mask="url(#mask44)" />
    <use xlink:href="#surface140" mask="url(#mask45)" />
    <use xlink:href="#surface143" mask="url(#mask46)" />
    <use xlink:href="#surface146" mask="url(#mask47)" />
    <use xlink:href="#surface149" mask="url(#mask48)" />
    <use xlink:href="#surface152" mask="url(#mask49)" />
    <use xlink:href="#surface155" mask="url(#mask50)" />
    <use xlink:href="#surface158" mask="url(#mask51)" />
    <use xlink:href="#surface161" mask="url(#mask52)" />
    <use xlink:href="#surface164" mask="url(#mask53)" />
    <use xlink:href="#surface167" mask="url(#mask54)" />
    <use xlink:href="#surface170" mask="url(#mask55)" />
    <use xlink:href="#surface173" mask="url(#mask56)" />
    <use xlink:href="#surface176" mask="url(#mask57)" />
    <use xlink:href="#surface179" mask="url(#mask58)" />
    <use xlink:href="#surface182" mask="url(#mask59)" />
    <use xlink:href="#surface185" mask="url(#mask60)" />
    <use xlink:href="#surface188" mask="url(#mask61)" />
    <use xlink:href="#surface191" mask="url(#mask62)" />
    <use xlink:href="#surface194" mask="url(#mask63)" />
    <use xlink:href="#surface197" mask="url(#mask64)" />
    <use xlink:href="#surface200" mask="url(#mask65)" />
    <use xlink:href="#surface203" mask="url(#mask66)" />
    <use xlink:href="#surface206" mask="url(#mask67)" />
    <use xlink:href="#surface209" mask="url(#mask68)" />
    <use xlink:href="#surface212" mask="url(#mask69)" />
    <use xlink:href="#surface215" mask="url(#mask70)" />
    <use xlink:href="#surface218" mask="url(#mask71)" />
    <use xlink:href="#surface221" mask="url(#mask72)" />
    <use xlink:href="#surface224" mask="url(#mask73)" />
    <use xlink:href="#surface227" mask="url(#mask74)" />
    <use xlink:href="#surface230" mask="url(#mask75)" />
    <use xlink:href="#surface233" mask="url(#mask76)" />
    <use xlink:href="#surface236" mask="url(#mask77)" />
    <use xlink:href="#surface239" mask="url(#mask78)" />
    <use xlink:href="#surface242" mask="url(#mask79)" />
    <use xlink:href="#surface245" mask="url(#mask80)" />
    <use xlink:href="#surface248" mask="url(#mask81)" />
    <use xlink:href="#surface251" mask="url(#mask82)" />
    <use xlink:href="#surface254" mask="url(#mask83)" />
    <use xlink:href="#surface257" mask="url(#mask84)" />
    <use xlink:href="#surface260" mask="url(#mask85)" />
  </g>
</svg>
