<?xml version="1.0" encoding="UTF-8"?>
<!DOCTYPE svg PUBLIC "-//W3C//DTD SVG 1.1//EN" "http://www.w3.org/Graphics/SVG/1.1/DTD/svg11.dtd">
<svg xmlns="http://www.w3.org/2000/svg" version="1.1" width="512px" height="512px" style="shape-rendering:geometricPrecision; text-rendering:geometricPrecision; image-rendering:optimizeQuality; fill-rule:evenodd; clip-rule:evenodd" xmlns:xlink="http://www.w3.org/1999/xlink">
<g><path style="opacity:0.021" fill="#c2d82e" d="M -0.5,-0.5 C 0.166667,-0.5 0.833333,-0.5 1.5,-0.5C 1.16667,0.5 0.5,1.16667 -0.5,1.5C -0.5,0.833333 -0.5,0.166667 -0.5,-0.5 Z"/></g>
<g><path style="opacity:0.022" fill="#c2d82e" d="M 16.5,-0.5 C 18.1667,-0.5 19.8333,-0.5 21.5,-0.5C 14.5,7.16667 7.16667,14.5 -0.5,21.5C -0.5,19.8333 -0.5,18.1667 -0.5,16.5C 5.5,11.1667 11.1667,5.5 16.5,-0.5 Z"/></g>
<g><path style="opacity:0.022" fill="#c2d82e" d="M 36.5,-0.5 C 38.1667,-0.5 39.8333,-0.5 41.5,-0.5C 27.8333,13.8333 13.8333,27.8333 -0.5,41.5C -0.5,39.8333 -0.5,38.1667 -0.5,36.5C 12.1667,24.5 24.5,12.1667 36.5,-0.5 Z"/></g>
<g><path style="opacity:0.022" fill="#c2d82e" d="M 56.5,-0.5 C 58.1667,-0.5 59.8333,-0.5 61.5,-0.5C 56.8333,4.5 52.1667,9.5 47.5,14.5C 45.8333,14.5 44.1667,14.5 42.5,14.5C 47.1667,9.5 51.8333,4.5 56.5,-0.5 Z"/></g>
<g><path style="opacity:0.022" fill="#c2d82e" d="M 76.5,-0.5 C 78.1667,-0.5 79.8333,-0.5 81.5,-0.5C 76.8333,4.5 72.1667,9.5 67.5,14.5C 65.8333,14.5 64.1667,14.5 62.5,14.5C 67.1667,9.5 71.8333,4.5 76.5,-0.5 Z"/></g>
<g><path style="opacity:0.022" fill="#c2d82e" d="M 96.5,-0.5 C 98.1667,-0.5 99.8333,-0.5 101.5,-0.5C 96.8333,4.5 92.1667,9.5 87.5,14.5C 85.8333,14.5 84.1667,14.5 82.5,14.5C 87.1667,9.5 91.8333,4.5 96.5,-0.5 Z"/></g>
<g><path style="opacity:0.022" fill="#c2d82e" d="M 116.5,-0.5 C 118.167,-0.5 119.833,-0.5 121.5,-0.5C 116.833,4.5 112.167,9.5 107.5,14.5C 105.833,14.5 104.167,14.5 102.5,14.5C 107.167,9.5 111.833,4.5 116.5,-0.5 Z"/></g>
<g><path style="opacity:0.022" fill="#c2d82e" d="M 136.5,-0.5 C 138.167,-0.5 139.833,-0.5 141.5,-0.5C 134.167,7.5 126.5,15.1667 118.5,22.5C 118.5,20.8333 118.5,19.1667 118.5,17.5C 124.833,11.8333 130.833,5.83333 136.5,-0.5 Z"/></g>
<g><path style="opacity:0.022" fill="#c2d82e" d="M 156.5,-0.5 C 158.167,-0.5 159.833,-0.5 161.5,-0.5C 147.5,14.1667 133.167,28.5 118.5,42.5C 118.5,40.8333 118.5,39.1667 118.5,37.5C 131.5,25.1667 144.167,12.5 156.5,-0.5 Z"/></g>
<g><path style="opacity:0.022" fill="#c2d82e" d="M 176.5,-0.5 C 178.167,-0.5 179.833,-0.5 181.5,-0.5C 176.833,4.5 172.167,9.5 167.5,14.5C 165.833,14.5 164.167,14.5 162.5,14.5C 167.167,9.5 171.833,4.5 176.5,-0.5 Z"/></g>
<g><path style="opacity:0.022" fill="#c2d82e" d="M 196.5,-0.5 C 198.167,-0.5 199.833,-0.5 201.5,-0.5C 196.833,4.5 192.167,9.5 187.5,14.5C 185.833,14.5 184.167,14.5 182.5,14.5C 187.167,9.5 191.833,4.5 196.5,-0.5 Z"/></g>
<g><path style="opacity:0.022" fill="#c2d82e" d="M 216.5,-0.5 C 218.167,-0.5 219.833,-0.5 221.5,-0.5C 216.833,4.5 212.167,9.5 207.5,14.5C 205.833,14.5 204.167,14.5 202.5,14.5C 207.167,9.5 211.833,4.5 216.5,-0.5 Z"/></g>
<g><path style="opacity:0.022" fill="#c2d82e" d="M 236.5,-0.5 C 238.167,-0.5 239.833,-0.5 241.5,-0.5C 236.833,4.5 232.167,9.5 227.5,14.5C 225.833,14.5 224.167,14.5 222.5,14.5C 227.167,9.5 231.833,4.5 236.5,-0.5 Z"/></g>
<g><path style="opacity:0.022" fill="#c2d82e" d="M 256.5,-0.5 C 258.167,-0.5 259.833,-0.5 261.5,-0.5C 254.5,7.16667 247.167,14.5 239.5,21.5C 239.5,19.8333 239.5,18.1667 239.5,16.5C 245.5,11.1667 251.167,5.5 256.5,-0.5 Z"/></g>
<g><path style="opacity:0.022" fill="#c2d82e" d="M 276.5,-0.5 C 278.167,-0.5 279.833,-0.5 281.5,-0.5C 267.833,13.8333 253.833,27.8333 239.5,41.5C 239.5,39.8333 239.5,38.1667 239.5,36.5C 252.167,24.5 264.5,12.1667 276.5,-0.5 Z"/></g>
<g><path style="opacity:0.022" fill="#c2d82e" d="M 296.5,-0.5 C 298.167,-0.5 299.833,-0.5 301.5,-0.5C 296.833,4.5 292.167,9.5 287.5,14.5C 285.833,14.5 284.167,14.5 282.5,14.5C 287.167,9.5 291.833,4.5 296.5,-0.5 Z"/></g>
<g><path style="opacity:0.022" fill="#c2d82e" d="M 316.5,-0.5 C 318.167,-0.5 319.833,-0.5 321.5,-0.5C 316.833,4.5 312.167,9.5 307.5,14.5C 305.833,14.5 304.167,14.5 302.5,14.5C 307.167,9.5 311.833,4.5 316.5,-0.5 Z"/></g>
<g><path style="opacity:0.022" fill="#c2d82e" d="M 336.5,-0.5 C 338.167,-0.5 339.833,-0.5 341.5,-0.5C 336.833,4.5 332.167,9.5 327.5,14.5C 325.833,14.5 324.167,14.5 322.5,14.5C 327.167,9.5 331.833,4.5 336.5,-0.5 Z"/></g>
<g><path style="opacity:0.022" fill="#c2d82e" d="M 356.5,-0.5 C 358.167,-0.5 359.833,-0.5 361.5,-0.5C 356.833,4.5 352.167,9.5 347.5,14.5C 345.833,14.5 344.167,14.5 342.5,14.5C 347.167,9.5 351.833,4.5 356.5,-0.5 Z"/></g>
<g><path style="opacity:0.022" fill="#c2d82e" d="M 376.5,-0.5 C 378.167,-0.5 379.833,-0.5 381.5,-0.5C 374.5,7.16667 367.167,14.5 359.5,21.5C 359.5,19.8333 359.5,18.1667 359.5,16.5C 365.5,11.1667 371.167,5.5 376.5,-0.5 Z"/></g>
<g><path style="opacity:0.022" fill="#c2d82e" d="M 396.5,-0.5 C 398.167,-0.5 399.833,-0.5 401.5,-0.5C 387.833,13.8333 373.833,27.8333 359.5,41.5C 359.5,39.8333 359.5,38.1667 359.5,36.5C 372.167,24.5 384.5,12.1667 396.5,-0.5 Z"/></g>
<g><path style="opacity:0.022" fill="#c2d82e" d="M 416.5,-0.5 C 418.167,-0.5 419.833,-0.5 421.5,-0.5C 416.833,4.5 412.167,9.5 407.5,14.5C 405.833,14.5 404.167,14.5 402.5,14.5C 407.167,9.5 411.833,4.5 416.5,-0.5 Z"/></g>
<g><path style="opacity:0.022" fill="#c2d82e" d="M 436.5,-0.5 C 438.167,-0.5 439.833,-0.5 441.5,-0.5C 436.833,4.5 432.167,9.5 427.5,14.5C 425.833,14.5 424.167,14.5 422.5,14.5C 427.167,9.5 431.833,4.5 436.5,-0.5 Z"/></g>
<g><path style="opacity:0.022" fill="#c2d82e" d="M 456.5,-0.5 C 458.167,-0.5 459.833,-0.5 461.5,-0.5C 456.833,4.5 452.167,9.5 447.5,14.5C 445.833,14.5 444.167,14.5 442.5,14.5C 447.167,9.5 451.833,4.5 456.5,-0.5 Z"/></g>
<g><path style="opacity:0.022" fill="#c2d82e" d="M 476.5,-0.5 C 478.167,-0.5 479.833,-0.5 481.5,-0.5C 476.833,4.5 472.167,9.5 467.5,14.5C 465.833,14.5 464.167,14.5 462.5,14.5C 467.167,9.5 471.833,4.5 476.5,-0.5 Z"/></g>
<g><path style="opacity:0.022" fill="#c2d82e" d="M 496.5,-0.5 C 498.167,-0.5 499.833,-0.5 501.5,-0.5C 494.833,6.83333 487.833,13.8333 480.5,20.5C 480.5,18.8333 480.5,17.1667 480.5,15.5C 486.167,10.5 491.5,5.16667 496.5,-0.5 Z"/></g>
<g><path style="opacity:0.022" fill="#c2d82e" d="M 511.5,5.5 C 511.5,7.16667 511.5,8.83333 511.5,10.5C 501.167,20.5 490.833,30.5 480.5,40.5C 480.5,38.8333 480.5,37.1667 480.5,35.5C 490.833,25.5 501.167,15.5 511.5,5.5 Z"/></g>
<g><path style="opacity:1" fill="#004344" d="M 42.5,14.5 C 44.1667,14.5 45.8333,14.5 47.5,14.5C 52.5,14.5 57.5,14.5 62.5,14.5C 64.1667,14.5 65.8333,14.5 67.5,14.5C 72.5,14.5 77.5,14.5 82.5,14.5C 84.1667,14.5 85.8333,14.5 87.5,14.5C 69.1667,33.5 50.5,52.1667 31.5,70.5C 31.5,68.8333 31.5,67.1667 31.5,65.5C 31.5,60.5 31.5,55.5 31.5,50.5C 31.5,48.8333 31.5,47.1667 31.5,45.5C 31.5,40.5 31.5,35.5 31.5,30.5C 31.5,28.8333 31.5,27.1667 31.5,25.5C 31.5,21.8333 31.5,18.1667 31.5,14.5C 35.1667,14.5 38.8333,14.5 42.5,14.5 Z"/></g>
<g><path style="opacity:1" fill="#004344" d="M 87.5,14.5 C 92.5,14.5 97.5,14.5 102.5,14.5C 104.167,14.5 105.833,14.5 107.5,14.5C 82.5,40.1667 57.1667,65.5 31.5,90.5C 31.5,88.8333 31.5,87.1667 31.5,85.5C 31.5,80.5 31.5,75.5 31.5,70.5C 50.5,52.1667 69.1667,33.5 87.5,14.5 Z"/></g>
<g><path style="opacity:1" fill="#004344" d="M 107.5,14.5 C 111.167,14.5 114.833,14.5 118.5,14.5C 118.5,15.5 118.5,16.5 118.5,17.5C 118.5,19.1667 118.5,20.8333 118.5,22.5C 118.5,23.1667 118.5,23.8333 118.5,24.5C 89.5,53.1667 60.5,81.8333 31.5,110.5C 31.5,108.833 31.5,107.167 31.5,105.5C 31.5,100.5 31.5,95.5 31.5,90.5C 57.1667,65.5 82.5,40.1667 107.5,14.5 Z"/></g>
<g><path style="opacity:1" fill="#004344" d="M 162.5,14.5 C 164.167,14.5 165.833,14.5 167.5,14.5C 172.5,14.5 177.5,14.5 182.5,14.5C 184.167,14.5 185.833,14.5 187.5,14.5C 192.5,14.5 197.5,14.5 202.5,14.5C 204.167,14.5 205.833,14.5 207.5,14.5C 189.5,33.1667 171.167,51.5 152.5,69.5C 152.5,67.8333 152.5,66.1667 152.5,64.5C 152.5,59.5 152.5,54.5 152.5,49.5C 152.5,47.8333 152.5,46.1667 152.5,44.5C 152.5,39.5 152.5,34.5 152.5,29.5C 152.5,27.8333 152.5,26.1667 152.5,24.5C 152.5,21.1667 152.5,17.8333 152.5,14.5C 155.833,14.5 159.167,14.5 162.5,14.5 Z"/></g>
<g><path style="opacity:1" fill="#004344" d="M 207.5,14.5 C 212.5,14.5 217.5,14.5 222.5,14.5C 224.167,14.5 225.833,14.5 227.5,14.5C 202.833,39.8333 177.833,64.8333 152.5,89.5C 152.5,87.8333 152.5,86.1667 152.5,84.5C 152.5,79.5 152.5,74.5 152.5,69.5C 171.167,51.5 189.5,33.1667 207.5,14.5 Z"/></g>
<g><path style="opacity:1" fill="#004344" d="M 227.5,14.5 C 231.971,13.9106 235.971,14.5772 239.5,16.5C 239.5,18.1667 239.5,19.8333 239.5,21.5C 239.5,22.1667 239.5,22.8333 239.5,23.5C 210.5,52.1667 181.5,80.8333 152.5,109.5C 152.5,107.833 152.5,106.167 152.5,104.5C 152.5,99.5 152.5,94.5 152.5,89.5C 177.833,64.8333 202.833,39.8333 227.5,14.5 Z"/></g>
<g><path style="opacity:1" fill="#004344" d="M 282.5,14.5 C 284.167,14.5 285.833,14.5 287.5,14.5C 292.5,14.5 297.5,14.5 302.5,14.5C 304.167,14.5 305.833,14.5 307.5,14.5C 312.5,14.5 317.5,14.5 322.5,14.5C 324.167,14.5 325.833,14.5 327.5,14.5C 309.833,32.8333 291.833,50.8333 273.5,68.5C 273.5,66.8333 273.5,65.1667 273.5,63.5C 273.5,58.5 273.5,53.5 273.5,48.5C 273.5,46.8333 273.5,45.1667 273.5,43.5C 273.5,38.5 273.5,33.5 273.5,28.5C 273.5,26.8333 273.5,25.1667 273.5,23.5C 273.5,20.5 273.5,17.5 273.5,14.5C 276.5,14.5 279.5,14.5 282.5,14.5 Z"/></g>
<g><path style="opacity:1" fill="#004344" d="M 327.5,14.5 C 332.5,14.5 337.5,14.5 342.5,14.5C 344.167,14.5 345.833,14.5 347.5,14.5C 351.971,13.9106 355.971,14.5772 359.5,16.5C 359.5,18.1667 359.5,19.8333 359.5,21.5C 359.5,22.1667 359.5,22.8333 359.5,23.5C 330.833,51.8333 302.167,80.1667 273.5,108.5C 273.5,106.833 273.5,105.167 273.5,103.5C 273.5,98.5 273.5,93.5 273.5,88.5C 273.5,86.8333 273.5,85.1667 273.5,83.5C 273.5,78.5 273.5,73.5 273.5,68.5C 291.833,50.8333 309.833,32.8333 327.5,14.5 Z"/></g>
<g><path style="opacity:1" fill="#004344" d="M 402.5,14.5 C 404.167,14.5 405.833,14.5 407.5,14.5C 412.5,14.5 417.5,14.5 422.5,14.5C 424.167,14.5 425.833,14.5 427.5,14.5C 432.5,14.5 437.5,14.5 442.5,14.5C 444.167,14.5 445.833,14.5 447.5,14.5C 429.833,32.8333 411.833,50.8333 393.5,68.5C 393.5,66.8333 393.5,65.1667 393.5,63.5C 393.5,58.5 393.5,53.5 393.5,48.5C 393.5,46.8333 393.5,45.1667 393.5,43.5C 393.5,38.5 393.5,33.5 393.5,28.5C 393.5,26.8333 393.5,25.1667 393.5,23.5C 393.5,20.5 393.5,17.5 393.5,14.5C 396.5,14.5 399.5,14.5 402.5,14.5 Z"/></g>
<g><path style="opacity:1" fill="#004344" d="M 447.5,14.5 C 452.5,14.5 457.5,14.5 462.5,14.5C 464.167,14.5 465.833,14.5 467.5,14.5C 472.032,14.1818 476.366,14.5151 480.5,15.5C 480.5,17.1667 480.5,18.8333 480.5,20.5C 480.5,21.1667 480.5,21.8333 480.5,22.5C 451.5,51.1667 422.5,79.8333 393.5,108.5C 393.5,106.833 393.5,105.167 393.5,103.5C 393.5,98.5 393.5,93.5 393.5,88.5C 393.5,86.8333 393.5,85.1667 393.5,83.5C 393.5,78.5 393.5,73.5 393.5,68.5C 411.833,50.8333 429.833,32.8333 447.5,14.5 Z"/></g>
<g><path style="opacity:1" fill="#004344" d="M 480.5,22.5 C 480.5,26.8333 480.5,31.1667 480.5,35.5C 480.5,37.1667 480.5,38.8333 480.5,40.5C 480.5,45.5 480.5,50.5 480.5,55.5C 451.5,84.1667 422.5,112.833 393.5,141.5C 393.5,137.167 393.5,132.833 393.5,128.5C 393.5,126.833 393.5,125.167 393.5,123.5C 393.5,118.5 393.5,113.5 393.5,108.5C 422.5,79.8333 451.5,51.1667 480.5,22.5 Z"/></g>
<g><path style="opacity:1" fill="#004344" d="M 239.5,23.5 C 239.5,27.8333 239.5,32.1667 239.5,36.5C 239.5,38.1667 239.5,39.8333 239.5,41.5C 239.5,46.5 239.5,51.5 239.5,56.5C 210.5,85.1667 181.5,113.833 152.5,142.5C 152.5,138.167 152.5,133.833 152.5,129.5C 152.5,127.833 152.5,126.167 152.5,124.5C 152.5,119.5 152.5,114.5 152.5,109.5C 181.5,80.8333 210.5,52.1667 239.5,23.5 Z"/></g>
<g><path style="opacity:0.022" fill="#c2d82e" d="M 273.5,23.5 C 273.5,25.1667 273.5,26.8333 273.5,28.5C 262.167,39.5 250.833,50.5 239.5,61.5C 239.5,59.8333 239.5,58.1667 239.5,56.5C 250.833,45.5 262.167,34.5 273.5,23.5 Z"/></g>
<g><path style="opacity:1" fill="#004344" d="M 359.5,23.5 C 359.5,27.8333 359.5,32.1667 359.5,36.5C 359.5,38.1667 359.5,39.8333 359.5,41.5C 359.5,42.1667 359.5,42.8333 359.5,43.5C 330.833,71.8333 302.167,100.167 273.5,128.5C 273.5,126.833 273.5,125.167 273.5,123.5C 273.5,118.5 273.5,113.5 273.5,108.5C 302.167,80.1667 330.833,51.8333 359.5,23.5 Z"/></g>
<g><path style="opacity:0.022" fill="#c2d82e" d="M 393.5,23.5 C 393.5,25.1667 393.5,26.8333 393.5,28.5C 382.167,39.5 370.833,50.5 359.5,61.5C 359.5,59.8333 359.5,58.1667 359.5,56.5C 370.833,45.5 382.167,34.5 393.5,23.5 Z"/></g>
<g><path style="opacity:1" fill="#004344" d="M 118.5,24.5 C 118.5,28.8333 118.5,33.1667 118.5,37.5C 118.5,39.1667 118.5,40.8333 118.5,42.5C 118.5,43.1667 118.5,43.8333 118.5,44.5C 89.5,73.1667 60.5,101.833 31.5,130.5C 31.5,128.833 31.5,127.167 31.5,125.5C 31.5,120.5 31.5,115.5 31.5,110.5C 60.5,81.8333 89.5,53.1667 118.5,24.5 Z"/></g>
<g><path style="opacity:0.022" fill="#c2d82e" d="M 152.5,24.5 C 152.5,26.1667 152.5,27.8333 152.5,29.5C 141.167,40.5 129.833,51.5 118.5,62.5C 118.5,60.8333 118.5,59.1667 118.5,57.5C 129.833,46.5 141.167,35.5 152.5,24.5 Z"/></g>
<g><path style="opacity:0.022" fill="#c2d82e" d="M 31.5,25.5 C 31.5,27.1667 31.5,28.8333 31.5,30.5C 20.8333,40.8333 10.1667,51.1667 -0.5,61.5C -0.5,59.8333 -0.5,58.1667 -0.5,56.5C 10.1667,46.1667 20.8333,35.8333 31.5,25.5 Z"/></g>
<g><path style="opacity:0.022" fill="#c2d82e" d="M 511.5,25.5 C 511.5,27.1667 511.5,28.8333 511.5,30.5C 501.167,40.5 490.833,50.5 480.5,60.5C 480.5,58.8333 480.5,57.1667 480.5,55.5C 490.833,45.5 501.167,35.5 511.5,25.5 Z"/></g>
<g><path style="opacity:0.022" fill="#c2d82e" d="M 273.5,43.5 C 273.5,45.1667 273.5,46.8333 273.5,48.5C 262.167,59.5 250.833,70.5 239.5,81.5C 239.5,79.8333 239.5,78.1667 239.5,76.5C 250.833,65.5 262.167,54.5 273.5,43.5 Z"/></g>
<g><path style="opacity:1" fill="#004344" d="M 359.5,43.5 C 359.5,47.8333 359.5,52.1667 359.5,56.5C 359.5,58.1667 359.5,59.8333 359.5,61.5C 359.5,62.1667 359.5,62.8333 359.5,63.5C 330.833,91.8333 302.167,120.167 273.5,148.5C 273.5,146.833 273.5,145.167 273.5,143.5C 273.5,138.5 273.5,133.5 273.5,128.5C 302.167,100.167 330.833,71.8333 359.5,43.5 Z"/></g>
<g><path style="opacity:0.022" fill="#c2d82e" d="M 393.5,43.5 C 393.5,45.1667 393.5,46.8333 393.5,48.5C 382.167,59.5 370.833,70.5 359.5,81.5C 359.5,79.8333 359.5,78.1667 359.5,76.5C 370.833,65.5 382.167,54.5 393.5,43.5 Z"/></g>
<g><path style="opacity:1" fill="#004344" d="M 118.5,44.5 C 118.5,48.8333 118.5,53.1667 118.5,57.5C 118.5,59.1667 118.5,60.8333 118.5,62.5C 118.5,63.1667 118.5,63.8333 118.5,64.5C 89.5,93.1667 60.5,121.833 31.5,150.5C 31.5,148.833 31.5,147.167 31.5,145.5C 31.5,140.5 31.5,135.5 31.5,130.5C 60.5,101.833 89.5,73.1667 118.5,44.5 Z"/></g>
<g><path style="opacity:0.022" fill="#c2d82e" d="M 152.5,44.5 C 152.5,46.1667 152.5,47.8333 152.5,49.5C 141.167,60.5 129.833,71.5 118.5,82.5C 118.5,80.8333 118.5,79.1667 118.5,77.5C 129.833,66.5 141.167,55.5 152.5,44.5 Z"/></g>
<g><path style="opacity:0.022" fill="#c2d82e" d="M 31.5,45.5 C 31.5,47.1667 31.5,48.8333 31.5,50.5C 20.8333,60.8333 10.1667,71.1667 -0.5,81.5C -0.5,79.8333 -0.5,78.1667 -0.5,76.5C 10.1667,66.1667 20.8333,55.8333 31.5,45.5 Z"/></g>
<g><path style="opacity:0.022" fill="#c2d82e" d="M 511.5,45.5 C 511.5,47.1667 511.5,48.8333 511.5,50.5C 501.167,60.5 490.833,70.5 480.5,80.5C 480.5,78.8333 480.5,77.1667 480.5,75.5C 490.833,65.5 501.167,55.5 511.5,45.5 Z"/></g>
<g><path style="opacity:1" fill="#004344" d="M 480.5,55.5 C 480.5,57.1667 480.5,58.8333 480.5,60.5C 480.5,65.5 480.5,70.5 480.5,75.5C 480.5,77.1667 480.5,78.8333 480.5,80.5C 480.5,85.5 480.5,90.5 480.5,95.5C 458.833,116.5 437.5,137.833 416.5,159.5C 408.833,159.5 401.167,159.5 393.5,159.5C 393.5,155.833 393.5,152.167 393.5,148.5C 393.5,146.833 393.5,145.167 393.5,143.5C 393.5,142.833 393.5,142.167 393.5,141.5C 422.5,112.833 451.5,84.1667 480.5,55.5 Z"/></g>
<g><path style="opacity:1" fill="#004344" d="M 239.5,56.5 C 239.5,58.1667 239.5,59.8333 239.5,61.5C 239.5,66.5 239.5,71.5 239.5,76.5C 239.5,78.1667 239.5,79.8333 239.5,81.5C 239.5,82.1667 239.5,82.8333 239.5,83.5C 213.833,108.5 188.5,133.833 163.5,159.5C 159.833,159.5 156.167,159.5 152.5,159.5C 152.5,156.167 152.5,152.833 152.5,149.5C 152.5,147.833 152.5,146.167 152.5,144.5C 152.5,143.833 152.5,143.167 152.5,142.5C 181.5,113.833 210.5,85.1667 239.5,56.5 Z"/></g>
<g><path style="opacity:0.022" fill="#c2d82e" d="M 273.5,63.5 C 273.5,65.1667 273.5,66.8333 273.5,68.5C 262.167,79.5 250.833,90.5 239.5,101.5C 239.5,99.8333 239.5,98.1667 239.5,96.5C 250.833,85.5 262.167,74.5 273.5,63.5 Z"/></g>
<g><path style="opacity:1" fill="#004344" d="M 359.5,63.5 C 359.5,67.8333 359.5,72.1667 359.5,76.5C 359.5,78.1667 359.5,79.8333 359.5,81.5C 359.5,82.1667 359.5,82.8333 359.5,83.5C 330.833,111.833 302.167,140.167 273.5,168.5C 273.5,166.833 273.5,165.167 273.5,163.5C 273.5,158.5 273.5,153.5 273.5,148.5C 302.167,120.167 330.833,91.8333 359.5,63.5 Z"/></g>
<g><path style="opacity:0.022" fill="#c2d82e" d="M 393.5,63.5 C 393.5,65.1667 393.5,66.8333 393.5,68.5C 382.167,79.5 370.833,90.5 359.5,101.5C 359.5,99.8333 359.5,98.1667 359.5,96.5C 370.833,85.5 382.167,74.5 393.5,63.5 Z"/></g>
<g><path style="opacity:1" fill="#004344" d="M 118.5,64.5 C 118.5,68.8333 118.5,73.1667 118.5,77.5C 118.5,79.1667 118.5,80.8333 118.5,82.5C 118.5,83.1667 118.5,83.8333 118.5,84.5C 89.5,113.167 60.5,141.833 31.5,170.5C 31.5,168.833 31.5,167.167 31.5,165.5C 31.5,160.5 31.5,155.5 31.5,150.5C 60.5,121.833 89.5,93.1667 118.5,64.5 Z"/></g>
<g><path style="opacity:0.022" fill="#c2d82e" d="M 152.5,64.5 C 152.5,66.1667 152.5,67.8333 152.5,69.5C 141.167,80.5 129.833,91.5 118.5,102.5C 118.5,100.833 118.5,99.1667 118.5,97.5C 129.833,86.5 141.167,75.5 152.5,64.5 Z"/></g>
<g><path style="opacity:0.022" fill="#c2d82e" d="M 31.5,65.5 C 31.5,67.1667 31.5,68.8333 31.5,70.5C 20.8333,80.8333 10.1667,91.1667 -0.5,101.5C -0.5,99.8333 -0.5,98.1667 -0.5,96.5C 10.1667,86.1667 20.8333,75.8333 31.5,65.5 Z"/></g>
<g><path style="opacity:0.022" fill="#c2d82e" d="M 511.5,65.5 C 511.5,67.1667 511.5,68.8333 511.5,70.5C 501.167,80.5 490.833,90.5 480.5,100.5C 480.5,98.8333 480.5,97.1667 480.5,95.5C 490.833,85.5 501.167,75.5 511.5,65.5 Z"/></g>
<g><path style="opacity:0.022" fill="#c2d82e" d="M 273.5,83.5 C 273.5,85.1667 273.5,86.8333 273.5,88.5C 262.167,99.5 250.833,110.5 239.5,121.5C 239.5,119.833 239.5,118.167 239.5,116.5C 250.833,105.5 262.167,94.5 273.5,83.5 Z"/></g>
<g><path style="opacity:1" fill="#004344" d="M 359.5,83.5 C 359.5,87.8333 359.5,92.1667 359.5,96.5C 359.5,98.1667 359.5,99.8333 359.5,101.5C 359.5,102.167 359.5,102.833 359.5,103.5C 330.833,131.833 302.167,160.167 273.5,188.5C 273.5,186.833 273.5,185.167 273.5,183.5C 273.5,178.5 273.5,173.5 273.5,168.5C 302.167,140.167 330.833,111.833 359.5,83.5 Z"/></g>
<g><path style="opacity:0.022" fill="#c2d82e" d="M 393.5,83.5 C 393.5,85.1667 393.5,86.8333 393.5,88.5C 382.167,99.5 370.833,110.5 359.5,121.5C 359.5,119.833 359.5,118.167 359.5,116.5C 370.833,105.5 382.167,94.5 393.5,83.5 Z"/></g>
<g><path style="opacity:1" fill="#004344" d="M 118.5,84.5 C 118.5,88.8333 118.5,93.1667 118.5,97.5C 118.5,99.1667 118.5,100.833 118.5,102.5C 118.5,103.167 118.5,103.833 118.5,104.5C 89.5,133.167 60.5,161.833 31.5,190.5C 31.5,188.833 31.5,187.167 31.5,185.5C 31.5,180.5 31.5,175.5 31.5,170.5C 60.5,141.833 89.5,113.167 118.5,84.5 Z"/></g>
<g><path style="opacity:0.022" fill="#c2d82e" d="M 152.5,84.5 C 152.5,86.1667 152.5,87.8333 152.5,89.5C 141.167,100.5 129.833,111.5 118.5,122.5C 118.5,120.833 118.5,119.167 118.5,117.5C 129.833,106.5 141.167,95.5 152.5,84.5 Z"/></g>
<g><path style="opacity:0.022" fill="#c2d82e" d="M 31.5,85.5 C 31.5,87.1667 31.5,88.8333 31.5,90.5C 20.8333,100.833 10.1667,111.167 -0.5,121.5C -0.5,119.833 -0.5,118.167 -0.5,116.5C 10.1667,106.167 20.8333,95.8333 31.5,85.5 Z"/></g>
<g><path style="opacity:0.022" fill="#c2d82e" d="M 511.5,85.5 C 511.5,87.1667 511.5,88.8333 511.5,90.5C 501.167,100.5 490.833,110.5 480.5,120.5C 480.5,118.833 480.5,117.167 480.5,115.5C 490.833,105.5 501.167,95.5 511.5,85.5 Z"/></g>
<g><path style="opacity:1" fill="#004344" d="M 480.5,95.5 C 480.5,97.1667 480.5,98.8333 480.5,100.5C 480.5,105.5 480.5,110.5 480.5,115.5C 480.5,117.167 480.5,118.833 480.5,120.5C 480.5,125.5 480.5,130.5 480.5,135.5C 480.5,137.167 480.5,138.833 480.5,140.5C 480.5,145.5 480.5,150.5 480.5,155.5C 480.5,156.833 480.5,158.167 480.5,159.5C 479.167,159.5 477.833,159.5 476.5,159.5C 456.5,159.5 436.5,159.5 416.5,159.5C 437.5,137.833 458.833,116.5 480.5,95.5 Z"/></g>
<g><path style="opacity:1" fill="#004344" d="M 239.5,83.5 C 239.5,87.8333 239.5,92.1667 239.5,96.5C 239.5,98.1667 239.5,99.8333 239.5,101.5C 239.5,106.5 239.5,111.5 239.5,116.5C 239.5,118.167 239.5,119.833 239.5,121.5C 239.5,126.5 239.5,131.5 239.5,136.5C 239.5,138.167 239.5,139.833 239.5,141.5C 239.5,146.5 239.5,151.5 239.5,156.5C 239.5,157.5 239.5,158.5 239.5,159.5C 238.5,159.5 237.5,159.5 236.5,159.5C 212.167,159.5 187.833,159.5 163.5,159.5C 188.5,133.833 213.833,108.5 239.5,83.5 Z"/></g>
<g><path style="opacity:0.022" fill="#c2d82e" d="M 273.5,103.5 C 273.5,105.167 273.5,106.833 273.5,108.5C 262.167,119.5 250.833,130.5 239.5,141.5C 239.5,139.833 239.5,138.167 239.5,136.5C 250.833,125.5 262.167,114.5 273.5,103.5 Z"/></g>
<g><path style="opacity:1" fill="#004344" d="M 359.5,103.5 C 359.5,107.833 359.5,112.167 359.5,116.5C 359.5,118.167 359.5,119.833 359.5,121.5C 359.5,122.167 359.5,122.833 359.5,123.5C 330.833,151.833 302.167,180.167 273.5,208.5C 273.5,206.833 273.5,205.167 273.5,203.5C 273.5,198.5 273.5,193.5 273.5,188.5C 302.167,160.167 330.833,131.833 359.5,103.5 Z"/></g>
<g><path style="opacity:0.022" fill="#c2d82e" d="M 393.5,103.5 C 393.5,105.167 393.5,106.833 393.5,108.5C 382.167,119.5 370.833,130.5 359.5,141.5C 359.5,139.833 359.5,138.167 359.5,136.5C 370.833,125.5 382.167,114.5 393.5,103.5 Z"/></g>
<g><path style="opacity:1" fill="#004344" d="M 118.5,104.5 C 118.5,108.833 118.5,113.167 118.5,117.5C 118.5,119.167 118.5,120.833 118.5,122.5C 118.5,123.167 118.5,123.833 118.5,124.5C 89.5,153.167 60.5,181.833 31.5,210.5C 31.5,208.833 31.5,207.167 31.5,205.5C 31.5,200.5 31.5,195.5 31.5,190.5C 60.5,161.833 89.5,133.167 118.5,104.5 Z"/></g>
<g><path style="opacity:0.022" fill="#c2d82e" d="M 152.5,104.5 C 152.5,106.167 152.5,107.833 152.5,109.5C 141.167,120.5 129.833,131.5 118.5,142.5C 118.5,140.833 118.5,139.167 118.5,137.5C 129.833,126.5 141.167,115.5 152.5,104.5 Z"/></g>
<g><path style="opacity:0.022" fill="#c2d82e" d="M 31.5,105.5 C 31.5,107.167 31.5,108.833 31.5,110.5C 20.8333,120.833 10.1667,131.167 -0.5,141.5C -0.5,139.833 -0.5,138.167 -0.5,136.5C 10.1667,126.167 20.8333,115.833 31.5,105.5 Z"/></g>
<g><path style="opacity:0.022" fill="#c2d82e" d="M 511.5,105.5 C 511.5,107.167 511.5,108.833 511.5,110.5C 501.167,120.5 490.833,130.5 480.5,140.5C 480.5,138.833 480.5,137.167 480.5,135.5C 490.833,125.5 501.167,115.5 511.5,105.5 Z"/></g>
<g><path style="opacity:0.022" fill="#c2d82e" d="M 273.5,123.5 C 273.5,125.167 273.5,126.833 273.5,128.5C 262.167,139.5 250.833,150.5 239.5,161.5C 239.5,160.833 239.5,160.167 239.5,159.5C 239.5,158.5 239.5,157.5 239.5,156.5C 250.833,145.5 262.167,134.5 273.5,123.5 Z"/></g>
<g><path style="opacity:1" fill="#004344" d="M 359.5,123.5 C 359.5,127.833 359.5,132.167 359.5,136.5C 359.5,138.167 359.5,139.833 359.5,141.5C 359.5,142.167 359.5,142.833 359.5,143.5C 330.833,171.833 302.167,200.167 273.5,228.5C 273.5,226.833 273.5,225.167 273.5,223.5C 273.5,218.5 273.5,213.5 273.5,208.5C 302.167,180.167 330.833,151.833 359.5,123.5 Z"/></g>
<g><path style="opacity:0.022" fill="#c2d82e" d="M 393.5,123.5 C 393.5,125.167 393.5,126.833 393.5,128.5C 382.167,139.5 370.833,150.5 359.5,161.5C 359.5,159.833 359.5,158.167 359.5,156.5C 370.833,145.5 382.167,134.5 393.5,123.5 Z"/></g>
<g><path style="opacity:1" fill="#004344" d="M 118.5,124.5 C 118.5,128.833 118.5,133.167 118.5,137.5C 118.5,139.167 118.5,140.833 118.5,142.5C 118.5,147.5 118.5,152.5 118.5,157.5C 89.5,186.167 60.5,214.833 31.5,243.5C 31.5,239.167 31.5,234.833 31.5,230.5C 31.5,228.833 31.5,227.167 31.5,225.5C 31.5,220.5 31.5,215.5 31.5,210.5C 60.5,181.833 89.5,153.167 118.5,124.5 Z"/></g>
<g><path style="opacity:0.022" fill="#c2d82e" d="M 152.5,124.5 C 152.5,126.167 152.5,127.833 152.5,129.5C 141.167,140.5 129.833,151.5 118.5,162.5C 118.5,160.833 118.5,159.167 118.5,157.5C 129.833,146.5 141.167,135.5 152.5,124.5 Z"/></g>
<g><path style="opacity:0.022" fill="#c2d82e" d="M 31.5,125.5 C 31.5,127.167 31.5,128.833 31.5,130.5C 20.8333,140.833 10.1667,151.167 -0.5,161.5C -0.5,159.833 -0.5,158.167 -0.5,156.5C 10.1667,146.167 20.8333,135.833 31.5,125.5 Z"/></g>
<g><path style="opacity:0.022" fill="#c2d82e" d="M 511.5,125.5 C 511.5,127.167 511.5,128.833 511.5,130.5C 501.167,140.5 490.833,150.5 480.5,160.5C 480.5,160.167 480.5,159.833 480.5,159.5C 480.5,158.167 480.5,156.833 480.5,155.5C 490.833,145.5 501.167,135.5 511.5,125.5 Z"/></g>
<g><path style="opacity:0.022" fill="#c2d82e" d="M 273.5,143.5 C 273.5,145.167 273.5,146.833 273.5,148.5C 262.167,159.5 250.833,170.5 239.5,181.5C 239.5,179.833 239.5,178.167 239.5,176.5C 250.833,165.5 262.167,154.5 273.5,143.5 Z"/></g>
<g><path style="opacity:1" fill="#004344" d="M 359.5,143.5 C 359.5,147.833 359.5,152.167 359.5,156.5C 359.5,158.167 359.5,159.833 359.5,161.5C 359.5,162.167 359.5,162.833 359.5,163.5C 330.833,191.833 302.167,220.167 273.5,248.5C 273.5,246.833 273.5,245.167 273.5,243.5C 273.5,238.5 273.5,233.5 273.5,228.5C 302.167,200.167 330.833,171.833 359.5,143.5 Z"/></g>
<g><path style="opacity:0.022" fill="#c2d82e" d="M 393.5,143.5 C 393.5,145.167 393.5,146.833 393.5,148.5C 382.167,159.5 370.833,170.5 359.5,181.5C 359.5,179.833 359.5,178.167 359.5,176.5C 370.833,165.5 382.167,154.5 393.5,143.5 Z"/></g>
<g><path style="opacity:0.022" fill="#c2d82e" d="M 152.5,144.5 C 152.5,146.167 152.5,147.833 152.5,149.5C 141.167,160.5 129.833,171.5 118.5,182.5C 118.5,180.833 118.5,179.167 118.5,177.5C 129.833,166.5 141.167,155.5 152.5,144.5 Z"/></g>
<g><path style="opacity:0.022" fill="#c2d82e" d="M 31.5,145.5 C 31.5,147.167 31.5,148.833 31.5,150.5C 20.8333,160.833 10.1667,171.167 -0.5,181.5C -0.5,179.833 -0.5,178.167 -0.5,176.5C 10.1667,166.167 20.8333,155.833 31.5,145.5 Z"/></g>
<g><path style="opacity:0.022" fill="#c2d82e" d="M 511.5,145.5 C 511.5,147.167 511.5,148.833 511.5,150.5C 501.167,160.5 490.833,170.5 480.5,180.5C 480.5,178.833 480.5,177.167 480.5,175.5C 490.833,165.5 501.167,155.5 511.5,145.5 Z"/></g>
<g><path style="opacity:1" fill="#c2d82e" d="M 152.5,159.5 C 156.167,159.5 159.833,159.5 163.5,159.5C 187.833,159.5 212.167,159.5 236.5,159.5C 208.833,187.833 180.833,215.833 152.5,243.5C 152.5,238.833 152.5,234.167 152.5,229.5C 152.5,227.833 152.5,226.167 152.5,224.5C 152.5,219.5 152.5,214.5 152.5,209.5C 152.5,207.833 152.5,206.167 152.5,204.5C 152.5,199.5 152.5,194.5 152.5,189.5C 152.5,187.833 152.5,186.167 152.5,184.5C 152.5,179.5 152.5,174.5 152.5,169.5C 152.5,167.833 152.5,166.167 152.5,164.5C 152.5,162.833 152.5,161.167 152.5,159.5 Z"/></g>
<g><path style="opacity:1" fill="#c2d82e" d="M 393.5,159.5 C 401.167,159.5 408.833,159.5 416.5,159.5C 436.5,159.5 456.5,159.5 476.5,159.5C 449.167,187.5 421.5,215.167 393.5,242.5C 393.5,237.833 393.5,233.167 393.5,228.5C 393.5,226.833 393.5,225.167 393.5,223.5C 393.5,218.5 393.5,213.5 393.5,208.5C 393.5,206.833 393.5,205.167 393.5,203.5C 393.5,198.5 393.5,193.5 393.5,188.5C 393.5,186.833 393.5,185.167 393.5,183.5C 393.5,178.5 393.5,173.5 393.5,168.5C 393.5,166.833 393.5,165.167 393.5,163.5C 393.5,162.167 393.5,160.833 393.5,159.5 Z"/></g>
<g><path style="opacity:1" fill="#c2d82e" d="M 476.5,159.5 C 477.833,159.5 479.167,159.5 480.5,159.5C 480.5,159.833 480.5,160.167 480.5,160.5C 480.5,165.5 480.5,170.5 480.5,175.5C 480.5,177.167 480.5,178.833 480.5,180.5C 480.5,180.833 480.5,181.167 480.5,181.5C 451.5,210.167 422.5,238.833 393.5,267.5C 393.5,266.167 393.5,264.833 393.5,263.5C 393.5,258.5 393.5,253.5 393.5,248.5C 393.5,246.833 393.5,245.167 393.5,243.5C 393.5,243.167 393.5,242.833 393.5,242.5C 421.5,215.167 449.167,187.5 476.5,159.5 Z"/></g>
<g><path style="opacity:1" fill="#c2d82e" d="M 236.5,159.5 C 237.5,159.5 238.5,159.5 239.5,159.5C 239.5,160.167 239.5,160.833 239.5,161.5C 239.5,166.5 239.5,171.5 239.5,176.5C 239.5,178.167 239.5,179.833 239.5,181.5C 239.5,181.833 239.5,182.167 239.5,182.5C 210.5,211.167 181.5,239.833 152.5,268.5C 152.5,267.167 152.5,265.833 152.5,264.5C 152.5,259.5 152.5,254.5 152.5,249.5C 152.5,247.833 152.5,246.167 152.5,244.5C 152.5,244.167 152.5,243.833 152.5,243.5C 180.833,215.833 208.833,187.833 236.5,159.5 Z"/></g>
<g><path style="opacity:0.022" fill="#c2d82e" d="M 273.5,163.5 C 273.5,165.167 273.5,166.833 273.5,168.5C 262.167,179.5 250.833,190.5 239.5,201.5C 239.5,199.833 239.5,198.167 239.5,196.5C 250.833,185.5 262.167,174.5 273.5,163.5 Z"/></g>
<g><path style="opacity:1" fill="#004344" d="M 359.5,163.5 C 359.5,167.833 359.5,172.167 359.5,176.5C 359.5,178.167 359.5,179.833 359.5,181.5C 359.5,182.167 359.5,182.833 359.5,183.5C 330.833,211.833 302.167,240.167 273.5,268.5C 273.5,266.833 273.5,265.167 273.5,263.5C 273.5,258.5 273.5,253.5 273.5,248.5C 302.167,220.167 330.833,191.833 359.5,163.5 Z"/></g>
<g><path style="opacity:0.022" fill="#c2d82e" d="M 393.5,163.5 C 393.5,165.167 393.5,166.833 393.5,168.5C 382.167,179.5 370.833,190.5 359.5,201.5C 359.5,199.833 359.5,198.167 359.5,196.5C 370.833,185.5 382.167,174.5 393.5,163.5 Z"/></g>
<g><path style="opacity:1" fill="#004344" d="M 118.5,157.5 C 118.5,159.167 118.5,160.833 118.5,162.5C 118.5,167.5 118.5,172.5 118.5,177.5C 118.5,179.167 118.5,180.833 118.5,182.5C 118.5,183.167 118.5,183.833 118.5,184.5C 94.1667,208.167 70.1667,232.167 46.5,256.5C 41.5,256.5 36.5,256.5 31.5,256.5C 31.5,254.5 31.5,252.5 31.5,250.5C 31.5,248.833 31.5,247.167 31.5,245.5C 31.5,244.833 31.5,244.167 31.5,243.5C 60.5,214.833 89.5,186.167 118.5,157.5 Z"/></g>
<g><path style="opacity:0.022" fill="#c2d82e" d="M 152.5,164.5 C 152.5,166.167 152.5,167.833 152.5,169.5C 141.167,180.5 129.833,191.5 118.5,202.5C 118.5,200.833 118.5,199.167 118.5,197.5C 129.833,186.5 141.167,175.5 152.5,164.5 Z"/></g>
<g><path style="opacity:0.022" fill="#c2d82e" d="M 31.5,165.5 C 31.5,167.167 31.5,168.833 31.5,170.5C 20.8333,180.833 10.1667,191.167 -0.5,201.5C -0.5,199.833 -0.5,198.167 -0.5,196.5C 10.1667,186.167 20.8333,175.833 31.5,165.5 Z"/></g>
<g><path style="opacity:0.022" fill="#c2d82e" d="M 511.5,165.5 C 511.5,167.167 511.5,168.833 511.5,170.5C 501.167,180.5 490.833,190.5 480.5,200.5C 480.5,198.833 480.5,197.167 480.5,195.5C 490.833,185.5 501.167,175.5 511.5,165.5 Z"/></g>
<g><path style="opacity:1" fill="#c2d82e" d="M 480.5,181.5 C 480.5,186.167 480.5,190.833 480.5,195.5C 480.5,197.167 480.5,198.833 480.5,200.5C 480.5,200.833 480.5,201.167 480.5,201.5C 451.5,230.167 422.5,258.833 393.5,287.5C 393.5,286.167 393.5,284.833 393.5,283.5C 393.5,278.5 393.5,273.5 393.5,268.5C 393.5,268.167 393.5,267.833 393.5,267.5C 422.5,238.833 451.5,210.167 480.5,181.5 Z"/></g>
<g><path style="opacity:1" fill="#c2d82e" d="M 239.5,182.5 C 239.5,187.167 239.5,191.833 239.5,196.5C 239.5,198.167 239.5,199.833 239.5,201.5C 239.5,201.833 239.5,202.167 239.5,202.5C 210.5,231.167 181.5,259.833 152.5,288.5C 152.5,287.167 152.5,285.833 152.5,284.5C 152.5,279.5 152.5,274.5 152.5,269.5C 152.5,269.167 152.5,268.833 152.5,268.5C 181.5,239.833 210.5,211.167 239.5,182.5 Z"/></g>
<g><path style="opacity:0.022" fill="#c2d82e" d="M 273.5,183.5 C 273.5,185.167 273.5,186.833 273.5,188.5C 262.167,199.5 250.833,210.5 239.5,221.5C 239.5,219.833 239.5,218.167 239.5,216.5C 250.833,205.5 262.167,194.5 273.5,183.5 Z"/></g>
<g><path style="opacity:1" fill="#004344" d="M 359.5,183.5 C 359.5,187.833 359.5,192.167 359.5,196.5C 359.5,198.167 359.5,199.833 359.5,201.5C 359.5,206.5 359.5,211.5 359.5,216.5C 330.833,244.833 302.167,273.167 273.5,301.5C 273.5,297.167 273.5,292.833 273.5,288.5C 273.5,286.833 273.5,285.167 273.5,283.5C 273.5,278.5 273.5,273.5 273.5,268.5C 302.167,240.167 330.833,211.833 359.5,183.5 Z"/></g>
<g><path style="opacity:0.022" fill="#c2d82e" d="M 393.5,183.5 C 393.5,185.167 393.5,186.833 393.5,188.5C 382.167,199.5 370.833,210.5 359.5,221.5C 359.5,219.833 359.5,218.167 359.5,216.5C 370.833,205.5 382.167,194.5 393.5,183.5 Z"/></g>
<g><path style="opacity:1" fill="#004344" d="M 118.5,184.5 C 118.5,188.833 118.5,193.167 118.5,197.5C 118.5,199.167 118.5,200.833 118.5,202.5C 118.5,207.5 118.5,212.5 118.5,217.5C 118.5,219.167 118.5,220.833 118.5,222.5C 118.5,227.5 118.5,232.5 118.5,237.5C 118.5,239.167 118.5,240.833 118.5,242.5C 118.5,247.167 118.5,251.833 118.5,256.5C 94.5,256.5 70.5,256.5 46.5,256.5C 70.1667,232.167 94.1667,208.167 118.5,184.5 Z"/></g>
<g><path style="opacity:0.022" fill="#c2d82e" d="M 152.5,184.5 C 152.5,186.167 152.5,187.833 152.5,189.5C 141.167,200.5 129.833,211.5 118.5,222.5C 118.5,220.833 118.5,219.167 118.5,217.5C 129.833,206.5 141.167,195.5 152.5,184.5 Z"/></g>
<g><path style="opacity:0.022" fill="#c2d82e" d="M 31.5,185.5 C 31.5,187.167 31.5,188.833 31.5,190.5C 20.8333,200.833 10.1667,211.167 -0.5,221.5C -0.5,219.833 -0.5,218.167 -0.5,216.5C 10.1667,206.167 20.8333,195.833 31.5,185.5 Z"/></g>
<g><path style="opacity:0.022" fill="#c2d82e" d="M 511.5,185.5 C 511.5,187.167 511.5,188.833 511.5,190.5C 501.167,200.5 490.833,210.5 480.5,220.5C 480.5,218.833 480.5,217.167 480.5,215.5C 490.833,205.5 501.167,195.5 511.5,185.5 Z"/></g>
<g><path style="opacity:1" fill="#c2d82e" d="M 480.5,201.5 C 480.5,206.167 480.5,210.833 480.5,215.5C 480.5,217.167 480.5,218.833 480.5,220.5C 480.5,220.833 480.5,221.167 480.5,221.5C 451.5,250.167 422.5,278.833 393.5,307.5C 393.5,306.167 393.5,304.833 393.5,303.5C 393.5,298.5 393.5,293.5 393.5,288.5C 393.5,288.167 393.5,287.833 393.5,287.5C 422.5,258.833 451.5,230.167 480.5,201.5 Z"/></g>
<g><path style="opacity:1" fill="#c2d82e" d="M 239.5,202.5 C 239.5,207.167 239.5,211.833 239.5,216.5C 239.5,218.167 239.5,219.833 239.5,221.5C 239.5,221.833 239.5,222.167 239.5,222.5C 210.5,251.167 181.5,279.833 152.5,308.5C 152.5,307.167 152.5,305.833 152.5,304.5C 152.5,299.5 152.5,294.5 152.5,289.5C 152.5,289.167 152.5,288.833 152.5,288.5C 181.5,259.833 210.5,231.167 239.5,202.5 Z"/></g>
<g><path style="opacity:0.022" fill="#c2d82e" d="M 273.5,203.5 C 273.5,205.167 273.5,206.833 273.5,208.5C 262.167,219.5 250.833,230.5 239.5,241.5C 239.5,239.833 239.5,238.167 239.5,236.5C 250.833,225.5 262.167,214.5 273.5,203.5 Z"/></g>
<g><path style="opacity:0.022" fill="#c2d82e" d="M 393.5,203.5 C 393.5,205.167 393.5,206.833 393.5,208.5C 382.167,219.5 370.833,230.5 359.5,241.5C 359.5,239.833 359.5,238.167 359.5,236.5C 370.833,225.5 382.167,214.5 393.5,203.5 Z"/></g>
<g><path style="opacity:0.022" fill="#c2d82e" d="M 152.5,204.5 C 152.5,206.167 152.5,207.833 152.5,209.5C 141.167,220.5 129.833,231.5 118.5,242.5C 118.5,240.833 118.5,239.167 118.5,237.5C 129.833,226.5 141.167,215.5 152.5,204.5 Z"/></g>
<g><path style="opacity:0.022" fill="#c2d82e" d="M 31.5,205.5 C 31.5,207.167 31.5,208.833 31.5,210.5C 20.8333,220.833 10.1667,231.167 -0.5,241.5C -0.5,239.833 -0.5,238.167 -0.5,236.5C 10.1667,226.167 20.8333,215.833 31.5,205.5 Z"/></g>
<g><path style="opacity:0.022" fill="#c2d82e" d="M 511.5,205.5 C 511.5,207.167 511.5,208.833 511.5,210.5C 501.167,220.5 490.833,230.5 480.5,240.5C 480.5,238.833 480.5,237.167 480.5,235.5C 490.833,225.5 501.167,215.5 511.5,205.5 Z"/></g>
<g><path style="opacity:1" fill="#c2d82e" d="M 480.5,221.5 C 480.5,226.167 480.5,230.833 480.5,235.5C 480.5,237.167 480.5,238.833 480.5,240.5C 480.5,240.833 480.5,241.167 480.5,241.5C 451.5,270.167 422.5,298.833 393.5,327.5C 393.5,326.167 393.5,324.833 393.5,323.5C 393.5,318.5 393.5,313.5 393.5,308.5C 393.5,308.167 393.5,307.833 393.5,307.5C 422.5,278.833 451.5,250.167 480.5,221.5 Z"/></g>
<g><path style="opacity:1" fill="#c2d82e" d="M 239.5,222.5 C 239.5,227.167 239.5,231.833 239.5,236.5C 239.5,238.167 239.5,239.833 239.5,241.5C 239.5,241.833 239.5,242.167 239.5,242.5C 210.5,271.167 181.5,299.833 152.5,328.5C 152.5,327.167 152.5,325.833 152.5,324.5C 152.5,319.5 152.5,314.5 152.5,309.5C 152.5,309.167 152.5,308.833 152.5,308.5C 181.5,279.833 210.5,251.167 239.5,222.5 Z"/></g>
<g><path style="opacity:0.022" fill="#c2d82e" d="M 273.5,223.5 C 273.5,225.167 273.5,226.833 273.5,228.5C 262.167,239.5 250.833,250.5 239.5,261.5C 239.5,259.833 239.5,258.167 239.5,256.5C 250.833,245.5 262.167,234.5 273.5,223.5 Z"/></g>
<g><path style="opacity:1" fill="#004344" d="M 359.5,216.5 C 359.5,218.167 359.5,219.833 359.5,221.5C 359.5,226.5 359.5,231.5 359.5,236.5C 359.5,238.167 359.5,239.833 359.5,241.5C 359.5,242.167 359.5,242.833 359.5,243.5C 338.833,263.5 318.5,283.833 298.5,304.5C 290.167,304.5 281.833,304.5 273.5,304.5C 273.5,304.167 273.5,303.833 273.5,303.5C 273.5,302.833 273.5,302.167 273.5,301.5C 302.167,273.167 330.833,244.833 359.5,216.5 Z"/></g>
<g><path style="opacity:0.022" fill="#c2d82e" d="M 393.5,223.5 C 393.5,225.167 393.5,226.833 393.5,228.5C 382.167,239.5 370.833,250.5 359.5,261.5C 359.5,259.833 359.5,258.167 359.5,256.5C 370.833,245.5 382.167,234.5 393.5,223.5 Z"/></g>
<g><path style="opacity:0.022" fill="#c2d82e" d="M 152.5,224.5 C 152.5,226.167 152.5,227.833 152.5,229.5C 141.167,240.5 129.833,251.5 118.5,262.5C 118.5,261.167 118.5,259.833 118.5,258.5C 118.5,258.167 118.5,257.833 118.5,257.5C 129.833,246.5 141.167,235.5 152.5,224.5 Z"/></g>
<g><path style="opacity:0.022" fill="#c2d82e" d="M 31.5,225.5 C 31.5,227.167 31.5,228.833 31.5,230.5C 20.8333,240.833 10.1667,251.167 -0.5,261.5C -0.5,259.833 -0.5,258.167 -0.5,256.5C 10.1667,246.167 20.8333,235.833 31.5,225.5 Z"/></g>
<g><path style="opacity:0.022" fill="#c2d82e" d="M 511.5,225.5 C 511.5,227.167 511.5,228.833 511.5,230.5C 501.167,240.5 490.833,250.5 480.5,260.5C 480.5,258.833 480.5,257.167 480.5,255.5C 490.833,245.5 501.167,235.5 511.5,225.5 Z"/></g>
<g><path style="opacity:1" fill="#c2d82e" d="M 480.5,241.5 C 480.5,246.167 480.5,250.833 480.5,255.5C 480.5,257.167 480.5,258.833 480.5,260.5C 480.5,260.833 480.5,261.167 480.5,261.5C 451.5,290.167 422.5,318.833 393.5,347.5C 393.5,346.167 393.5,344.833 393.5,343.5C 393.5,338.5 393.5,333.5 393.5,328.5C 393.5,328.167 393.5,327.833 393.5,327.5C 422.5,298.833 451.5,270.167 480.5,241.5 Z"/></g>
<g><path style="opacity:1" fill="#c2d82e" d="M 239.5,242.5 C 239.5,247.167 239.5,251.833 239.5,256.5C 239.5,258.167 239.5,259.833 239.5,261.5C 239.5,261.833 239.5,262.167 239.5,262.5C 210.5,291.167 181.5,319.833 152.5,348.5C 152.5,347.167 152.5,345.833 152.5,344.5C 152.5,339.5 152.5,334.5 152.5,329.5C 152.5,329.167 152.5,328.833 152.5,328.5C 181.5,299.833 210.5,271.167 239.5,242.5 Z"/></g>
<g><path style="opacity:0.022" fill="#c2d82e" d="M 273.5,243.5 C 273.5,245.167 273.5,246.833 273.5,248.5C 262.167,259.5 250.833,270.5 239.5,281.5C 239.5,279.833 239.5,278.167 239.5,276.5C 250.833,265.5 262.167,254.5 273.5,243.5 Z"/></g>
<g><path style="opacity:1" fill="#004344" d="M 359.5,243.5 C 359.5,247.833 359.5,252.167 359.5,256.5C 359.5,258.167 359.5,259.833 359.5,261.5C 359.5,266.5 359.5,271.5 359.5,276.5C 359.5,278.167 359.5,279.833 359.5,281.5C 359.5,286.5 359.5,291.5 359.5,296.5C 359.5,298.167 359.5,299.833 359.5,301.5C 359.5,302.5 359.5,303.5 359.5,304.5C 358.5,304.5 357.5,304.5 356.5,304.5C 348.167,304.5 339.833,304.5 331.5,304.5C 320.5,304.5 309.5,304.5 298.5,304.5C 318.5,283.833 338.833,263.5 359.5,243.5 Z"/></g>
<g><path style="opacity:0.022" fill="#c2d82e" d="M 393.5,243.5 C 393.5,245.167 393.5,246.833 393.5,248.5C 382.167,259.5 370.833,270.5 359.5,281.5C 359.5,279.833 359.5,278.167 359.5,276.5C 370.833,265.5 382.167,254.5 393.5,243.5 Z"/></g>
<g><path style="opacity:0.022" fill="#c2d82e" d="M 152.5,244.5 C 152.5,246.167 152.5,247.833 152.5,249.5C 141.167,260.5 129.833,271.5 118.5,282.5C 118.5,280.833 118.5,279.167 118.5,277.5C 129.833,266.5 141.167,255.5 152.5,244.5 Z"/></g>
<g><path style="opacity:0.022" fill="#c2d82e" d="M 31.5,245.5 C 31.5,247.167 31.5,248.833 31.5,250.5C 20.8333,260.833 10.1667,271.167 -0.5,281.5C -0.5,279.833 -0.5,278.167 -0.5,276.5C 10.1667,266.167 20.8333,255.833 31.5,245.5 Z"/></g>
<g><path style="opacity:0.022" fill="#c2d82e" d="M 511.5,245.5 C 511.5,247.167 511.5,248.833 511.5,250.5C 501.167,260.5 490.833,270.5 480.5,280.5C 480.5,278.833 480.5,277.167 480.5,275.5C 490.833,265.5 501.167,255.5 511.5,245.5 Z"/></g>
<g><path style="opacity:1" fill="#c2d82e" d="M 31.5,256.5 C 36.5,256.5 41.5,256.5 46.5,256.5C 70.5,256.5 94.5,256.5 118.5,256.5C 118.5,256.833 118.5,257.167 118.5,257.5C 118.5,257.833 118.5,258.167 118.5,258.5C 89.5,287.167 60.5,315.833 31.5,344.5C 31.5,339.833 31.5,335.167 31.5,330.5C 31.5,328.833 31.5,327.167 31.5,325.5C 31.5,320.5 31.5,315.5 31.5,310.5C 31.5,308.833 31.5,307.167 31.5,305.5C 31.5,300.5 31.5,295.5 31.5,290.5C 31.5,288.833 31.5,287.167 31.5,285.5C 31.5,280.5 31.5,275.5 31.5,270.5C 31.5,268.833 31.5,267.167 31.5,265.5C 31.5,262.5 31.5,259.5 31.5,256.5 Z"/></g>
<g><path style="opacity:1" fill="#c2d82e" d="M 480.5,261.5 C 480.5,266.167 480.5,270.833 480.5,275.5C 480.5,277.167 480.5,278.833 480.5,280.5C 480.5,280.833 480.5,281.167 480.5,281.5C 451.5,310.167 422.5,338.833 393.5,367.5C 393.5,366.167 393.5,364.833 393.5,363.5C 393.5,358.5 393.5,353.5 393.5,348.5C 393.5,348.167 393.5,347.833 393.5,347.5C 422.5,318.833 451.5,290.167 480.5,261.5 Z"/></g>
<g><path style="opacity:1" fill="#c2d82e" d="M 239.5,262.5 C 239.5,267.167 239.5,271.833 239.5,276.5C 239.5,278.167 239.5,279.833 239.5,281.5C 239.5,281.833 239.5,282.167 239.5,282.5C 210.5,311.167 181.5,339.833 152.5,368.5C 152.5,367.167 152.5,365.833 152.5,364.5C 152.5,359.5 152.5,354.5 152.5,349.5C 152.5,349.167 152.5,348.833 152.5,348.5C 181.5,319.833 210.5,291.167 239.5,262.5 Z"/></g>
<g><path style="opacity:1" fill="#c2d82e" d="M 118.5,258.5 C 118.5,259.833 118.5,261.167 118.5,262.5C 118.5,267.5 118.5,272.5 118.5,277.5C 118.5,279.167 118.5,280.833 118.5,282.5C 118.5,282.833 118.5,283.167 118.5,283.5C 89.5,312.167 60.5,340.833 31.5,369.5C 31.5,368.167 31.5,366.833 31.5,365.5C 31.5,360.5 31.5,355.5 31.5,350.5C 31.5,348.833 31.5,347.167 31.5,345.5C 31.5,345.167 31.5,344.833 31.5,344.5C 60.5,315.833 89.5,287.167 118.5,258.5 Z"/></g>
<g><path style="opacity:0.022" fill="#c2d82e" d="M 273.5,263.5 C 273.5,265.167 273.5,266.833 273.5,268.5C 262.167,279.5 250.833,290.5 239.5,301.5C 239.5,299.833 239.5,298.167 239.5,296.5C 250.833,285.5 262.167,274.5 273.5,263.5 Z"/></g>
<g><path style="opacity:0.022" fill="#c2d82e" d="M 393.5,263.5 C 393.5,264.833 393.5,266.167 393.5,267.5C 393.5,267.833 393.5,268.167 393.5,268.5C 382.167,279.5 370.833,290.5 359.5,301.5C 359.5,299.833 359.5,298.167 359.5,296.5C 370.833,285.5 382.167,274.5 393.5,263.5 Z"/></g>
<g><path style="opacity:0.022" fill="#c2d82e" d="M 152.5,264.5 C 152.5,265.833 152.5,267.167 152.5,268.5C 152.5,268.833 152.5,269.167 152.5,269.5C 141.167,280.5 129.833,291.5 118.5,302.5C 118.5,300.833 118.5,299.167 118.5,297.5C 129.833,286.5 141.167,275.5 152.5,264.5 Z"/></g>
<g><path style="opacity:0.022" fill="#c2d82e" d="M 31.5,265.5 C 31.5,267.167 31.5,268.833 31.5,270.5C 20.8333,280.833 10.1667,291.167 -0.5,301.5C -0.5,299.833 -0.5,298.167 -0.5,296.5C 10.1667,286.167 20.8333,275.833 31.5,265.5 Z"/></g>
<g><path style="opacity:0.022" fill="#c2d82e" d="M 511.5,265.5 C 511.5,267.167 511.5,268.833 511.5,270.5C 501.167,280.5 490.833,290.5 480.5,300.5C 480.5,298.833 480.5,297.167 480.5,295.5C 490.833,285.5 501.167,275.5 511.5,265.5 Z"/></g>
<g><path style="opacity:1" fill="#c2d82e" d="M 480.5,281.5 C 480.5,286.167 480.5,290.833 480.5,295.5C 480.5,297.167 480.5,298.833 480.5,300.5C 480.5,300.833 480.5,301.167 480.5,301.5C 451.5,330.167 422.5,358.833 393.5,387.5C 393.5,386.167 393.5,384.833 393.5,383.5C 393.5,378.5 393.5,373.5 393.5,368.5C 393.5,368.167 393.5,367.833 393.5,367.5C 422.5,338.833 451.5,310.167 480.5,281.5 Z"/></g>
<g><path style="opacity:1" fill="#c2d82e" d="M 239.5,282.5 C 239.5,287.167 239.5,291.833 239.5,296.5C 239.5,298.167 239.5,299.833 239.5,301.5C 239.5,301.833 239.5,302.167 239.5,302.5C 210.5,331.167 181.5,359.833 152.5,388.5C 152.5,387.167 152.5,385.833 152.5,384.5C 152.5,379.5 152.5,374.5 152.5,369.5C 152.5,369.167 152.5,368.833 152.5,368.5C 181.5,339.833 210.5,311.167 239.5,282.5 Z"/></g>
<g><path style="opacity:1" fill="#c2d82e" d="M 118.5,283.5 C 118.5,288.167 118.5,292.833 118.5,297.5C 118.5,299.167 118.5,300.833 118.5,302.5C 118.5,302.833 118.5,303.167 118.5,303.5C 89.5,332.167 60.5,360.833 31.5,389.5C 31.5,388.167 31.5,386.833 31.5,385.5C 31.5,380.5 31.5,375.5 31.5,370.5C 31.5,370.167 31.5,369.833 31.5,369.5C 60.5,340.833 89.5,312.167 118.5,283.5 Z"/></g>
<g><path style="opacity:0.022" fill="#c2d82e" d="M 273.5,283.5 C 273.5,285.167 273.5,286.833 273.5,288.5C 262.167,299.5 250.833,310.5 239.5,321.5C 239.5,319.833 239.5,318.167 239.5,316.5C 250.833,305.5 262.167,294.5 273.5,283.5 Z"/></g>
<g><path style="opacity:0.022" fill="#c2d82e" d="M 393.5,283.5 C 393.5,284.833 393.5,286.167 393.5,287.5C 393.5,287.833 393.5,288.167 393.5,288.5C 382.167,299.5 370.833,310.5 359.5,321.5C 359.5,319.833 359.5,318.167 359.5,316.5C 370.833,305.5 382.167,294.5 393.5,283.5 Z"/></g>
<g><path style="opacity:0.022" fill="#c2d82e" d="M 152.5,284.5 C 152.5,285.833 152.5,287.167 152.5,288.5C 152.5,288.833 152.5,289.167 152.5,289.5C 141.167,300.5 129.833,311.5 118.5,322.5C 118.5,320.833 118.5,319.167 118.5,317.5C 129.833,306.5 141.167,295.5 152.5,284.5 Z"/></g>
<g><path style="opacity:0.022" fill="#c2d82e" d="M 31.5,285.5 C 31.5,287.167 31.5,288.833 31.5,290.5C 20.8333,300.833 10.1667,311.167 -0.5,321.5C -0.5,319.833 -0.5,318.167 -0.5,316.5C 10.1667,306.167 20.8333,295.833 31.5,285.5 Z"/></g>
<g><path style="opacity:0.022" fill="#c2d82e" d="M 511.5,285.5 C 511.5,287.167 511.5,288.833 511.5,290.5C 501.167,300.5 490.833,310.5 480.5,320.5C 480.5,318.833 480.5,317.167 480.5,315.5C 490.833,305.5 501.167,295.5 511.5,285.5 Z"/></g>
<g><path style="opacity:1" fill="#c2d82e" d="M 480.5,301.5 C 480.5,306.167 480.5,310.833 480.5,315.5C 480.5,317.167 480.5,318.833 480.5,320.5C 480.5,320.833 480.5,321.167 480.5,321.5C 451.5,350.167 422.5,378.833 393.5,407.5C 393.5,406.167 393.5,404.833 393.5,403.5C 393.5,398.5 393.5,393.5 393.5,388.5C 393.5,388.167 393.5,387.833 393.5,387.5C 422.5,358.833 451.5,330.167 480.5,301.5 Z"/></g>
<g><path style="opacity:1" fill="#c2d82e" d="M 239.5,302.5 C 239.5,307.167 239.5,311.833 239.5,316.5C 239.5,318.167 239.5,319.833 239.5,321.5C 239.5,321.833 239.5,322.167 239.5,322.5C 210.5,351.167 181.5,379.833 152.5,408.5C 152.5,407.167 152.5,405.833 152.5,404.5C 152.5,399.5 152.5,394.5 152.5,389.5C 152.5,389.167 152.5,388.833 152.5,388.5C 181.5,359.833 210.5,331.167 239.5,302.5 Z"/></g>
<g><path style="opacity:1" fill="#c2d82e" d="M 118.5,303.5 C 118.5,308.167 118.5,312.833 118.5,317.5C 118.5,319.167 118.5,320.833 118.5,322.5C 118.5,322.833 118.5,323.167 118.5,323.5C 89.5,352.167 60.5,380.833 31.5,409.5C 31.5,408.167 31.5,406.833 31.5,405.5C 31.5,400.5 31.5,395.5 31.5,390.5C 31.5,390.167 31.5,389.833 31.5,389.5C 60.5,360.833 89.5,332.167 118.5,303.5 Z"/></g>
<g><path style="opacity:0.022" fill="#c2d82e" d="M 273.5,303.5 C 273.5,303.833 273.5,304.167 273.5,304.5C 273.5,305.833 273.5,307.167 273.5,308.5C 262.167,319.5 250.833,330.5 239.5,341.5C 239.5,339.833 239.5,338.167 239.5,336.5C 250.833,325.5 262.167,314.5 273.5,303.5 Z"/></g>
<g><path style="opacity:0.022" fill="#c2d82e" d="M 393.5,303.5 C 393.5,304.833 393.5,306.167 393.5,307.5C 393.5,307.833 393.5,308.167 393.5,308.5C 382.167,319.5 370.833,330.5 359.5,341.5C 359.5,339.833 359.5,338.167 359.5,336.5C 370.833,325.5 382.167,314.5 393.5,303.5 Z"/></g>
<g><path style="opacity:0.022" fill="#c2d82e" d="M 152.5,304.5 C 152.5,305.833 152.5,307.167 152.5,308.5C 152.5,308.833 152.5,309.167 152.5,309.5C 141.167,320.5 129.833,331.5 118.5,342.5C 118.5,340.833 118.5,339.167 118.5,337.5C 129.833,326.5 141.167,315.5 152.5,304.5 Z"/></g>
<g><path style="opacity:1" fill="#c2d82e" d="M 273.5,304.5 C 281.833,304.5 290.167,304.5 298.5,304.5C 309.5,304.5 320.5,304.5 331.5,304.5C 312.5,324.167 293.167,343.5 273.5,362.5C 273.5,357.833 273.5,353.167 273.5,348.5C 273.5,346.833 273.5,345.167 273.5,343.5C 273.5,338.5 273.5,333.5 273.5,328.5C 273.5,326.833 273.5,325.167 273.5,323.5C 273.5,318.5 273.5,313.5 273.5,308.5C 273.5,307.167 273.5,305.833 273.5,304.5 Z"/></g>
<g><path style="opacity:1" fill="#c2d82e" d="M 331.5,304.5 C 339.833,304.5 348.167,304.5 356.5,304.5C 329.167,332.5 301.5,360.167 273.5,387.5C 273.5,386.167 273.5,384.833 273.5,383.5C 273.5,378.5 273.5,373.5 273.5,368.5C 273.5,366.833 273.5,365.167 273.5,363.5C 273.5,363.167 273.5,362.833 273.5,362.5C 293.167,343.5 312.5,324.167 331.5,304.5 Z"/></g>
<g><path style="opacity:0.022" fill="#c2d82e" d="M 31.5,305.5 C 31.5,307.167 31.5,308.833 31.5,310.5C 20.8333,320.833 10.1667,331.167 -0.5,341.5C -0.5,339.833 -0.5,338.167 -0.5,336.5C 10.1667,326.167 20.8333,315.833 31.5,305.5 Z"/></g>
<g><path style="opacity:0.022" fill="#c2d82e" d="M 511.5,305.5 C 511.5,307.167 511.5,308.833 511.5,310.5C 501.167,320.5 490.833,330.5 480.5,340.5C 480.5,338.833 480.5,337.167 480.5,335.5C 490.833,325.5 501.167,315.5 511.5,305.5 Z"/></g>
<g><path style="opacity:1" fill="#c2d82e" d="M 480.5,321.5 C 480.5,326.167 480.5,330.833 480.5,335.5C 480.5,337.167 480.5,338.833 480.5,340.5C 480.5,340.833 480.5,341.167 480.5,341.5C 451.5,370.167 422.5,398.833 393.5,427.5C 393.5,426.167 393.5,424.833 393.5,423.5C 393.5,418.5 393.5,413.5 393.5,408.5C 393.5,408.167 393.5,407.833 393.5,407.5C 422.5,378.833 451.5,350.167 480.5,321.5 Z"/></g>
<g><path style="opacity:1" fill="#c2d82e" d="M 239.5,322.5 C 239.5,327.167 239.5,331.833 239.5,336.5C 239.5,338.167 239.5,339.833 239.5,341.5C 239.5,341.833 239.5,342.167 239.5,342.5C 210.5,371.167 181.5,399.833 152.5,428.5C 152.5,427.167 152.5,425.833 152.5,424.5C 152.5,419.5 152.5,414.5 152.5,409.5C 152.5,409.167 152.5,408.833 152.5,408.5C 181.5,379.833 210.5,351.167 239.5,322.5 Z"/></g>
<g><path style="opacity:1" fill="#c2d82e" d="M 356.5,304.5 C 357.5,304.5 358.5,304.5 359.5,304.5C 359.5,308.5 359.5,312.5 359.5,316.5C 359.5,318.167 359.5,319.833 359.5,321.5C 359.5,326.5 359.5,331.5 359.5,336.5C 359.5,338.167 359.5,339.833 359.5,341.5C 359.5,341.833 359.5,342.167 359.5,342.5C 330.833,370.833 302.167,399.167 273.5,427.5C 273.5,426.167 273.5,424.833 273.5,423.5C 273.5,418.5 273.5,413.5 273.5,408.5C 273.5,406.833 273.5,405.167 273.5,403.5C 273.5,398.5 273.5,393.5 273.5,388.5C 273.5,388.167 273.5,387.833 273.5,387.5C 301.5,360.167 329.167,332.5 356.5,304.5 Z"/></g>
<g><path style="opacity:1" fill="#c2d82e" d="M 118.5,323.5 C 118.5,328.167 118.5,332.833 118.5,337.5C 118.5,339.167 118.5,340.833 118.5,342.5C 118.5,342.833 118.5,343.167 118.5,343.5C 89.5,372.167 60.5,400.833 31.5,429.5C 31.5,428.167 31.5,426.833 31.5,425.5C 31.5,420.5 31.5,415.5 31.5,410.5C 31.5,410.167 31.5,409.833 31.5,409.5C 60.5,380.833 89.5,352.167 118.5,323.5 Z"/></g>
<g><path style="opacity:0.022" fill="#c2d82e" d="M 273.5,323.5 C 273.5,325.167 273.5,326.833 273.5,328.5C 262.167,339.5 250.833,350.5 239.5,361.5C 239.5,359.833 239.5,358.167 239.5,356.5C 250.833,345.5 262.167,334.5 273.5,323.5 Z"/></g>
<g><path style="opacity:0.022" fill="#c2d82e" d="M 393.5,323.5 C 393.5,324.833 393.5,326.167 393.5,327.5C 393.5,327.833 393.5,328.167 393.5,328.5C 382.167,339.5 370.833,350.5 359.5,361.5C 359.5,359.833 359.5,358.167 359.5,356.5C 370.833,345.5 382.167,334.5 393.5,323.5 Z"/></g>
<g><path style="opacity:0.022" fill="#c2d82e" d="M 152.5,324.5 C 152.5,325.833 152.5,327.167 152.5,328.5C 152.5,328.833 152.5,329.167 152.5,329.5C 141.167,340.5 129.833,351.5 118.5,362.5C 118.5,360.833 118.5,359.167 118.5,357.5C 129.833,346.5 141.167,335.5 152.5,324.5 Z"/></g>
<g><path style="opacity:0.022" fill="#c2d82e" d="M 31.5,325.5 C 31.5,327.167 31.5,328.833 31.5,330.5C 20.8333,340.833 10.1667,351.167 -0.5,361.5C -0.5,359.833 -0.5,358.167 -0.5,356.5C 10.1667,346.167 20.8333,335.833 31.5,325.5 Z"/></g>
<g><path style="opacity:0.022" fill="#c2d82e" d="M 511.5,325.5 C 511.5,327.167 511.5,328.833 511.5,330.5C 501.167,340.5 490.833,350.5 480.5,360.5C 480.5,358.833 480.5,357.167 480.5,355.5C 490.833,345.5 501.167,335.5 511.5,325.5 Z"/></g>
<g><path style="opacity:1" fill="#c2d82e" d="M 480.5,341.5 C 480.5,346.167 480.5,350.833 480.5,355.5C 480.5,357.167 480.5,358.833 480.5,360.5C 480.5,360.833 480.5,361.167 480.5,361.5C 451.5,390.167 422.5,418.833 393.5,447.5C 393.5,446.167 393.5,444.833 393.5,443.5C 393.5,438.5 393.5,433.5 393.5,428.5C 393.5,428.167 393.5,427.833 393.5,427.5C 422.5,398.833 451.5,370.167 480.5,341.5 Z"/></g>
<g><path style="opacity:1" fill="#c2d82e" d="M 239.5,342.5 C 239.5,347.167 239.5,351.833 239.5,356.5C 239.5,358.167 239.5,359.833 239.5,361.5C 239.5,361.833 239.5,362.167 239.5,362.5C 210.5,391.167 181.5,419.833 152.5,448.5C 152.5,447.167 152.5,445.833 152.5,444.5C 152.5,439.5 152.5,434.5 152.5,429.5C 152.5,429.167 152.5,428.833 152.5,428.5C 181.5,399.833 210.5,371.167 239.5,342.5 Z"/></g>
<g><path style="opacity:1" fill="#c2d82e" d="M 359.5,342.5 C 359.5,347.167 359.5,351.833 359.5,356.5C 359.5,358.167 359.5,359.833 359.5,361.5C 359.5,361.833 359.5,362.167 359.5,362.5C 330.833,390.833 302.167,419.167 273.5,447.5C 273.5,446.167 273.5,444.833 273.5,443.5C 273.5,438.5 273.5,433.5 273.5,428.5C 273.5,428.167 273.5,427.833 273.5,427.5C 302.167,399.167 330.833,370.833 359.5,342.5 Z"/></g>
<g><path style="opacity:1" fill="#c2d82e" d="M 118.5,343.5 C 118.5,348.167 118.5,352.833 118.5,357.5C 118.5,359.167 118.5,360.833 118.5,362.5C 118.5,362.833 118.5,363.167 118.5,363.5C 89.5,392.167 60.5,420.833 31.5,449.5C 31.5,448.167 31.5,446.833 31.5,445.5C 31.5,440.5 31.5,435.5 31.5,430.5C 31.5,430.167 31.5,429.833 31.5,429.5C 60.5,400.833 89.5,372.167 118.5,343.5 Z"/></g>
<g><path style="opacity:0.022" fill="#c2d82e" d="M 273.5,343.5 C 273.5,345.167 273.5,346.833 273.5,348.5C 262.167,359.5 250.833,370.5 239.5,381.5C 239.5,379.833 239.5,378.167 239.5,376.5C 250.833,365.5 262.167,354.5 273.5,343.5 Z"/></g>
<g><path style="opacity:0.022" fill="#c2d82e" d="M 393.5,343.5 C 393.5,344.833 393.5,346.167 393.5,347.5C 393.5,347.833 393.5,348.167 393.5,348.5C 382.167,359.5 370.833,370.5 359.5,381.5C 359.5,379.833 359.5,378.167 359.5,376.5C 370.833,365.5 382.167,354.5 393.5,343.5 Z"/></g>
<g><path style="opacity:0.022" fill="#c2d82e" d="M 152.5,344.5 C 152.5,345.833 152.5,347.167 152.5,348.5C 152.5,348.833 152.5,349.167 152.5,349.5C 141.167,360.5 129.833,371.5 118.5,382.5C 118.5,380.833 118.5,379.167 118.5,377.5C 129.833,366.5 141.167,355.5 152.5,344.5 Z"/></g>
<g><path style="opacity:0.022" fill="#c2d82e" d="M 31.5,345.5 C 31.5,347.167 31.5,348.833 31.5,350.5C 20.8333,360.833 10.1667,371.167 -0.5,381.5C -0.5,379.833 -0.5,378.167 -0.5,376.5C 10.1667,366.167 20.8333,355.833 31.5,345.5 Z"/></g>
<g><path style="opacity:0.022" fill="#c2d82e" d="M 511.5,345.5 C 511.5,347.167 511.5,348.833 511.5,350.5C 501.167,360.5 490.833,370.5 480.5,380.5C 480.5,378.833 480.5,377.167 480.5,375.5C 490.833,365.5 501.167,355.5 511.5,345.5 Z"/></g>
<g><path style="opacity:1" fill="#c2d82e" d="M 480.5,361.5 C 480.5,366.167 480.5,370.833 480.5,375.5C 480.5,377.167 480.5,378.833 480.5,380.5C 480.5,380.833 480.5,381.167 480.5,381.5C 451.5,410.167 422.5,438.833 393.5,467.5C 393.5,466.167 393.5,464.833 393.5,463.5C 393.5,458.5 393.5,453.5 393.5,448.5C 393.5,448.167 393.5,447.833 393.5,447.5C 422.5,418.833 451.5,390.167 480.5,361.5 Z"/></g>
<g><path style="opacity:1" fill="#c2d82e" d="M 239.5,362.5 C 239.5,367.167 239.5,371.833 239.5,376.5C 239.5,378.167 239.5,379.833 239.5,381.5C 239.5,381.833 239.5,382.167 239.5,382.5C 210.5,411.167 181.5,439.833 152.5,468.5C 152.5,467.167 152.5,465.833 152.5,464.5C 152.5,459.5 152.5,454.5 152.5,449.5C 152.5,449.167 152.5,448.833 152.5,448.5C 181.5,419.833 210.5,391.167 239.5,362.5 Z"/></g>
<g><path style="opacity:1" fill="#c2d82e" d="M 359.5,362.5 C 359.5,367.167 359.5,371.833 359.5,376.5C 359.5,378.167 359.5,379.833 359.5,381.5C 359.5,381.833 359.5,382.167 359.5,382.5C 330.833,410.833 302.167,439.167 273.5,467.5C 273.5,466.167 273.5,464.833 273.5,463.5C 273.5,458.5 273.5,453.5 273.5,448.5C 273.5,448.167 273.5,447.833 273.5,447.5C 302.167,419.167 330.833,390.833 359.5,362.5 Z"/></g>
<g><path style="opacity:1" fill="#c2d82e" d="M 118.5,363.5 C 118.5,368.167 118.5,372.833 118.5,377.5C 118.5,379.167 118.5,380.833 118.5,382.5C 118.5,382.833 118.5,383.167 118.5,383.5C 89.5,412.167 60.5,440.833 31.5,469.5C 31.5,468.167 31.5,466.833 31.5,465.5C 31.5,460.5 31.5,455.5 31.5,450.5C 31.5,450.167 31.5,449.833 31.5,449.5C 60.5,420.833 89.5,392.167 118.5,363.5 Z"/></g>
<g><path style="opacity:0.022" fill="#c2d82e" d="M 273.5,363.5 C 273.5,365.167 273.5,366.833 273.5,368.5C 262.167,379.5 250.833,390.5 239.5,401.5C 239.5,399.833 239.5,398.167 239.5,396.5C 250.833,385.5 262.167,374.5 273.5,363.5 Z"/></g>
<g><path style="opacity:0.022" fill="#c2d82e" d="M 393.5,363.5 C 393.5,364.833 393.5,366.167 393.5,367.5C 393.5,367.833 393.5,368.167 393.5,368.5C 382.167,379.5 370.833,390.5 359.5,401.5C 359.5,399.833 359.5,398.167 359.5,396.5C 370.833,385.5 382.167,374.5 393.5,363.5 Z"/></g>
<g><path style="opacity:0.022" fill="#c2d82e" d="M 152.5,364.5 C 152.5,365.833 152.5,367.167 152.5,368.5C 152.5,368.833 152.5,369.167 152.5,369.5C 141.167,380.5 129.833,391.5 118.5,402.5C 118.5,400.833 118.5,399.167 118.5,397.5C 129.833,386.5 141.167,375.5 152.5,364.5 Z"/></g>
<g><path style="opacity:0.022" fill="#c2d82e" d="M 31.5,365.5 C 31.5,366.833 31.5,368.167 31.5,369.5C 31.5,369.833 31.5,370.167 31.5,370.5C 20.8333,380.833 10.1667,391.167 -0.5,401.5C -0.5,399.833 -0.5,398.167 -0.5,396.5C 10.1667,386.167 20.8333,375.833 31.5,365.5 Z"/></g>
<g><path style="opacity:0.022" fill="#c2d82e" d="M 511.5,365.5 C 511.5,367.167 511.5,368.833 511.5,370.5C 501.167,380.5 490.833,390.5 480.5,400.5C 480.5,398.833 480.5,397.167 480.5,395.5C 490.833,385.5 501.167,375.5 511.5,365.5 Z"/></g>
<g><path style="opacity:1" fill="#c2d82e" d="M 480.5,381.5 C 480.5,386.167 480.5,390.833 480.5,395.5C 480.5,397.167 480.5,398.833 480.5,400.5C 480.5,405.5 480.5,410.5 480.5,415.5C 480.5,415.833 480.5,416.167 480.5,416.5C 453.167,443.167 426.167,470.167 399.5,497.5C 399.167,497.5 398.833,497.5 398.5,497.5C 396.833,497.5 395.167,497.5 393.5,497.5C 393.5,494.5 393.5,491.5 393.5,488.5C 393.5,486.833 393.5,485.167 393.5,483.5C 393.5,478.5 393.5,473.5 393.5,468.5C 393.5,468.167 393.5,467.833 393.5,467.5C 422.5,438.833 451.5,410.167 480.5,381.5 Z"/></g>
<g><path style="opacity:1" fill="#c2d82e" d="M 239.5,382.5 C 239.5,387.167 239.5,391.833 239.5,396.5C 239.5,398.167 239.5,399.833 239.5,401.5C 239.5,406.5 239.5,411.5 239.5,416.5C 239.5,416.833 239.5,417.167 239.5,417.5C 212.5,443.833 185.833,470.5 159.5,497.5C 159.167,497.5 158.833,497.5 158.5,497.5C 156.5,497.5 154.5,497.5 152.5,497.5C 152.5,494.833 152.5,492.167 152.5,489.5C 152.5,487.833 152.5,486.167 152.5,484.5C 152.5,479.5 152.5,474.5 152.5,469.5C 152.5,469.167 152.5,468.833 152.5,468.5C 181.5,439.833 210.5,411.167 239.5,382.5 Z"/></g>
<g><path style="opacity:1" fill="#c2d82e" d="M 359.5,382.5 C 359.5,387.167 359.5,391.833 359.5,396.5C 359.5,398.167 359.5,399.833 359.5,401.5C 359.5,406.5 359.5,411.5 359.5,416.5C 359.5,416.833 359.5,417.167 359.5,417.5C 332.5,443.833 305.833,470.5 279.5,497.5C 279.167,497.5 278.833,497.5 278.5,497.5C 276.833,497.5 275.167,497.5 273.5,497.5C 273.5,494.5 273.5,491.5 273.5,488.5C 273.5,486.833 273.5,485.167 273.5,483.5C 273.5,478.5 273.5,473.5 273.5,468.5C 273.5,468.167 273.5,467.833 273.5,467.5C 302.167,439.167 330.833,410.833 359.5,382.5 Z"/></g>
<g><path style="opacity:1" fill="#c2d82e" d="M 118.5,383.5 C 118.5,388.167 118.5,392.833 118.5,397.5C 118.5,399.167 118.5,400.833 118.5,402.5C 118.5,407.5 118.5,412.5 118.5,417.5C 118.5,417.833 118.5,418.167 118.5,418.5C 91.8333,444.5 65.5,470.833 39.5,497.5C 39.1667,497.5 38.8333,497.5 38.5,497.5C 36.1667,497.5 33.8333,497.5 31.5,497.5C 31.5,495.167 31.5,492.833 31.5,490.5C 31.5,488.833 31.5,487.167 31.5,485.5C 31.5,480.5 31.5,475.5 31.5,470.5C 31.5,470.167 31.5,469.833 31.5,469.5C 60.5,440.833 89.5,412.167 118.5,383.5 Z"/></g>
<g><path style="opacity:0.022" fill="#c2d82e" d="M 273.5,383.5 C 273.5,384.833 273.5,386.167 273.5,387.5C 273.5,387.833 273.5,388.167 273.5,388.5C 262.167,399.5 250.833,410.5 239.5,421.5C 239.5,420.167 239.5,418.833 239.5,417.5C 239.5,417.167 239.5,416.833 239.5,416.5C 250.833,405.5 262.167,394.5 273.5,383.5 Z"/></g>
<g><path style="opacity:0.022" fill="#c2d82e" d="M 393.5,383.5 C 393.5,384.833 393.5,386.167 393.5,387.5C 393.5,387.833 393.5,388.167 393.5,388.5C 382.167,399.5 370.833,410.5 359.5,421.5C 359.5,420.167 359.5,418.833 359.5,417.5C 359.5,417.167 359.5,416.833 359.5,416.5C 370.833,405.5 382.167,394.5 393.5,383.5 Z"/></g>
<g><path style="opacity:0.022" fill="#c2d82e" d="M 152.5,384.5 C 152.5,385.833 152.5,387.167 152.5,388.5C 152.5,388.833 152.5,389.167 152.5,389.5C 141.167,400.5 129.833,411.5 118.5,422.5C 118.5,421.167 118.5,419.833 118.5,418.5C 118.5,418.167 118.5,417.833 118.5,417.5C 129.833,406.5 141.167,395.5 152.5,384.5 Z"/></g>
<g><path style="opacity:0.022" fill="#c2d82e" d="M 31.5,385.5 C 31.5,386.833 31.5,388.167 31.5,389.5C 31.5,389.833 31.5,390.167 31.5,390.5C 20.8333,400.833 10.1667,411.167 -0.5,421.5C -0.5,419.833 -0.5,418.167 -0.5,416.5C 10.1667,406.167 20.8333,395.833 31.5,385.5 Z"/></g>
<g><path style="opacity:0.022" fill="#c2d82e" d="M 511.5,385.5 C 511.5,387.167 511.5,388.833 511.5,390.5C 501.167,400.5 490.833,410.5 480.5,420.5C 480.5,419.167 480.5,417.833 480.5,416.5C 480.5,416.167 480.5,415.833 480.5,415.5C 490.833,405.5 501.167,395.5 511.5,385.5 Z"/></g>
<g><path style="opacity:0.022" fill="#c2d82e" d="M 273.5,403.5 C 273.5,405.167 273.5,406.833 273.5,408.5C 262.167,419.5 250.833,430.5 239.5,441.5C 239.5,439.833 239.5,438.167 239.5,436.5C 250.833,425.5 262.167,414.5 273.5,403.5 Z"/></g>
<g><path style="opacity:0.022" fill="#c2d82e" d="M 393.5,403.5 C 393.5,404.833 393.5,406.167 393.5,407.5C 393.5,407.833 393.5,408.167 393.5,408.5C 382.167,419.5 370.833,430.5 359.5,441.5C 359.5,439.833 359.5,438.167 359.5,436.5C 370.833,425.5 382.167,414.5 393.5,403.5 Z"/></g>
<g><path style="opacity:0.022" fill="#c2d82e" d="M 152.5,404.5 C 152.5,405.833 152.5,407.167 152.5,408.5C 152.5,408.833 152.5,409.167 152.5,409.5C 141.167,420.5 129.833,431.5 118.5,442.5C 118.5,440.833 118.5,439.167 118.5,437.5C 129.833,426.5 141.167,415.5 152.5,404.5 Z"/></g>
<g><path style="opacity:0.022" fill="#c2d82e" d="M 31.5,405.5 C 31.5,406.833 31.5,408.167 31.5,409.5C 31.5,409.833 31.5,410.167 31.5,410.5C 20.8333,420.833 10.1667,431.167 -0.5,441.5C -0.5,439.833 -0.5,438.167 -0.5,436.5C 10.1667,426.167 20.8333,415.833 31.5,405.5 Z"/></g>
<g><path style="opacity:0.022" fill="#c2d82e" d="M 511.5,405.5 C 511.5,407.167 511.5,408.833 511.5,410.5C 501.167,420.5 490.833,430.5 480.5,440.5C 480.5,438.833 480.5,437.167 480.5,435.5C 490.833,425.5 501.167,415.5 511.5,405.5 Z"/></g>
<g><path style="opacity:1" fill="#c2d82e" d="M 480.5,416.5 C 480.5,417.833 480.5,419.167 480.5,420.5C 480.5,425.5 480.5,430.5 480.5,435.5C 480.5,437.167 480.5,438.833 480.5,440.5C 480.5,440.833 480.5,441.167 480.5,441.5C 461.5,459.833 442.833,478.5 424.5,497.5C 424.167,497.5 423.833,497.5 423.5,497.5C 421.833,497.5 420.167,497.5 418.5,497.5C 413.5,497.5 408.5,497.5 403.5,497.5C 402.167,497.5 400.833,497.5 399.5,497.5C 426.167,470.167 453.167,443.167 480.5,416.5 Z"/></g>
<g><path style="opacity:1" fill="#c2d82e" d="M 239.5,417.5 C 239.5,418.833 239.5,420.167 239.5,421.5C 239.5,426.5 239.5,431.5 239.5,436.5C 239.5,438.167 239.5,439.833 239.5,441.5C 239.5,441.833 239.5,442.167 239.5,442.5C 220.833,460.5 202.5,478.833 184.5,497.5C 184.167,497.5 183.833,497.5 183.5,497.5C 181.833,497.5 180.167,497.5 178.5,497.5C 173.5,497.5 168.5,497.5 163.5,497.5C 162.167,497.5 160.833,497.5 159.5,497.5C 185.833,470.5 212.5,443.833 239.5,417.5 Z"/></g>
<g><path style="opacity:1" fill="#c2d82e" d="M 359.5,417.5 C 359.5,418.833 359.5,420.167 359.5,421.5C 359.5,426.5 359.5,431.5 359.5,436.5C 359.5,438.167 359.5,439.833 359.5,441.5C 359.5,441.833 359.5,442.167 359.5,442.5C 340.833,460.5 322.5,478.833 304.5,497.5C 304.167,497.5 303.833,497.5 303.5,497.5C 301.833,497.5 300.167,497.5 298.5,497.5C 293.5,497.5 288.5,497.5 283.5,497.5C 282.167,497.5 280.833,497.5 279.5,497.5C 305.833,470.5 332.5,443.833 359.5,417.5 Z"/></g>
<g><path style="opacity:1" fill="#c2d82e" d="M 118.5,418.5 C 118.5,419.833 118.5,421.167 118.5,422.5C 118.5,427.5 118.5,432.5 118.5,437.5C 118.5,439.167 118.5,440.833 118.5,442.5C 118.5,442.833 118.5,443.167 118.5,443.5C 100.167,461.167 82.1667,479.167 64.5,497.5C 64.1667,497.5 63.8333,497.5 63.5,497.5C 61.8333,497.5 60.1667,497.5 58.5,497.5C 53.5,497.5 48.5,497.5 43.5,497.5C 42.1667,497.5 40.8333,497.5 39.5,497.5C 65.5,470.833 91.8333,444.5 118.5,418.5 Z"/></g>
<g><path style="opacity:0.022" fill="#c2d82e" d="M 273.5,423.5 C 273.5,424.833 273.5,426.167 273.5,427.5C 273.5,427.833 273.5,428.167 273.5,428.5C 262.167,439.5 250.833,450.5 239.5,461.5C 239.5,459.833 239.5,458.167 239.5,456.5C 250.833,445.5 262.167,434.5 273.5,423.5 Z"/></g>
<g><path style="opacity:0.022" fill="#c2d82e" d="M 393.5,423.5 C 393.5,424.833 393.5,426.167 393.5,427.5C 393.5,427.833 393.5,428.167 393.5,428.5C 382.167,439.5 370.833,450.5 359.5,461.5C 359.5,459.833 359.5,458.167 359.5,456.5C 370.833,445.5 382.167,434.5 393.5,423.5 Z"/></g>
<g><path style="opacity:0.022" fill="#c2d82e" d="M 152.5,424.5 C 152.5,425.833 152.5,427.167 152.5,428.5C 152.5,428.833 152.5,429.167 152.5,429.5C 141.167,440.5 129.833,451.5 118.5,462.5C 118.5,460.833 118.5,459.167 118.5,457.5C 129.833,446.5 141.167,435.5 152.5,424.5 Z"/></g>
<g><path style="opacity:0.022" fill="#c2d82e" d="M 31.5,425.5 C 31.5,426.833 31.5,428.167 31.5,429.5C 31.5,429.833 31.5,430.167 31.5,430.5C 20.8333,440.833 10.1667,451.167 -0.5,461.5C -0.5,459.833 -0.5,458.167 -0.5,456.5C 10.1667,446.167 20.8333,435.833 31.5,425.5 Z"/></g>
<g><path style="opacity:0.022" fill="#c2d82e" d="M 511.5,425.5 C 511.5,427.167 511.5,428.833 511.5,430.5C 501.167,440.5 490.833,450.5 480.5,460.5C 480.5,458.833 480.5,457.167 480.5,455.5C 490.833,445.5 501.167,435.5 511.5,425.5 Z"/></g>
<g><path style="opacity:1" fill="#c2d82e" d="M 480.5,441.5 C 480.5,446.167 480.5,450.833 480.5,455.5C 480.5,457.167 480.5,458.833 480.5,460.5C 480.5,465.5 480.5,470.5 480.5,475.5C 480.5,477.167 480.5,478.833 480.5,480.5C 480.5,485.5 480.5,490.5 480.5,495.5C 480.5,496.833 479.833,497.5 478.5,497.5C 473.5,497.5 468.5,497.5 463.5,497.5C 461.833,497.5 460.167,497.5 458.5,497.5C 453.5,497.5 448.5,497.5 443.5,497.5C 441.833,497.5 440.167,497.5 438.5,497.5C 433.833,497.5 429.167,497.5 424.5,497.5C 442.833,478.5 461.5,459.833 480.5,441.5 Z"/></g>
<g><path style="opacity:1" fill="#c2d82e" d="M 239.5,442.5 C 239.5,447.167 239.5,451.833 239.5,456.5C 239.5,458.167 239.5,459.833 239.5,461.5C 239.5,466.5 239.5,471.5 239.5,476.5C 239.5,478.167 239.5,479.833 239.5,481.5C 239.5,486.5 239.5,491.5 239.5,496.5C 239.5,497.167 239.167,497.5 238.5,497.5C 233.5,497.5 228.5,497.5 223.5,497.5C 221.833,497.5 220.167,497.5 218.5,497.5C 213.5,497.5 208.5,497.5 203.5,497.5C 201.833,497.5 200.167,497.5 198.5,497.5C 193.833,497.5 189.167,497.5 184.5,497.5C 202.5,478.833 220.833,460.5 239.5,442.5 Z"/></g>
<g><path style="opacity:1" fill="#c2d82e" d="M 359.5,442.5 C 359.5,447.167 359.5,451.833 359.5,456.5C 359.5,458.167 359.5,459.833 359.5,461.5C 359.5,466.5 359.5,471.5 359.5,476.5C 359.5,478.167 359.5,479.833 359.5,481.5C 359.5,486.5 359.5,491.5 359.5,496.5C 359.5,497.167 359.167,497.5 358.5,497.5C 353.5,497.5 348.5,497.5 343.5,497.5C 341.833,497.5 340.167,497.5 338.5,497.5C 333.5,497.5 328.5,497.5 323.5,497.5C 321.833,497.5 320.167,497.5 318.5,497.5C 313.833,497.5 309.167,497.5 304.5,497.5C 322.5,478.833 340.833,460.5 359.5,442.5 Z"/></g>
<g><path style="opacity:1" fill="#c2d82e" d="M 118.5,443.5 C 118.5,448.167 118.5,452.833 118.5,457.5C 118.5,459.167 118.5,460.833 118.5,462.5C 118.5,467.5 118.5,472.5 118.5,477.5C 118.5,479.167 118.5,480.833 118.5,482.5C 118.5,487.5 118.5,492.5 118.5,497.5C 113.5,497.5 108.5,497.5 103.5,497.5C 101.833,497.5 100.167,497.5 98.5,497.5C 93.5,497.5 88.5,497.5 83.5,497.5C 81.8333,497.5 80.1667,497.5 78.5,497.5C 73.8333,497.5 69.1667,497.5 64.5,497.5C 82.1667,479.167 100.167,461.167 118.5,443.5 Z"/></g>
<g><path style="opacity:0.022" fill="#c2d82e" d="M 273.5,443.5 C 273.5,444.833 273.5,446.167 273.5,447.5C 273.5,447.833 273.5,448.167 273.5,448.5C 262.167,459.5 250.833,470.5 239.5,481.5C 239.5,479.833 239.5,478.167 239.5,476.5C 250.833,465.5 262.167,454.5 273.5,443.5 Z"/></g>
<g><path style="opacity:0.022" fill="#c2d82e" d="M 393.5,443.5 C 393.5,444.833 393.5,446.167 393.5,447.5C 393.5,447.833 393.5,448.167 393.5,448.5C 382.167,459.5 370.833,470.5 359.5,481.5C 359.5,479.833 359.5,478.167 359.5,476.5C 370.833,465.5 382.167,454.5 393.5,443.5 Z"/></g>
<g><path style="opacity:0.022" fill="#c2d82e" d="M 152.5,444.5 C 152.5,445.833 152.5,447.167 152.5,448.5C 152.5,448.833 152.5,449.167 152.5,449.5C 141.167,460.5 129.833,471.5 118.5,482.5C 118.5,480.833 118.5,479.167 118.5,477.5C 129.833,466.5 141.167,455.5 152.5,444.5 Z"/></g>
<g><path style="opacity:0.022" fill="#c2d82e" d="M 31.5,445.5 C 31.5,446.833 31.5,448.167 31.5,449.5C 31.5,449.833 31.5,450.167 31.5,450.5C 20.8333,460.833 10.1667,471.167 -0.5,481.5C -0.5,479.833 -0.5,478.167 -0.5,476.5C 10.1667,466.167 20.8333,455.833 31.5,445.5 Z"/></g>
<g><path style="opacity:0.022" fill="#c2d82e" d="M 511.5,445.5 C 511.5,447.167 511.5,448.833 511.5,450.5C 501.167,460.5 490.833,470.5 480.5,480.5C 480.5,478.833 480.5,477.167 480.5,475.5C 490.833,465.5 501.167,455.5 511.5,445.5 Z"/></g>
<g><path style="opacity:0.022" fill="#c2d82e" d="M 273.5,463.5 C 273.5,464.833 273.5,466.167 273.5,467.5C 273.5,467.833 273.5,468.167 273.5,468.5C 258.833,482.5 244.5,496.833 230.5,511.5C 228.833,511.5 227.167,511.5 225.5,511.5C 229.833,506.833 234.167,502.167 238.5,497.5C 239.167,497.5 239.5,497.167 239.5,496.5C 250.833,485.5 262.167,474.5 273.5,463.5 Z"/></g>
<g><path style="opacity:0.022" fill="#c2d82e" d="M 393.5,463.5 C 393.5,464.833 393.5,466.167 393.5,467.5C 393.5,467.833 393.5,468.167 393.5,468.5C 378.833,482.5 364.5,496.833 350.5,511.5C 348.833,511.5 347.167,511.5 345.5,511.5C 349.833,506.833 354.167,502.167 358.5,497.5C 359.167,497.5 359.5,497.167 359.5,496.5C 370.833,485.5 382.167,474.5 393.5,463.5 Z"/></g>
<g><path style="opacity:0.022" fill="#c2d82e" d="M 152.5,464.5 C 152.5,465.833 152.5,467.167 152.5,468.5C 152.5,468.833 152.5,469.167 152.5,469.5C 138.167,483.167 124.167,497.167 110.5,511.5C 108.833,511.5 107.167,511.5 105.5,511.5C 109.833,506.833 114.167,502.167 118.5,497.5C 129.833,486.5 141.167,475.5 152.5,464.5 Z"/></g>
<g><path style="opacity:0.022" fill="#c2d82e" d="M 31.5,465.5 C 31.5,466.833 31.5,468.167 31.5,469.5C 31.5,469.833 31.5,470.167 31.5,470.5C 20.8333,480.833 10.1667,491.167 -0.5,501.5C -0.5,499.833 -0.5,498.167 -0.5,496.5C 10.1667,486.167 20.8333,475.833 31.5,465.5 Z"/></g>
<g><path style="opacity:0.022" fill="#c2d82e" d="M 511.5,465.5 C 511.5,467.167 511.5,468.833 511.5,470.5C 497.5,483.833 483.833,497.5 470.5,511.5C 468.833,511.5 467.167,511.5 465.5,511.5C 469.833,506.833 474.167,502.167 478.5,497.5C 479.833,497.5 480.5,496.833 480.5,495.5C 490.833,485.5 501.167,475.5 511.5,465.5 Z"/></g>
<g><path style="opacity:0.022" fill="#c2d82e" d="M 273.5,483.5 C 273.5,485.167 273.5,486.833 273.5,488.5C 265.5,495.833 257.833,503.5 250.5,511.5C 248.833,511.5 247.167,511.5 245.5,511.5C 254.5,501.833 263.833,492.5 273.5,483.5 Z"/></g>
<g><path style="opacity:0.022" fill="#c2d82e" d="M 393.5,483.5 C 393.5,485.167 393.5,486.833 393.5,488.5C 385.5,495.833 377.833,503.5 370.5,511.5C 368.833,511.5 367.167,511.5 365.5,511.5C 374.5,501.833 383.833,492.5 393.5,483.5 Z"/></g>
<g><path style="opacity:0.022" fill="#c2d82e" d="M 152.5,484.5 C 152.5,486.167 152.5,487.833 152.5,489.5C 144.833,496.5 137.5,503.833 130.5,511.5C 128.833,511.5 127.167,511.5 125.5,511.5C 134.167,502.167 143.167,493.167 152.5,484.5 Z"/></g>
<g><path style="opacity:0.022" fill="#c2d82e" d="M 31.5,485.5 C 31.5,487.167 31.5,488.833 31.5,490.5C 24.1667,497.167 17.1667,504.167 10.5,511.5C 8.83333,511.5 7.16667,511.5 5.5,511.5C 13.8333,502.5 22.5,493.833 31.5,485.5 Z"/></g>
<g><path style="opacity:0.022" fill="#c2d82e" d="M 511.5,485.5 C 511.5,487.167 511.5,488.833 511.5,490.5C 504.167,497.167 497.167,504.167 490.5,511.5C 488.833,511.5 487.167,511.5 485.5,511.5C 493.833,502.5 502.5,493.833 511.5,485.5 Z"/></g>
<g><path style="opacity:0.022" fill="#c2d82e" d="M 38.5,497.5 C 38.8333,497.5 39.1667,497.5 39.5,497.5C 40.8333,497.5 42.1667,497.5 43.5,497.5C 39.1667,502.167 34.8333,506.833 30.5,511.5C 28.8333,511.5 27.1667,511.5 25.5,511.5C 29.8333,506.833 34.1667,502.167 38.5,497.5 Z"/></g>
<g><path style="opacity:0.022" fill="#c2d82e" d="M 58.5,497.5 C 60.1667,497.5 61.8333,497.5 63.5,497.5C 59.1667,502.167 54.8333,506.833 50.5,511.5C 48.8333,511.5 47.1667,511.5 45.5,511.5C 49.8333,506.833 54.1667,502.167 58.5,497.5 Z"/></g>
<g><path style="opacity:0.022" fill="#c2d82e" d="M 78.5,497.5 C 80.1667,497.5 81.8333,497.5 83.5,497.5C 79.1667,502.167 74.8333,506.833 70.5,511.5C 68.8333,511.5 67.1667,511.5 65.5,511.5C 69.8333,506.833 74.1667,502.167 78.5,497.5 Z"/></g>
<g><path style="opacity:0.022" fill="#c2d82e" d="M 98.5,497.5 C 100.167,497.5 101.833,497.5 103.5,497.5C 99.1667,502.167 94.8333,506.833 90.5,511.5C 88.8333,511.5 87.1667,511.5 85.5,511.5C 89.8333,506.833 94.1667,502.167 98.5,497.5 Z"/></g>
<g><path style="opacity:0.022" fill="#c2d82e" d="M 158.5,497.5 C 158.833,497.5 159.167,497.5 159.5,497.5C 160.833,497.5 162.167,497.5 163.5,497.5C 159.167,502.167 154.833,506.833 150.5,511.5C 148.833,511.5 147.167,511.5 145.5,511.5C 149.833,506.833 154.167,502.167 158.5,497.5 Z"/></g>
<g><path style="opacity:0.022" fill="#c2d82e" d="M 178.5,497.5 C 180.167,497.5 181.833,497.5 183.5,497.5C 179.167,502.167 174.833,506.833 170.5,511.5C 168.833,511.5 167.167,511.5 165.5,511.5C 169.833,506.833 174.167,502.167 178.5,497.5 Z"/></g>
<g><path style="opacity:0.022" fill="#c2d82e" d="M 198.5,497.5 C 200.167,497.5 201.833,497.5 203.5,497.5C 199.167,502.167 194.833,506.833 190.5,511.5C 188.833,511.5 187.167,511.5 185.5,511.5C 189.833,506.833 194.167,502.167 198.5,497.5 Z"/></g>
<g><path style="opacity:0.022" fill="#c2d82e" d="M 218.5,497.5 C 220.167,497.5 221.833,497.5 223.5,497.5C 219.167,502.167 214.833,506.833 210.5,511.5C 208.833,511.5 207.167,511.5 205.5,511.5C 209.833,506.833 214.167,502.167 218.5,497.5 Z"/></g>
<g><path style="opacity:0.022" fill="#c2d82e" d="M 278.5,497.5 C 278.833,497.5 279.167,497.5 279.5,497.5C 280.833,497.5 282.167,497.5 283.5,497.5C 279.167,502.167 274.833,506.833 270.5,511.5C 268.833,511.5 267.167,511.5 265.5,511.5C 269.833,506.833 274.167,502.167 278.5,497.5 Z"/></g>
<g><path style="opacity:0.022" fill="#c2d82e" d="M 298.5,497.5 C 300.167,497.5 301.833,497.5 303.5,497.5C 299.167,502.167 294.833,506.833 290.5,511.5C 288.833,511.5 287.167,511.5 285.5,511.5C 289.833,506.833 294.167,502.167 298.5,497.5 Z"/></g>
<g><path style="opacity:0.022" fill="#c2d82e" d="M 318.5,497.5 C 320.167,497.5 321.833,497.5 323.5,497.5C 319.167,502.167 314.833,506.833 310.5,511.5C 308.833,511.5 307.167,511.5 305.5,511.5C 309.833,506.833 314.167,502.167 318.5,497.5 Z"/></g>
<g><path style="opacity:0.022" fill="#c2d82e" d="M 338.5,497.5 C 340.167,497.5 341.833,497.5 343.5,497.5C 339.167,502.167 334.833,506.833 330.5,511.5C 328.833,511.5 327.167,511.5 325.5,511.5C 329.833,506.833 334.167,502.167 338.5,497.5 Z"/></g>
<g><path style="opacity:0.022" fill="#c2d82e" d="M 398.5,497.5 C 398.833,497.5 399.167,497.5 399.5,497.5C 400.833,497.5 402.167,497.5 403.5,497.5C 399.167,502.167 394.833,506.833 390.5,511.5C 388.833,511.5 387.167,511.5 385.5,511.5C 389.833,506.833 394.167,502.167 398.5,497.5 Z"/></g>
<g><path style="opacity:0.022" fill="#c2d82e" d="M 418.5,497.5 C 420.167,497.5 421.833,497.5 423.5,497.5C 419.167,502.167 414.833,506.833 410.5,511.5C 408.833,511.5 407.167,511.5 405.5,511.5C 409.833,506.833 414.167,502.167 418.5,497.5 Z"/></g>
<g><path style="opacity:0.022" fill="#c2d82e" d="M 438.5,497.5 C 440.167,497.5 441.833,497.5 443.5,497.5C 439.167,502.167 434.833,506.833 430.5,511.5C 428.833,511.5 427.167,511.5 425.5,511.5C 429.833,506.833 434.167,502.167 438.5,497.5 Z"/></g>
<g><path style="opacity:0.022" fill="#c2d82e" d="M 458.5,497.5 C 460.167,497.5 461.833,497.5 463.5,497.5C 459.167,502.167 454.833,506.833 450.5,511.5C 448.833,511.5 447.167,511.5 445.5,511.5C 449.833,506.833 454.167,502.167 458.5,497.5 Z"/></g>
<g><path style="opacity:0.022" fill="#c2d82e" d="M 511.5,505.5 C 511.5,507.167 511.5,508.833 511.5,510.5C 510.833,510.5 510.5,510.833 510.5,511.5C 508.833,511.5 507.167,511.5 505.5,511.5C 507.167,509.167 509.167,507.167 511.5,505.5 Z"/></g>
</svg>
