<?xml version="1.0" encoding="UTF-8"?>
<svg xmlns="http://www.w3.org/2000/svg" xmlns:xlink="http://www.w3.org/1999/xlink" width="25px" height="25px" viewBox="0 0 25 25" version="1.1">
<g id="surface1">
<path style=" stroke:none;fill-rule:nonzero;fill:rgb(76.078433%,84.705883%,18.039216%);fill-opacity:1;" d="M 12.488281 25 L 0.386719 25 L 0.195312 24.839844 L 0 24.679688 L 0 0.355469 L 0.152344 0.175781 L 0.300781 0 L 0.746094 0 L 0.90625 0.144531 L 1.066406 0.292969 L 1.066406 24.125 L 4.457031 24.125 L 4.457031 6.449219 L 6.6875 6.449219 L 6.6875 24.125 L 8.527344 24.125 L 8.527344 9.234375 L 10.753906 9.234375 L 10.753906 24.125 L 12.597656 24.125 L 12.597656 12.179688 L 14.824219 12.179688 L 14.824219 24.125 L 16.570312 24.125 L 16.570312 15.605469 L 18.796875 15.605469 L 18.796875 24.125 L 24.40625 24.125 L 24.652344 24.199219 L 24.898438 24.277344 L 24.964844 24.492188 L 25.027344 24.707031 L 24.808594 24.855469 L 24.589844 25 Z M 24.78125 17.421875 C 24.660156 17.414062 24.097656 17.386719 23.53125 17.363281 L 22.496094 17.316406 L 22.4375 17.265625 L 22.375 17.21875 L 22.585938 16.925781 C 22.699219 16.765625 22.777344 16.621094 22.757812 16.605469 C 22.738281 16.589844 22.222656 16.335938 21.609375 16.039062 C 20.996094 15.742188 20.101562 15.285156 19.621094 15.019531 C 19.140625 14.757812 18.445312 14.339844 18.070312 14.089844 C 17.699219 13.835938 17.085938 13.367188 16.710938 13.046875 C 16.335938 12.722656 15.828125 12.246094 15.585938 11.984375 C 15.34375 11.71875 14.585938 10.84375 13.902344 10.03125 C 13.21875 9.222656 12.398438 8.273438 12.078125 7.921875 C 11.757812 7.570312 11.226562 7.070312 10.898438 6.808594 L 10.304688 6.328125 L 9.746094 6.058594 L 9.1875 5.785156 L 8.429688 5.5625 L 7.667969 5.34375 L 6.636719 5.179688 C 6.070312 5.089844 5.523438 4.976562 5.417969 4.933594 L 5.234375 4.851562 L 5.234375 4.738281 C 5.234375 4.675781 5.273438 4.605469 5.324219 4.578125 L 5.417969 4.53125 L 6.625 4.738281 C 7.289062 4.847656 8.140625 5.027344 8.519531 5.132812 C 8.894531 5.238281 9.476562 5.441406 9.8125 5.585938 L 10.417969 5.847656 L 11.339844 6.605469 L 12.257812 7.363281 L 13.082031 8.328125 C 13.535156 8.859375 14.394531 9.863281 14.992188 10.5625 L 16.082031 11.832031 L 16.761719 12.476562 L 17.445312 13.121094 L 18.242188 13.65625 C 18.679688 13.949219 19.519531 14.449219 20.105469 14.765625 C 20.691406 15.085938 21.597656 15.542969 22.117188 15.789062 L 23.0625 16.234375 L 23.28125 15.921875 C 23.398438 15.746094 23.523438 15.605469 23.558594 15.605469 C 23.589844 15.605469 23.929688 15.992188 24.308594 16.464844 C 24.6875 16.9375 25 17.347656 25 17.378906 L 25 17.4375 Z M 24.78125 17.421875 "/>
<path style=" stroke:none;fill-rule:nonzero;fill:rgb(76.078433%,84.705883%,18.039216%);fill-opacity:1;" d="M 12.488281 25 L 0.386719 25 L 0.195312 24.839844 L 0 24.679688 L 0 0.355469 L 0.152344 0.175781 L 0.300781 0 L 0.746094 0 L 0.90625 0.144531 L 1.066406 0.292969 L 1.066406 24.125 L 4.457031 24.125 L 4.457031 6.449219 L 6.6875 6.449219 L 6.6875 24.125 L 8.527344 24.125 L 8.527344 9.234375 L 10.753906 9.234375 L 10.753906 24.125 L 12.597656 24.125 L 12.597656 12.179688 L 14.824219 12.179688 L 14.824219 24.125 L 16.570312 24.125 L 16.570312 15.605469 L 18.796875 15.605469 L 18.796875 24.125 L 24.40625 24.125 L 24.652344 24.199219 L 24.898438 24.277344 L 24.964844 24.492188 L 25.027344 24.707031 L 24.808594 24.855469 L 24.589844 25 Z M 13.710938 24.125 L 14.535156 24.125 L 14.535156 12.421875 L 12.886719 12.421875 L 12.886719 24.125 Z M 24.78125 17.421875 C 24.660156 17.414062 24.097656 17.386719 23.53125 17.363281 L 22.496094 17.316406 L 22.4375 17.265625 L 22.375 17.21875 L 22.585938 16.925781 C 22.699219 16.765625 22.777344 16.621094 22.757812 16.605469 C 22.738281 16.589844 22.222656 16.335938 21.609375 16.039062 C 20.996094 15.742188 20.101562 15.285156 19.621094 15.019531 C 19.140625 14.757812 18.445312 14.339844 18.070312 14.089844 C 17.699219 13.835938 17.085938 13.367188 16.710938 13.046875 C 16.335938 12.722656 15.828125 12.246094 15.585938 11.984375 C 15.34375 11.71875 14.585938 10.84375 13.902344 10.03125 C 13.21875 9.222656 12.398438 8.273438 12.078125 7.921875 C 11.757812 7.570312 11.226562 7.070312 10.898438 6.808594 L 10.304688 6.328125 L 9.746094 6.058594 L 9.1875 5.785156 L 8.429688 5.5625 L 7.667969 5.34375 L 6.636719 5.179688 C 6.070312 5.089844 5.523438 4.976562 5.417969 4.933594 L 5.234375 4.851562 L 5.234375 4.738281 C 5.234375 4.675781 5.273438 4.605469 5.324219 4.578125 L 5.417969 4.53125 L 6.625 4.738281 C 7.289062 4.847656 8.140625 5.027344 8.519531 5.132812 C 8.894531 5.238281 9.476562 5.441406 9.8125 5.585938 L 10.417969 5.847656 L 11.339844 6.605469 L 12.257812 7.363281 L 13.082031 8.328125 C 13.535156 8.859375 14.394531 9.863281 14.992188 10.5625 L 16.082031 11.832031 L 16.761719 12.476562 L 17.445312 13.121094 L 18.242188 13.65625 C 18.679688 13.949219 19.519531 14.449219 20.105469 14.765625 C 20.691406 15.085938 21.597656 15.542969 22.117188 15.789062 L 23.0625 16.234375 L 23.28125 15.921875 C 23.398438 15.746094 23.523438 15.605469 23.558594 15.605469 C 23.589844 15.605469 23.929688 15.992188 24.308594 16.464844 C 24.6875 16.9375 25 17.347656 25 17.378906 L 25 17.4375 Z M 24.78125 17.421875 "/>
<path style=" stroke:none;fill-rule:nonzero;fill:rgb(76.078433%,84.705883%,18.039216%);fill-opacity:1;" d="M 12.488281 25 L 0.386719 25 L 0.195312 24.839844 L 0 24.679688 L 0 0.355469 L 0.152344 0.175781 L 0.300781 0 L 0.746094 0 L 0.90625 0.144531 L 1.066406 0.292969 L 1.066406 24.125 L 4.457031 24.125 L 4.457031 6.449219 L 6.6875 6.449219 L 6.6875 24.125 L 8.527344 24.125 L 8.527344 9.234375 L 10.753906 9.234375 L 10.753906 24.125 L 12.597656 24.125 L 12.597656 12.179688 L 14.824219 12.179688 L 14.824219 24.125 L 16.570312 24.125 L 16.570312 15.605469 L 18.796875 15.605469 L 18.796875 24.125 L 24.40625 24.125 L 24.652344 24.199219 L 24.898438 24.277344 L 24.964844 24.492188 L 25.027344 24.707031 L 24.808594 24.855469 L 24.589844 25 Z M 9.640625 24.125 L 10.464844 24.125 L 10.464844 9.472656 L 8.816406 9.472656 L 8.816406 24.125 Z M 13.710938 24.125 L 14.535156 24.125 L 14.535156 12.421875 L 12.886719 12.421875 L 12.886719 24.125 Z M 24.78125 17.421875 C 24.660156 17.414062 24.097656 17.386719 23.53125 17.363281 L 22.496094 17.316406 L 22.4375 17.265625 L 22.375 17.21875 L 22.585938 16.925781 C 22.699219 16.765625 22.777344 16.621094 22.757812 16.605469 C 22.738281 16.589844 22.222656 16.335938 21.609375 16.039062 C 20.996094 15.742188 20.101562 15.285156 19.621094 15.019531 C 19.140625 14.757812 18.445312 14.339844 18.070312 14.089844 C 17.699219 13.835938 17.085938 13.367188 16.710938 13.046875 C 16.335938 12.722656 15.828125 12.246094 15.585938 11.984375 C 15.34375 11.71875 14.585938 10.84375 13.902344 10.03125 C 13.21875 9.222656 12.398438 8.273438 12.078125 7.921875 C 11.757812 7.570312 11.226562 7.070312 10.898438 6.808594 L 10.304688 6.328125 L 9.746094 6.058594 L 9.1875 5.785156 L 8.429688 5.5625 L 7.667969 5.34375 L 6.636719 5.179688 C 6.070312 5.089844 5.523438 4.976562 5.417969 4.933594 L 5.234375 4.851562 L 5.234375 4.738281 C 5.234375 4.675781 5.273438 4.605469 5.324219 4.578125 L 5.417969 4.53125 L 6.625 4.738281 C 7.289062 4.847656 8.140625 5.027344 8.519531 5.132812 C 8.894531 5.238281 9.476562 5.441406 9.8125 5.585938 L 10.417969 5.847656 L 11.339844 6.605469 L 12.257812 7.363281 L 13.082031 8.328125 C 13.535156 8.859375 14.394531 9.863281 14.992188 10.5625 L 16.082031 11.832031 L 16.761719 12.476562 L 17.445312 13.121094 L 18.242188 13.65625 C 18.679688 13.949219 19.519531 14.449219 20.105469 14.765625 C 20.691406 15.085938 21.597656 15.542969 22.117188 15.789062 L 23.0625 16.234375 L 23.28125 15.921875 C 23.398438 15.746094 23.523438 15.605469 23.558594 15.605469 C 23.589844 15.605469 23.929688 15.992188 24.308594 16.464844 C 24.6875 16.9375 25 17.347656 25 17.378906 L 25 17.4375 Z M 24.78125 17.421875 "/>
<path style=" stroke:none;fill-rule:nonzero;fill:rgb(76.078433%,84.705883%,18.039216%);fill-opacity:1;" d="M 12.460938 24.941406 L 0.457031 24.960938 L 0.277344 24.855469 L 0.0976562 24.753906 L 0.0976562 0.25 L 0.25 0.125 C 0.332031 0.0546875 0.457031 0 0.519531 0 C 0.585938 0 0.714844 0.0429688 0.804688 0.0976562 L 0.96875 0.199219 L 0.992188 12.179688 L 1.015625 24.164062 L 2.738281 24.1875 L 4.457031 24.207031 L 4.457031 6.449219 L 6.6875 6.449219 L 6.6875 24.203125 L 8.527344 24.203125 L 8.527344 9.234375 L 10.753906 9.234375 L 10.753906 24.203125 L 12.597656 24.203125 L 12.597656 12.179688 L 14.824219 12.179688 L 14.824219 24.203125 L 16.570312 24.203125 L 16.570312 15.605469 L 18.796875 15.605469 L 18.796875 24.203125 L 24.671875 24.203125 L 24.785156 24.300781 L 24.902344 24.394531 L 24.902344 24.835938 L 24.683594 24.878906 L 24.46875 24.921875 Z M 9.640625 24.125 L 10.464844 24.125 L 10.464844 9.472656 L 8.816406 9.472656 L 8.816406 24.125 Z M 13.710938 24.125 L 14.535156 24.125 L 14.535156 12.421875 L 12.886719 12.421875 L 12.886719 24.125 Z M 24.15625 17.34375 C 23.6875 17.335938 23.097656 17.316406 22.84375 17.296875 L 22.382812 17.269531 L 22.621094 16.933594 L 22.863281 16.59375 L 21.886719 16.136719 C 21.347656 15.882812 20.410156 15.40625 19.800781 15.078125 L 18.691406 14.476562 L 17.820312 13.882812 L 16.953125 13.289062 L 16.179688 12.523438 C 15.757812 12.105469 14.921875 11.183594 14.328125 10.476562 C 13.730469 9.773438 12.914062 8.820312 12.515625 8.359375 L 11.789062 7.523438 L 10.109375 6.148438 L 9.292969 5.824219 L 8.480469 5.503906 L 7.886719 5.378906 C 7.558594 5.3125 6.867188 5.183594 6.34375 5.097656 L 5.394531 4.941406 L 5.320312 4.84375 L 5.242188 4.742188 L 5.332031 4.652344 L 5.425781 4.5625 L 6.707031 4.789062 C 7.410156 4.914062 8.207031 5.074219 8.476562 5.144531 C 8.742188 5.21875 9.179688 5.367188 9.449219 5.472656 C 9.714844 5.582031 10.207031 5.832031 10.542969 6.027344 L 11.148438 6.382812 L 11.769531 6.976562 C 12.109375 7.308594 12.773438 8.027344 13.246094 8.578125 C 13.714844 9.128906 14.570312 10.125 15.148438 10.796875 L 16.199219 12.015625 L 16.984375 12.703125 L 17.769531 13.394531 L 18.410156 13.816406 C 18.765625 14.046875 19.523438 14.488281 20.09375 14.800781 C 20.667969 15.109375 21.570312 15.566406 22.101562 15.8125 C 22.636719 16.058594 23.082031 16.25 23.097656 16.230469 C 23.113281 16.214844 23.226562 16.066406 23.347656 15.898438 C 23.46875 15.734375 23.578125 15.609375 23.59375 15.621094 C 23.605469 15.632812 23.929688 16.03125 24.308594 16.5 L 25.003906 17.355469 Z M 24.15625 17.34375 "/>
<path style=" stroke:none;fill-rule:nonzero;fill:rgb(76.078433%,84.705883%,18.039216%);fill-opacity:1;" d="M 12.460938 24.941406 L 0.457031 24.960938 L 0.277344 24.855469 L 0.0976562 24.753906 L 0.0976562 0.25 L 0.25 0.125 C 0.332031 0.0546875 0.457031 0 0.519531 0 C 0.585938 0 0.714844 0.0429688 0.804688 0.0976562 L 0.96875 0.199219 L 0.992188 12.179688 L 1.015625 24.164062 L 2.738281 24.1875 L 4.457031 24.207031 L 4.457031 6.449219 L 6.6875 6.449219 L 6.6875 24.203125 L 8.527344 24.203125 L 8.527344 9.234375 L 10.753906 9.234375 L 10.753906 24.203125 L 12.597656 24.203125 L 12.597656 12.179688 L 14.824219 12.179688 L 14.824219 24.203125 L 16.570312 24.203125 L 16.570312 15.605469 L 18.796875 15.605469 L 18.796875 24.203125 L 24.671875 24.203125 L 24.785156 24.300781 L 24.902344 24.394531 L 24.902344 24.835938 L 24.683594 24.878906 L 24.46875 24.921875 Z M 9.640625 24.125 L 10.5625 24.125 L 10.5625 9.394531 L 8.722656 9.394531 L 8.722656 24.125 Z M 13.710938 24.125 L 14.632812 24.125 L 14.609375 18.253906 L 14.582031 12.378906 L 12.839844 12.378906 L 12.8125 18.253906 L 12.789062 24.125 Z M 24.15625 17.34375 C 23.6875 17.335938 23.097656 17.316406 22.84375 17.296875 L 22.382812 17.269531 L 22.621094 16.933594 L 22.863281 16.59375 L 21.886719 16.136719 C 21.347656 15.882812 20.410156 15.40625 19.800781 15.078125 L 18.691406 14.476562 L 17.820312 13.882812 L 16.953125 13.289062 L 16.179688 12.523438 C 15.757812 12.105469 14.921875 11.183594 14.328125 10.476562 C 13.730469 9.773438 12.914062 8.820312 12.515625 8.359375 L 11.789062 7.523438 L 10.109375 6.148438 L 9.292969 5.824219 L 8.480469 5.503906 L 7.886719 5.378906 C 7.558594 5.3125 6.867188 5.183594 6.34375 5.097656 L 5.394531 4.941406 L 5.320312 4.84375 L 5.242188 4.742188 L 5.332031 4.652344 L 5.425781 4.5625 L 6.707031 4.789062 C 7.410156 4.914062 8.207031 5.074219 8.476562 5.144531 C 8.742188 5.21875 9.179688 5.367188 9.449219 5.472656 C 9.714844 5.582031 10.207031 5.832031 10.542969 6.027344 L 11.148438 6.382812 L 11.769531 6.976562 C 12.109375 7.308594 12.773438 8.027344 13.246094 8.578125 C 13.714844 9.128906 14.570312 10.125 15.148438 10.796875 L 16.199219 12.015625 L 16.984375 12.703125 L 17.769531 13.394531 L 18.410156 13.816406 C 18.765625 14.046875 19.523438 14.488281 20.09375 14.800781 C 20.667969 15.109375 21.570312 15.566406 22.101562 15.8125 C 22.636719 16.058594 23.082031 16.25 23.097656 16.230469 C 23.113281 16.214844 23.226562 16.066406 23.347656 15.898438 C 23.46875 15.734375 23.578125 15.609375 23.59375 15.621094 C 23.605469 15.632812 23.929688 16.03125 24.308594 16.5 L 25.003906 17.355469 Z M 24.15625 17.34375 "/>
<path style=" stroke:none;fill-rule:nonzero;fill:rgb(76.078433%,84.705883%,18.039216%);fill-opacity:1;" d="M 12.460938 24.941406 L 0.457031 24.960938 L 0.277344 24.855469 L 0.0976562 24.753906 L 0.0976562 0.25 L 0.25 0.125 C 0.332031 0.0546875 0.457031 0 0.519531 0 C 0.585938 0 0.714844 0.0429688 0.804688 0.0976562 L 0.96875 0.199219 L 0.992188 12.179688 L 1.015625 24.164062 L 2.738281 24.1875 L 4.457031 24.207031 L 4.457031 6.449219 L 6.6875 6.449219 L 6.6875 24.203125 L 8.527344 24.203125 L 8.527344 9.234375 L 10.753906 9.234375 L 10.753906 24.203125 L 12.597656 24.203125 L 12.597656 12.179688 L 14.824219 12.179688 L 14.824219 24.203125 L 16.570312 24.203125 L 16.570312 15.605469 L 18.796875 15.605469 L 18.796875 24.203125 L 24.671875 24.203125 L 24.785156 24.300781 L 24.902344 24.394531 L 24.902344 24.835938 L 24.683594 24.878906 L 24.46875 24.921875 Z M 9.640625 24.125 L 10.5625 24.125 L 10.5625 9.394531 L 8.722656 9.394531 L 8.722656 24.125 Z M 13.710938 24.125 L 14.632812 24.125 L 14.609375 18.253906 L 14.582031 12.378906 L 12.839844 12.378906 L 12.8125 18.253906 L 12.789062 24.125 Z M 17.683594 24.125 L 18.507812 24.125 L 18.507812 15.84375 L 16.859375 15.84375 L 16.859375 24.125 Z M 24.15625 17.34375 C 23.6875 17.335938 23.097656 17.316406 22.84375 17.296875 L 22.382812 17.269531 L 22.621094 16.933594 L 22.863281 16.59375 L 21.886719 16.136719 C 21.347656 15.882812 20.410156 15.40625 19.800781 15.078125 L 18.691406 14.476562 L 17.820312 13.882812 L 16.953125 13.289062 L 16.179688 12.523438 C 15.757812 12.105469 14.921875 11.183594 14.328125 10.476562 C 13.730469 9.773438 12.914062 8.820312 12.515625 8.359375 L 11.789062 7.523438 L 10.109375 6.148438 L 9.292969 5.824219 L 8.480469 5.503906 L 7.886719 5.378906 C 7.558594 5.3125 6.867188 5.183594 6.34375 5.097656 L 5.394531 4.941406 L 5.320312 4.84375 L 5.242188 4.742188 L 5.332031 4.652344 L 5.425781 4.5625 L 6.707031 4.789062 C 7.410156 4.914062 8.207031 5.074219 8.476562 5.144531 C 8.742188 5.21875 9.179688 5.367188 9.449219 5.472656 C 9.714844 5.582031 10.207031 5.832031 10.542969 6.027344 L 11.148438 6.382812 L 11.769531 6.976562 C 12.109375 7.308594 12.773438 8.027344 13.246094 8.578125 C 13.714844 9.128906 14.570312 10.125 15.148438 10.796875 L 16.199219 12.015625 L 16.984375 12.703125 L 17.769531 13.394531 L 18.410156 13.816406 C 18.765625 14.046875 19.523438 14.488281 20.09375 14.800781 C 20.667969 15.109375 21.570312 15.566406 22.101562 15.8125 C 22.636719 16.058594 23.082031 16.25 23.097656 16.230469 C 23.113281 16.214844 23.226562 16.066406 23.347656 15.898438 C 23.46875 15.734375 23.578125 15.609375 23.59375 15.621094 C 23.605469 15.632812 23.929688 16.03125 24.308594 16.5 L 25.003906 17.355469 Z M 24.15625 17.34375 "/>
<path style=" stroke:none;fill-rule:nonzero;fill:rgb(76.078433%,84.705883%,18.039216%);fill-opacity:1;" d="M 12.460938 24.941406 L 0.457031 24.960938 L 0.277344 24.855469 L 0.0976562 24.753906 L 0.0976562 0.25 L 0.25 0.125 C 0.332031 0.0546875 0.457031 0 0.519531 0 C 0.585938 0 0.714844 0.0429688 0.804688 0.0976562 L 0.96875 0.199219 L 0.992188 12.179688 L 1.015625 24.164062 L 2.738281 24.1875 L 4.457031 24.207031 L 4.457031 6.449219 L 6.6875 6.449219 L 6.6875 24.203125 L 8.527344 24.203125 L 8.527344 9.234375 L 10.753906 9.234375 L 10.753906 24.203125 L 12.597656 24.203125 L 12.597656 12.179688 L 14.824219 12.179688 L 14.824219 24.203125 L 16.570312 24.203125 L 16.570312 15.605469 L 18.796875 15.605469 L 18.796875 24.203125 L 24.671875 24.203125 L 24.785156 24.300781 L 24.902344 24.394531 L 24.902344 24.835938 L 24.683594 24.878906 L 24.46875 24.921875 Z M 5.570312 24.125 L 6.394531 24.125 L 6.394531 6.6875 L 4.75 6.6875 L 4.75 24.125 Z M 9.640625 24.125 L 10.5625 24.125 L 10.5625 9.394531 L 8.722656 9.394531 L 8.722656 24.125 Z M 13.710938 24.125 L 14.632812 24.125 L 14.609375 18.253906 L 14.582031 12.378906 L 12.839844 12.378906 L 12.8125 18.253906 L 12.789062 24.125 Z M 17.683594 24.125 L 18.507812 24.125 L 18.507812 15.84375 L 16.859375 15.84375 L 16.859375 24.125 Z M 24.15625 17.34375 C 23.6875 17.335938 23.097656 17.316406 22.84375 17.296875 L 22.382812 17.269531 L 22.621094 16.933594 L 22.863281 16.59375 L 21.886719 16.136719 C 21.347656 15.882812 20.410156 15.40625 19.800781 15.078125 L 18.691406 14.476562 L 17.820312 13.882812 L 16.953125 13.289062 L 16.179688 12.523438 C 15.757812 12.105469 14.921875 11.183594 14.328125 10.476562 C 13.730469 9.773438 12.914062 8.820312 12.515625 8.359375 L 11.789062 7.523438 L 10.109375 6.148438 L 9.292969 5.824219 L 8.480469 5.503906 L 7.886719 5.378906 C 7.558594 5.3125 6.867188 5.183594 6.34375 5.097656 L 5.394531 4.941406 L 5.320312 4.84375 L 5.242188 4.742188 L 5.332031 4.652344 L 5.425781 4.5625 L 6.707031 4.789062 C 7.410156 4.914062 8.207031 5.074219 8.476562 5.144531 C 8.742188 5.21875 9.179688 5.367188 9.449219 5.472656 C 9.714844 5.582031 10.207031 5.832031 10.542969 6.027344 L 11.148438 6.382812 L 11.769531 6.976562 C 12.109375 7.308594 12.773438 8.027344 13.246094 8.578125 C 13.714844 9.128906 14.570312 10.125 15.148438 10.796875 L 16.199219 12.015625 L 16.984375 12.703125 L 17.769531 13.394531 L 18.410156 13.816406 C 18.765625 14.046875 19.523438 14.488281 20.09375 14.800781 C 20.667969 15.109375 21.570312 15.566406 22.101562 15.8125 C 22.636719 16.058594 23.082031 16.25 23.097656 16.230469 C 23.113281 16.214844 23.226562 16.066406 23.347656 15.898438 C 23.46875 15.734375 23.578125 15.609375 23.59375 15.621094 C 23.605469 15.632812 23.929688 16.03125 24.308594 16.5 L 25.003906 17.355469 Z M 24.15625 17.34375 "/>
<path style=" stroke:none;fill-rule:nonzero;fill:rgb(76.078433%,84.705883%,18.039216%);fill-opacity:1;" d="M 12.460938 24.941406 L 0.457031 24.960938 L 0.277344 24.855469 L 0.0976562 24.753906 L 0.0976562 0.25 L 0.25 0.125 C 0.332031 0.0546875 0.457031 0 0.519531 0 C 0.585938 0 0.714844 0.0429688 0.804688 0.0976562 L 0.96875 0.199219 L 0.992188 12.179688 L 1.015625 24.164062 L 2.738281 24.1875 L 4.457031 24.207031 L 4.457031 6.449219 L 6.6875 6.449219 L 6.6875 24.203125 L 8.527344 24.203125 L 8.527344 9.234375 L 10.753906 9.234375 L 10.753906 24.203125 L 12.597656 24.203125 L 12.597656 12.179688 L 14.824219 12.179688 L 14.824219 24.203125 L 16.570312 24.203125 L 16.570312 15.605469 L 18.796875 15.605469 L 18.796875 24.203125 L 24.671875 24.203125 L 24.785156 24.300781 L 24.902344 24.394531 L 24.902344 24.835938 L 24.683594 24.878906 L 24.46875 24.921875 Z M 5.570312 24.125 L 6.492188 24.125 L 6.492188 6.609375 L 4.652344 6.609375 L 4.652344 24.125 Z M 9.640625 24.125 L 10.5625 24.125 L 10.5625 9.394531 L 8.722656 9.394531 L 8.722656 24.125 Z M 13.710938 24.125 L 14.632812 24.125 L 14.609375 18.253906 L 14.582031 12.378906 L 12.839844 12.378906 L 12.8125 18.253906 L 12.789062 24.125 Z M 17.683594 24.125 L 18.507812 24.125 L 18.507812 15.84375 L 16.859375 15.84375 L 16.859375 24.125 Z M 24.15625 17.34375 C 23.6875 17.335938 23.097656 17.316406 22.84375 17.296875 L 22.382812 17.269531 L 22.621094 16.933594 L 22.863281 16.59375 L 21.886719 16.136719 C 21.347656 15.882812 20.410156 15.40625 19.800781 15.078125 L 18.691406 14.476562 L 17.820312 13.882812 L 16.953125 13.289062 L 16.179688 12.523438 C 15.757812 12.105469 14.921875 11.183594 14.328125 10.476562 C 13.730469 9.773438 12.914062 8.820312 12.515625 8.359375 L 11.789062 7.523438 L 10.109375 6.148438 L 9.292969 5.824219 L 8.480469 5.503906 L 7.886719 5.378906 C 7.558594 5.3125 6.867188 5.183594 6.34375 5.097656 L 5.394531 4.941406 L 5.320312 4.84375 L 5.242188 4.742188 L 5.332031 4.652344 L 5.425781 4.5625 L 6.707031 4.789062 C 7.410156 4.914062 8.207031 5.074219 8.476562 5.144531 C 8.742188 5.21875 9.179688 5.367188 9.449219 5.472656 C 9.714844 5.582031 10.207031 5.832031 10.542969 6.027344 L 11.148438 6.382812 L 11.769531 6.976562 C 12.109375 7.308594 12.773438 8.027344 13.246094 8.578125 C 13.714844 9.128906 14.570312 10.125 15.148438 10.796875 L 16.199219 12.015625 L 16.984375 12.703125 L 17.769531 13.394531 L 18.410156 13.816406 C 18.765625 14.046875 19.523438 14.488281 20.09375 14.800781 C 20.667969 15.109375 21.570312 15.566406 22.101562 15.8125 C 22.636719 16.058594 23.082031 16.25 23.097656 16.230469 C 23.113281 16.214844 23.226562 16.066406 23.347656 15.898438 C 23.46875 15.734375 23.578125 15.609375 23.59375 15.621094 C 23.605469 15.632812 23.929688 16.03125 24.308594 16.5 L 25.003906 17.355469 Z M 24.15625 17.34375 "/>
<path style=" stroke:none;fill-rule:nonzero;fill:rgb(76.078433%,84.705883%,18.039216%);fill-opacity:1;" d="M 12.65625 24.917969 L 0.457031 24.960938 L 0.277344 24.855469 L 0.0976562 24.753906 L 0.0976562 0.25 L 0.25 0.125 C 0.332031 0.0546875 0.457031 0 0.519531 0 C 0.585938 0 0.714844 0.0429688 0.804688 0.0976562 L 0.96875 0.199219 L 0.992188 12.179688 L 1.015625 24.164062 L 6.808594 24.179688 L 12.597656 24.195312 L 12.597656 12.179688 L 14.824219 12.179688 L 14.824219 24.203125 L 16.570312 24.203125 L 16.570312 15.605469 L 18.796875 15.605469 L 18.796875 24.203125 L 24.671875 24.203125 L 24.785156 24.300781 L 24.902344 24.394531 L 24.902344 24.617188 C 24.902344 24.742188 24.890625 24.847656 24.878906 24.859375 C 24.867188 24.871094 19.367188 24.898438 12.65625 24.917969 Z M 13.753906 24.1875 L 14.582031 24.164062 L 14.609375 18.253906 L 14.632812 12.339844 L 12.789062 12.339844 L 12.789062 24.097656 L 12.859375 24.152344 L 12.925781 24.210938 Z M 17.683594 24.125 L 18.507812 24.125 L 18.507812 15.84375 L 16.859375 15.84375 L 16.859375 24.125 Z M 24.15625 17.34375 C 23.6875 17.335938 23.097656 17.316406 22.84375 17.296875 L 22.382812 17.269531 L 22.621094 16.933594 L 22.863281 16.59375 L 21.886719 16.136719 C 21.347656 15.882812 20.410156 15.40625 19.800781 15.078125 L 18.691406 14.476562 L 17.820312 13.882812 L 16.953125 13.289062 L 16.179688 12.523438 C 15.757812 12.105469 14.921875 11.183594 14.328125 10.476562 C 13.730469 9.773438 12.914062 8.820312 12.515625 8.359375 L 11.789062 7.523438 L 10.109375 6.148438 L 9.292969 5.824219 L 8.480469 5.503906 L 7.886719 5.378906 C 7.558594 5.3125 6.867188 5.183594 6.34375 5.097656 L 5.394531 4.941406 L 5.320312 4.84375 L 5.242188 4.742188 L 5.332031 4.652344 L 5.425781 4.5625 L 6.707031 4.789062 C 7.410156 4.914062 8.207031 5.074219 8.476562 5.144531 C 8.742188 5.21875 9.179688 5.367188 9.449219 5.472656 C 9.714844 5.582031 10.207031 5.832031 10.542969 6.027344 L 11.148438 6.382812 L 11.769531 6.976562 C 12.109375 7.308594 12.773438 8.027344 13.246094 8.578125 C 13.714844 9.128906 14.570312 10.125 15.148438 10.796875 L 16.199219 12.015625 L 16.984375 12.703125 L 17.769531 13.394531 L 18.410156 13.816406 C 18.765625 14.046875 19.523438 14.488281 20.09375 14.800781 C 20.667969 15.109375 21.570312 15.566406 22.101562 15.8125 C 22.636719 16.058594 23.082031 16.25 23.097656 16.230469 C 23.113281 16.214844 23.226562 16.066406 23.347656 15.898438 C 23.46875 15.734375 23.578125 15.609375 23.59375 15.621094 C 23.605469 15.632812 23.929688 16.03125 24.308594 16.5 L 25.003906 17.355469 Z M 24.15625 17.34375 "/>
<path style=" stroke:none;fill-rule:nonzero;fill:rgb(76.078433%,84.705883%,18.039216%);fill-opacity:1;" d="M 12.65625 24.917969 L 0.457031 24.960938 L 0.277344 24.855469 L 0.0976562 24.753906 L 0.0976562 0.25 L 0.25 0.125 C 0.332031 0.0546875 0.457031 0 0.519531 0 C 0.585938 0 0.714844 0.0429688 0.804688 0.0976562 L 0.96875 0.199219 L 0.992188 12.179688 L 1.015625 24.164062 L 6.808594 24.179688 L 12.597656 24.195312 L 12.597656 12.179688 L 14.824219 12.179688 L 14.824219 24.203125 L 16.570312 24.203125 L 16.570312 15.605469 L 18.796875 15.605469 L 18.796875 24.203125 L 24.671875 24.203125 L 24.785156 24.300781 L 24.902344 24.394531 L 24.902344 24.617188 C 24.902344 24.742188 24.890625 24.847656 24.878906 24.859375 C 24.867188 24.871094 19.367188 24.898438 12.65625 24.917969 Z M 13.753906 24.1875 L 14.582031 24.164062 L 14.609375 18.253906 L 14.632812 12.339844 L 12.789062 12.339844 L 12.789062 24.097656 L 12.859375 24.152344 L 12.925781 24.210938 Z M 17.683594 24.125 L 18.605469 24.125 L 18.582031 19.964844 L 18.554688 15.804688 L 16.8125 15.804688 L 16.785156 19.964844 L 16.761719 24.125 Z M 24.15625 17.34375 C 23.6875 17.335938 23.097656 17.316406 22.84375 17.296875 L 22.382812 17.269531 L 22.621094 16.933594 L 22.863281 16.59375 L 21.886719 16.136719 C 21.347656 15.882812 20.410156 15.40625 19.800781 15.078125 L 18.691406 14.476562 L 17.820312 13.882812 L 16.953125 13.289062 L 16.179688 12.523438 C 15.757812 12.105469 14.921875 11.183594 14.328125 10.476562 C 13.730469 9.773438 12.914062 8.820312 12.515625 8.359375 L 11.789062 7.523438 L 10.109375 6.148438 L 9.292969 5.824219 L 8.480469 5.503906 L 7.886719 5.378906 C 7.558594 5.3125 6.867188 5.183594 6.34375 5.097656 L 5.394531 4.941406 L 5.320312 4.84375 L 5.242188 4.742188 L 5.332031 4.652344 L 5.425781 4.5625 L 6.707031 4.789062 C 7.410156 4.914062 8.207031 5.074219 8.476562 5.144531 C 8.742188 5.21875 9.179688 5.367188 9.449219 5.472656 C 9.714844 5.582031 10.207031 5.832031 10.542969 6.027344 L 11.148438 6.382812 L 11.769531 6.976562 C 12.109375 7.308594 12.773438 8.027344 13.246094 8.578125 C 13.714844 9.128906 14.570312 10.125 15.148438 10.796875 L 16.199219 12.015625 L 16.984375 12.703125 L 17.769531 13.394531 L 18.410156 13.816406 C 18.765625 14.046875 19.523438 14.488281 20.09375 14.800781 C 20.667969 15.109375 21.570312 15.566406 22.101562 15.8125 C 22.636719 16.058594 23.082031 16.25 23.097656 16.230469 C 23.113281 16.214844 23.226562 16.066406 23.347656 15.898438 C 23.46875 15.734375 23.578125 15.609375 23.59375 15.621094 C 23.605469 15.632812 23.929688 16.03125 24.308594 16.5 L 25.003906 17.355469 Z M 24.15625 17.34375 "/>
<path style=" stroke:none;fill-rule:nonzero;fill:rgb(76.078433%,84.705883%,18.039216%);fill-opacity:1;" d="M 12.5 24.921875 L 0.328125 24.921875 L 0.214844 24.824219 L 0.0976562 24.730469 L 0.0976562 0.246094 L 0.3125 0.125 C 0.429688 0.0546875 0.558594 0 0.597656 0 C 0.632812 0 0.734375 0.0546875 0.816406 0.125 L 0.96875 0.25 L 0.96875 24.199219 L 24.636719 24.199219 L 24.769531 24.292969 L 24.902344 24.382812 L 24.902344 24.730469 L 24.785156 24.824219 L 24.671875 24.921875 Z M 24.296875 17.339844 C 23.964844 17.332031 23.398438 17.3125 23.035156 17.296875 L 22.378906 17.269531 L 22.621094 16.933594 L 22.863281 16.59375 L 21.96875 16.167969 C 21.476562 15.933594 20.660156 15.523438 20.15625 15.257812 C 19.648438 14.992188 18.972656 14.617188 18.652344 14.417969 C 18.332031 14.222656 17.820312 13.882812 17.507812 13.667969 L 16.945312 13.273438 L 16.179688 12.515625 L 15.410156 11.761719 L 14.132812 10.238281 C 13.425781 9.402344 12.558594 8.394531 12.195312 7.996094 L 11.539062 7.273438 L 10.125 6.171875 L 9.523438 5.90625 C 9.191406 5.765625 8.667969 5.574219 8.363281 5.488281 C 8.058594 5.402344 7.261719 5.242188 6.597656 5.132812 L 5.390625 4.9375 L 5.316406 4.835938 L 5.242188 4.738281 L 5.414062 4.597656 L 6.53125 4.769531 C 7.144531 4.863281 7.945312 5.015625 8.304688 5.105469 C 8.667969 5.199219 9.179688 5.363281 9.449219 5.472656 C 9.714844 5.582031 10.203125 5.828125 10.53125 6.019531 L 11.128906 6.367188 L 12.417969 7.601562 L 13.546875 8.949219 C 14.171875 9.6875 15.121094 10.78125 15.660156 11.378906 L 16.636719 12.460938 L 18.472656 13.898438 L 19.628906 14.539062 C 20.265625 14.894531 21.277344 15.421875 21.875 15.710938 C 22.476562 16.003906 23 16.242188 23.042969 16.242188 C 23.082031 16.242188 23.195312 16.117188 23.296875 15.964844 C 23.398438 15.808594 23.511719 15.683594 23.546875 15.683594 C 23.582031 15.683594 23.902344 16.042969 24.257812 16.480469 C 24.613281 16.917969 24.902344 17.292969 24.902344 17.316406 C 24.902344 17.339844 24.628906 17.351562 24.296875 17.339844 Z M 24.296875 17.339844 "/>
</g>
</svg>
