<?xml version="1.0" encoding="UTF-8"?>
<!DOCTYPE svg PUBLIC "-//W3C//DTD SVG 1.1//EN" "http://www.w3.org/Graphics/SVG/1.1/DTD/svg11.dtd">
<svg xmlns="http://www.w3.org/2000/svg" version="1.1" width="180px" height="200px" style="shape-rendering:geometricPrecision; text-rendering:geometricPrecision; image-rendering:optimizeQuality; fill-rule:evenodd; clip-rule:evenodd" xmlns:xlink="http://www.w3.org/1999/xlink">
<g><path style="opacity:1" fill="#c2d82e" d="M 21.5,23.5 C 72.8333,23.5 124.167,23.5 175.5,23.5C 175.5,73.5 175.5,123.5 175.5,173.5C 124.167,173.5 72.8333,173.5 21.5,173.5C 21.5,123.5 21.5,73.5 21.5,23.5 Z M 26.5,28.5 C 37.1874,28.168 47.8541,28.5013 58.5,29.5C 64.6667,41.1667 70.8333,52.8333 77,64.5C 78.8849,66.9141 79.5516,69.5808 79,72.5C 71.864,78.6349 65.0307,85.1349 58.5,92C 48.0536,91.4789 37.7202,89.9789 27.5,87.5C 26.5004,67.8446 26.167,48.178 26.5,28.5 Z M 60.5,29.5 C 82.327,28.5026 104.327,28.1693 126.5,28.5C 124.625,37.9997 122.125,47.333 119,56.5C 107.831,61.5565 96.4979,66.2232 85,70.5C 83.8926,70.4148 82.8926,70.0814 82,69.5C 75.0591,55.9458 67.8924,42.6124 60.5,29.5 Z M 128.5,28.5 C 142.5,28.5 156.5,28.5 170.5,28.5C 170.832,41.5171 170.499,54.5171 169.5,67.5C 159.856,71.5466 150.356,75.8799 141,80.5C 134.26,72.6834 127.76,64.6834 121.5,56.5C 124.15,47.2314 126.484,37.898 128.5,28.5 Z M 117.5,59.5 C 120.263,59.7438 122.429,61.0771 124,63.5C 129.233,69.7287 134.066,76.2287 138.5,83C 137.589,86.1451 136.755,89.3117 136,92.5C 135.5,93.6667 134.667,94.5 133.5,95C 123.773,95.8399 114.106,97.0066 104.5,98.5C 98.2987,90.6093 92.9654,82.1093 88.5,73C 97.9565,68.0161 107.623,63.5161 117.5,59.5 Z M 169.5,69.5 C 170.662,86.9952 170.829,104.662 170,122.5C 161.518,118.337 153.018,114.17 144.5,110C 141.779,105.391 139.446,100.558 137.5,95.5C 138.184,90.5709 139.851,86.0709 142.5,82C 151.645,77.908 160.645,73.7413 169.5,69.5 Z M 82.5,72.5 C 84.0898,72.6282 85.4231,73.2949 86.5,74.5C 90.6667,81.5 94.8333,88.5 99,95.5C 100.422,98.0301 100.755,100.697 100,103.5C 98.0579,109.781 95.8912,115.948 93.5,122C 84.8333,122.667 76.1667,122.667 67.5,122C 63.8186,112.773 61.3186,103.273 60,93.5C 67.6692,86.5997 75.1692,79.5997 82.5,72.5 Z M 26.5,89.5 C 36.4603,91.4382 46.4603,93.2715 56.5,95C 59.4718,103.883 62.1385,112.883 64.5,122C 54.2568,137.797 43.2568,153.13 31.5,168C 29.8659,168.494 28.1992,168.66 26.5,168.5C 26.5,142.167 26.5,115.833 26.5,89.5 Z M 133.5,96.5 C 137.165,100.484 139.831,105.15 141.5,110.5C 131.814,121.018 122.314,131.685 113,142.5C 106.902,136.244 101.402,129.577 96.5,122.5C 98.3636,115.409 100.53,108.409 103,101.5C 103.75,100.874 104.584,100.374 105.5,100C 115.028,99.2211 124.362,98.0544 133.5,96.5 Z M 142.5,112.5 C 151.63,116.103 160.63,120.103 169.5,124.5C 170.499,139.152 170.833,153.818 170.5,168.5C 152.5,168.5 134.5,168.5 116.5,168.5C 115.946,160.901 114.946,153.401 113.5,146C 123.376,134.961 133.043,123.795 142.5,112.5 Z M 67.5,124.5 C 76.9402,124.055 86.2736,124.555 95.5,126C 100.667,131.833 105.833,137.667 111,143.5C 112.575,151.767 113.742,160.1 114.5,168.5C 87.8313,168.667 61.1646,168.5 34.5,168C 45.1677,153.124 56.1677,138.624 67.5,124.5 Z"/></g>
<g><path style="opacity:1" fill="#c2d82e" d="M 95.5,40.5 C 99.145,39.6797 101.478,41.013 102.5,44.5C 99.5,49.8333 96.5,49.8333 93.5,44.5C 94.1799,43.1401 94.8466,41.8068 95.5,40.5 Z"/></g>
<g><path style="opacity:1" fill="#c2d82e" d="M 144.5,52.5 C 150.488,52.664 151.821,55.164 148.5,60C 142.202,60.4954 140.868,57.9954 144.5,52.5 Z"/></g>
<g><path style="opacity:1" fill="#c2d82e" d="M 46.5,65.5 C 53.536,64.6026 55.2027,67.1026 51.5,73C 45.7793,73.365 44.1127,70.865 46.5,65.5 Z"/></g>
<g><path style="opacity:1" fill="#c2d82e" d="M 112.5,77.5 C 117.942,77.8857 119.275,80.3857 116.5,85C 112.798,86.3927 110.798,85.226 110.5,81.5C 110.803,79.8857 111.47,78.5523 112.5,77.5 Z"/></g>
<g><path style="opacity:1" fill="#c2d82e" d="M 159.5,90.5 C 164.672,89.5648 166.839,91.5648 166,96.5C 159.684,99.3564 157.518,97.3564 159.5,90.5 Z"/></g>
<g><path style="opacity:1" fill="#c2d82e" d="M 81.5,98.5 C 85.1477,99.5002 86.3144,101.834 85,105.5C 81.456,108.32 78.956,107.486 77.5,103C 78.3441,100.993 79.6774,99.4933 81.5,98.5 Z"/></g>
<g><path style="opacity:1" fill="#c2d82e" d="M 40.5,109.5 C 45.9836,109.481 47.6503,111.981 45.5,117C 38.6829,117.861 37.0163,115.361 40.5,109.5 Z"/></g>
<g><path style="opacity:1" fill="#c2d82e" d="M 115.5,109.5 C 120.984,109.481 122.65,111.981 120.5,117C 113.683,117.861 112.016,115.361 115.5,109.5 Z"/></g>
<g><path style="opacity:1" fill="#c2d82e" d="M 141.5,132.5 C 146.262,133.092 147.596,135.592 145.5,140C 140.338,141.424 138.171,139.59 139,134.5C 139.995,133.934 140.828,133.267 141.5,132.5 Z"/></g>
<g><path style="opacity:1" fill="#c2d82e" d="M 81.5,139.5 C 85.1477,140.5 86.3144,142.834 85,146.5C 81.456,149.32 78.956,148.486 77.5,144C 78.1173,141.773 79.4506,140.273 81.5,139.5 Z"/></g>
</svg>
