<svg width="100" height="100" viewBox="0 0 100 100" fill="none" xmlns="http://www.w3.org/2000/svg">
<rect width="100" height="100" rx="10" fill="white"/>
<path d="M13.005 53.9198L35.3738 83.0445C38.6868 87.3582 44.84 88.2328 49.2239 85.0133L87.4594 56.9333C91.996 53.6016 92.8903 47.1835 89.4372 42.7385L79.0042 29.3086C75.6806 25.0302 69.5544 24.1766 65.1878 27.3834L26.7046 55.6455C22.3116 58.8717 16.144 57.9858 12.8367 53.6534L12.1171 52.7108L9.94061 49.7471C6.71272 45.3518 7.60143 39.1808 11.9384 35.8749L40.5738 14.0476C45.0216 10.6572 51.3854 11.5737 54.6958 16.0814L59.0286 21.9811" stroke="black" stroke-width="5"/>
<path d="M79.0089 33.983L70.143 40.4941C69.4753 40.9845 69.3315 41.9233 69.8219 42.591L73.3734 47.427C73.8638 48.0947 74.8026 48.2384 75.4703 47.7481L84.3362 41.2369C85.004 40.7466 85.1477 39.8078 84.6574 39.14L81.1058 34.3041C80.6155 33.6364 79.6767 33.4926 79.0089 33.983Z" fill="black" stroke="black"/>
<path d="M19.6353 40.9859L48.2481 19.9727" stroke="black" stroke-width="5" stroke-linecap="round"/>
<path d="M24.9629 48.2398L53.5757 27.2266" stroke="black" stroke-width="5" stroke-linecap="round"/>
</svg>
