<?xml version="1.0" encoding="UTF-8"?>
<!DOCTYPE svg PUBLIC "-//W3C//DTD SVG 1.1//EN" "http://www.w3.org/Graphics/SVG/1.1/DTD/svg11.dtd">
<!-- Creator: CorelDRAW X6 -->
<svg xmlns="http://www.w3.org/2000/svg" xml:space="preserve" width="5.11811in" height="5.11811in" version="1.1" style="shape-rendering:geometricPrecision; text-rendering:geometricPrecision; image-rendering:optimizeQuality; fill-rule:evenodd; clip-rule:evenodd"
viewBox="0 0 5118 5118"
 xmlns:xlink="http://www.w3.org/1999/xlink">
 <defs>
  <style type="text/css">
   <![CDATA[
    .fil0 {fill:none}
    .fil1 {fill:#C2D82E}
    .fil2 {fill:#C2D82E;fill-rule:nonzero}
   ]]>
  </style>
 </defs>
 <g id="Layer_x0020_1">
  <metadata id="CorelCorpID_0Corel-Layer"/>
  <rect class="fil0" width="5118" height="5118"/>
  <path class="fil1" d="M3053 1359c28,3 54,8 78,13 272,63 491,220 554,460 126,484 -289,642 -398,726 109,85 524,243 398,727 -63,240 -282,397 -554,460 -24,5 -50,9 -78,13l0 0c-60,5 -124,11 -180,16l0 536 181 -49 36 133 -268 73 -88 24 0 -90 0 -614c-13,2 -20,2 -20,2l0 0c-16,1 -25,2 -25,2l-222 1 0 3 -25 0 0 606 0 90 -87 -24 -269 -73 37 -133 180 49 0 -515 -429 0 0 0 -464 -4 0 -312c321,5 433,49 431,-299l0 -622 0 -621c2,-348 -110,-304 -431,-299l0 -312 464 -4 0 0 429 0 0 -515 -180 49 -37 -133 269 -74 87 -23 0 90 0 606 25 0 0 3 222 1c0,0 9,1 25,2l0 0c0,0 7,0 20,2l0 -614 0 -90 88 23 268 74 -36 133 -181 -49 0 536c56,5 120,11 180,16l0 0zm-622 1375c301,-24 655,-1 674,296 23,339 -361,360 -665,311l-9 -607zm0 -351c301,24 655,0 674,-296 23,-339 -361,-360 -665,-311l-9 607z"/>
  <path class="fil2" d="M2559 167c660,0 1258,268 1691,701 433,433 701,1031 701,1691 0,660 -268,1258 -701,1691 -433,433 -1031,701 -1691,701 -660,0 -1258,-268 -1691,-701 -433,-433 -701,-1031 -701,-1691 0,-660 268,-1258 701,-1691 433,-433 1031,-701 1691,-701zm1570 822c-402,-401 -957,-650 -1570,-650 -613,0 -1168,249 -1570,650 -401,402 -650,957 -650,1570 0,613 249,1168 650,1570 402,402 957,650 1570,650 613,0 1168,-248 1570,-650 402,-402 650,-957 650,-1570 0,-613 -248,-1168 -650,-1570z"/>
 </g>
</svg>
