<svg width="100" height="100" viewBox="0 0 100 100" fill="none" xmlns="http://www.w3.org/2000/svg">
<rect width="100" height="100" rx="10" fill="#C2D82E"/>
<path d="M17.005 54.9198L39.3738 84.0445C42.6868 88.3582 48.84 89.2328 53.2239 86.0133L91.4594 57.9333C95.996 54.6016 96.8903 48.1835 93.4372 43.7385L83.0042 30.3086C79.6806 26.0302 73.5544 25.1766 69.1878 28.3834L30.7046 56.6455C26.3116 59.8717 20.144 58.9858 16.8367 54.6534L16.1171 53.7108L13.9406 50.7471C10.7127 46.3518 11.6014 40.1808 15.9384 36.8749L44.5738 15.0476C49.0216 11.6572 55.3854 12.5737 58.6958 17.0814L63.0286 22.9811" stroke="white" stroke-width="5"/>
<path d="M83.0089 34.983L74.143 41.4941C73.4753 41.9845 73.3315 42.9233 73.8219 43.591L77.3734 48.427C77.8638 49.0947 78.8026 49.2384 79.4703 48.7481L88.3362 42.2369C89.004 41.7466 89.1477 40.8078 88.6574 40.14L85.1058 35.3041C84.6155 34.6364 83.6767 34.4926 83.0089 34.983Z" fill="white" stroke="white"/>
<path d="M23.6353 41.9859L52.2481 20.9727" stroke="white" stroke-width="5" stroke-linecap="round"/>
<path d="M28.9629 49.2398L57.5757 28.2266" stroke="white" stroke-width="5" stroke-linecap="round"/>
</svg>
