<?xml version="1.0" encoding="UTF-8"?>
<!DOCTYPE svg PUBLIC "-//W3C//DTD SVG 1.1//EN" "http://www.w3.org/Graphics/SVG/1.1/DTD/svg11.dtd">
<svg xmlns="http://www.w3.org/2000/svg" version="1.1" width="256px" height="256px" style="shape-rendering:geometricPrecision; text-rendering:geometricPrecision; image-rendering:optimizeQuality; fill-rule:evenodd; clip-rule:evenodd" xmlns:xlink="http://www.w3.org/1999/xlink">
<g><path style="opacity:0.021" fill="#c2d82e" d="M -0.5,-0.5 C 0.166667,-0.5 0.833333,-0.5 1.5,-0.5C 1.16667,0.5 0.5,1.16667 -0.5,1.5C -0.5,0.833333 -0.5,0.166667 -0.5,-0.5 Z"/></g>
<g><path style="opacity:0.022" fill="#c2d82e" d="M 16.5,-0.5 C 18.1667,-0.5 19.8333,-0.5 21.5,-0.5C 14.5,7.16667 7.16667,14.5 -0.5,21.5C -0.5,19.8333 -0.5,18.1667 -0.5,16.5C 5.5,11.1667 11.1667,5.5 16.5,-0.5 Z"/></g>
<g><path style="opacity:0.022" fill="#c2d82e" d="M 36.5,-0.5 C 38.1667,-0.5 39.8333,-0.5 41.5,-0.5C 27.8333,13.8333 13.8333,27.8333 -0.5,41.5C -0.5,39.8333 -0.5,38.1667 -0.5,36.5C 12.1667,24.5 24.5,12.1667 36.5,-0.5 Z"/></g>
<g><path style="opacity:0.022" fill="#c2d82e" d="M 56.5,-0.5 C 58.1667,-0.5 59.8333,-0.5 61.5,-0.5C 41.1667,20.5 20.5,41.1667 -0.5,61.5C -0.5,59.8333 -0.5,58.1667 -0.5,56.5C 18.8333,37.8333 37.8333,18.8333 56.5,-0.5 Z"/></g>
<g><path style="opacity:0.022" fill="#c2d82e" d="M 76.5,-0.5 C 78.1667,-0.5 79.8333,-0.5 81.5,-0.5C 71.1667,10.1667 60.8333,20.8333 50.5,31.5C 48.8333,31.5 47.1667,31.5 45.5,31.5C 55.8333,20.8333 66.1667,10.1667 76.5,-0.5 Z"/></g>
<g><path style="opacity:0.022" fill="#c2d82e" d="M 96.5,-0.5 C 98.1667,-0.5 99.8333,-0.5 101.5,-0.5C 85.1667,16.5 68.5,33.1667 51.5,49.5C 51.5,47.8333 51.5,46.1667 51.5,44.5C 66.8333,29.8333 81.8333,14.8333 96.5,-0.5 Z"/></g>
<g><path style="opacity:0.022" fill="#c2d82e" d="M 116.5,-0.5 C 118.167,-0.5 119.833,-0.5 121.5,-0.5C 98.5,23.1667 75.1667,46.5 51.5,69.5C 51.5,67.8333 51.5,66.1667 51.5,64.5C 73.5,43.1667 95.1667,21.5 116.5,-0.5 Z"/></g>
<g><path style="opacity:0.022" fill="#c2d82e" d="M 136.5,-0.5 C 138.167,-0.5 139.833,-0.5 141.5,-0.5C 116.5,24.8333 91.5,50.1667 66.5,75.5C 64.8333,75.5 63.1667,75.5 61.5,75.5C 86.5,50.1667 111.5,24.8333 136.5,-0.5 Z"/></g>
<g><path style="opacity:0.022" fill="#c2d82e" d="M 156.5,-0.5 C 158.167,-0.5 159.833,-0.5 161.5,-0.5C 151.167,10.1667 140.833,20.8333 130.5,31.5C 128.833,31.5 127.167,31.5 125.5,31.5C 135.833,20.8333 146.167,10.1667 156.5,-0.5 Z"/></g>
<g><path style="opacity:0.022" fill="#c2d82e" d="M 176.5,-0.5 C 178.167,-0.5 179.833,-0.5 181.5,-0.5C 165.167,16.5 148.5,33.1667 131.5,49.5C 131.5,47.8333 131.5,46.1667 131.5,44.5C 146.833,29.8333 161.833,14.8333 176.5,-0.5 Z"/></g>
<g><path style="opacity:0.022" fill="#c2d82e" d="M 196.5,-0.5 C 198.167,-0.5 199.833,-0.5 201.5,-0.5C 178.5,23.1667 155.167,46.5 131.5,69.5C 131.5,67.8333 131.5,66.1667 131.5,64.5C 153.5,43.1667 175.167,21.5 196.5,-0.5 Z"/></g>
<g><path style="opacity:0.022" fill="#c2d82e" d="M 216.5,-0.5 C 218.167,-0.5 219.833,-0.5 221.5,-0.5C 191.833,29.8333 161.833,59.8333 131.5,89.5C 131.5,87.8333 131.5,86.1667 131.5,84.5C 160.167,56.5 188.5,28.1667 216.5,-0.5 Z"/></g>
<g><path style="opacity:0.022" fill="#c2d82e" d="M 236.5,-0.5 C 238.167,-0.5 239.833,-0.5 241.5,-0.5C 231.167,10.1667 220.833,20.8333 210.5,31.5C 208.833,31.5 207.167,31.5 205.5,31.5C 215.833,20.8333 226.167,10.1667 236.5,-0.5 Z"/></g>
<g><path style="opacity:0.022" fill="#c2d82e" d="M 255.5,1.5 C 255.5,3.16667 255.5,4.83333 255.5,6.5C 240.833,20.8333 226.167,35.1667 211.5,49.5C 211.5,47.8333 211.5,46.1667 211.5,44.5C 226.167,30.1667 240.833,15.8333 255.5,1.5 Z"/></g>
<g><path style="opacity:0.022" fill="#c2d82e" d="M 255.5,21.5 C 255.5,23.1667 255.5,24.8333 255.5,26.5C 244.167,37.1667 233.167,48.1667 222.5,59.5C 220.833,59.5 219.167,59.5 217.5,59.5C 229.833,46.5 242.5,33.8333 255.5,21.5 Z"/></g>
<g><path style="opacity:1" fill="#c2d82e" d="M 45.5,31.5 C 47.1667,31.5 48.8333,31.5 50.5,31.5C 51.4849,35.6344 51.8182,39.9677 51.5,44.5C 51.5,46.1667 51.5,47.8333 51.5,49.5C 51.5,54.5 51.5,59.5 51.5,64.5C 51.5,66.1667 51.5,67.8333 51.5,69.5C 51.5,71.5 51.5,73.5 51.5,75.5C 54.8333,75.5 58.1667,75.5 61.5,75.5C 63.1667,75.5 64.8333,75.5 66.5,75.5C 67.4849,79.6344 67.8182,83.9677 67.5,88.5C 67.5,90.1667 67.5,91.8333 67.5,93.5C 67.5,98.5 67.5,103.5 67.5,108.5C 67.5,110.167 67.5,111.833 67.5,113.5C 67.5,118.5 67.5,123.5 67.5,128.5C 67.5,130.167 67.5,131.833 67.5,133.5C 67.5,138.5 67.5,143.5 67.5,148.5C 67.5,150.167 67.5,151.833 67.5,153.5C 67.5,156.833 67.5,160.167 67.5,163.5C 64.1667,163.5 60.8333,163.5 57.5,163.5C 55.8333,163.5 54.1667,163.5 52.5,163.5C 51.8333,163.5 51.5,163.833 51.5,164.5C 51.5,166.167 51.5,167.833 51.5,169.5C 51.5,174.5 51.5,179.5 51.5,184.5C 51.5,186.167 51.5,187.833 51.5,189.5C 51.5,194.5 51.5,199.5 51.5,204.5C 51.5,206.167 51.5,207.833 51.5,209.5C 51.5,214.167 51.5,218.833 51.5,223.5C 48.8333,223.5 46.1667,223.5 43.5,223.5C 43.5,221.833 43.5,220.167 43.5,218.5C 43.5,216.833 43.5,215.167 43.5,213.5C 43.5,208.5 43.5,203.5 43.5,198.5C 43.5,196.833 43.5,195.167 43.5,193.5C 43.5,188.5 43.5,183.5 43.5,178.5C 43.5,176.833 43.5,175.167 43.5,173.5C 43.5,170.167 43.5,166.833 43.5,163.5C 41.5,163.5 39.5,163.5 37.5,163.5C 35.8333,163.5 34.1667,163.5 32.5,163.5C 30.8333,163.5 29.1667,163.5 27.5,163.5C 27.5,160.5 27.5,157.5 27.5,154.5C 27.5,152.833 27.5,151.167 27.5,149.5C 27.5,144.5 27.5,139.5 27.5,134.5C 27.5,132.833 27.5,131.167 27.5,129.5C 27.5,124.5 27.5,119.5 27.5,114.5C 27.5,112.833 27.5,111.167 27.5,109.5C 27.5,104.5 27.5,99.5 27.5,94.5C 27.5,92.8333 27.5,91.1667 27.5,89.5C 27.5,84.8333 27.5,80.1667 27.5,75.5C 32.1667,75.5 36.8333,75.5 41.5,75.5C 42.8333,75.5 43.5,74.8333 43.5,73.5C 43.5,68.5 43.5,63.5 43.5,58.5C 43.5,56.8333 43.5,55.1667 43.5,53.5C 43.5,48.5 43.5,43.5 43.5,38.5C 43.5,36.8333 43.5,35.1667 43.5,33.5C 43.5,32.1667 44.1667,31.5 45.5,31.5 Z M 37.5,83.5 C 42.5,83.5 47.5,83.5 52.5,83.5C 47.1667,89.5 41.5,95.1667 35.5,100.5C 35.5,95.5 35.5,90.5 35.5,85.5C 36.5,85.1667 37.1667,84.5 37.5,83.5 Z M 57.5,83.5 C 59.4364,87.7147 60.1031,92.3814 59.5,97.5C 51.5,105.167 43.5,112.833 35.5,120.5C 35.5,115.5 35.5,110.5 35.5,105.5C 43.1667,98.5 50.5,91.1667 57.5,83.5 Z M 59.5,102.5 C 59.5,107.5 59.5,112.5 59.5,117.5C 51.5,125.167 43.5,132.833 35.5,140.5C 35.5,135.5 35.5,130.5 35.5,125.5C 43.5,117.833 51.5,110.167 59.5,102.5 Z M 59.5,122.5 C 59.5,127.5 59.5,132.5 59.5,137.5C 53.1667,143.167 47.1667,149.167 41.5,155.5C 39.5,155.5 37.5,155.5 35.5,155.5C 35.5,152.167 35.5,148.833 35.5,145.5C 43.5,137.833 51.5,130.167 59.5,122.5 Z M 59.5,142.5 C 59.5,146.833 59.5,151.167 59.5,155.5C 55.1667,155.5 50.8333,155.5 46.5,155.5C 50.5,150.833 54.8333,146.5 59.5,142.5 Z"/></g>
<g><path style="opacity:1" fill="#c2d82e" d="M 125.5,31.5 C 127.167,31.5 128.833,31.5 130.5,31.5C 131.485,35.6344 131.818,39.9677 131.5,44.5C 131.5,46.1667 131.5,47.8333 131.5,49.5C 131.5,54.5 131.5,59.5 131.5,64.5C 131.5,66.1667 131.5,67.8333 131.5,69.5C 131.5,74.5 131.5,79.5 131.5,84.5C 131.5,86.1667 131.5,87.8333 131.5,89.5C 131.5,94.5 131.5,99.5 131.5,104.5C 131.5,106.167 131.5,107.833 131.5,109.5C 130.897,114.619 131.564,119.285 133.5,123.5C 135.167,123.5 136.833,123.5 138.5,123.5C 141.5,123.5 144.5,123.5 147.5,123.5C 147.5,125.167 147.5,126.833 147.5,128.5C 147.5,130.167 147.5,131.833 147.5,133.5C 147.5,138.5 147.5,143.5 147.5,148.5C 147.5,150.167 147.5,151.833 147.5,153.5C 147.5,158.5 147.5,163.5 147.5,168.5C 147.5,170.167 147.5,171.833 147.5,173.5C 147.5,178.5 147.5,183.5 147.5,188.5C 147.5,190.167 147.5,191.833 147.5,193.5C 147.5,194.833 146.833,195.5 145.5,195.5C 143.833,195.5 142.167,195.5 140.5,195.5C 137.5,195.5 134.5,195.5 131.5,195.5C 131.5,198.5 131.5,201.5 131.5,204.5C 131.5,206.167 131.5,207.833 131.5,209.5C 131.5,214.167 131.5,218.833 131.5,223.5C 128.833,223.5 126.167,223.5 123.5,223.5C 123.5,221.833 123.5,220.167 123.5,218.5C 123.5,216.833 123.5,215.167 123.5,213.5C 123.5,208.5 123.5,203.5 123.5,198.5C 123.5,197.5 123.5,196.5 123.5,195.5C 122.5,195.5 121.5,195.5 120.5,195.5C 115.968,195.818 111.634,195.485 107.5,194.5C 107.5,192.833 107.5,191.167 107.5,189.5C 107.5,184.5 107.5,179.5 107.5,174.5C 107.5,172.833 107.5,171.167 107.5,169.5C 107.5,164.5 107.5,159.5 107.5,154.5C 107.5,152.833 107.5,151.167 107.5,149.5C 107.5,144.5 107.5,139.5 107.5,134.5C 107.5,132.833 107.5,131.167 107.5,129.5C 107.5,127.5 107.5,125.5 107.5,123.5C 109.5,123.5 111.5,123.5 113.5,123.5C 115.167,123.5 116.833,123.5 118.5,123.5C 120.167,123.5 121.833,123.5 123.5,123.5C 123.5,121.833 123.5,120.167 123.5,118.5C 123.5,116.833 123.5,115.167 123.5,113.5C 123.5,108.5 123.5,103.5 123.5,98.5C 123.5,96.8333 123.5,95.1667 123.5,93.5C 123.5,88.5 123.5,83.5 123.5,78.5C 123.5,76.8333 123.5,75.1667 123.5,73.5C 123.5,68.5 123.5,63.5 123.5,58.5C 123.5,56.8333 123.5,55.1667 123.5,53.5C 123.5,48.5 123.5,43.5 123.5,38.5C 123.5,36.8333 123.5,35.1667 123.5,33.5C 123.5,32.1667 124.167,31.5 125.5,31.5 Z M 124.5,131.5 C 121.833,134.833 118.833,137.833 115.5,140.5C 115.5,137.5 115.5,134.5 115.5,131.5C 118.5,131.5 121.5,131.5 124.5,131.5 Z M 129.5,131.5 C 132.833,131.5 136.167,131.5 139.5,131.5C 139.5,133.5 139.5,135.5 139.5,137.5C 131.5,145.167 123.5,152.833 115.5,160.5C 115.5,155.5 115.5,150.5 115.5,145.5C 120.5,141.167 125.167,136.5 129.5,131.5 Z M 139.5,142.5 C 139.5,147.5 139.5,152.5 139.5,157.5C 131.5,165.167 123.5,172.833 115.5,180.5C 115.5,175.5 115.5,170.5 115.5,165.5C 123.5,157.833 131.5,150.167 139.5,142.5 Z M 139.5,162.5 C 139.5,167.5 139.5,172.5 139.5,177.5C 135.833,180.5 132.5,183.833 129.5,187.5C 124.381,188.103 119.715,187.436 115.5,185.5C 123.5,177.833 131.5,170.167 139.5,162.5 Z M 139.5,182.5 C 139.5,184.167 139.5,185.833 139.5,187.5C 137.833,187.5 136.167,187.5 134.5,187.5C 135.833,185.5 137.5,183.833 139.5,182.5 Z"/></g>
<g><path style="opacity:1" fill="#c2d82e" d="M 205.5,31.5 C 207.167,31.5 208.833,31.5 210.5,31.5C 211.485,35.6344 211.818,39.9677 211.5,44.5C 211.5,46.1667 211.5,47.8333 211.5,49.5C 211.5,52.8333 211.5,56.1667 211.5,59.5C 213.5,59.5 215.5,59.5 217.5,59.5C 219.167,59.5 220.833,59.5 222.5,59.5C 224.167,59.5 225.833,59.5 227.5,59.5C 227.5,62.5 227.5,65.5 227.5,68.5C 227.5,70.1667 227.5,71.8333 227.5,73.5C 227.5,78.5 227.5,83.5 227.5,88.5C 227.5,90.1667 227.5,91.8333 227.5,93.5C 227.5,98.5 227.5,103.5 227.5,108.5C 227.5,110.167 227.5,111.833 227.5,113.5C 227.5,118.5 227.5,123.5 227.5,128.5C 227.5,130.167 227.5,131.833 227.5,133.5C 227.5,138.5 227.5,143.5 227.5,148.5C 227.5,150.167 227.5,151.833 227.5,153.5C 227.5,158.5 227.5,163.5 227.5,168.5C 227.5,170.167 227.5,171.833 227.5,173.5C 227.5,178.5 227.5,183.5 227.5,188.5C 227.5,190.167 227.5,191.833 227.5,193.5C 227.5,194.833 226.833,195.5 225.5,195.5C 223.833,195.5 222.167,195.5 220.5,195.5C 217.5,195.5 214.5,195.5 211.5,195.5C 211.5,198.5 211.5,201.5 211.5,204.5C 211.5,206.167 211.5,207.833 211.5,209.5C 211.5,214.167 211.5,218.833 211.5,223.5C 208.833,223.5 206.167,223.5 203.5,223.5C 203.5,221.833 203.5,220.167 203.5,218.5C 203.5,216.833 203.5,215.167 203.5,213.5C 203.5,208.5 203.5,203.5 203.5,198.5C 203.5,197.5 203.5,196.5 203.5,195.5C 202.5,195.5 201.5,195.5 200.5,195.5C 195.968,195.818 191.634,195.485 187.5,194.5C 187.5,192.833 187.5,191.167 187.5,189.5C 187.5,184.5 187.5,179.5 187.5,174.5C 187.5,172.833 187.5,171.167 187.5,169.5C 187.5,164.5 187.5,159.5 187.5,154.5C 187.5,152.833 187.5,151.167 187.5,149.5C 187.5,144.5 187.5,139.5 187.5,134.5C 187.5,132.833 187.5,131.167 187.5,129.5C 187.5,124.5 187.5,119.5 187.5,114.5C 187.5,112.833 187.5,111.167 187.5,109.5C 187.5,104.5 187.5,99.5 187.5,94.5C 187.5,92.8333 187.5,91.1667 187.5,89.5C 187.5,84.5 187.5,79.5 187.5,74.5C 187.5,72.8333 187.5,71.1667 187.5,69.5C 187.5,66.1667 187.5,62.8333 187.5,59.5C 190.833,59.5 194.167,59.5 197.5,59.5C 199.167,59.5 200.833,59.5 202.5,59.5C 203.167,59.5 203.5,59.1667 203.5,58.5C 203.5,56.8333 203.5,55.1667 203.5,53.5C 203.5,48.5 203.5,43.5 203.5,38.5C 203.5,36.8333 203.5,35.1667 203.5,33.5C 203.5,32.1667 204.167,31.5 205.5,31.5 Z M 208.5,67.5 C 204.5,72.1667 200.167,76.5 195.5,80.5C 195.5,76.1667 195.5,71.8333 195.5,67.5C 199.833,67.5 204.167,67.5 208.5,67.5 Z M 213.5,67.5 C 215.5,67.5 217.5,67.5 219.5,67.5C 219.5,70.8333 219.5,74.1667 219.5,77.5C 211.5,85.1667 203.5,92.8333 195.5,100.5C 195.5,95.5 195.5,90.5 195.5,85.5C 201.833,79.8333 207.833,73.8333 213.5,67.5 Z M 219.5,82.5 C 219.5,87.5 219.5,92.5 219.5,97.5C 211.5,105.167 203.5,112.833 195.5,120.5C 195.5,115.5 195.5,110.5 195.5,105.5C 203.5,97.8333 211.5,90.1667 219.5,82.5 Z M 219.5,102.5 C 219.5,107.5 219.5,112.5 219.5,117.5C 211.5,125.167 203.5,132.833 195.5,140.5C 195.5,135.5 195.5,130.5 195.5,125.5C 203.5,117.833 211.5,110.167 219.5,102.5 Z M 219.5,122.5 C 219.5,127.5 219.5,132.5 219.5,137.5C 211.5,145.167 203.5,152.833 195.5,160.5C 195.5,155.5 195.5,150.5 195.5,145.5C 203.5,137.833 211.5,130.167 219.5,122.5 Z M 219.5,142.5 C 219.5,147.5 219.5,152.5 219.5,157.5C 211.5,165.167 203.5,172.833 195.5,180.5C 195.5,175.5 195.5,170.5 195.5,165.5C 203.5,157.833 211.5,150.167 219.5,142.5 Z M 219.5,162.5 C 219.5,167.5 219.5,172.5 219.5,177.5C 215.833,180.5 212.5,183.833 209.5,187.5C 204.381,188.103 199.715,187.436 195.5,185.5C 203.5,177.833 211.5,170.167 219.5,162.5 Z M 219.5,182.5 C 219.5,184.167 219.5,185.833 219.5,187.5C 217.833,187.5 216.167,187.5 214.5,187.5C 215.833,185.5 217.5,183.833 219.5,182.5 Z"/></g>
<g><path style="opacity:0.022" fill="#c2d82e" d="M 43.5,33.5 C 43.5,35.1667 43.5,36.8333 43.5,38.5C 28.8333,52.8333 14.1667,67.1667 -0.5,81.5C -0.5,79.8333 -0.5,78.1667 -0.5,76.5C 14.1667,62.1667 28.8333,47.8333 43.5,33.5 Z"/></g>
<g><path style="opacity:0.022" fill="#c2d82e" d="M 123.5,33.5 C 123.5,35.1667 123.5,36.8333 123.5,38.5C 104.833,56.8333 86.1667,75.1667 67.5,93.5C 67.5,91.8333 67.5,90.1667 67.5,88.5C 86.1667,70.1667 104.833,51.8333 123.5,33.5 Z"/></g>
<g><path style="opacity:0.022" fill="#c2d82e" d="M 203.5,33.5 C 203.5,35.1667 203.5,36.8333 203.5,38.5C 179.5,62.1667 155.5,85.8333 131.5,109.5C 131.5,107.833 131.5,106.167 131.5,104.5C 155.5,80.8333 179.5,57.1667 203.5,33.5 Z"/></g>
<g><path style="opacity:0.022" fill="#c2d82e" d="M 255.5,41.5 C 255.5,43.1667 255.5,44.8333 255.5,46.5C 246.167,55.5 236.833,64.5 227.5,73.5C 227.5,71.8333 227.5,70.1667 227.5,68.5C 236.833,59.5 246.167,50.5 255.5,41.5 Z"/></g>
<g><path style="opacity:0.022" fill="#c2d82e" d="M 43.5,53.5 C 43.5,55.1667 43.5,56.8333 43.5,58.5C 28.8333,72.8333 14.1667,87.1667 -0.5,101.5C -0.5,99.8333 -0.5,98.1667 -0.5,96.5C 14.1667,82.1667 28.8333,67.8333 43.5,53.5 Z"/></g>
<g><path style="opacity:0.022" fill="#c2d82e" d="M 123.5,53.5 C 123.5,55.1667 123.5,56.8333 123.5,58.5C 104.833,76.8333 86.1667,95.1667 67.5,113.5C 67.5,111.833 67.5,110.167 67.5,108.5C 86.1667,90.1667 104.833,71.8333 123.5,53.5 Z"/></g>
<g><path style="opacity:0.022" fill="#c2d82e" d="M 203.5,53.5 C 203.5,55.1667 203.5,56.8333 203.5,58.5C 202.833,58.5 202.5,58.8333 202.5,59.5C 200.833,59.5 199.167,59.5 197.5,59.5C 199.167,57.1667 201.167,55.1667 203.5,53.5 Z"/></g>
<g><path style="opacity:0.022" fill="#c2d82e" d="M 255.5,61.5 C 255.5,63.1667 255.5,64.8333 255.5,66.5C 246.167,75.5 236.833,84.5 227.5,93.5C 227.5,91.8333 227.5,90.1667 227.5,88.5C 236.833,79.5 246.167,70.5 255.5,61.5 Z"/></g>
<g><path style="opacity:0.022" fill="#c2d82e" d="M 208.5,67.5 C 210.167,67.5 211.833,67.5 213.5,67.5C 207.833,73.8333 201.833,79.8333 195.5,85.5C 195.5,83.8333 195.5,82.1667 195.5,80.5C 200.167,76.5 204.5,72.1667 208.5,67.5 Z"/></g>
<g><path style="opacity:0.022" fill="#c2d82e" d="M 187.5,69.5 C 187.5,71.1667 187.5,72.8333 187.5,74.5C 170.833,90.5 154.5,106.833 138.5,123.5C 136.833,123.5 135.167,123.5 133.5,123.5C 151.167,105.167 169.167,87.1667 187.5,69.5 Z"/></g>
<g><path style="opacity:0.021" fill="#c2d82e" d="M 43.5,73.5 C 43.5,74.8333 42.8333,75.5 41.5,75.5C 41.8333,74.5 42.5,73.8333 43.5,73.5 Z"/></g>
<g><path style="opacity:0.022" fill="#c2d82e" d="M 123.5,73.5 C 123.5,75.1667 123.5,76.8333 123.5,78.5C 104.833,96.8333 86.1667,115.167 67.5,133.5C 67.5,131.833 67.5,130.167 67.5,128.5C 86.1667,110.167 104.833,91.8333 123.5,73.5 Z"/></g>
<g><path style="opacity:0.022" fill="#c2d82e" d="M 219.5,77.5 C 219.5,79.1667 219.5,80.8333 219.5,82.5C 211.5,90.1667 203.5,97.8333 195.5,105.5C 195.5,103.833 195.5,102.167 195.5,100.5C 203.5,92.8333 211.5,85.1667 219.5,77.5 Z"/></g>
<g><path style="opacity:0.022" fill="#c2d82e" d="M 255.5,81.5 C 255.5,83.1667 255.5,84.8333 255.5,86.5C 246.167,95.5 236.833,104.5 227.5,113.5C 227.5,111.833 227.5,110.167 227.5,108.5C 236.833,99.5 246.167,90.5 255.5,81.5 Z"/></g>
<g><path style="opacity:0.021" fill="#c2d82e" d="M 37.5,83.5 C 37.1667,84.5 36.5,85.1667 35.5,85.5C 35.5,84.1667 36.1667,83.5 37.5,83.5 Z"/></g>
<g><path style="opacity:0.022" fill="#c2d82e" d="M 52.5,83.5 C 54.1667,83.5 55.8333,83.5 57.5,83.5C 50.5,91.1667 43.1667,98.5 35.5,105.5C 35.5,103.833 35.5,102.167 35.5,100.5C 41.5,95.1667 47.1667,89.5 52.5,83.5 Z"/></g>
<g><path style="opacity:0.022" fill="#c2d82e" d="M 27.5,89.5 C 27.5,91.1667 27.5,92.8333 27.5,94.5C 18.1667,103.5 8.83333,112.5 -0.5,121.5C -0.5,119.833 -0.5,118.167 -0.5,116.5C 8.83333,107.5 18.1667,98.5 27.5,89.5 Z"/></g>
<g><path style="opacity:0.022" fill="#c2d82e" d="M 187.5,89.5 C 187.5,91.1667 187.5,92.8333 187.5,94.5C 174.167,107.5 160.833,120.5 147.5,133.5C 147.5,131.833 147.5,130.167 147.5,128.5C 160.833,115.5 174.167,102.5 187.5,89.5 Z"/></g>
<g><path style="opacity:0.022" fill="#c2d82e" d="M 123.5,93.5 C 123.5,95.1667 123.5,96.8333 123.5,98.5C 104.833,116.833 86.1667,135.167 67.5,153.5C 67.5,151.833 67.5,150.167 67.5,148.5C 86.1667,130.167 104.833,111.833 123.5,93.5 Z"/></g>
<g><path style="opacity:0.022" fill="#c2d82e" d="M 59.5,97.5 C 59.5,99.1667 59.5,100.833 59.5,102.5C 51.5,110.167 43.5,117.833 35.5,125.5C 35.5,123.833 35.5,122.167 35.5,120.5C 43.5,112.833 51.5,105.167 59.5,97.5 Z"/></g>
<g><path style="opacity:0.022" fill="#c2d82e" d="M 219.5,97.5 C 219.5,99.1667 219.5,100.833 219.5,102.5C 211.5,110.167 203.5,117.833 195.5,125.5C 195.5,123.833 195.5,122.167 195.5,120.5C 203.5,112.833 211.5,105.167 219.5,97.5 Z"/></g>
<g><path style="opacity:0.022" fill="#c2d82e" d="M 255.5,101.5 C 255.5,103.167 255.5,104.833 255.5,106.5C 246.167,115.5 236.833,124.5 227.5,133.5C 227.5,131.833 227.5,130.167 227.5,128.5C 236.833,119.5 246.167,110.5 255.5,101.5 Z"/></g>
<g><path style="opacity:0.022" fill="#c2d82e" d="M 27.5,109.5 C 27.5,111.167 27.5,112.833 27.5,114.5C 18.1667,123.5 8.83333,132.5 -0.5,141.5C -0.5,139.833 -0.5,138.167 -0.5,136.5C 8.83333,127.5 18.1667,118.5 27.5,109.5 Z"/></g>
<g><path style="opacity:0.022" fill="#c2d82e" d="M 187.5,109.5 C 187.5,111.167 187.5,112.833 187.5,114.5C 174.167,127.5 160.833,140.5 147.5,153.5C 147.5,151.833 147.5,150.167 147.5,148.5C 160.833,135.5 174.167,122.5 187.5,109.5 Z"/></g>
<g><path style="opacity:0.022" fill="#c2d82e" d="M 123.5,113.5 C 123.5,115.167 123.5,116.833 123.5,118.5C 121.5,119.833 119.833,121.5 118.5,123.5C 116.833,123.5 115.167,123.5 113.5,123.5C 116.5,119.833 119.833,116.5 123.5,113.5 Z"/></g>
<g><path style="opacity:0.022" fill="#c2d82e" d="M 59.5,117.5 C 59.5,119.167 59.5,120.833 59.5,122.5C 51.5,130.167 43.5,137.833 35.5,145.5C 35.5,143.833 35.5,142.167 35.5,140.5C 43.5,132.833 51.5,125.167 59.5,117.5 Z"/></g>
<g><path style="opacity:0.022" fill="#c2d82e" d="M 219.5,117.5 C 219.5,119.167 219.5,120.833 219.5,122.5C 211.5,130.167 203.5,137.833 195.5,145.5C 195.5,143.833 195.5,142.167 195.5,140.5C 203.5,132.833 211.5,125.167 219.5,117.5 Z"/></g>
<g><path style="opacity:0.022" fill="#c2d82e" d="M 255.5,121.5 C 255.5,123.167 255.5,124.833 255.5,126.5C 246.167,135.5 236.833,144.5 227.5,153.5C 227.5,151.833 227.5,150.167 227.5,148.5C 236.833,139.5 246.167,130.5 255.5,121.5 Z"/></g>
<g><path style="opacity:0.022" fill="#c2d82e" d="M 27.5,129.5 C 27.5,131.167 27.5,132.833 27.5,134.5C 18.1667,143.5 8.83333,152.5 -0.5,161.5C -0.5,159.833 -0.5,158.167 -0.5,156.5C 8.83333,147.5 18.1667,138.5 27.5,129.5 Z"/></g>
<g><path style="opacity:0.022" fill="#c2d82e" d="M 107.5,129.5 C 107.5,131.167 107.5,132.833 107.5,134.5C 88.8333,152.833 70.1667,171.167 51.5,189.5C 51.5,187.833 51.5,186.167 51.5,184.5C 70.1667,166.167 88.8333,147.833 107.5,129.5 Z"/></g>
<g><path style="opacity:0.022" fill="#c2d82e" d="M 187.5,129.5 C 187.5,131.167 187.5,132.833 187.5,134.5C 174.167,147.5 160.833,160.5 147.5,173.5C 147.5,171.833 147.5,170.167 147.5,168.5C 160.833,155.5 174.167,142.5 187.5,129.5 Z"/></g>
<g><path style="opacity:0.022" fill="#c2d82e" d="M 124.5,131.5 C 126.167,131.5 127.833,131.5 129.5,131.5C 125.167,136.5 120.5,141.167 115.5,145.5C 115.5,143.833 115.5,142.167 115.5,140.5C 118.833,137.833 121.833,134.833 124.5,131.5 Z"/></g>
<g><path style="opacity:0.022" fill="#c2d82e" d="M 59.5,137.5 C 59.5,139.167 59.5,140.833 59.5,142.5C 54.8333,146.5 50.5,150.833 46.5,155.5C 44.8333,155.5 43.1667,155.5 41.5,155.5C 47.1667,149.167 53.1667,143.167 59.5,137.5 Z"/></g>
<g><path style="opacity:0.022" fill="#c2d82e" d="M 139.5,137.5 C 139.5,139.167 139.5,140.833 139.5,142.5C 131.5,150.167 123.5,157.833 115.5,165.5C 115.5,163.833 115.5,162.167 115.5,160.5C 123.5,152.833 131.5,145.167 139.5,137.5 Z"/></g>
<g><path style="opacity:0.022" fill="#c2d82e" d="M 219.5,137.5 C 219.5,139.167 219.5,140.833 219.5,142.5C 211.5,150.167 203.5,157.833 195.5,165.5C 195.5,163.833 195.5,162.167 195.5,160.5C 203.5,152.833 211.5,145.167 219.5,137.5 Z"/></g>
<g><path style="opacity:0.022" fill="#c2d82e" d="M 255.5,141.5 C 255.5,143.167 255.5,144.833 255.5,146.5C 246.167,155.5 236.833,164.5 227.5,173.5C 227.5,171.833 227.5,170.167 227.5,168.5C 236.833,159.5 246.167,150.5 255.5,141.5 Z"/></g>
<g><path style="opacity:0.022" fill="#c2d82e" d="M 27.5,149.5 C 27.5,151.167 27.5,152.833 27.5,154.5C 18.1667,163.5 8.83333,172.5 -0.5,181.5C -0.5,179.833 -0.5,178.167 -0.5,176.5C 8.83333,167.5 18.1667,158.5 27.5,149.5 Z"/></g>
<g><path style="opacity:0.022" fill="#c2d82e" d="M 107.5,149.5 C 107.5,151.167 107.5,152.833 107.5,154.5C 88.8333,172.833 70.1667,191.167 51.5,209.5C 51.5,207.833 51.5,206.167 51.5,204.5C 70.1667,186.167 88.8333,167.833 107.5,149.5 Z"/></g>
<g><path style="opacity:0.022" fill="#c2d82e" d="M 187.5,149.5 C 187.5,151.167 187.5,152.833 187.5,154.5C 174.167,167.5 160.833,180.5 147.5,193.5C 147.5,191.833 147.5,190.167 147.5,188.5C 160.833,175.5 174.167,162.5 187.5,149.5 Z"/></g>
<g><path style="opacity:0.022" fill="#c2d82e" d="M 139.5,157.5 C 139.5,159.167 139.5,160.833 139.5,162.5C 131.5,170.167 123.5,177.833 115.5,185.5C 115.5,183.833 115.5,182.167 115.5,180.5C 123.5,172.833 131.5,165.167 139.5,157.5 Z"/></g>
<g><path style="opacity:0.022" fill="#c2d82e" d="M 219.5,157.5 C 219.5,159.167 219.5,160.833 219.5,162.5C 211.5,170.167 203.5,177.833 195.5,185.5C 195.5,183.833 195.5,182.167 195.5,180.5C 203.5,172.833 211.5,165.167 219.5,157.5 Z"/></g>
<g><path style="opacity:0.022" fill="#c2d82e" d="M 255.5,161.5 C 255.5,163.167 255.5,164.833 255.5,166.5C 246.167,175.5 236.833,184.5 227.5,193.5C 227.5,191.833 227.5,190.167 227.5,188.5C 236.833,179.5 246.167,170.5 255.5,161.5 Z"/></g>
<g><path style="opacity:0.022" fill="#c2d82e" d="M 32.5,163.5 C 34.1667,163.5 35.8333,163.5 37.5,163.5C 25.1667,176.5 12.5,189.167 -0.5,201.5C -0.5,199.833 -0.5,198.167 -0.5,196.5C 10.8333,185.833 21.8333,174.833 32.5,163.5 Z"/></g>
<g><path style="opacity:0.022" fill="#c2d82e" d="M 52.5,163.5 C 54.1667,163.5 55.8333,163.5 57.5,163.5C 55.8333,165.833 53.8333,167.833 51.5,169.5C 51.5,167.833 51.5,166.167 51.5,164.5C 52.1667,164.5 52.5,164.167 52.5,163.5 Z"/></g>
<g><path style="opacity:0.022" fill="#c2d82e" d="M 107.5,169.5 C 107.5,171.167 107.5,172.833 107.5,174.5C 80.1667,201.167 53.1667,228.167 26.5,255.5C 24.8333,255.5 23.1667,255.5 21.5,255.5C 49.8333,226.5 78.5,197.833 107.5,169.5 Z"/></g>
<g><path style="opacity:0.022" fill="#c2d82e" d="M 187.5,169.5 C 187.5,171.167 187.5,172.833 187.5,174.5C 160.167,201.167 133.167,228.167 106.5,255.5C 104.833,255.5 103.167,255.5 101.5,255.5C 129.833,226.5 158.5,197.833 187.5,169.5 Z"/></g>
<g><path style="opacity:0.022" fill="#c2d82e" d="M 43.5,173.5 C 43.5,175.167 43.5,176.833 43.5,178.5C 28.8333,192.833 14.1667,207.167 -0.5,221.5C -0.5,219.833 -0.5,218.167 -0.5,216.5C 14.1667,202.167 28.8333,187.833 43.5,173.5 Z"/></g>
<g><path style="opacity:0.022" fill="#c2d82e" d="M 139.5,177.5 C 139.5,179.167 139.5,180.833 139.5,182.5C 137.5,183.833 135.833,185.5 134.5,187.5C 132.833,187.5 131.167,187.5 129.5,187.5C 132.5,183.833 135.833,180.5 139.5,177.5 Z"/></g>
<g><path style="opacity:0.022" fill="#c2d82e" d="M 219.5,177.5 C 219.5,179.167 219.5,180.833 219.5,182.5C 217.5,183.833 215.833,185.5 214.5,187.5C 212.833,187.5 211.167,187.5 209.5,187.5C 212.5,183.833 215.833,180.5 219.5,177.5 Z"/></g>
<g><path style="opacity:0.022" fill="#c2d82e" d="M 255.5,181.5 C 255.5,183.167 255.5,184.833 255.5,186.5C 232.167,209.167 209.167,232.167 186.5,255.5C 184.833,255.5 183.167,255.5 181.5,255.5C 205.833,230.5 230.5,205.833 255.5,181.5 Z"/></g>
<g><path style="opacity:0.022" fill="#c2d82e" d="M 107.5,189.5 C 107.5,191.167 107.5,192.833 107.5,194.5C 86.8333,214.5 66.5,234.833 46.5,255.5C 44.8333,255.5 43.1667,255.5 41.5,255.5C 63.1667,233.167 85.1667,211.167 107.5,189.5 Z"/></g>
<g><path style="opacity:0.022" fill="#c2d82e" d="M 187.5,189.5 C 187.5,191.167 187.5,192.833 187.5,194.5C 166.833,214.5 146.5,234.833 126.5,255.5C 124.833,255.5 123.167,255.5 121.5,255.5C 143.167,233.167 165.167,211.167 187.5,189.5 Z"/></g>
<g><path style="opacity:0.022" fill="#c2d82e" d="M 43.5,193.5 C 43.5,195.167 43.5,196.833 43.5,198.5C 28.8333,212.833 14.1667,227.167 -0.5,241.5C -0.5,239.833 -0.5,238.167 -0.5,236.5C 14.1667,222.167 28.8333,207.833 43.5,193.5 Z"/></g>
<g><path style="opacity:0.022" fill="#c2d82e" d="M 120.5,195.5 C 121.5,195.5 122.5,195.5 123.5,195.5C 123.5,196.5 123.5,197.5 123.5,198.5C 104.167,217.167 85.1667,236.167 66.5,255.5C 64.8333,255.5 63.1667,255.5 61.5,255.5C 81.1667,235.5 100.833,215.5 120.5,195.5 Z"/></g>
<g><path style="opacity:0.022" fill="#c2d82e" d="M 140.5,195.5 C 142.167,195.5 143.833,195.5 145.5,195.5C 141.167,200.5 136.5,205.167 131.5,209.5C 131.5,207.833 131.5,206.167 131.5,204.5C 134.833,201.833 137.833,198.833 140.5,195.5 Z"/></g>
<g><path style="opacity:0.022" fill="#c2d82e" d="M 200.5,195.5 C 201.5,195.5 202.5,195.5 203.5,195.5C 203.5,196.5 203.5,197.5 203.5,198.5C 184.167,217.167 165.167,236.167 146.5,255.5C 144.833,255.5 143.167,255.5 141.5,255.5C 161.167,235.5 180.833,215.5 200.5,195.5 Z"/></g>
<g><path style="opacity:0.022" fill="#c2d82e" d="M 220.5,195.5 C 222.167,195.5 223.833,195.5 225.5,195.5C 221.167,200.5 216.5,205.167 211.5,209.5C 211.5,207.833 211.5,206.167 211.5,204.5C 214.833,201.833 217.833,198.833 220.5,195.5 Z"/></g>
<g><path style="opacity:0.022" fill="#c2d82e" d="M 255.5,201.5 C 255.5,203.167 255.5,204.833 255.5,206.5C 238.833,222.5 222.5,238.833 206.5,255.5C 204.833,255.5 203.167,255.5 201.5,255.5C 219.167,237.167 237.167,219.167 255.5,201.5 Z"/></g>
<g><path style="opacity:0.022" fill="#c2d82e" d="M 43.5,213.5 C 43.5,215.167 43.5,216.833 43.5,218.5C 30.8333,230.5 18.5,242.833 6.5,255.5C 4.83333,255.5 3.16667,255.5 1.5,255.5C 15.1667,241.167 29.1667,227.167 43.5,213.5 Z"/></g>
<g><path style="opacity:0.022" fill="#c2d82e" d="M 123.5,213.5 C 123.5,215.167 123.5,216.833 123.5,218.5C 110.833,230.5 98.5,242.833 86.5,255.5C 84.8333,255.5 83.1667,255.5 81.5,255.5C 95.1667,241.167 109.167,227.167 123.5,213.5 Z"/></g>
<g><path style="opacity:0.022" fill="#c2d82e" d="M 203.5,213.5 C 203.5,215.167 203.5,216.833 203.5,218.5C 190.833,230.5 178.5,242.833 166.5,255.5C 164.833,255.5 163.167,255.5 161.5,255.5C 175.167,241.167 189.167,227.167 203.5,213.5 Z"/></g>
<g><path style="opacity:0.022" fill="#c2d82e" d="M 255.5,221.5 C 255.5,223.167 255.5,224.833 255.5,226.5C 245.5,235.833 235.833,245.5 226.5,255.5C 224.833,255.5 223.167,255.5 221.5,255.5C 232.5,243.833 243.833,232.5 255.5,221.5 Z"/></g>
<g><path style="opacity:0.022" fill="#c2d82e" d="M 255.5,241.5 C 255.5,243.167 255.5,244.833 255.5,246.5C 252.167,249.167 249.167,252.167 246.5,255.5C 244.833,255.5 243.167,255.5 241.5,255.5C 245.833,250.5 250.5,245.833 255.5,241.5 Z"/></g>
</svg>
