<?xml version="1.0" encoding="UTF-8"?>
<!DOCTYPE svg PUBLIC "-//W3C//DTD SVG 1.1//EN" "http://www.w3.org/Graphics/SVG/1.1/DTD/svg11.dtd">
<svg xmlns="http://www.w3.org/2000/svg" version="1.1" width="256px" height="256px" style="shape-rendering:geometricPrecision; text-rendering:geometricPrecision; image-rendering:optimizeQuality; fill-rule:evenodd; clip-rule:evenodd" xmlns:xlink="http://www.w3.org/1999/xlink">
<g><path style="opacity:0.952" fill="#c2d82e" d="M 21.5,27.5 C 25.0071,26.9935 28.1737,27.6602 31,29.5C 31.5,91.4991 31.6667,153.499 31.5,215.5C 42.7009,217.154 49.5342,212.487 52,201.5C 54.469,193.958 56.469,186.291 58,178.5C 61.901,152.427 66.2343,126.427 71,100.5C 73.6409,83.8884 80.1409,69.0551 90.5,56C 110.448,42.817 126.281,46.6504 138,67.5C 140.727,73.6794 143.06,80.0128 145,86.5C 148.989,105.434 152.656,124.434 156,143.5C 156.438,146.376 157.438,149.043 159,151.5C 165.607,152.716 172.274,152.716 179,151.5C 196.039,151.226 206.706,159.226 211,175.5C 213.008,188.237 215.342,200.904 218,213.5C 218.5,214 219,214.5 219.5,215C 224.167,215.333 228.833,215.667 233.5,216C 236.167,219.667 236.167,223.333 233.5,227C 162.833,227.667 92.1667,227.667 21.5,227C 21,226.5 20.5,226 20,225.5C 19.3333,160.167 19.3333,94.8333 20,29.5C 20.7172,28.9558 21.2172,28.2891 21.5,27.5 Z M 106.5,61.5 C 113.582,60.1249 119.082,62.4582 123,68.5C 128.979,78.7307 132.979,89.7307 135,101.5C 137.667,116.167 140.333,130.833 143,145.5C 143.708,154.786 148.208,161.286 156.5,165C 166.833,165.333 177.167,165.667 187.5,166C 194.309,168.828 198.143,173.994 199,181.5C 200.508,192.904 202.342,204.237 204.5,215.5C 156.495,215.833 108.495,215.5 60.5,214.5C 65.0503,205.304 68.2169,195.637 70,185.5C 74.1861,160.864 78.1861,136.198 82,111.5C 84.4877,97.543 88.821,84.2096 95,71.5C 97.8178,66.8388 101.651,63.5055 106.5,61.5 Z"/></g>
</svg>
