<?xml version="1.0" encoding="UTF-8"?>
<!DOCTYPE svg PUBLIC "-//W3C//DTD SVG 1.1//EN" "http://www.w3.org/Graphics/SVG/1.1/DTD/svg11.dtd">
<svg xmlns="http://www.w3.org/2000/svg" version="1.1" width="512px" height="512px" style="shape-rendering:geometricPrecision; text-rendering:geometricPrecision; image-rendering:optimizeQuality; fill-rule:evenodd; clip-rule:evenodd" xmlns:xlink="http://www.w3.org/1999/xlink">
<g><path style="opacity:0.021" fill="#43443f" d="M -0.5,-0.5 C 0.166667,-0.5 0.833333,-0.5 1.5,-0.5C 1.16667,0.5 0.5,1.16667 -0.5,1.5C -0.5,0.833333 -0.5,0.166667 -0.5,-0.5 Z"/></g>
<g><path style="opacity:0.022" fill="#43443f" d="M 16.5,-0.5 C 18.1667,-0.5 19.8333,-0.5 21.5,-0.5C 14.5,7.16667 7.16667,14.5 -0.5,21.5C -0.5,19.8333 -0.5,18.1667 -0.5,16.5C 5.5,11.1667 11.1667,5.5 16.5,-0.5 Z"/></g>
<g><path style="opacity:0.022" fill="#43443f" d="M 36.5,-0.5 C 38.1667,-0.5 39.8333,-0.5 41.5,-0.5C 27.8333,13.8333 13.8333,27.8333 -0.5,41.5C -0.5,39.8333 -0.5,38.1667 -0.5,36.5C 12.1667,24.5 24.5,12.1667 36.5,-0.5 Z"/></g>
<g><path style="opacity:0.022" fill="#43443f" d="M 56.5,-0.5 C 58.1667,-0.5 59.8333,-0.5 61.5,-0.5C 41.1667,20.5 20.5,41.1667 -0.5,61.5C -0.5,59.8333 -0.5,58.1667 -0.5,56.5C 18.8333,37.8333 37.8333,18.8333 56.5,-0.5 Z"/></g>
<g><path style="opacity:0.022" fill="#43443f" d="M 76.5,-0.5 C 78.1667,-0.5 79.8333,-0.5 81.5,-0.5C 54.5,27.1667 27.1667,54.5 -0.5,81.5C -0.5,79.8333 -0.5,78.1667 -0.5,76.5C 25.5,51.1667 51.1667,25.5 76.5,-0.5 Z"/></g>
<g><path style="opacity:0.022" fill="#43443f" d="M 96.5,-0.5 C 98.1667,-0.5 99.8333,-0.5 101.5,-0.5C 67.8333,33.8333 33.8333,67.8333 -0.5,101.5C -0.5,99.8333 -0.5,98.1667 -0.5,96.5C 32.1667,64.5 64.5,32.1667 96.5,-0.5 Z"/></g>
<g><path style="opacity:0.022" fill="#43443f" d="M 116.5,-0.5 C 118.167,-0.5 119.833,-0.5 121.5,-0.5C 81.1667,40.5 40.5,81.1667 -0.5,121.5C -0.5,119.833 -0.5,118.167 -0.5,116.5C 38.8333,77.8333 77.8333,38.8333 116.5,-0.5 Z"/></g>
<g><path style="opacity:0.022" fill="#43443f" d="M 136.5,-0.5 C 138.167,-0.5 139.833,-0.5 141.5,-0.5C 94.5,47.1667 47.1667,94.5 -0.5,141.5C -0.5,139.833 -0.5,138.167 -0.5,136.5C 45.5,91.1667 91.1667,45.5 136.5,-0.5 Z"/></g>
<g><path style="opacity:0.022" fill="#43443f" d="M 156.5,-0.5 C 158.167,-0.5 159.833,-0.5 161.5,-0.5C 107.833,53.8333 53.8333,107.833 -0.5,161.5C -0.5,159.833 -0.5,158.167 -0.5,156.5C 52.1667,104.5 104.5,52.1667 156.5,-0.5 Z"/></g>
<g><path style="opacity:0.022" fill="#43443f" d="M 176.5,-0.5 C 178.167,-0.5 179.833,-0.5 181.5,-0.5C 153.5,27.8333 125.5,56.1667 97.5,84.5C 95.8333,84.5 94.1667,84.5 92.5,84.5C 120.5,56.1667 148.5,27.8333 176.5,-0.5 Z"/></g>
<g><path style="opacity:0.022" fill="#43443f" d="M 196.5,-0.5 C 198.167,-0.5 199.833,-0.5 201.5,-0.5C 173.5,27.8333 145.5,56.1667 117.5,84.5C 115.833,84.5 114.167,84.5 112.5,84.5C 140.5,56.1667 168.5,27.8333 196.5,-0.5 Z"/></g>
<g><path style="opacity:0.022" fill="#43443f" d="M 216.5,-0.5 C 218.167,-0.5 219.833,-0.5 221.5,-0.5C 193.5,27.8333 165.5,56.1667 137.5,84.5C 135.833,84.5 134.167,84.5 132.5,84.5C 160.5,56.1667 188.5,27.8333 216.5,-0.5 Z"/></g>
<g><path style="opacity:0.022" fill="#43443f" d="M 236.5,-0.5 C 238.167,-0.5 239.833,-0.5 241.5,-0.5C 213.5,27.8333 185.5,56.1667 157.5,84.5C 155.833,84.5 154.167,84.5 152.5,84.5C 180.5,56.1667 208.5,27.8333 236.5,-0.5 Z"/></g>
<g><path style="opacity:0.022" fill="#43443f" d="M 256.5,-0.5 C 258.167,-0.5 259.833,-0.5 261.5,-0.5C 233.5,27.8333 205.5,56.1667 177.5,84.5C 175.833,84.5 174.167,84.5 172.5,84.5C 200.5,56.1667 228.5,27.8333 256.5,-0.5 Z"/></g>
<g><path style="opacity:0.022" fill="#43443f" d="M 276.5,-0.5 C 278.167,-0.5 279.833,-0.5 281.5,-0.5C 253.5,27.8333 225.5,56.1667 197.5,84.5C 195.833,84.5 194.167,84.5 192.5,84.5C 220.5,56.1667 248.5,27.8333 276.5,-0.5 Z"/></g>
<g><path style="opacity:0.022" fill="#43443f" d="M 296.5,-0.5 C 298.167,-0.5 299.833,-0.5 301.5,-0.5C 287.833,13.5 274.167,27.5 260.5,41.5C 258.833,41.5 257.167,41.5 255.5,41.5C 269.167,27.5 282.833,13.5 296.5,-0.5 Z"/></g>
<g><path style="opacity:0.022" fill="#43443f" d="M 316.5,-0.5 C 318.167,-0.5 319.833,-0.5 321.5,-0.5C 301.5,20.1667 281.167,40.5 260.5,60.5C 260.5,58.8333 260.5,57.1667 260.5,55.5C 279.5,37.1667 298.167,18.5 316.5,-0.5 Z"/></g>
<g><path style="opacity:0.022" fill="#43443f" d="M 336.5,-0.5 C 338.167,-0.5 339.833,-0.5 341.5,-0.5C 314.833,26.8333 287.833,53.8333 260.5,80.5C 260.5,78.8333 260.5,77.1667 260.5,75.5C 286.167,50.5 311.5,25.1667 336.5,-0.5 Z"/></g>
<g><path style="opacity:0.022" fill="#43443f" d="M 356.5,-0.5 C 358.167,-0.5 359.833,-0.5 361.5,-0.5C 333.5,27.8333 305.5,56.1667 277.5,84.5C 275.833,84.5 274.167,84.5 272.5,84.5C 300.5,56.1667 328.5,27.8333 356.5,-0.5 Z"/></g>
<g><path style="opacity:0.022" fill="#43443f" d="M 376.5,-0.5 C 378.167,-0.5 379.833,-0.5 381.5,-0.5C 353.5,27.8333 325.5,56.1667 297.5,84.5C 295.833,84.5 294.167,84.5 292.5,84.5C 320.5,56.1667 348.5,27.8333 376.5,-0.5 Z"/></g>
<g><path style="opacity:0.022" fill="#43443f" d="M 396.5,-0.5 C 398.167,-0.5 399.833,-0.5 401.5,-0.5C 373.5,27.8333 345.5,56.1667 317.5,84.5C 315.833,84.5 314.167,84.5 312.5,84.5C 340.5,56.1667 368.5,27.8333 396.5,-0.5 Z"/></g>
<g><path style="opacity:0.022" fill="#43443f" d="M 416.5,-0.5 C 418.167,-0.5 419.833,-0.5 421.5,-0.5C 393.5,27.8333 365.5,56.1667 337.5,84.5C 335.833,84.5 334.167,84.5 332.5,84.5C 360.5,56.1667 388.5,27.8333 416.5,-0.5 Z"/></g>
<g><path style="opacity:0.022" fill="#43443f" d="M 436.5,-0.5 C 438.167,-0.5 439.833,-0.5 441.5,-0.5C 408.5,33.1667 375.167,66.5 341.5,99.5C 341.5,97.8333 341.5,96.1667 341.5,94.5C 373.5,63.1667 405.167,31.5 436.5,-0.5 Z"/></g>
<g><path style="opacity:0.022" fill="#43443f" d="M 456.5,-0.5 C 458.167,-0.5 459.833,-0.5 461.5,-0.5C 421.833,39.8333 381.833,79.8333 341.5,119.5C 341.5,117.833 341.5,116.167 341.5,114.5C 380.167,76.5 418.5,38.1667 456.5,-0.5 Z"/></g>
<g><path style="opacity:0.022" fill="#43443f" d="M 476.5,-0.5 C 478.167,-0.5 479.833,-0.5 481.5,-0.5C 428.5,52.8333 375.5,106.167 322.5,159.5C 320.833,159.5 319.167,159.5 317.5,159.5C 370.5,106.167 423.5,52.8333 476.5,-0.5 Z"/></g>
<g><path style="opacity:0.022" fill="#43443f" d="M 496.5,-0.5 C 498.167,-0.5 499.833,-0.5 501.5,-0.5C 448.5,52.8333 395.5,106.167 342.5,159.5C 340.833,159.5 339.167,159.5 337.5,159.5C 390.5,106.167 443.5,52.8333 496.5,-0.5 Z"/></g>
<g><path style="opacity:0.022" fill="#43443f" d="M 511.5,5.5 C 511.5,7.16667 511.5,8.83333 511.5,10.5C 461.5,59.8333 411.833,109.5 362.5,159.5C 360.833,159.5 359.167,159.5 357.5,159.5C 408.5,107.833 459.833,56.5 511.5,5.5 Z"/></g>
<g><path style="opacity:0.022" fill="#43443f" d="M 511.5,25.5 C 511.5,27.1667 511.5,28.8333 511.5,30.5C 468.167,73.1667 425.167,116.167 382.5,159.5C 380.833,159.5 379.167,159.5 377.5,159.5C 421.833,114.5 466.5,69.8333 511.5,25.5 Z"/></g>
<g><path style="opacity:0.022" fill="#43443f" d="M 511.5,45.5 C 511.5,47.1667 511.5,48.8333 511.5,50.5C 474.833,86.5 438.5,122.833 402.5,159.5C 400.833,159.5 399.167,159.5 397.5,159.5C 435.167,121.167 473.167,83.1667 511.5,45.5 Z"/></g>
<g><path style="opacity:0.022" fill="#43443f" d="M 250.5,46.5 C 250.5,48.1667 250.5,49.8333 250.5,51.5C 239.167,62.1667 228.167,73.1667 217.5,84.5C 215.833,84.5 214.167,84.5 212.5,84.5C 224.833,71.5 237.5,58.8333 250.5,46.5 Z"/></g>
<g><path style="opacity:0.022" fill="#43443f" d="M 511.5,65.5 C 511.5,67.1667 511.5,68.8333 511.5,70.5C 481.5,99.8333 451.833,129.5 422.5,159.5C 420.833,159.5 419.167,159.5 417.5,159.5C 448.5,127.833 479.833,96.5 511.5,65.5 Z"/></g>
<g><path style="opacity:0.022" fill="#43443f" d="M 250.5,66.5 C 250.5,68.1667 250.5,69.8333 250.5,71.5C 245.833,75.5 241.5,79.8333 237.5,84.5C 235.833,84.5 234.167,84.5 232.5,84.5C 238.167,78.1667 244.167,72.1667 250.5,66.5 Z"/></g>
<g><path style="opacity:0.986" fill="#c2d82e" d="M 92.5,84.5 C 94.1667,84.5 95.8333,84.5 97.5,84.5C 102.5,84.5 107.5,84.5 112.5,84.5C 114.167,84.5 115.833,84.5 117.5,84.5C 122.5,84.5 127.5,84.5 132.5,84.5C 134.167,84.5 135.833,84.5 137.5,84.5C 142.5,84.5 147.5,84.5 152.5,84.5C 154.167,84.5 155.833,84.5 157.5,84.5C 162.5,84.5 167.5,84.5 172.5,84.5C 174.167,84.5 175.833,84.5 177.5,84.5C 182.5,84.5 187.5,84.5 192.5,84.5C 194.167,84.5 195.833,84.5 197.5,84.5C 202.5,84.5 207.5,84.5 212.5,84.5C 214.167,84.5 215.833,84.5 217.5,84.5C 222.5,84.5 227.5,84.5 232.5,84.5C 234.167,84.5 235.833,84.5 237.5,84.5C 241.833,84.5 246.167,84.5 250.5,84.5C 250.5,98.8333 250.5,113.167 250.5,127.5C 249.833,127.5 249.167,127.5 248.5,127.5C 243.5,127.5 238.5,127.5 233.5,127.5C 231.833,127.5 230.167,127.5 228.5,127.5C 223.5,127.5 218.5,127.5 213.5,127.5C 211.833,127.5 210.167,127.5 208.5,127.5C 203.5,127.5 198.5,127.5 193.5,127.5C 191.833,127.5 190.167,127.5 188.5,127.5C 183.5,127.5 178.5,127.5 173.5,127.5C 171.833,127.5 170.167,127.5 168.5,127.5C 163.5,127.5 158.5,127.5 153.5,127.5C 151.833,127.5 150.167,127.5 148.5,127.5C 143.5,127.5 138.5,127.5 133.5,127.5C 131.833,127.5 130.167,127.5 128.5,127.5C 123.5,127.5 118.5,127.5 113.5,127.5C 111.833,127.5 110.167,127.5 108.5,127.5C 103.5,127.5 98.5,127.5 93.5,127.5C 91.8333,127.5 90.1667,127.5 88.5,127.5C 87.1667,127.5 85.8333,127.5 84.5,127.5C 84.5,124.167 84.5,120.833 84.5,117.5C 84.5,115.833 84.5,114.167 84.5,112.5C 84.5,107.5 84.5,102.5 84.5,97.5C 84.5,95.8333 84.5,94.1667 84.5,92.5C 84.5,89.8333 84.5,87.1667 84.5,84.5C 87.1667,84.5 89.8333,84.5 92.5,84.5 Z"/></g>
<g><path style="opacity:0.991" fill="#c2d82e" d="M 260.5,84.5 C 264.5,84.5 268.5,84.5 272.5,84.5C 274.167,84.5 275.833,84.5 277.5,84.5C 282.5,84.5 287.5,84.5 292.5,84.5C 294.167,84.5 295.833,84.5 297.5,84.5C 302.5,84.5 307.5,84.5 312.5,84.5C 314.167,84.5 315.833,84.5 317.5,84.5C 322.5,84.5 327.5,84.5 332.5,84.5C 334.167,84.5 335.833,84.5 337.5,84.5C 338.833,84.5 340.167,84.5 341.5,84.5C 341.5,87.8333 341.5,91.1667 341.5,94.5C 341.5,96.1667 341.5,97.8333 341.5,99.5C 341.5,104.5 341.5,109.5 341.5,114.5C 341.5,116.167 341.5,117.833 341.5,119.5C 341.5,122.167 341.5,124.833 341.5,127.5C 338.833,127.5 336.167,127.5 333.5,127.5C 331.833,127.5 330.167,127.5 328.5,127.5C 323.5,127.5 318.5,127.5 313.5,127.5C 311.833,127.5 310.167,127.5 308.5,127.5C 303.5,127.5 298.5,127.5 293.5,127.5C 291.833,127.5 290.167,127.5 288.5,127.5C 283.5,127.5 278.5,127.5 273.5,127.5C 271.833,127.5 270.167,127.5 268.5,127.5C 265.833,127.5 263.167,127.5 260.5,127.5C 260.5,113.167 260.5,98.8333 260.5,84.5 Z"/></g>
<g><path style="opacity:0.022" fill="#43443f" d="M 511.5,85.5 C 511.5,87.1667 511.5,88.8333 511.5,90.5C 483.167,118.5 454.833,146.5 426.5,174.5C 426.5,172.833 426.5,171.167 426.5,169.5C 454.833,141.5 483.167,113.5 511.5,85.5 Z"/></g>
<g><path style="opacity:0.022" fill="#43443f" d="M 84.5,92.5 C 84.5,94.1667 84.5,95.8333 84.5,97.5C 56.1667,125.5 27.8333,153.5 -0.5,181.5C -0.5,179.833 -0.5,178.167 -0.5,176.5C 27.8333,148.5 56.1667,120.5 84.5,92.5 Z"/></g>
<g><path style="opacity:0.022" fill="#43443f" d="M 511.5,105.5 C 511.5,107.167 511.5,108.833 511.5,110.5C 483.167,138.5 454.833,166.5 426.5,194.5C 426.5,192.833 426.5,191.167 426.5,189.5C 454.833,161.5 483.167,133.5 511.5,105.5 Z"/></g>
<g><path style="opacity:0.022" fill="#43443f" d="M 84.5,112.5 C 84.5,114.167 84.5,115.833 84.5,117.5C 56.1667,145.5 27.8333,173.5 -0.5,201.5C -0.5,199.833 -0.5,198.167 -0.5,196.5C 27.8333,168.5 56.1667,140.5 84.5,112.5 Z"/></g>
<g><path style="opacity:0.022" fill="#43443f" d="M 511.5,125.5 C 511.5,127.167 511.5,128.833 511.5,130.5C 476.833,164.5 442.5,198.833 408.5,233.5C 406.833,233.5 405.167,233.5 403.5,233.5C 439.167,197.167 475.167,161.167 511.5,125.5 Z"/></g>
<g><path style="opacity:0.022" fill="#43443f" d="M 88.5,127.5 C 90.1667,127.5 91.8333,127.5 93.5,127.5C 62.5,159.167 31.1667,190.5 -0.5,221.5C -0.5,219.833 -0.5,218.167 -0.5,216.5C 29.5,187.167 59.1667,157.5 88.5,127.5 Z"/></g>
<g><path style="opacity:0.022" fill="#43443f" d="M 108.5,127.5 C 110.167,127.5 111.833,127.5 113.5,127.5C 75.8333,165.833 37.8333,203.833 -0.5,241.5C -0.5,239.833 -0.5,238.167 -0.5,236.5C 36.1667,200.5 72.5,164.167 108.5,127.5 Z"/></g>
<g><path style="opacity:0.022" fill="#43443f" d="M 128.5,127.5 C 130.167,127.5 131.833,127.5 133.5,127.5C 89.1667,172.5 44.5,217.167 -0.5,261.5C -0.5,259.833 -0.5,258.167 -0.5,256.5C 42.8333,213.833 85.8333,170.833 128.5,127.5 Z"/></g>
<g><path style="opacity:0.022" fill="#43443f" d="M 148.5,127.5 C 150.167,127.5 151.833,127.5 153.5,127.5C 102.5,179.167 51.1667,230.5 -0.5,281.5C -0.5,279.833 -0.5,278.167 -0.5,276.5C 49.5,227.167 99.1667,177.5 148.5,127.5 Z"/></g>
<g><path style="opacity:0.022" fill="#43443f" d="M 168.5,127.5 C 170.167,127.5 171.833,127.5 173.5,127.5C 115.833,185.833 57.8333,243.833 -0.5,301.5C -0.5,299.833 -0.5,298.167 -0.5,296.5C 56.1667,240.5 112.5,184.167 168.5,127.5 Z"/></g>
<g><path style="opacity:0.022" fill="#43443f" d="M 188.5,127.5 C 190.167,127.5 191.833,127.5 193.5,127.5C 129.167,192.5 64.5,257.167 -0.5,321.5C -0.5,319.833 -0.5,318.167 -0.5,316.5C 62.8333,253.833 125.833,190.833 188.5,127.5 Z"/></g>
<g><path style="opacity:0.022" fill="#43443f" d="M 208.5,127.5 C 210.167,127.5 211.833,127.5 213.5,127.5C 203.167,138.167 192.833,148.833 182.5,159.5C 180.833,159.5 179.167,159.5 177.5,159.5C 187.833,148.833 198.167,138.167 208.5,127.5 Z"/></g>
<g><path style="opacity:0.022" fill="#43443f" d="M 228.5,127.5 C 230.167,127.5 231.833,127.5 233.5,127.5C 223.167,138.167 212.833,148.833 202.5,159.5C 200.833,159.5 199.167,159.5 197.5,159.5C 207.833,148.833 218.167,138.167 228.5,127.5 Z"/></g>
<g><path style="opacity:0.022" fill="#43443f" d="M 248.5,127.5 C 249.167,127.5 249.833,127.5 250.5,127.5C 250.5,128.833 250.5,130.167 250.5,131.5C 240.833,140.5 231.5,149.833 222.5,159.5C 220.833,159.5 219.167,159.5 217.5,159.5C 227.833,148.833 238.167,138.167 248.5,127.5 Z"/></g>
<g><path style="opacity:0.022" fill="#43443f" d="M 268.5,127.5 C 270.167,127.5 271.833,127.5 273.5,127.5C 269.5,132.167 265.167,136.5 260.5,140.5C 260.5,138.833 260.5,137.167 260.5,135.5C 263.5,133.167 266.167,130.5 268.5,127.5 Z"/></g>
<g><path style="opacity:0.022" fill="#43443f" d="M 288.5,127.5 C 290.167,127.5 291.833,127.5 293.5,127.5C 283.167,138.167 272.833,148.833 262.5,159.5C 261.833,159.5 261.167,159.5 260.5,159.5C 260.5,158.167 260.5,156.833 260.5,155.5C 270.167,146.5 279.5,137.167 288.5,127.5 Z"/></g>
<g><path style="opacity:0.022" fill="#43443f" d="M 308.5,127.5 C 310.167,127.5 311.833,127.5 313.5,127.5C 303.167,138.167 292.833,148.833 282.5,159.5C 280.833,159.5 279.167,159.5 277.5,159.5C 287.833,148.833 298.167,138.167 308.5,127.5 Z"/></g>
<g><path style="opacity:0.022" fill="#43443f" d="M 328.5,127.5 C 330.167,127.5 331.833,127.5 333.5,127.5C 323.167,138.167 312.833,148.833 302.5,159.5C 300.833,159.5 299.167,159.5 297.5,159.5C 307.833,148.833 318.167,138.167 328.5,127.5 Z"/></g>
<g><path style="opacity:0.022" fill="#43443f" d="M 511.5,145.5 C 511.5,147.167 511.5,148.833 511.5,150.5C 483.5,177.833 455.833,205.5 428.5,233.5C 426.833,233.5 425.167,233.5 423.5,233.5C 452.5,203.833 481.833,174.5 511.5,145.5 Z"/></g>
<g><path style="opacity:0.022" fill="#43443f" d="M 250.5,146.5 C 250.5,148.167 250.5,149.833 250.5,151.5C 247.5,153.833 244.833,156.5 242.5,159.5C 240.833,159.5 239.167,159.5 237.5,159.5C 241.5,154.833 245.833,150.5 250.5,146.5 Z"/></g>
<g><path style="opacity:0.986" fill="#c2d82e" d="M 177.5,159.5 C 179.167,159.5 180.833,159.5 182.5,159.5C 187.5,159.5 192.5,159.5 197.5,159.5C 199.167,159.5 200.833,159.5 202.5,159.5C 207.5,159.5 212.5,159.5 217.5,159.5C 219.167,159.5 220.833,159.5 222.5,159.5C 227.5,159.5 232.5,159.5 237.5,159.5C 239.167,159.5 240.833,159.5 242.5,159.5C 245.167,159.5 247.833,159.5 250.5,159.5C 250.5,173.833 250.5,188.167 250.5,202.5C 246.5,202.5 242.5,202.5 238.5,202.5C 236.833,202.5 235.167,202.5 233.5,202.5C 228.5,202.5 223.5,202.5 218.5,202.5C 216.833,202.5 215.167,202.5 213.5,202.5C 208.5,202.5 203.5,202.5 198.5,202.5C 196.833,202.5 195.167,202.5 193.5,202.5C 188.5,202.5 183.5,202.5 178.5,202.5C 176.833,202.5 175.167,202.5 173.5,202.5C 172.167,202.5 170.833,202.5 169.5,202.5C 169.5,199.167 169.5,195.833 169.5,192.5C 169.5,190.833 169.5,189.167 169.5,187.5C 169.5,182.5 169.5,177.5 169.5,172.5C 169.5,170.833 169.5,169.167 169.5,167.5C 169.5,164.833 169.5,162.167 169.5,159.5C 172.167,159.5 174.833,159.5 177.5,159.5 Z"/></g>
<g><path style="opacity:0.991" fill="#c2d82e" d="M 260.5,159.5 C 261.167,159.5 261.833,159.5 262.5,159.5C 267.5,159.5 272.5,159.5 277.5,159.5C 279.167,159.5 280.833,159.5 282.5,159.5C 287.5,159.5 292.5,159.5 297.5,159.5C 299.167,159.5 300.833,159.5 302.5,159.5C 307.5,159.5 312.5,159.5 317.5,159.5C 319.167,159.5 320.833,159.5 322.5,159.5C 327.5,159.5 332.5,159.5 337.5,159.5C 339.167,159.5 340.833,159.5 342.5,159.5C 347.5,159.5 352.5,159.5 357.5,159.5C 359.167,159.5 360.833,159.5 362.5,159.5C 367.5,159.5 372.5,159.5 377.5,159.5C 379.167,159.5 380.833,159.5 382.5,159.5C 387.5,159.5 392.5,159.5 397.5,159.5C 399.167,159.5 400.833,159.5 402.5,159.5C 407.5,159.5 412.5,159.5 417.5,159.5C 419.167,159.5 420.833,159.5 422.5,159.5C 423.833,159.5 425.167,159.5 426.5,159.5C 426.5,162.833 426.5,166.167 426.5,169.5C 426.5,171.167 426.5,172.833 426.5,174.5C 426.5,179.5 426.5,184.5 426.5,189.5C 426.5,191.167 426.5,192.833 426.5,194.5C 426.5,197.167 426.5,199.833 426.5,202.5C 423.833,202.5 421.167,202.5 418.5,202.5C 416.833,202.5 415.167,202.5 413.5,202.5C 408.5,202.5 403.5,202.5 398.5,202.5C 396.833,202.5 395.167,202.5 393.5,202.5C 388.5,202.5 383.5,202.5 378.5,202.5C 376.833,202.5 375.167,202.5 373.5,202.5C 368.5,202.5 363.5,202.5 358.5,202.5C 356.833,202.5 355.167,202.5 353.5,202.5C 348.5,202.5 343.5,202.5 338.5,202.5C 336.833,202.5 335.167,202.5 333.5,202.5C 328.5,202.5 323.5,202.5 318.5,202.5C 316.833,202.5 315.167,202.5 313.5,202.5C 308.5,202.5 303.5,202.5 298.5,202.5C 296.833,202.5 295.167,202.5 293.5,202.5C 288.5,202.5 283.5,202.5 278.5,202.5C 276.833,202.5 275.167,202.5 273.5,202.5C 269.167,202.5 264.833,202.5 260.5,202.5C 260.5,188.167 260.5,173.833 260.5,159.5 Z"/></g>
<g><path style="opacity:0.022" fill="#43443f" d="M 511.5,165.5 C 511.5,167.167 511.5,168.833 511.5,170.5C 490.167,191.167 469.167,212.167 448.5,233.5C 446.833,233.5 445.167,233.5 443.5,233.5C 465.833,210.5 488.5,187.833 511.5,165.5 Z"/></g>
<g><path style="opacity:0.022" fill="#43443f" d="M 169.5,167.5 C 169.5,169.167 169.5,170.833 169.5,172.5C 112.833,228.833 56.1667,285.167 -0.5,341.5C -0.5,339.833 -0.5,338.167 -0.5,336.5C 56.1667,280.167 112.833,223.833 169.5,167.5 Z"/></g>
<g><path style="opacity:1" fill="#9aadc7" d="M 255.5,41.5 C 257.167,41.5 258.833,41.5 260.5,41.5C 260.5,46.1667 260.5,50.8333 260.5,55.5C 260.5,57.1667 260.5,58.8333 260.5,60.5C 260.5,65.5 260.5,70.5 260.5,75.5C 260.5,77.1667 260.5,78.8333 260.5,80.5C 260.5,81.8333 260.5,83.1667 260.5,84.5C 260.5,98.8333 260.5,113.167 260.5,127.5C 260.5,130.167 260.5,132.833 260.5,135.5C 260.5,137.167 260.5,138.833 260.5,140.5C 260.5,145.5 260.5,150.5 260.5,155.5C 260.5,156.833 260.5,158.167 260.5,159.5C 260.5,173.833 260.5,188.167 260.5,202.5C 260.5,206.833 260.5,211.167 260.5,215.5C 260.5,217.167 260.5,218.833 260.5,220.5C 260.5,224.833 260.5,229.167 260.5,233.5C 260.5,249.167 260.5,264.833 260.5,280.5C 260.5,285.5 260.5,290.5 260.5,295.5C 260.5,297.167 260.5,298.833 260.5,300.5C 260.5,303.167 260.5,305.833 260.5,308.5C 260.5,322.833 260.5,337.167 260.5,351.5C 260.5,352.833 260.5,354.167 260.5,355.5C 260.5,357.167 260.5,358.833 260.5,360.5C 260.5,365.5 260.5,370.5 260.5,375.5C 260.5,377.167 260.5,378.833 260.5,380.5C 260.5,381.5 260.5,382.5 260.5,383.5C 260.5,397.833 260.5,412.167 260.5,426.5C 260.5,429.5 260.5,432.5 260.5,435.5C 260.5,437.167 260.5,438.833 260.5,440.5C 260.5,445.5 260.5,450.5 260.5,455.5C 260.5,457.167 260.5,458.833 260.5,460.5C 260.5,463.5 260.5,466.5 260.5,469.5C 257.5,469.5 254.5,469.5 251.5,469.5C 250.596,468.791 250.263,467.791 250.5,466.5C 250.5,461.5 250.5,456.5 250.5,451.5C 250.5,449.833 250.5,448.167 250.5,446.5C 250.5,441.5 250.5,436.5 250.5,431.5C 250.5,429.833 250.5,428.167 250.5,426.5C 250.5,412.167 250.5,397.833 250.5,383.5C 250.5,379.5 250.5,375.5 250.5,371.5C 250.5,369.833 250.5,368.167 250.5,366.5C 250.5,361.5 250.5,356.5 250.5,351.5C 250.5,337.167 250.5,322.833 250.5,308.5C 250.5,307.833 250.5,307.167 250.5,306.5C 250.5,301.5 250.5,296.5 250.5,291.5C 250.5,289.833 250.5,288.167 250.5,286.5C 250.5,283.5 250.5,280.5 250.5,277.5C 250.5,262.833 250.5,248.167 250.5,233.5C 250.5,232.833 250.5,232.167 250.5,231.5C 250.5,229.833 250.5,228.167 250.5,226.5C 250.5,221.5 250.5,216.5 250.5,211.5C 250.5,209.833 250.5,208.167 250.5,206.5C 250.5,205.167 250.5,203.833 250.5,202.5C 250.5,188.167 250.5,173.833 250.5,159.5C 250.5,156.833 250.5,154.167 250.5,151.5C 250.5,149.833 250.5,148.167 250.5,146.5C 250.5,141.5 250.5,136.5 250.5,131.5C 250.5,130.167 250.5,128.833 250.5,127.5C 250.5,113.167 250.5,98.8333 250.5,84.5C 250.5,80.1667 250.5,75.8333 250.5,71.5C 250.5,69.8333 250.5,68.1667 250.5,66.5C 250.5,61.5 250.5,56.5 250.5,51.5C 250.5,49.8333 250.5,48.1667 250.5,46.5C 250.5,44.8333 250.5,43.1667 250.5,41.5C 252.167,41.5 253.833,41.5 255.5,41.5 Z"/></g>
<g><path style="opacity:0.022" fill="#43443f" d="M 511.5,185.5 C 511.5,187.167 511.5,188.833 511.5,190.5C 496.833,204.5 482.5,218.833 468.5,233.5C 466.833,233.5 465.167,233.5 463.5,233.5C 479.167,217.167 495.167,201.167 511.5,185.5 Z"/></g>
<g><path style="opacity:0.022" fill="#43443f" d="M 169.5,187.5 C 169.5,189.167 169.5,190.833 169.5,192.5C 155.5,205.833 141.833,219.5 128.5,233.5C 127.833,233.5 127.5,233.833 127.5,234.5C 102.5,258.833 77.8333,283.5 53.5,308.5C 51.8333,308.5 50.1667,308.5 48.5,308.5C 88.5,267.833 128.833,227.5 169.5,187.5 Z"/></g>
<g><path style="opacity:0.022" fill="#43443f" d="M 173.5,202.5 C 175.167,202.5 176.833,202.5 178.5,202.5C 168.5,212.833 158.5,223.167 148.5,233.5C 146.833,233.5 145.167,233.5 143.5,233.5C 153.5,223.167 163.5,212.833 173.5,202.5 Z"/></g>
<g><path style="opacity:0.022" fill="#43443f" d="M 193.5,202.5 C 195.167,202.5 196.833,202.5 198.5,202.5C 188.5,212.833 178.5,223.167 168.5,233.5C 166.833,233.5 165.167,233.5 163.5,233.5C 173.5,223.167 183.5,212.833 193.5,202.5 Z"/></g>
<g><path style="opacity:0.022" fill="#43443f" d="M 213.5,202.5 C 215.167,202.5 216.833,202.5 218.5,202.5C 208.5,212.833 198.5,223.167 188.5,233.5C 186.833,233.5 185.167,233.5 183.5,233.5C 193.5,223.167 203.5,212.833 213.5,202.5 Z"/></g>
<g><path style="opacity:0.022" fill="#43443f" d="M 233.5,202.5 C 235.167,202.5 236.833,202.5 238.5,202.5C 228.5,212.833 218.5,223.167 208.5,233.5C 206.833,233.5 205.167,233.5 203.5,233.5C 213.5,223.167 223.5,212.833 233.5,202.5 Z"/></g>
<g><path style="opacity:0.022" fill="#43443f" d="M 273.5,202.5 C 275.167,202.5 276.833,202.5 278.5,202.5C 272.833,208.833 266.833,214.833 260.5,220.5C 260.5,218.833 260.5,217.167 260.5,215.5C 265.167,211.5 269.5,207.167 273.5,202.5 Z"/></g>
<g><path style="opacity:0.022" fill="#43443f" d="M 293.5,202.5 C 295.167,202.5 296.833,202.5 298.5,202.5C 288.5,212.833 278.5,223.167 268.5,233.5C 266.833,233.5 265.167,233.5 263.5,233.5C 273.5,223.167 283.5,212.833 293.5,202.5 Z"/></g>
<g><path style="opacity:0.022" fill="#43443f" d="M 313.5,202.5 C 315.167,202.5 316.833,202.5 318.5,202.5C 308.5,212.833 298.5,223.167 288.5,233.5C 286.833,233.5 285.167,233.5 283.5,233.5C 293.5,223.167 303.5,212.833 313.5,202.5 Z"/></g>
<g><path style="opacity:0.022" fill="#43443f" d="M 333.5,202.5 C 335.167,202.5 336.833,202.5 338.5,202.5C 328.5,212.833 318.5,223.167 308.5,233.5C 306.833,233.5 305.167,233.5 303.5,233.5C 313.5,223.167 323.5,212.833 333.5,202.5 Z"/></g>
<g><path style="opacity:0.022" fill="#43443f" d="M 353.5,202.5 C 355.167,202.5 356.833,202.5 358.5,202.5C 348.5,212.833 338.5,223.167 328.5,233.5C 326.833,233.5 325.167,233.5 323.5,233.5C 333.5,223.167 343.5,212.833 353.5,202.5 Z"/></g>
<g><path style="opacity:0.022" fill="#43443f" d="M 373.5,202.5 C 375.167,202.5 376.833,202.5 378.5,202.5C 368.5,212.833 358.5,223.167 348.5,233.5C 346.833,233.5 345.167,233.5 343.5,233.5C 353.5,223.167 363.5,212.833 373.5,202.5 Z"/></g>
<g><path style="opacity:0.022" fill="#43443f" d="M 393.5,202.5 C 395.167,202.5 396.833,202.5 398.5,202.5C 388.5,212.833 378.5,223.167 368.5,233.5C 366.833,233.5 365.167,233.5 363.5,233.5C 373.5,223.167 383.5,212.833 393.5,202.5 Z"/></g>
<g><path style="opacity:0.022" fill="#43443f" d="M 413.5,202.5 C 415.167,202.5 416.833,202.5 418.5,202.5C 408.5,212.833 398.5,223.167 388.5,233.5C 386.833,233.5 385.167,233.5 383.5,233.5C 393.5,223.167 403.5,212.833 413.5,202.5 Z"/></g>
<g><path style="opacity:0.022" fill="#43443f" d="M 511.5,205.5 C 511.5,207.167 511.5,208.833 511.5,210.5C 497.5,224.167 483.5,237.833 469.5,251.5C 469.5,249.833 469.5,248.167 469.5,246.5C 483.5,232.833 497.5,219.167 511.5,205.5 Z"/></g>
<g><path style="opacity:0.022" fill="#43443f" d="M 250.5,206.5 C 250.5,208.167 250.5,209.833 250.5,211.5C 242.833,218.5 235.5,225.833 228.5,233.5C 226.833,233.5 225.167,233.5 223.5,233.5C 232.167,224.167 241.167,215.167 250.5,206.5 Z"/></g>
<g><path style="opacity:0.022" fill="#43443f" d="M 511.5,225.5 C 511.5,227.167 511.5,228.833 511.5,230.5C 497.5,244.167 483.5,257.833 469.5,271.5C 469.5,269.833 469.5,268.167 469.5,266.5C 483.5,252.833 497.5,239.167 511.5,225.5 Z"/></g>
<g><path style="opacity:0.022" fill="#43443f" d="M 250.5,226.5 C 250.5,228.167 250.5,229.833 250.5,231.5C 249.5,231.833 248.833,232.5 248.5,233.5C 246.833,233.5 245.167,233.5 243.5,233.5C 245.5,230.833 247.833,228.5 250.5,226.5 Z"/></g>
<g><path style="opacity:0.966" fill="#c2d82e" d="M 128.5,233.5 C 133.5,233.5 138.5,233.5 143.5,233.5C 145.167,233.5 146.833,233.5 148.5,233.5C 153.5,233.5 158.5,233.5 163.5,233.5C 165.167,233.5 166.833,233.5 168.5,233.5C 173.5,233.5 178.5,233.5 183.5,233.5C 185.167,233.5 186.833,233.5 188.5,233.5C 193.5,233.5 198.5,233.5 203.5,233.5C 205.167,233.5 206.833,233.5 208.5,233.5C 213.5,233.5 218.5,233.5 223.5,233.5C 225.167,233.5 226.833,233.5 228.5,233.5C 233.5,233.5 238.5,233.5 243.5,233.5C 245.167,233.5 246.833,233.5 248.5,233.5C 249.167,233.5 249.833,233.5 250.5,233.5C 250.5,248.167 250.5,262.833 250.5,277.5C 248.167,277.5 245.833,277.5 243.5,277.5C 241.833,277.5 240.167,277.5 238.5,277.5C 233.5,277.5 228.5,277.5 223.5,277.5C 221.833,277.5 220.167,277.5 218.5,277.5C 213.5,277.5 208.5,277.5 203.5,277.5C 201.833,277.5 200.167,277.5 198.5,277.5C 193.5,277.5 188.5,277.5 183.5,277.5C 181.833,277.5 180.167,277.5 178.5,277.5C 173.5,277.5 168.5,277.5 163.5,277.5C 161.833,277.5 160.167,277.5 158.5,277.5C 153.5,277.5 148.5,277.5 143.5,277.5C 141.833,277.5 140.167,277.5 138.5,277.5C 134.833,277.5 131.167,277.5 127.5,277.5C 127.5,276.5 127.5,275.5 127.5,274.5C 127.5,272.833 127.5,271.167 127.5,269.5C 127.5,264.5 127.5,259.5 127.5,254.5C 127.5,252.833 127.5,251.167 127.5,249.5C 127.5,244.5 127.5,239.5 127.5,234.5C 127.5,233.833 127.833,233.5 128.5,233.5 Z"/></g>
<g><path style="opacity:0.981" fill="#c2d82e" d="M 260.5,233.5 C 261.5,233.5 262.5,233.5 263.5,233.5C 265.167,233.5 266.833,233.5 268.5,233.5C 273.5,233.5 278.5,233.5 283.5,233.5C 285.167,233.5 286.833,233.5 288.5,233.5C 293.5,233.5 298.5,233.5 303.5,233.5C 305.167,233.5 306.833,233.5 308.5,233.5C 313.5,233.5 318.5,233.5 323.5,233.5C 325.167,233.5 326.833,233.5 328.5,233.5C 333.5,233.5 338.5,233.5 343.5,233.5C 345.167,233.5 346.833,233.5 348.5,233.5C 353.5,233.5 358.5,233.5 363.5,233.5C 365.167,233.5 366.833,233.5 368.5,233.5C 373.5,233.5 378.5,233.5 383.5,233.5C 385.167,233.5 386.833,233.5 388.5,233.5C 393.5,233.5 398.5,233.5 403.5,233.5C 405.167,233.5 406.833,233.5 408.5,233.5C 413.5,233.5 418.5,233.5 423.5,233.5C 425.167,233.5 426.833,233.5 428.5,233.5C 433.5,233.5 438.5,233.5 443.5,233.5C 445.167,233.5 446.833,233.5 448.5,233.5C 453.5,233.5 458.5,233.5 463.5,233.5C 465.167,233.5 466.833,233.5 468.5,233.5C 469.485,237.634 469.818,241.968 469.5,246.5C 469.5,248.167 469.5,249.833 469.5,251.5C 469.5,256.5 469.5,261.5 469.5,266.5C 469.5,268.167 469.5,269.833 469.5,271.5C 469.5,273.5 469.5,275.5 469.5,277.5C 467.5,277.5 465.5,277.5 463.5,277.5C 461.833,277.5 460.167,277.5 458.5,277.5C 453.5,277.5 448.5,277.5 443.5,277.5C 441.833,277.5 440.167,277.5 438.5,277.5C 433.5,277.5 428.5,277.5 423.5,277.5C 421.833,277.5 420.167,277.5 418.5,277.5C 413.5,277.5 408.5,277.5 403.5,277.5C 401.833,277.5 400.167,277.5 398.5,277.5C 393.5,277.5 388.5,277.5 383.5,277.5C 381.833,277.5 380.167,277.5 378.5,277.5C 373.5,277.5 368.5,277.5 363.5,277.5C 361.833,277.5 360.167,277.5 358.5,277.5C 353.5,277.5 348.5,277.5 343.5,277.5C 341.833,277.5 340.167,277.5 338.5,277.5C 333.5,277.5 328.5,277.5 323.5,277.5C 321.833,277.5 320.167,277.5 318.5,277.5C 313.5,277.5 308.5,277.5 303.5,277.5C 301.833,277.5 300.167,277.5 298.5,277.5C 293.5,277.5 288.5,277.5 283.5,277.5C 281.833,277.5 280.167,277.5 278.5,277.5C 273.489,277.334 268.489,277.501 263.5,278C 262.627,279.045 261.627,279.878 260.5,280.5C 260.5,264.833 260.5,249.167 260.5,233.5 Z"/></g>
<g><path style="opacity:0.022" fill="#43443f" d="M 511.5,245.5 C 511.5,247.167 511.5,248.833 511.5,250.5C 466.833,294.5 422.5,338.833 378.5,383.5C 376.833,383.5 375.167,383.5 373.5,383.5C 419.167,337.167 465.167,291.167 511.5,245.5 Z"/></g>
<g><path style="opacity:0.022" fill="#43443f" d="M 127.5,249.5 C 127.5,251.167 127.5,252.833 127.5,254.5C 109.167,272.167 91.1667,290.167 73.5,308.5C 71.8333,308.5 70.1667,308.5 68.5,308.5C 87.8333,288.5 107.5,268.833 127.5,249.5 Z"/></g>
<g><path style="opacity:0.022" fill="#43443f" d="M 511.5,265.5 C 511.5,267.167 511.5,268.833 511.5,270.5C 473.5,307.833 435.833,345.5 398.5,383.5C 396.833,383.5 395.167,383.5 393.5,383.5C 432.5,343.833 471.833,304.5 511.5,265.5 Z"/></g>
<g><path style="opacity:0.022" fill="#43443f" d="M 127.5,269.5 C 127.5,271.167 127.5,272.833 127.5,274.5C 115.833,285.5 104.5,296.833 93.5,308.5C 91.8333,308.5 90.1667,308.5 88.5,308.5C 101.167,295.167 114.167,282.167 127.5,269.5 Z"/></g>
<g><path style="opacity:0.022" fill="#43443f" d="M 138.5,277.5 C 140.167,277.5 141.833,277.5 143.5,277.5C 133.5,287.833 123.5,298.167 113.5,308.5C 111.833,308.5 110.167,308.5 108.5,308.5C 118.5,298.167 128.5,287.833 138.5,277.5 Z"/></g>
<g><path style="opacity:0.022" fill="#43443f" d="M 158.5,277.5 C 160.167,277.5 161.833,277.5 163.5,277.5C 153.5,287.833 143.5,298.167 133.5,308.5C 131.833,308.5 130.167,308.5 128.5,308.5C 138.5,298.167 148.5,287.833 158.5,277.5 Z"/></g>
<g><path style="opacity:0.022" fill="#43443f" d="M 178.5,277.5 C 180.167,277.5 181.833,277.5 183.5,277.5C 173.5,287.833 163.5,298.167 153.5,308.5C 151.833,308.5 150.167,308.5 148.5,308.5C 158.5,298.167 168.5,287.833 178.5,277.5 Z"/></g>
<g><path style="opacity:0.022" fill="#43443f" d="M 198.5,277.5 C 200.167,277.5 201.833,277.5 203.5,277.5C 193.5,287.833 183.5,298.167 173.5,308.5C 171.833,308.5 170.167,308.5 168.5,308.5C 178.5,298.167 188.5,287.833 198.5,277.5 Z"/></g>
<g><path style="opacity:0.022" fill="#43443f" d="M 218.5,277.5 C 220.167,277.5 221.833,277.5 223.5,277.5C 213.5,287.833 203.5,298.167 193.5,308.5C 191.833,308.5 190.167,308.5 188.5,308.5C 198.5,298.167 208.5,287.833 218.5,277.5 Z"/></g>
<g><path style="opacity:0.022" fill="#43443f" d="M 238.5,277.5 C 240.167,277.5 241.833,277.5 243.5,277.5C 233.5,287.833 223.5,298.167 213.5,308.5C 211.833,308.5 210.167,308.5 208.5,308.5C 218.5,298.167 228.5,287.833 238.5,277.5 Z"/></g>
<g><path style="opacity:0.022" fill="#43443f" d="M 278.5,277.5 C 280.167,277.5 281.833,277.5 283.5,277.5C 276.167,285.5 268.5,293.167 260.5,300.5C 260.5,298.833 260.5,297.167 260.5,295.5C 266.833,289.833 272.833,283.833 278.5,277.5 Z"/></g>
<g><path style="opacity:0.022" fill="#43443f" d="M 298.5,277.5 C 300.167,277.5 301.833,277.5 303.5,277.5C 293.5,287.833 283.5,298.167 273.5,308.5C 271.833,308.5 270.167,308.5 268.5,308.5C 278.5,298.167 288.5,287.833 298.5,277.5 Z"/></g>
<g><path style="opacity:0.022" fill="#43443f" d="M 318.5,277.5 C 320.167,277.5 321.833,277.5 323.5,277.5C 313.5,287.833 303.5,298.167 293.5,308.5C 291.833,308.5 290.167,308.5 288.5,308.5C 298.5,298.167 308.5,287.833 318.5,277.5 Z"/></g>
<g><path style="opacity:0.022" fill="#43443f" d="M 338.5,277.5 C 340.167,277.5 341.833,277.5 343.5,277.5C 333.5,287.833 323.5,298.167 313.5,308.5C 311.833,308.5 310.167,308.5 308.5,308.5C 318.5,298.167 328.5,287.833 338.5,277.5 Z"/></g>
<g><path style="opacity:0.022" fill="#43443f" d="M 358.5,277.5 C 360.167,277.5 361.833,277.5 363.5,277.5C 353.5,287.833 343.5,298.167 333.5,308.5C 331.833,308.5 330.167,308.5 328.5,308.5C 338.5,298.167 348.5,287.833 358.5,277.5 Z"/></g>
<g><path style="opacity:0.022" fill="#43443f" d="M 378.5,277.5 C 380.167,277.5 381.833,277.5 383.5,277.5C 369.5,292.167 355.167,306.5 340.5,320.5C 340.5,318.833 340.5,317.167 340.5,315.5C 353.5,303.167 366.167,290.5 378.5,277.5 Z"/></g>
<g><path style="opacity:0.022" fill="#43443f" d="M 398.5,277.5 C 400.167,277.5 401.833,277.5 403.5,277.5C 382.833,298.833 361.833,319.833 340.5,340.5C 340.5,338.833 340.5,337.167 340.5,335.5C 360.167,316.5 379.5,297.167 398.5,277.5 Z"/></g>
<g><path style="opacity:0.022" fill="#43443f" d="M 418.5,277.5 C 420.167,277.5 421.833,277.5 423.5,277.5C 388.5,312.833 353.5,348.167 318.5,383.5C 316.833,383.5 315.167,383.5 313.5,383.5C 348.5,348.167 383.5,312.833 418.5,277.5 Z"/></g>
<g><path style="opacity:0.022" fill="#43443f" d="M 438.5,277.5 C 440.167,277.5 441.833,277.5 443.5,277.5C 408.5,312.833 373.5,348.167 338.5,383.5C 336.833,383.5 335.167,383.5 333.5,383.5C 368.5,348.167 403.5,312.833 438.5,277.5 Z"/></g>
<g><path style="opacity:0.022" fill="#43443f" d="M 458.5,277.5 C 460.167,277.5 461.833,277.5 463.5,277.5C 428.5,312.833 393.5,348.167 358.5,383.5C 356.833,383.5 355.167,383.5 353.5,383.5C 388.5,348.167 423.5,312.833 458.5,277.5 Z"/></g>
<g><path style="opacity:0.022" fill="#43443f" d="M 511.5,285.5 C 511.5,287.167 511.5,288.833 511.5,290.5C 480.167,321.167 449.167,352.167 418.5,383.5C 416.833,383.5 415.167,383.5 413.5,383.5C 445.833,350.5 478.5,317.833 511.5,285.5 Z"/></g>
<g><path style="opacity:0.022" fill="#43443f" d="M 250.5,286.5 C 250.5,288.167 250.5,289.833 250.5,291.5C 244.5,296.833 238.833,302.5 233.5,308.5C 231.833,308.5 230.167,308.5 228.5,308.5C 235.5,300.833 242.833,293.5 250.5,286.5 Z"/></g>
<g><path style="opacity:0.022" fill="#43443f" d="M 511.5,305.5 C 511.5,307.167 511.5,308.833 511.5,310.5C 486.833,334.5 462.5,358.833 438.5,383.5C 436.833,383.5 435.167,383.5 433.5,383.5C 459.167,357.167 485.167,331.167 511.5,305.5 Z"/></g>
<g><path style="opacity:0.021" fill="#43443f" d="M 250.5,306.5 C 250.5,307.167 250.5,307.833 250.5,308.5C 249.833,308.5 249.167,308.5 248.5,308.5C 248.833,307.5 249.5,306.833 250.5,306.5 Z"/></g>
<g><path style="opacity:0.986" fill="#c2d82e" d="M 48.5,308.5 C 50.1667,308.5 51.8333,308.5 53.5,308.5C 58.5,308.5 63.5,308.5 68.5,308.5C 70.1667,308.5 71.8333,308.5 73.5,308.5C 78.5,308.5 83.5,308.5 88.5,308.5C 90.1667,308.5 91.8333,308.5 93.5,308.5C 98.5,308.5 103.5,308.5 108.5,308.5C 110.167,308.5 111.833,308.5 113.5,308.5C 118.5,308.5 123.5,308.5 128.5,308.5C 130.167,308.5 131.833,308.5 133.5,308.5C 138.5,308.5 143.5,308.5 148.5,308.5C 150.167,308.5 151.833,308.5 153.5,308.5C 158.5,308.5 163.5,308.5 168.5,308.5C 170.167,308.5 171.833,308.5 173.5,308.5C 178.5,308.5 183.5,308.5 188.5,308.5C 190.167,308.5 191.833,308.5 193.5,308.5C 198.5,308.5 203.5,308.5 208.5,308.5C 210.167,308.5 211.833,308.5 213.5,308.5C 218.5,308.5 223.5,308.5 228.5,308.5C 230.167,308.5 231.833,308.5 233.5,308.5C 238.5,308.5 243.5,308.5 248.5,308.5C 249.167,308.5 249.833,308.5 250.5,308.5C 250.5,322.833 250.5,337.167 250.5,351.5C 250.167,351.5 249.833,351.5 249.5,351.5C 247.833,351.5 246.167,351.5 244.5,351.5C 239.5,351.5 234.5,351.5 229.5,351.5C 227.833,351.5 226.167,351.5 224.5,351.5C 219.5,351.5 214.5,351.5 209.5,351.5C 207.833,351.5 206.167,351.5 204.5,351.5C 199.5,351.5 194.5,351.5 189.5,351.5C 187.833,351.5 186.167,351.5 184.5,351.5C 179.5,351.5 174.5,351.5 169.5,351.5C 167.833,351.5 166.167,351.5 164.5,351.5C 159.5,351.5 154.5,351.5 149.5,351.5C 147.833,351.5 146.167,351.5 144.5,351.5C 139.5,351.5 134.5,351.5 129.5,351.5C 127.833,351.5 126.167,351.5 124.5,351.5C 119.5,351.5 114.5,351.5 109.5,351.5C 107.833,351.5 106.167,351.5 104.5,351.5C 99.5,351.5 94.5,351.5 89.5,351.5C 87.8333,351.5 86.1667,351.5 84.5,351.5C 79.5,351.5 74.5,351.5 69.5,351.5C 67.8333,351.5 66.1667,351.5 64.5,351.5C 59.5,351.5 54.5,351.5 49.5,351.5C 47.8333,351.5 46.1667,351.5 44.5,351.5C 43.5,351.5 42.5,351.5 41.5,351.5C 41.5,347.833 41.5,344.167 41.5,340.5C 41.5,338.833 41.5,337.167 41.5,335.5C 41.5,330.5 41.5,325.5 41.5,320.5C 41.5,318.833 41.5,317.167 41.5,315.5C 41.5,313.167 41.5,310.833 41.5,308.5C 43.8333,308.5 46.1667,308.5 48.5,308.5 Z"/></g>
<g><path style="opacity:0.993" fill="#c2d82e" d="M 260.5,308.5 C 263.167,308.5 265.833,308.5 268.5,308.5C 270.167,308.5 271.833,308.5 273.5,308.5C 278.5,308.5 283.5,308.5 288.5,308.5C 290.167,308.5 291.833,308.5 293.5,308.5C 298.5,308.5 303.5,308.5 308.5,308.5C 310.167,308.5 311.833,308.5 313.5,308.5C 318.5,308.5 323.5,308.5 328.5,308.5C 330.167,308.5 331.833,308.5 333.5,308.5C 335.833,308.5 338.167,308.5 340.5,308.5C 340.5,310.833 340.5,313.167 340.5,315.5C 340.5,317.167 340.5,318.833 340.5,320.5C 340.5,325.5 340.5,330.5 340.5,335.5C 340.5,337.167 340.5,338.833 340.5,340.5C 340.5,344.167 340.5,347.833 340.5,351.5C 336.833,351.5 333.167,351.5 329.5,351.5C 327.833,351.5 326.167,351.5 324.5,351.5C 319.5,351.5 314.5,351.5 309.5,351.5C 307.833,351.5 306.167,351.5 304.5,351.5C 299.5,351.5 294.5,351.5 289.5,351.5C 287.833,351.5 286.167,351.5 284.5,351.5C 279.5,351.5 274.5,351.5 269.5,351.5C 267.833,351.5 266.167,351.5 264.5,351.5C 263.167,351.5 261.833,351.5 260.5,351.5C 260.5,337.167 260.5,322.833 260.5,308.5 Z"/></g>
<g><path style="opacity:0.022" fill="#43443f" d="M 41.5,315.5 C 41.5,317.167 41.5,318.833 41.5,320.5C 27.5,334.167 13.5,347.833 -0.5,361.5C -0.5,359.833 -0.5,358.167 -0.5,356.5C 13.5,342.833 27.5,329.167 41.5,315.5 Z"/></g>
<g><path style="opacity:0.022" fill="#43443f" d="M 511.5,325.5 C 511.5,327.167 511.5,328.833 511.5,330.5C 493.5,347.833 475.833,365.5 458.5,383.5C 456.833,383.5 455.167,383.5 453.5,383.5C 472.5,363.833 491.833,344.5 511.5,325.5 Z"/></g>
<g><path style="opacity:0.022" fill="#43443f" d="M 41.5,335.5 C 41.5,337.167 41.5,338.833 41.5,340.5C 27.5,354.167 13.5,367.833 -0.5,381.5C -0.5,379.833 -0.5,378.167 -0.5,376.5C 13.5,362.833 27.5,349.167 41.5,335.5 Z"/></g>
<g><path style="opacity:0.022" fill="#43443f" d="M 511.5,345.5 C 511.5,347.167 511.5,348.833 511.5,350.5C 497.5,364.167 483.5,377.833 469.5,391.5C 469.5,389.833 469.5,388.167 469.5,386.5C 483.5,372.833 497.5,359.167 511.5,345.5 Z"/></g>
<g><path style="opacity:0.022" fill="#43443f" d="M 44.5,351.5 C 46.1667,351.5 47.8333,351.5 49.5,351.5C 33.1667,368.5 16.5,385.167 -0.5,401.5C -0.5,399.833 -0.5,398.167 -0.5,396.5C 14.8333,381.833 29.8333,366.833 44.5,351.5 Z"/></g>
<g><path style="opacity:0.022" fill="#43443f" d="M 64.5,351.5 C 66.1667,351.5 67.8333,351.5 69.5,351.5C 46.5,375.167 23.1667,398.5 -0.5,421.5C -0.5,419.833 -0.5,418.167 -0.5,416.5C 21.5,395.167 43.1667,373.5 64.5,351.5 Z"/></g>
<g><path style="opacity:0.022" fill="#43443f" d="M 84.5,351.5 C 86.1667,351.5 87.8333,351.5 89.5,351.5C 59.8333,381.833 29.8333,411.833 -0.5,441.5C -0.5,439.833 -0.5,438.167 -0.5,436.5C 28.1667,408.5 56.5,380.167 84.5,351.5 Z"/></g>
<g><path style="opacity:0.022" fill="#43443f" d="M 104.5,351.5 C 106.167,351.5 107.833,351.5 109.5,351.5C 73.1667,388.5 36.5,425.167 -0.5,461.5C -0.5,459.833 -0.5,458.167 -0.5,456.5C 34.8333,421.833 69.8333,386.833 104.5,351.5 Z"/></g>
<g><path style="opacity:0.022" fill="#43443f" d="M 124.5,351.5 C 126.167,351.5 127.833,351.5 129.5,351.5C 86.5,395.167 43.1667,438.5 -0.5,481.5C -0.5,479.833 -0.5,478.167 -0.5,476.5C 41.5,435.167 83.1667,393.5 124.5,351.5 Z"/></g>
<g><path style="opacity:0.022" fill="#43443f" d="M 144.5,351.5 C 146.167,351.5 147.833,351.5 149.5,351.5C 99.8333,401.833 49.8333,451.833 -0.5,501.5C -0.5,499.833 -0.5,498.167 -0.5,496.5C 48.1667,448.5 96.5,400.167 144.5,351.5 Z"/></g>
<g><path style="opacity:0.022" fill="#43443f" d="M 164.5,351.5 C 166.167,351.5 167.833,351.5 169.5,351.5C 116.5,404.833 63.5,458.167 10.5,511.5C 8.83333,511.5 7.16667,511.5 5.5,511.5C 58.5,458.167 111.5,404.833 164.5,351.5 Z"/></g>
<g><path style="opacity:0.022" fill="#43443f" d="M 184.5,351.5 C 186.167,351.5 187.833,351.5 189.5,351.5C 136.5,404.833 83.5,458.167 30.5,511.5C 28.8333,511.5 27.1667,511.5 25.5,511.5C 78.5,458.167 131.5,404.833 184.5,351.5 Z"/></g>
<g><path style="opacity:0.022" fill="#43443f" d="M 204.5,351.5 C 206.167,351.5 207.833,351.5 209.5,351.5C 156.5,404.833 103.5,458.167 50.5,511.5C 48.8333,511.5 47.1667,511.5 45.5,511.5C 98.5,458.167 151.5,404.833 204.5,351.5 Z"/></g>
<g><path style="opacity:0.022" fill="#43443f" d="M 224.5,351.5 C 226.167,351.5 227.833,351.5 229.5,351.5C 176.5,404.833 123.5,458.167 70.5,511.5C 68.8333,511.5 67.1667,511.5 65.5,511.5C 118.5,458.167 171.5,404.833 224.5,351.5 Z"/></g>
<g><path style="opacity:0.022" fill="#43443f" d="M 244.5,351.5 C 246.167,351.5 247.833,351.5 249.5,351.5C 239.167,362.167 228.833,372.833 218.5,383.5C 216.833,383.5 215.167,383.5 213.5,383.5C 223.833,372.833 234.167,362.167 244.5,351.5 Z"/></g>
<g><path style="opacity:0.022" fill="#43443f" d="M 264.5,351.5 C 266.167,351.5 267.833,351.5 269.5,351.5C 266.833,354.833 263.833,357.833 260.5,360.5C 260.5,358.833 260.5,357.167 260.5,355.5C 262.167,354.5 263.5,353.167 264.5,351.5 Z"/></g>
<g><path style="opacity:0.022" fill="#43443f" d="M 284.5,351.5 C 286.167,351.5 287.833,351.5 289.5,351.5C 280.167,361.5 270.5,371.167 260.5,380.5C 260.5,378.833 260.5,377.167 260.5,375.5C 268.833,367.833 276.833,359.833 284.5,351.5 Z"/></g>
<g><path style="opacity:0.022" fill="#43443f" d="M 304.5,351.5 C 306.167,351.5 307.833,351.5 309.5,351.5C 299.167,362.167 288.833,372.833 278.5,383.5C 276.833,383.5 275.167,383.5 273.5,383.5C 283.833,372.833 294.167,362.167 304.5,351.5 Z"/></g>
<g><path style="opacity:0.022" fill="#43443f" d="M 324.5,351.5 C 326.167,351.5 327.833,351.5 329.5,351.5C 319.167,362.167 308.833,372.833 298.5,383.5C 296.833,383.5 295.167,383.5 293.5,383.5C 303.833,372.833 314.167,362.167 324.5,351.5 Z"/></g>
<g><path style="opacity:0.022" fill="#43443f" d="M 511.5,365.5 C 511.5,367.167 511.5,368.833 511.5,370.5C 497.5,384.167 483.5,397.833 469.5,411.5C 469.5,409.833 469.5,408.167 469.5,406.5C 483.5,392.833 497.5,379.167 511.5,365.5 Z"/></g>
<g><path style="opacity:0.022" fill="#43443f" d="M 250.5,366.5 C 250.5,368.167 250.5,369.833 250.5,371.5C 246.167,375.167 242.167,379.167 238.5,383.5C 236.833,383.5 235.167,383.5 233.5,383.5C 238.833,377.5 244.5,371.833 250.5,366.5 Z"/></g>
<g><path style="opacity:1" fill="#c2d82e" d="M 213.5,383.5 C 215.167,383.5 216.833,383.5 218.5,383.5C 223.5,383.5 228.5,383.5 233.5,383.5C 235.167,383.5 236.833,383.5 238.5,383.5C 242.5,383.5 246.5,383.5 250.5,383.5C 250.5,397.833 250.5,412.167 250.5,426.5C 250.167,426.5 249.833,426.5 249.5,426.5C 244.5,426.5 239.5,426.5 234.5,426.5C 232.833,426.5 231.167,426.5 229.5,426.5C 224.5,426.5 219.5,426.5 214.5,426.5C 213.209,426.737 212.209,426.404 211.5,425.5C 211.5,420.5 211.5,415.5 211.5,410.5C 211.5,408.833 211.5,407.167 211.5,405.5C 211.5,400.5 211.5,395.5 211.5,390.5C 211.5,388.833 211.5,387.167 211.5,385.5C 211.5,384.167 212.167,383.5 213.5,383.5 Z"/></g>
<g><path style="opacity:0.992" fill="#c2d82e" d="M 260.5,383.5 C 264.833,383.5 269.167,383.5 273.5,383.5C 275.167,383.5 276.833,383.5 278.5,383.5C 283.5,383.5 288.5,383.5 293.5,383.5C 295.167,383.5 296.833,383.5 298.5,383.5C 303.5,383.5 308.5,383.5 313.5,383.5C 315.167,383.5 316.833,383.5 318.5,383.5C 323.5,383.5 328.5,383.5 333.5,383.5C 335.167,383.5 336.833,383.5 338.5,383.5C 343.5,383.5 348.5,383.5 353.5,383.5C 355.167,383.5 356.833,383.5 358.5,383.5C 363.5,383.5 368.5,383.5 373.5,383.5C 375.167,383.5 376.833,383.5 378.5,383.5C 383.5,383.5 388.5,383.5 393.5,383.5C 395.167,383.5 396.833,383.5 398.5,383.5C 403.5,383.5 408.5,383.5 413.5,383.5C 415.167,383.5 416.833,383.5 418.5,383.5C 423.5,383.5 428.5,383.5 433.5,383.5C 435.167,383.5 436.833,383.5 438.5,383.5C 443.5,383.5 448.5,383.5 453.5,383.5C 455.167,383.5 456.833,383.5 458.5,383.5C 462.167,383.5 465.833,383.5 469.5,383.5C 469.5,384.5 469.5,385.5 469.5,386.5C 469.5,388.167 469.5,389.833 469.5,391.5C 469.5,396.5 469.5,401.5 469.5,406.5C 469.5,408.167 469.5,409.833 469.5,411.5C 469.5,416.5 469.5,421.5 469.5,426.5C 464.5,426.5 459.5,426.5 454.5,426.5C 452.833,426.5 451.167,426.5 449.5,426.5C 444.5,426.5 439.5,426.5 434.5,426.5C 432.833,426.5 431.167,426.5 429.5,426.5C 424.5,426.5 419.5,426.5 414.5,426.5C 412.833,426.5 411.167,426.5 409.5,426.5C 404.5,426.5 399.5,426.5 394.5,426.5C 392.833,426.5 391.167,426.5 389.5,426.5C 384.5,426.5 379.5,426.5 374.5,426.5C 372.833,426.5 371.167,426.5 369.5,426.5C 364.5,426.5 359.5,426.5 354.5,426.5C 352.833,426.5 351.167,426.5 349.5,426.5C 344.5,426.5 339.5,426.5 334.5,426.5C 332.833,426.5 331.167,426.5 329.5,426.5C 324.5,426.5 319.5,426.5 314.5,426.5C 312.833,426.5 311.167,426.5 309.5,426.5C 304.5,426.5 299.5,426.5 294.5,426.5C 292.833,426.5 291.167,426.5 289.5,426.5C 284.5,426.5 279.5,426.5 274.5,426.5C 272.833,426.5 271.167,426.5 269.5,426.5C 266.5,426.5 263.5,426.5 260.5,426.5C 260.5,412.167 260.5,397.833 260.5,383.5 Z"/></g>
<g><path style="opacity:0.022" fill="#43443f" d="M 211.5,385.5 C 211.5,387.167 211.5,388.833 211.5,390.5C 170.833,430.5 130.5,470.833 90.5,511.5C 88.8333,511.5 87.1667,511.5 85.5,511.5C 127.167,469.167 169.167,427.167 211.5,385.5 Z"/></g>
<g><path style="opacity:0.022" fill="#43443f" d="M 511.5,385.5 C 511.5,387.167 511.5,388.833 511.5,390.5C 470.833,430.5 430.5,470.833 390.5,511.5C 388.833,511.5 387.167,511.5 385.5,511.5C 413.5,483.167 441.5,454.833 469.5,426.5C 483.5,412.833 497.5,399.167 511.5,385.5 Z"/></g>
<g><path style="opacity:0.022" fill="#43443f" d="M 211.5,405.5 C 211.5,407.167 211.5,408.833 211.5,410.5C 177.5,443.833 143.833,477.5 110.5,511.5C 108.833,511.5 107.167,511.5 105.5,511.5C 140.5,475.833 175.833,440.5 211.5,405.5 Z"/></g>
<g><path style="opacity:0.022" fill="#43443f" d="M 511.5,405.5 C 511.5,407.167 511.5,408.833 511.5,410.5C 477.5,443.833 443.833,477.5 410.5,511.5C 408.833,511.5 407.167,511.5 405.5,511.5C 440.5,475.833 475.833,440.5 511.5,405.5 Z"/></g>
<g><path style="opacity:0.022" fill="#43443f" d="M 211.5,425.5 C 212.209,426.404 213.209,426.737 214.5,426.5C 186.5,454.833 158.5,483.167 130.5,511.5C 128.833,511.5 127.167,511.5 125.5,511.5C 153.833,482.5 182.5,453.833 211.5,425.5 Z"/></g>
<g><path style="opacity:0.022" fill="#43443f" d="M 511.5,425.5 C 511.5,427.167 511.5,428.833 511.5,430.5C 484.167,457.167 457.167,484.167 430.5,511.5C 428.833,511.5 427.167,511.5 425.5,511.5C 453.833,482.5 482.5,453.833 511.5,425.5 Z"/></g>
<g><path style="opacity:0.022" fill="#43443f" d="M 229.5,426.5 C 231.167,426.5 232.833,426.5 234.5,426.5C 206.5,454.833 178.5,483.167 150.5,511.5C 148.833,511.5 147.167,511.5 145.5,511.5C 173.5,483.167 201.5,454.833 229.5,426.5 Z"/></g>
<g><path style="opacity:0.022" fill="#43443f" d="M 249.5,426.5 C 249.833,426.5 250.167,426.5 250.5,426.5C 250.5,428.167 250.5,429.833 250.5,431.5C 223.5,457.833 196.833,484.5 170.5,511.5C 168.833,511.5 167.167,511.5 165.5,511.5C 193.5,483.167 221.5,454.833 249.5,426.5 Z"/></g>
<g><path style="opacity:0.022" fill="#43443f" d="M 269.5,426.5 C 271.167,426.5 272.833,426.5 274.5,426.5C 270.167,431.5 265.5,436.167 260.5,440.5C 260.5,438.833 260.5,437.167 260.5,435.5C 263.833,432.833 266.833,429.833 269.5,426.5 Z"/></g>
<g><path style="opacity:0.022" fill="#43443f" d="M 289.5,426.5 C 291.167,426.5 292.833,426.5 294.5,426.5C 283.5,438.167 272.167,449.5 260.5,460.5C 260.5,458.833 260.5,457.167 260.5,455.5C 270.5,446.167 280.167,436.5 289.5,426.5 Z"/></g>
<g><path style="opacity:0.022" fill="#43443f" d="M 309.5,426.5 C 311.167,426.5 312.833,426.5 314.5,426.5C 286.5,454.833 258.5,483.167 230.5,511.5C 228.833,511.5 227.167,511.5 225.5,511.5C 253.5,483.167 281.5,454.833 309.5,426.5 Z"/></g>
<g><path style="opacity:0.022" fill="#43443f" d="M 329.5,426.5 C 331.167,426.5 332.833,426.5 334.5,426.5C 306.5,454.833 278.5,483.167 250.5,511.5C 248.833,511.5 247.167,511.5 245.5,511.5C 273.5,483.167 301.5,454.833 329.5,426.5 Z"/></g>
<g><path style="opacity:0.022" fill="#43443f" d="M 349.5,426.5 C 351.167,426.5 352.833,426.5 354.5,426.5C 326.5,454.833 298.5,483.167 270.5,511.5C 268.833,511.5 267.167,511.5 265.5,511.5C 293.5,483.167 321.5,454.833 349.5,426.5 Z"/></g>
<g><path style="opacity:0.022" fill="#43443f" d="M 369.5,426.5 C 371.167,426.5 372.833,426.5 374.5,426.5C 346.5,454.833 318.5,483.167 290.5,511.5C 288.833,511.5 287.167,511.5 285.5,511.5C 313.5,483.167 341.5,454.833 369.5,426.5 Z"/></g>
<g><path style="opacity:0.022" fill="#43443f" d="M 389.5,426.5 C 391.167,426.5 392.833,426.5 394.5,426.5C 366.5,454.833 338.5,483.167 310.5,511.5C 308.833,511.5 307.167,511.5 305.5,511.5C 333.5,483.167 361.5,454.833 389.5,426.5 Z"/></g>
<g><path style="opacity:0.022" fill="#43443f" d="M 409.5,426.5 C 411.167,426.5 412.833,426.5 414.5,426.5C 386.5,454.833 358.5,483.167 330.5,511.5C 328.833,511.5 327.167,511.5 325.5,511.5C 353.5,483.167 381.5,454.833 409.5,426.5 Z"/></g>
<g><path style="opacity:0.022" fill="#43443f" d="M 429.5,426.5 C 431.167,426.5 432.833,426.5 434.5,426.5C 406.5,454.833 378.5,483.167 350.5,511.5C 348.833,511.5 347.167,511.5 345.5,511.5C 373.5,483.167 401.5,454.833 429.5,426.5 Z"/></g>
<g><path style="opacity:0.022" fill="#43443f" d="M 449.5,426.5 C 451.167,426.5 452.833,426.5 454.5,426.5C 426.5,454.833 398.5,483.167 370.5,511.5C 368.833,511.5 367.167,511.5 365.5,511.5C 393.5,483.167 421.5,454.833 449.5,426.5 Z"/></g>
<g><path style="opacity:0.022" fill="#43443f" d="M 511.5,445.5 C 511.5,447.167 511.5,448.833 511.5,450.5C 490.833,470.5 470.5,490.833 450.5,511.5C 448.833,511.5 447.167,511.5 445.5,511.5C 467.167,489.167 489.167,467.167 511.5,445.5 Z"/></g>
<g><path style="opacity:0.022" fill="#43443f" d="M 250.5,446.5 C 250.5,448.167 250.5,449.833 250.5,451.5C 230.167,471.167 210.167,491.167 190.5,511.5C 188.833,511.5 187.167,511.5 185.5,511.5C 206.833,489.5 228.5,467.833 250.5,446.5 Z"/></g>
<g><path style="opacity:0.022" fill="#43443f" d="M 511.5,465.5 C 511.5,467.167 511.5,468.833 511.5,470.5C 497.5,483.833 483.833,497.5 470.5,511.5C 468.833,511.5 467.167,511.5 465.5,511.5C 480.5,495.833 495.833,480.5 511.5,465.5 Z"/></g>
<g><path style="opacity:0.022" fill="#43443f" d="M 250.5,466.5 C 250.263,467.791 250.596,468.791 251.5,469.5C 237.833,483.5 224.167,497.5 210.5,511.5C 208.833,511.5 207.167,511.5 205.5,511.5C 220.167,496.167 235.167,481.167 250.5,466.5 Z"/></g>
<g><path style="opacity:0.022" fill="#43443f" d="M 511.5,485.5 C 511.5,487.167 511.5,488.833 511.5,490.5C 504.167,497.167 497.167,504.167 490.5,511.5C 488.833,511.5 487.167,511.5 485.5,511.5C 493.833,502.5 502.5,493.833 511.5,485.5 Z"/></g>
<g><path style="opacity:0.022" fill="#43443f" d="M 511.5,505.5 C 511.5,507.167 511.5,508.833 511.5,510.5C 510.833,510.5 510.5,510.833 510.5,511.5C 508.833,511.5 507.167,511.5 505.5,511.5C 507.167,509.167 509.167,507.167 511.5,505.5 Z"/></g>
</svg>
