<?xml version="1.0" ?><svg id="Слой_1" style="enable-background:new 0 0 512 512;" version="1.1" viewBox="0 0 512 512" xml:space="preserve" xmlns="http://www.w3.org/2000/svg" xmlns:xlink="http://www.w3.org/1999/xlink"><style type="text/css">
	.st0{fill:#c2d82e;stroke:#FFFFFF;stroke-width:0;stroke-linecap:round;stroke-linejoin:round;stroke-miterlimit:10;}
	.st1{fill:#ddd;stroke:#FFFFFF;stroke-width:0;stroke-linecap:round;stroke-linejoin:round;stroke-miterlimit:10;}
	.st2{fill:#555;stroke:#FFFFFF;stroke-width:0;stroke-linecap:round;stroke-linejoin:round;stroke-miterlimit:10;}
</style><g><path class="st0" d="M254.5,14C121.1,14,13,122.1,13,255.5S121.1,497,254.5,497S496,388.9,496,255.5S387.9,14,254.5,14z    M254.5,431.9c-97.4,0-176.4-79-176.4-176.4s79-176.4,176.4-176.4c97.4,0,176.4,79,176.4,176.4S351.9,431.9,254.5,431.9z"/><path class="st1" d="M121.3,140c32.3-37.6,80.3-61.4,133.7-61.4c16.1,0,31.7,2.2,46.5,6.2L328,25.4C304.9,18,280.5,13.5,255,13.5   c-76.9,0-145.3,35.9-189.6,91.9L121.3,140z"/><path class="st2" d="M399.7,357.2c-31.9,45.2-84.6,74.7-144.1,74.7c-49.8,0-95.5-20.4-127.6-53.5l-58.7,30.8   c44.3,53.6,111.3,87.8,186.3,87.8c88.9,0,165.7-48.3,207.7-119.9L399.7,357.2z"/></g></svg>