<?xml version="1.0" encoding="UTF-8"?>
<!DOCTYPE svg PUBLIC "-//W3C//DTD SVG 1.1//EN" "http://www.w3.org/Graphics/SVG/1.1/DTD/svg11.dtd">
<svg xmlns="http://www.w3.org/2000/svg" version="1.1" width="256px" height="256px" style="shape-rendering:geometricPrecision; text-rendering:geometricPrecision; image-rendering:optimizeQuality; fill-rule:evenodd; clip-rule:evenodd" xmlns:xlink="http://www.w3.org/1999/xlink">
<g><path style="opacity:0.905" fill="#c2d82e" d="M 2.5,-0.5 C 4.83333,-0.5 7.16667,-0.5 9.5,-0.5C 11.1436,0.316435 12.3103,1.64977 13,3.5C 13.5,82.8326 13.6667,162.166 13.5,241.5C 92.5007,241.333 171.501,241.5 250.5,242C 252.907,242.257 254.573,243.424 255.5,245.5C 255.5,247.5 255.5,249.5 255.5,251.5C 254.5,253.167 253.167,254.5 251.5,255.5C 170.167,255.5 88.8333,255.5 7.5,255.5C 4.5,253.167 1.83333,250.5 -0.5,247.5C -0.5,166.167 -0.5,84.8333 -0.5,3.5C 0.488369,2.20498 1.48837,0.871651 2.5,-0.5 Z"/></g>
<g><path style="opacity:0.83" fill="#c2d82e" d="M 200.5,43.5 C 208.987,42.4964 212.487,46.1631 211,54.5C 193.5,84.8333 176,115.167 158.5,145.5C 155.792,147.436 152.792,147.936 149.5,147C 134.589,139.628 119.756,132.128 105,124.5C 88.7975,153.744 71.9642,182.577 54.5,211C 44.5066,212.206 41.3399,208.039 45,198.5C 62.2528,168.996 79.2528,139.33 96,109.5C 98.9172,107.607 102.084,107.107 105.5,108C 120.411,115.372 135.244,122.872 150,130.5C 166.34,101.145 183.173,72.145 200.5,43.5 Z"/></g>
</svg>
