<?xml version="1.0" encoding="UTF-8"?>
<!DOCTYPE svg PUBLIC "-//W3C//DTD SVG 1.1//EN" "http://www.w3.org/Graphics/SVG/1.1/DTD/svg11.dtd">
<svg xmlns="http://www.w3.org/2000/svg" version="1.1" width="256px" height="256px" style="shape-rendering:geometricPrecision; text-rendering:geometricPrecision; image-rendering:optimizeQuality; fill-rule:evenodd; clip-rule:evenodd" xmlns:xlink="http://www.w3.org/1999/xlink">
<g><path style="opacity:0.021" fill="#43443f" d="M -0.5,-0.5 C 0.166667,-0.5 0.833333,-0.5 1.5,-0.5C 1.16667,0.5 0.5,1.16667 -0.5,1.5C -0.5,0.833333 -0.5,0.166667 -0.5,-0.5 Z"/></g>
<g><path style="opacity:0.022" fill="#43443f" d="M 16.5,-0.5 C 18.1667,-0.5 19.8333,-0.5 21.5,-0.5C 14.5,7.16667 7.16667,14.5 -0.5,21.5C -0.5,19.8333 -0.5,18.1667 -0.5,16.5C 5.5,11.1667 11.1667,5.5 16.5,-0.5 Z"/></g>
<g><path style="opacity:0.022" fill="#43443f" d="M 36.5,-0.5 C 38.1667,-0.5 39.8333,-0.5 41.5,-0.5C 27.8333,13.8333 13.8333,27.8333 -0.5,41.5C -0.5,39.8333 -0.5,38.1667 -0.5,36.5C 12.1667,24.5 24.5,12.1667 36.5,-0.5 Z"/></g>
<g><path style="opacity:0.022" fill="#43443f" d="M 56.5,-0.5 C 58.1667,-0.5 59.8333,-0.5 61.5,-0.5C 50.1667,11.1667 38.8333,22.8333 27.5,34.5C 25.8333,33.1667 24.1667,33.1667 22.5,34.5C 33.8333,22.8333 45.1667,11.1667 56.5,-0.5 Z"/></g>
<g><path style="opacity:0.022" fill="#43443f" d="M 76.5,-0.5 C 78.1667,-0.5 79.8333,-0.5 81.5,-0.5C 64.1667,17.5 46.5,35.1667 28.5,52.5C 28.5,50.8333 28.5,49.1667 28.5,47.5C 44.8333,31.8333 60.8333,15.8333 76.5,-0.5 Z"/></g>
<g><path style="opacity:0.022" fill="#43443f" d="M 96.5,-0.5 C 98.1667,-0.5 99.8333,-0.5 101.5,-0.5C 77.5,24.1667 53.1667,48.5 28.5,72.5C 28.5,70.8333 28.5,69.1667 28.5,67.5C 51.5,45.1667 74.1667,22.5 96.5,-0.5 Z"/></g>
<g><path style="opacity:0.022" fill="#43443f" d="M 116.5,-0.5 C 118.167,-0.5 119.833,-0.5 121.5,-0.5C 90.8333,30.8333 59.8333,61.8333 28.5,92.5C 28.5,90.8333 28.5,89.1667 28.5,87.5C 58.1667,58.5 87.5,29.1667 116.5,-0.5 Z"/></g>
<g><path style="opacity:0.022" fill="#43443f" d="M 136.5,-0.5 C 138.167,-0.5 139.833,-0.5 141.5,-0.5C 112.833,28.5 84.1667,57.5 55.5,86.5C 54.8333,86.5 54.5,86.8333 54.5,87.5C 53.8333,87.5 53.5,87.8333 53.5,88.5C 52.8333,88.5 52.5,88.8333 52.5,89.5C 51.8333,89.5 51.5,89.8333 51.5,90.5C 43.8333,97.8333 36.1667,105.167 28.5,112.5C 28.5,110.833 28.5,109.167 28.5,107.5C 64.8333,71.8333 100.833,35.8333 136.5,-0.5 Z"/></g>
<g><path style="opacity:0.022" fill="#43433f" d="M 156.5,-0.5 C 158.167,-0.5 159.833,-0.5 161.5,-0.5C 146.5,14.8333 131.5,30.1667 116.5,45.5C 115.292,44.7659 113.959,44.4326 112.5,44.5C 127.167,29.5 141.833,14.5 156.5,-0.5 Z"/></g>
<g><path style="opacity:0.022" fill="#43443f" d="M 176.5,-0.5 C 178.167,-0.5 179.833,-0.5 181.5,-0.5C 163.167,18.1667 144.833,36.8333 126.5,55.5C 125.655,54.3285 124.989,52.9952 124.5,51.5C 142.167,34.5 159.5,17.1667 176.5,-0.5 Z"/></g>
<g><path style="opacity:0.022" fill="#43443f" d="M 196.5,-0.5 C 198.167,-0.5 199.833,-0.5 201.5,-0.5C 173.5,28.1667 145.167,56.5 116.5,84.5C 114.901,84.7678 113.568,84.4345 112.5,83.5C 115.167,81.5 117.5,79.1667 119.5,76.5C 120.167,76.5 120.5,76.1667 120.5,75.5C 121.167,75.5 121.5,75.1667 121.5,74.5C 122.167,74.5 122.5,74.1667 122.5,73.5C 123.167,73.5 123.5,73.1667 123.5,72.5C 124.167,72.5 124.5,72.1667 124.5,71.5C 148.833,47.8333 172.833,23.8333 196.5,-0.5 Z"/></g>
<g><path style="opacity:0.022" fill="#43433f" d="M 216.5,-0.5 C 218.167,-0.5 219.833,-0.5 221.5,-0.5C 189.833,31.5 158.167,63.5 126.5,95.5C 125.655,94.3285 124.989,92.9952 124.5,91.5C 155.5,61.1667 186.167,30.5 216.5,-0.5 Z"/></g>
<g><path style="opacity:0.022" fill="#43433f" d="M 236.5,-0.5 C 238.167,-0.5 239.833,-0.5 241.5,-0.5C 200.167,41.5 158.5,83.1667 116.5,124.5C 114.901,124.768 113.568,124.434 112.5,123.5C 115.167,121.5 117.5,119.167 119.5,116.5C 120.167,116.5 120.5,116.167 120.5,115.5C 121.167,115.5 121.5,115.167 121.5,114.5C 122.167,114.5 122.5,114.167 122.5,113.5C 123.167,113.5 123.5,113.167 123.5,112.5C 124.167,112.5 124.5,112.167 124.5,111.5C 162.167,74.5 199.5,37.1667 236.5,-0.5 Z"/></g>
<g><path style="opacity:0.022" fill="#43433f" d="M 255.5,1.5 C 255.5,3.16667 255.5,4.83333 255.5,6.5C 212.167,49.1667 169.167,92.1667 126.5,135.5C 125.655,134.329 124.989,132.995 124.5,131.5C 168.167,88.1667 211.833,44.8333 255.5,1.5 Z"/></g>
<g><path style="opacity:0.022" fill="#43433f" d="M 255.5,21.5 C 255.5,23.1667 255.5,24.8333 255.5,26.5C 236.167,45.1667 217.167,64.1667 198.5,83.5C 196.435,83.5172 194.435,83.8505 192.5,84.5C 213.167,63.1667 234.167,42.1667 255.5,21.5 Z"/></g>
<g><path style="opacity:0.863" fill="#c2d82e" d="M 27.5,34.5 C 28.436,38.7352 28.7693,43.0685 28.5,47.5C 28.5,49.1667 28.5,50.8333 28.5,52.5C 28.5,57.5 28.5,62.5 28.5,67.5C 28.5,69.1667 28.5,70.8333 28.5,72.5C 28.5,77.5 28.5,82.5 28.5,87.5C 28.5,89.1667 28.5,90.8333 28.5,92.5C 28.5,97.5 28.5,102.5 28.5,107.5C 28.5,109.167 28.5,110.833 28.5,112.5C 28.5,117.5 28.5,122.5 28.5,127.5C 28.5,129.167 28.5,130.833 28.5,132.5C 28.5,137.5 28.5,142.5 28.5,147.5C 28.5,149.167 28.5,150.833 28.5,152.5C 28.5,157.5 28.5,162.5 28.5,167.5C 28.5,169.167 28.5,170.833 28.5,172.5C 28.5,177.5 28.5,182.5 28.5,187.5C 28.5,189.167 28.5,190.833 28.5,192.5C 28.5,197.5 28.5,202.5 28.5,207.5C 28.5,209.167 28.5,210.833 28.5,212.5C 33.3054,213.487 38.3054,213.821 43.5,213.5C 45.1667,213.5 46.8333,213.5 48.5,213.5C 53.5,213.5 58.5,213.5 63.5,213.5C 65.1667,213.5 66.8333,213.5 68.5,213.5C 73.5,213.5 78.5,213.5 83.5,213.5C 85.1667,213.5 86.8333,213.5 88.5,213.5C 93.5,213.5 98.5,213.5 103.5,213.5C 105.167,213.5 106.833,213.5 108.5,213.5C 113.5,213.5 118.5,213.5 123.5,213.5C 125.167,213.5 126.833,213.5 128.5,213.5C 133.5,213.5 138.5,213.5 143.5,213.5C 145.167,213.5 146.833,213.5 148.5,213.5C 153.5,213.5 158.5,213.5 163.5,213.5C 165.167,213.5 166.833,213.5 168.5,213.5C 173.5,213.5 178.5,213.5 183.5,213.5C 185.167,213.5 186.833,213.5 188.5,213.5C 193.5,213.5 198.5,213.5 203.5,213.5C 205.167,213.5 206.833,213.5 208.5,213.5C 213.5,213.5 218.5,213.5 223.5,213.5C 225.167,213.5 226.833,213.5 228.5,213.5C 232.976,213.8 234.31,215.967 232.5,220C 228.3,221.367 223.967,221.867 219.5,221.5C 217.833,221.5 216.167,221.5 214.5,221.5C 209.5,221.5 204.5,221.5 199.5,221.5C 197.833,221.5 196.167,221.5 194.5,221.5C 189.5,221.5 184.5,221.5 179.5,221.5C 177.833,221.5 176.167,221.5 174.5,221.5C 169.5,221.5 164.5,221.5 159.5,221.5C 157.833,221.5 156.167,221.5 154.5,221.5C 149.5,221.5 144.5,221.5 139.5,221.5C 137.833,221.5 136.167,221.5 134.5,221.5C 129.5,221.5 124.5,221.5 119.5,221.5C 117.833,221.5 116.167,221.5 114.5,221.5C 109.5,221.5 104.5,221.5 99.5,221.5C 97.8333,221.5 96.1667,221.5 94.5,221.5C 89.5,221.5 84.5,221.5 79.5,221.5C 77.8333,221.5 76.1667,221.5 74.5,221.5C 69.5,221.5 64.5,221.5 59.5,221.5C 57.8333,221.5 56.1667,221.5 54.5,221.5C 49.5,221.5 44.5,221.5 39.5,221.5C 37.8333,221.5 36.1667,221.5 34.5,221.5C 29.9289,221.946 25.5956,221.28 21.5,219.5C 21.5,218.167 21.5,216.833 21.5,215.5C 21.5,210.5 21.5,205.5 21.5,200.5C 21.5,198.833 21.5,197.167 21.5,195.5C 21.5,190.5 21.5,185.5 21.5,180.5C 21.5,178.833 21.5,177.167 21.5,175.5C 21.5,170.5 21.5,165.5 21.5,160.5C 21.5,158.833 21.5,157.167 21.5,155.5C 21.5,150.5 21.5,145.5 21.5,140.5C 21.5,138.833 21.5,137.167 21.5,135.5C 21.5,130.5 21.5,125.5 21.5,120.5C 21.5,118.833 21.5,117.167 21.5,115.5C 21.5,110.5 21.5,105.5 21.5,100.5C 21.5,98.8333 21.5,97.1667 21.5,95.5C 21.5,90.5 21.5,85.5 21.5,80.5C 21.5,78.8333 21.5,77.1667 21.5,75.5C 21.5,70.5 21.5,65.5 21.5,60.5C 21.5,58.8333 21.5,57.1667 21.5,55.5C 21.5,50.5 21.5,45.5 21.5,40.5C 21.5,38.8333 21.5,37.1667 21.5,35.5C 21.5,34.8333 21.8333,34.5 22.5,34.5C 24.1667,33.1667 25.8333,33.1667 27.5,34.5 Z"/></g>
<g><path style="opacity:0.022" fill="#43443f" d="M 21.5,35.5 C 21.5,37.1667 21.5,38.8333 21.5,40.5C 14.1667,47.5 6.83333,54.5 -0.5,61.5C -0.5,59.8333 -0.5,58.1667 -0.5,56.5C 6.83333,49.5 14.1667,42.5 21.5,35.5 Z"/></g>
<g><path style="opacity:0.022" fill="#43443f" d="M 255.5,41.5 C 255.5,43.1667 255.5,44.8333 255.5,46.5C 240.5,60.8333 225.833,75.5 211.5,90.5C 210.167,89.8333 209.167,88.8333 208.5,87.5C 224.167,72.1667 239.833,56.8333 255.5,41.5 Z"/></g>
<g><path style="opacity:0.937" fill="#c2d82e" d="M 112.5,44.5 C 113.959,44.4326 115.292,44.7659 116.5,45.5C 119.93,46.5416 122.597,48.5416 124.5,51.5C 124.989,52.9952 125.655,54.3285 126.5,55.5C 127.537,61.0003 126.87,66.3337 124.5,71.5C 123.833,71.5 123.5,71.8333 123.5,72.5C 122.833,72.5 122.5,72.8333 122.5,73.5C 121.833,73.5 121.5,73.8333 121.5,74.5C 120.833,74.5 120.5,74.8333 120.5,75.5C 119.833,75.5 119.5,75.8333 119.5,76.5C 114.237,78.5609 108.904,78.8943 103.5,77.5C 102.609,76.8902 101.609,76.5569 100.5,76.5C 97.4797,74.4768 95.1464,71.8102 93.5,68.5C 93.1667,67.1667 92.8333,65.8333 92.5,64.5C 91.8548,52.4718 97.5215,45.4718 109.5,43.5C 110.584,43.685 111.584,44.0183 112.5,44.5 Z"/></g>
<g><path style="opacity:0.022" fill="#43443f" d="M 21.5,55.5 C 21.5,57.1667 21.5,58.8333 21.5,60.5C 14.1667,67.5 6.83333,74.5 -0.5,81.5C -0.5,79.8333 -0.5,78.1667 -0.5,76.5C 6.83333,69.5 14.1667,62.5 21.5,55.5 Z"/></g>
<g><path style="opacity:0.022" fill="#43443f" d="M 255.5,61.5 C 255.5,63.1667 255.5,64.8333 255.5,66.5C 241.5,80.1667 227.5,93.8333 213.5,107.5C 213.517,105.435 213.85,103.435 214.5,101.5C 228.167,88.1667 241.833,74.8333 255.5,61.5 Z"/></g>
<g><path style="opacity:0.022" fill="#43443f" d="M 92.5,64.5 C 92.8333,65.8333 93.1667,67.1667 93.5,68.5C 87.1667,74.1667 81.1667,80.1667 75.5,86.5C 74.2905,86.0679 73.2905,85.4013 72.5,84.5C 78.8333,77.5 85.5,70.8333 92.5,64.5 Z"/></g>
<g><path style="opacity:0.022" fill="#43443f" d="M 21.5,75.5 C 21.5,77.1667 21.5,78.8333 21.5,80.5C 14.1667,87.5 6.83333,94.5 -0.5,101.5C -0.5,99.8333 -0.5,98.1667 -0.5,96.5C 6.83333,89.5 14.1667,82.5 21.5,75.5 Z"/></g>
<g><path style="opacity:0.022" fill="#43433f" d="M 100.5,76.5 C 101.609,76.5569 102.609,76.8902 103.5,77.5C 97.1667,84.5 90.5,91.1667 83.5,97.5C 82.5655,96.4324 82.2322,95.099 82.5,93.5C 88.5,87.8333 94.5,82.1667 100.5,76.5 Z"/></g>
<g><path style="opacity:0.022" fill="#43443f" d="M 255.5,81.5 C 255.5,83.1667 255.5,84.8333 255.5,86.5C 240.5,100.833 225.833,115.5 211.5,130.5C 210.167,129.833 209.167,128.833 208.5,127.5C 224.167,112.167 239.833,96.8333 255.5,81.5 Z"/></g>
<g><path style="opacity:0.935" fill="#c2d82e" d="M 72.5,84.5 C 73.2905,85.4013 74.2905,86.0679 75.5,86.5C 78.1939,88.5272 80.5272,90.8605 82.5,93.5C 82.2322,95.099 82.5655,96.4324 83.5,97.5C 84.1667,112.167 77.1667,119.167 62.5,118.5C 61.2921,117.766 59.9587,117.433 58.5,117.5C 55.8605,115.527 53.5272,113.194 51.5,110.5C 51.0679,109.29 50.4013,108.29 49.5,107.5C 47.9184,101.571 48.5851,95.9043 51.5,90.5C 52.1667,90.5 52.5,90.1667 52.5,89.5C 53.1667,89.5 53.5,89.1667 53.5,88.5C 54.1667,88.5 54.5,88.1667 54.5,87.5C 55.1667,87.5 55.5,87.1667 55.5,86.5C 60.9377,83.7597 66.6044,83.093 72.5,84.5 Z"/></g>
<g><path style="opacity:0.935" fill="#c2d82e" d="M 112.5,83.5 C 113.568,84.4345 114.901,84.7678 116.5,84.5C 119.582,86.3719 122.249,88.7052 124.5,91.5C 124.989,92.9952 125.655,94.3285 126.5,95.5C 127.537,101 126.87,106.334 124.5,111.5C 123.833,111.5 123.5,111.833 123.5,112.5C 122.833,112.5 122.5,112.833 122.5,113.5C 121.833,113.5 121.5,113.833 121.5,114.5C 120.833,114.5 120.5,114.833 120.5,115.5C 119.833,115.5 119.5,115.833 119.5,116.5C 114.237,118.561 108.904,118.894 103.5,117.5C 102.609,116.89 101.609,116.557 100.5,116.5C 97.4797,114.477 95.1464,111.81 93.5,108.5C 93.1667,107.167 92.8333,105.833 92.5,104.5C 92.3239,91.009 98.9906,84.009 112.5,83.5 Z"/></g>
<g><path style="opacity:0.944" fill="#c2d82e" d="M 198.5,83.5 C 202.049,84.2736 205.382,85.607 208.5,87.5C 209.167,88.8333 210.167,89.8333 211.5,90.5C 212.965,94.0244 213.965,97.691 214.5,101.5C 213.85,103.435 213.517,105.435 213.5,107.5C 211.167,111.833 207.833,115.167 203.5,117.5C 201.565,118.15 199.565,118.483 197.5,118.5C 193.536,118.511 189.869,117.511 186.5,115.5C 185.71,114.599 184.71,113.932 183.5,113.5C 181.317,110.136 179.984,106.47 179.5,102.5C 179.5,100.833 179.5,99.1667 179.5,97.5C 181.522,90.8109 185.856,86.4776 192.5,84.5C 194.435,83.8505 196.435,83.5172 198.5,83.5 Z"/></g>
<g><path style="opacity:0.022" fill="#43443f" d="M 21.5,95.5 C 21.5,97.1667 21.5,98.8333 21.5,100.5C 14.1667,107.5 6.83333,114.5 -0.5,121.5C -0.5,119.833 -0.5,118.167 -0.5,116.5C 6.83333,109.5 14.1667,102.5 21.5,95.5 Z"/></g>
<g><path style="opacity:0.022" fill="#43443f" d="M 179.5,97.5 C 179.5,99.1667 179.5,100.833 179.5,102.5C 171.833,109.5 164.5,116.833 157.5,124.5C 156.292,123.766 154.959,123.433 153.5,123.5C 161.833,114.5 170.5,105.833 179.5,97.5 Z"/></g>
<g><path style="opacity:0.022" fill="#43443f" d="M 255.5,101.5 C 255.5,103.167 255.5,104.833 255.5,106.5C 241.5,120.167 227.5,133.833 213.5,147.5C 213.517,145.435 213.85,143.435 214.5,141.5C 228.167,128.167 241.833,114.833 255.5,101.5 Z"/></g>
<g><path style="opacity:0.022" fill="#43433f" d="M 92.5,104.5 C 92.8333,105.833 93.1667,107.167 93.5,108.5C 87.1667,114.167 81.1667,120.167 75.5,126.5C 74.2905,126.068 73.2905,125.401 72.5,124.5C 78.8333,117.5 85.5,110.833 92.5,104.5 Z"/></g>
<g><path style="opacity:0.022" fill="#43433f" d="M 49.5,107.5 C 50.4013,108.29 51.0679,109.29 51.5,110.5C 43.8333,117.833 36.1667,125.167 28.5,132.5C 28.5,130.833 28.5,129.167 28.5,127.5C 35.5,120.833 42.5,114.167 49.5,107.5 Z"/></g>
<g><path style="opacity:0.022" fill="#43433f" d="M 183.5,113.5 C 184.71,113.932 185.71,114.599 186.5,115.5C 180.5,121.167 174.5,126.833 168.5,132.5C 167.833,131.5 167.167,130.5 166.5,129.5C 172.167,124.167 177.833,118.833 183.5,113.5 Z"/></g>
<g><path style="opacity:0.022" fill="#43443f" d="M 21.5,115.5 C 21.5,117.167 21.5,118.833 21.5,120.5C 14.1667,127.5 6.83333,134.5 -0.5,141.5C -0.5,139.833 -0.5,138.167 -0.5,136.5C 6.83333,129.5 14.1667,122.5 21.5,115.5 Z"/></g>
<g><path style="opacity:0.022" fill="#43443f" d="M 100.5,116.5 C 101.609,116.557 102.609,116.89 103.5,117.5C 97.1667,124.5 90.5,131.167 83.5,137.5C 82.7659,136.292 82.4326,134.959 82.5,133.5C 88.5,127.833 94.5,122.167 100.5,116.5 Z"/></g>
<g><path style="opacity:0.022" fill="#43443f" d="M 58.5,117.5 C 59.9587,117.433 61.2921,117.766 62.5,118.5C 60.1667,121.167 57.8333,123.833 55.5,126.5C 54.8333,126.5 54.5,126.833 54.5,127.5C 53.8333,127.5 53.5,127.833 53.5,128.5C 52.8333,128.5 52.5,128.833 52.5,129.5C 51.8333,129.5 51.5,129.833 51.5,130.5C 43.8333,137.833 36.1667,145.167 28.5,152.5C 28.5,150.833 28.5,149.167 28.5,147.5C 38.8333,137.833 48.8333,127.833 58.5,117.5 Z"/></g>
<g><path style="opacity:0.022" fill="#43443f" d="M 203.5,117.5 C 201.833,119.5 200.167,121.5 198.5,123.5C 196.833,123.5 195.167,123.5 193.5,123.5C 194.833,121.833 196.167,120.167 197.5,118.5C 199.565,118.483 201.565,118.15 203.5,117.5 Z"/></g>
<g><path style="opacity:0.022" fill="#43443f" d="M 255.5,121.5 C 255.5,123.167 255.5,124.833 255.5,126.5C 240.5,140.833 225.833,155.5 211.5,170.5C 210.167,169.833 209.167,168.833 208.5,167.5C 224.167,152.167 239.833,136.833 255.5,121.5 Z"/></g>
<g><path style="opacity:0.935" fill="#c2d82e" d="M 72.5,124.5 C 73.2905,125.401 74.2905,126.068 75.5,126.5C 78.1939,128.527 80.5272,130.861 82.5,133.5C 82.4326,134.959 82.7659,136.292 83.5,137.5C 83.8333,151.833 76.8333,158.833 62.5,158.5C 61.4324,157.566 60.099,157.232 58.5,157.5C 55.8605,155.527 53.5272,153.194 51.5,150.5C 51.0679,149.29 50.4013,148.29 49.5,147.5C 47.9184,141.571 48.5851,135.904 51.5,130.5C 52.1667,130.5 52.5,130.167 52.5,129.5C 53.1667,129.5 53.5,129.167 53.5,128.5C 54.1667,128.5 54.5,128.167 54.5,127.5C 55.1667,127.5 55.5,127.167 55.5,126.5C 60.9043,123.585 66.571,122.918 72.5,124.5 Z"/></g>
<g><path style="opacity:0.936" fill="#c2d82e" d="M 112.5,123.5 C 113.568,124.434 114.901,124.768 116.5,124.5C 119.758,126.088 122.425,128.421 124.5,131.5C 124.989,132.995 125.655,134.329 126.5,135.5C 127.537,141 126.87,146.334 124.5,151.5C 123.833,151.5 123.5,151.833 123.5,152.5C 122.833,152.5 122.5,152.833 122.5,153.5C 121.833,153.5 121.5,153.833 121.5,154.5C 120.833,154.5 120.5,154.833 120.5,155.5C 115.082,158.386 109.416,159.052 103.5,157.5C 102.609,156.89 101.609,156.557 100.5,156.5C 97.4503,154.451 95.117,151.784 93.5,148.5C 93.1667,147.167 92.8333,145.833 92.5,144.5C 91.7156,130.401 98.3823,123.401 112.5,123.5 Z"/></g>
<g><path style="opacity:0.943" fill="#c2d82e" d="M 153.5,123.5 C 154.959,123.433 156.292,123.766 157.5,124.5C 161.221,124.891 164.221,126.558 166.5,129.5C 167.167,130.5 167.833,131.5 168.5,132.5C 170.183,136.631 170.85,140.964 170.5,145.5C 169.833,145.5 169.5,145.833 169.5,146.5C 167.5,151.833 163.833,155.5 158.5,157.5C 157.833,157.5 157.5,157.833 157.5,158.5C 152.964,158.85 148.631,158.183 144.5,156.5C 143.71,155.599 142.71,154.932 141.5,154.5C 139.06,151.957 137.394,148.957 136.5,145.5C 136.167,144.167 135.833,142.833 135.5,141.5C 136.505,130.495 142.505,124.495 153.5,123.5 Z"/></g>
<g><path style="opacity:0.942" fill="#c2d82e" d="M 193.5,123.5 C 195.167,123.5 196.833,123.5 198.5,123.5C 202.063,124.282 205.397,125.616 208.5,127.5C 209.167,128.833 210.167,129.833 211.5,130.5C 212.965,134.024 213.965,137.691 214.5,141.5C 213.85,143.435 213.517,145.435 213.5,147.5C 211.167,151.833 207.833,155.167 203.5,157.5C 201.5,157.833 199.5,158.167 197.5,158.5C 193.536,158.511 189.869,157.511 186.5,155.5C 186.027,154.094 185.027,153.427 183.5,153.5C 181.317,150.136 179.984,146.47 179.5,142.5C 179.5,140.833 179.5,139.167 179.5,137.5C 181.837,130.496 186.504,125.83 193.5,123.5 Z"/></g>
<g><path style="opacity:0.022" fill="#43443f" d="M 21.5,135.5 C 21.5,137.167 21.5,138.833 21.5,140.5C 14.1667,147.5 6.83333,154.5 -0.5,161.5C -0.5,159.833 -0.5,158.167 -0.5,156.5C 6.83333,149.5 14.1667,142.5 21.5,135.5 Z"/></g>
<g><path style="opacity:0.022" fill="#43433f" d="M 179.5,137.5 C 179.5,139.167 179.5,140.833 179.5,142.5C 172.167,149.5 164.833,156.5 157.5,163.5C 156.167,163.5 154.833,163.5 153.5,163.5C 154.833,161.833 156.167,160.167 157.5,158.5C 158.167,158.5 158.5,158.167 158.5,157.5C 163.833,155.5 167.5,151.833 169.5,146.5C 170.167,146.5 170.5,146.167 170.5,145.5C 173.5,142.833 176.5,140.167 179.5,137.5 Z"/></g>
<g><path style="opacity:0.022" fill="#43443f" d="M 135.5,141.5 C 135.833,142.833 136.167,144.167 136.5,145.5C 129.833,151.833 123.167,158.167 116.5,164.5C 115.209,164.737 114.209,164.404 113.5,163.5C 115.833,160.833 118.167,158.167 120.5,155.5C 121.167,155.5 121.5,155.167 121.5,154.5C 122.167,154.5 122.5,154.167 122.5,153.5C 123.167,153.5 123.5,153.167 123.5,152.5C 124.167,152.5 124.5,152.167 124.5,151.5C 128.167,148.167 131.833,144.833 135.5,141.5 Z"/></g>
<g><path style="opacity:0.022" fill="#43443f" d="M 255.5,141.5 C 255.5,143.167 255.5,144.833 255.5,146.5C 241.5,160.167 227.5,173.833 213.5,187.5C 213.517,185.435 213.85,183.435 214.5,181.5C 228.167,168.167 241.833,154.833 255.5,141.5 Z"/></g>
<g><path style="opacity:0.022" fill="#43443f" d="M 92.5,144.5 C 92.8333,145.833 93.1667,147.167 93.5,148.5C 87.5,154.167 81.5,159.833 75.5,165.5C 74.391,165.443 73.391,165.11 72.5,164.5C 78.8333,157.5 85.5,150.833 92.5,144.5 Z"/></g>
<g><path style="opacity:0.022" fill="#43443f" d="M 49.5,147.5 C 50.4013,148.29 51.0679,149.29 51.5,150.5C 43.8333,157.833 36.1667,165.167 28.5,172.5C 28.5,170.833 28.5,169.167 28.5,167.5C 35.5,160.833 42.5,154.167 49.5,147.5 Z"/></g>
<g><path style="opacity:0.022" fill="#43433f" d="M 183.5,153.5 C 185.027,153.427 186.027,154.094 186.5,155.5C 180.5,161.167 174.5,166.833 168.5,172.5C 167.833,171.5 167.167,170.5 166.5,169.5C 172.167,164.167 177.833,158.833 183.5,153.5 Z"/></g>
<g><path style="opacity:0.022" fill="#43433f" d="M 141.5,154.5 C 142.71,154.932 143.71,155.599 144.5,156.5C 138.833,162.833 132.833,168.833 126.5,174.5C 125.599,173.71 124.932,172.71 124.5,171.5C 130.5,166.167 136.167,160.5 141.5,154.5 Z"/></g>
<g><path style="opacity:0.022" fill="#43443f" d="M 21.5,155.5 C 21.5,157.167 21.5,158.833 21.5,160.5C 14.1667,167.5 6.83333,174.5 -0.5,181.5C -0.5,179.833 -0.5,178.167 -0.5,176.5C 6.83333,169.5 14.1667,162.5 21.5,155.5 Z"/></g>
<g><path style="opacity:0.022" fill="#43443f" d="M 100.5,156.5 C 101.609,156.557 102.609,156.89 103.5,157.5C 97.1667,164.5 90.5,171.167 83.5,177.5C 82.7659,176.292 82.4326,174.959 82.5,173.5C 88.5,167.833 94.5,162.167 100.5,156.5 Z"/></g>
<g><path style="opacity:0.022" fill="#43433f" d="M 58.5,157.5 C 60.099,157.232 61.4324,157.566 62.5,158.5C 60.1667,161.167 57.8333,163.833 55.5,166.5C 54.8333,166.5 54.5,166.833 54.5,167.5C 53.8333,167.5 53.5,167.833 53.5,168.5C 52.8333,168.5 52.5,168.833 52.5,169.5C 51.8333,169.5 51.5,169.833 51.5,170.5C 43.8333,177.833 36.1667,185.167 28.5,192.5C 28.5,190.833 28.5,189.167 28.5,187.5C 38.8333,177.833 48.8333,167.833 58.5,157.5 Z"/></g>
<g><path style="opacity:0.022" fill="#43433f" d="M 203.5,157.5 C 201.833,159.5 200.167,161.5 198.5,163.5C 196.833,163.5 195.167,163.5 193.5,163.5C 194.833,161.833 196.167,160.167 197.5,158.5C 199.5,158.167 201.5,157.833 203.5,157.5 Z"/></g>
<g><path style="opacity:0.022" fill="#43443f" d="M 255.5,161.5 C 255.5,163.167 255.5,164.833 255.5,166.5C 239.5,181.833 223.833,197.5 208.5,213.5C 206.833,213.5 205.167,213.5 203.5,213.5C 220.5,195.833 237.833,178.5 255.5,161.5 Z"/></g>
<g><path style="opacity:0.936" fill="#c2d82e" d="M 72.5,164.5 C 73.391,165.11 74.391,165.443 75.5,165.5C 77.8623,168.192 80.1956,170.859 82.5,173.5C 82.4326,174.959 82.7659,176.292 83.5,177.5C 83.5,191.5 76.5,198.5 62.5,198.5C 61.791,197.596 60.791,197.263 59.5,197.5C 56.2416,195.912 53.5749,193.579 51.5,190.5C 51.0679,189.29 50.4013,188.29 49.5,187.5C 47.9184,181.571 48.5851,175.904 51.5,170.5C 52.1667,170.5 52.5,170.167 52.5,169.5C 53.1667,169.5 53.5,169.167 53.5,168.5C 54.1667,168.5 54.5,168.167 54.5,167.5C 55.1667,167.5 55.5,167.167 55.5,166.5C 60.8701,163.621 66.5368,162.954 72.5,164.5 Z"/></g>
<g><path style="opacity:0.936" fill="#c2d82e" d="M 113.5,163.5 C 114.209,164.404 115.209,164.737 116.5,164.5C 119.758,166.088 122.425,168.421 124.5,171.5C 124.932,172.71 125.599,173.71 126.5,174.5C 127.667,180.346 127,186.012 124.5,191.5C 123.833,191.5 123.5,191.833 123.5,192.5C 122.833,192.5 122.5,192.833 122.5,193.5C 121.833,193.5 121.5,193.833 121.5,194.5C 120.833,194.5 120.5,194.833 120.5,195.5C 115.082,198.386 109.416,199.052 103.5,197.5C 102.609,196.89 101.609,196.557 100.5,196.5C 97.4503,194.451 95.117,191.784 93.5,188.5C 93.1667,187.167 92.8333,185.833 92.5,184.5C 91.8129,169.854 98.8129,162.854 113.5,163.5 Z"/></g>
<g><path style="opacity:0.944" fill="#c2d82e" d="M 153.5,163.5 C 154.833,163.5 156.167,163.5 157.5,163.5C 160.982,164.744 163.982,166.744 166.5,169.5C 167.167,170.5 167.833,171.5 168.5,172.5C 170.183,176.631 170.85,180.964 170.5,185.5C 169.833,185.5 169.5,185.833 169.5,186.5C 167.5,191.833 163.833,195.5 158.5,197.5C 157.833,197.5 157.5,197.833 157.5,198.5C 153.007,198.731 148.674,198.064 144.5,196.5C 143.71,195.599 142.71,194.932 141.5,194.5C 139.06,191.957 137.394,188.957 136.5,185.5C 136.167,184.167 135.833,182.833 135.5,181.5C 136.505,170.495 142.505,164.495 153.5,163.5 Z"/></g>
<g><path style="opacity:0.942" fill="#c2d82e" d="M 193.5,163.5 C 195.167,163.5 196.833,163.5 198.5,163.5C 202.063,164.282 205.397,165.616 208.5,167.5C 209.167,168.833 210.167,169.833 211.5,170.5C 212.965,174.024 213.965,177.691 214.5,181.5C 213.85,183.435 213.517,185.435 213.5,187.5C 211.167,191.833 207.833,195.167 203.5,197.5C 201.5,197.833 199.5,198.167 197.5,198.5C 193.536,198.511 189.869,197.511 186.5,195.5C 185.833,194.167 184.833,193.167 183.5,192.5C 181.065,189.626 179.731,186.293 179.5,182.5C 179.5,180.833 179.5,179.167 179.5,177.5C 181.171,169.829 185.837,165.163 193.5,163.5 Z"/></g>
<g><path style="opacity:0.022" fill="#43443f" d="M 21.5,175.5 C 21.5,177.167 21.5,178.833 21.5,180.5C 14.1667,187.5 6.83333,194.5 -0.5,201.5C -0.5,199.833 -0.5,198.167 -0.5,196.5C 6.83333,189.5 14.1667,182.5 21.5,175.5 Z"/></g>
<g><path style="opacity:0.022" fill="#43443f" d="M 179.5,177.5 C 179.5,179.167 179.5,180.833 179.5,182.5C 168.833,192.5 158.5,202.833 148.5,213.5C 146.833,213.5 145.167,213.5 143.5,213.5C 148.167,208.5 152.833,203.5 157.5,198.5C 158.167,198.5 158.5,198.167 158.5,197.5C 163.833,195.5 167.5,191.833 169.5,186.5C 170.167,186.5 170.5,186.167 170.5,185.5C 173.5,182.833 176.5,180.167 179.5,177.5 Z"/></g>
<g><path style="opacity:0.022" fill="#43443f" d="M 135.5,181.5 C 135.833,182.833 136.167,184.167 136.5,185.5C 126.833,194.5 117.5,203.833 108.5,213.5C 106.833,213.5 105.167,213.5 103.5,213.5C 109.167,207.5 114.833,201.5 120.5,195.5C 121.167,195.5 121.5,195.167 121.5,194.5C 122.167,194.5 122.5,194.167 122.5,193.5C 123.167,193.5 123.5,193.167 123.5,192.5C 124.167,192.5 124.5,192.167 124.5,191.5C 128.167,188.167 131.833,184.833 135.5,181.5 Z"/></g>
<g><path style="opacity:0.022" fill="#43443f" d="M 255.5,181.5 C 255.5,183.167 255.5,184.833 255.5,186.5C 246.167,195.167 237.167,204.167 228.5,213.5C 226.833,213.5 225.167,213.5 223.5,213.5C 233.833,202.5 244.5,191.833 255.5,181.5 Z"/></g>
<g><path style="opacity:0.022" fill="#43443f" d="M 92.5,184.5 C 92.8333,185.833 93.1667,187.167 93.5,188.5C 84.8333,196.5 76.5,204.833 68.5,213.5C 66.8333,213.5 65.1667,213.5 63.5,213.5C 72.8333,203.5 82.5,193.833 92.5,184.5 Z"/></g>
<g><path style="opacity:0.022" fill="#43443f" d="M 49.5,187.5 C 50.4013,188.29 51.0679,189.29 51.5,190.5C 43.8333,197.833 36.1667,205.167 28.5,212.5C 28.5,210.833 28.5,209.167 28.5,207.5C 35.5,200.833 42.5,194.167 49.5,187.5 Z"/></g>
<g><path style="opacity:0.022" fill="#43433f" d="M 183.5,192.5 C 184.833,193.167 185.833,194.167 186.5,195.5C 180.167,201.167 174.167,207.167 168.5,213.5C 166.833,213.5 165.167,213.5 163.5,213.5C 170.167,206.5 176.833,199.5 183.5,192.5 Z"/></g>
<g><path style="opacity:0.022" fill="#43443f" d="M 141.5,194.5 C 142.71,194.932 143.71,195.599 144.5,196.5C 139.167,202.167 133.833,207.833 128.5,213.5C 126.833,213.5 125.167,213.5 123.5,213.5C 129.5,207.167 135.5,200.833 141.5,194.5 Z"/></g>
<g><path style="opacity:0.022" fill="#43443f" d="M 21.5,195.5 C 21.5,197.167 21.5,198.833 21.5,200.5C 14.1667,207.5 6.83333,214.5 -0.5,221.5C -0.5,219.833 -0.5,218.167 -0.5,216.5C 6.83333,209.5 14.1667,202.5 21.5,195.5 Z"/></g>
<g><path style="opacity:0.022" fill="#43443f" d="M 100.5,196.5 C 101.609,196.557 102.609,196.89 103.5,197.5C 98.5,202.833 93.5,208.167 88.5,213.5C 86.8333,213.5 85.1667,213.5 83.5,213.5C 88.8333,207.5 94.5,201.833 100.5,196.5 Z"/></g>
<g><path style="opacity:0.022" fill="#43443f" d="M 59.5,197.5 C 60.791,197.263 61.791,197.596 62.5,198.5C 57.8333,203.5 53.1667,208.5 48.5,213.5C 46.8333,213.5 45.1667,213.5 43.5,213.5C 48.5,207.833 53.8333,202.5 59.5,197.5 Z"/></g>
<g><path style="opacity:0.022" fill="#43443f" d="M 203.5,197.5 C 198.5,202.833 193.5,208.167 188.5,213.5C 186.833,213.5 185.167,213.5 183.5,213.5C 188.167,208.5 192.833,203.5 197.5,198.5C 199.5,198.167 201.5,197.833 203.5,197.5 Z"/></g>
<g><path style="opacity:0.022" fill="#43443f" d="M 255.5,201.5 C 255.5,203.167 255.5,204.833 255.5,206.5C 238.833,222.5 222.5,238.833 206.5,255.5C 204.833,255.5 203.167,255.5 201.5,255.5C 219.167,237.167 237.167,219.167 255.5,201.5 Z"/></g>
<g><path style="opacity:0.022" fill="#43443f" d="M 21.5,215.5 C 21.5,216.833 21.5,218.167 21.5,219.5C 14.5,227.167 7.16667,234.5 -0.5,241.5C -0.5,239.833 -0.5,238.167 -0.5,236.5C 6.83333,229.5 14.1667,222.5 21.5,215.5 Z"/></g>
<g><path style="opacity:0.022" fill="#43443f" d="M 34.5,221.5 C 36.1667,221.5 37.8333,221.5 39.5,221.5C 28.5,232.833 17.5,244.167 6.5,255.5C 4.83333,255.5 3.16667,255.5 1.5,255.5C 12.5,244.167 23.5,232.833 34.5,221.5 Z"/></g>
<g><path style="opacity:0.022" fill="#43443f" d="M 54.5,221.5 C 56.1667,221.5 57.8333,221.5 59.5,221.5C 48.5,232.833 37.5,244.167 26.5,255.5C 24.8333,255.5 23.1667,255.5 21.5,255.5C 32.5,244.167 43.5,232.833 54.5,221.5 Z"/></g>
<g><path style="opacity:0.022" fill="#43443f" d="M 74.5,221.5 C 76.1667,221.5 77.8333,221.5 79.5,221.5C 68.5,232.833 57.5,244.167 46.5,255.5C 44.8333,255.5 43.1667,255.5 41.5,255.5C 52.5,244.167 63.5,232.833 74.5,221.5 Z"/></g>
<g><path style="opacity:0.022" fill="#43443f" d="M 94.5,221.5 C 96.1667,221.5 97.8333,221.5 99.5,221.5C 88.5,232.833 77.5,244.167 66.5,255.5C 64.8333,255.5 63.1667,255.5 61.5,255.5C 72.5,244.167 83.5,232.833 94.5,221.5 Z"/></g>
<g><path style="opacity:0.022" fill="#43443f" d="M 114.5,221.5 C 116.167,221.5 117.833,221.5 119.5,221.5C 108.5,232.833 97.5,244.167 86.5,255.5C 84.8333,255.5 83.1667,255.5 81.5,255.5C 92.5,244.167 103.5,232.833 114.5,221.5 Z"/></g>
<g><path style="opacity:0.022" fill="#43443f" d="M 134.5,221.5 C 136.167,221.5 137.833,221.5 139.5,221.5C 128.5,232.833 117.5,244.167 106.5,255.5C 104.833,255.5 103.167,255.5 101.5,255.5C 112.5,244.167 123.5,232.833 134.5,221.5 Z"/></g>
<g><path style="opacity:0.022" fill="#43443f" d="M 154.5,221.5 C 156.167,221.5 157.833,221.5 159.5,221.5C 148.5,232.833 137.5,244.167 126.5,255.5C 124.833,255.5 123.167,255.5 121.5,255.5C 132.5,244.167 143.5,232.833 154.5,221.5 Z"/></g>
<g><path style="opacity:0.022" fill="#43443f" d="M 174.5,221.5 C 176.167,221.5 177.833,221.5 179.5,221.5C 168.5,232.833 157.5,244.167 146.5,255.5C 144.833,255.5 143.167,255.5 141.5,255.5C 152.5,244.167 163.5,232.833 174.5,221.5 Z"/></g>
<g><path style="opacity:0.022" fill="#43443f" d="M 194.5,221.5 C 196.167,221.5 197.833,221.5 199.5,221.5C 188.5,232.833 177.5,244.167 166.5,255.5C 164.833,255.5 163.167,255.5 161.5,255.5C 172.5,244.167 183.5,232.833 194.5,221.5 Z"/></g>
<g><path style="opacity:0.022" fill="#43443f" d="M 214.5,221.5 C 216.167,221.5 217.833,221.5 219.5,221.5C 208.5,232.833 197.5,244.167 186.5,255.5C 184.833,255.5 183.167,255.5 181.5,255.5C 192.5,244.167 203.5,232.833 214.5,221.5 Z"/></g>
<g><path style="opacity:0.022" fill="#43443f" d="M 255.5,221.5 C 255.5,223.167 255.5,224.833 255.5,226.5C 245.5,235.833 235.833,245.5 226.5,255.5C 224.833,255.5 223.167,255.5 221.5,255.5C 232.5,243.833 243.833,232.5 255.5,221.5 Z"/></g>
<g><path style="opacity:0.022" fill="#43443f" d="M 255.5,241.5 C 255.5,243.167 255.5,244.833 255.5,246.5C 252.167,249.167 249.167,252.167 246.5,255.5C 244.833,255.5 243.167,255.5 241.5,255.5C 245.833,250.5 250.5,245.833 255.5,241.5 Z"/></g>
</svg>
