<?xml version="1.0" encoding="UTF-8"?>
<!DOCTYPE svg PUBLIC "-//W3C//DTD SVG 1.1//EN" "http://www.w3.org/Graphics/SVG/1.1/DTD/svg11.dtd">
<svg xmlns="http://www.w3.org/2000/svg" version="1.1" width="240px" height="240px" style="shape-rendering:geometricPrecision; text-rendering:geometricPrecision; image-rendering:optimizeQuality; fill-rule:evenodd; clip-rule:evenodd" xmlns:xlink="http://www.w3.org/1999/xlink">
<g><path style="opacity:1" fill="transparent" d="M -0.5,-0.5 C 79.5,-0.5 159.5,-0.5 239.5,-0.5C 239.5,72.5 239.5,145.5 239.5,218.5C 199.511,152.528 159.511,86.5278 119.5,20.5C 79.4888,86.5278 39.4888,152.528 -0.5,218.5C -0.5,145.5 -0.5,72.5 -0.5,-0.5 Z"/></g>
<g><path style="opacity:1" fill="#c2d82e" d="M 239.5,218.5 C 239.5,218.833 239.5,219.167 239.5,219.5C 159.5,219.5 79.5,219.5 -0.5,219.5C -0.5,219.167 -0.5,218.833 -0.5,218.5C 39.4888,152.528 79.4888,86.5278 119.5,20.5C 159.511,86.5278 199.511,152.528 239.5,218.5 Z"/></g>
<g><path style="opacity:1" fill="transparent" d="M -0.5,219.5 C 79.5,219.5 159.5,219.5 239.5,219.5C 239.5,226.167 239.5,232.833 239.5,239.5C 159.5,239.5 79.5,239.5 -0.5,239.5C -0.5,232.833 -0.5,226.167 -0.5,219.5 Z"/></g>
</svg>
