<?xml version="1.0" encoding="UTF-8"?>
<!DOCTYPE svg PUBLIC "-//W3C//DTD SVG 1.1//EN" "http://www.w3.org/Graphics/SVG/1.1/DTD/svg11.dtd">
<svg xmlns="http://www.w3.org/2000/svg" version="1.1" width="512px" height="512px" style="shape-rendering:geometricPrecision; text-rendering:geometricPrecision; image-rendering:optimizeQuality; fill-rule:evenodd; clip-rule:evenodd" xmlns:xlink="http://www.w3.org/1999/xlink">
<g><path style="opacity:0.981" fill="#c2d82e" d="M 31.5,-0.5 C 143.167,-0.5 254.833,-0.5 366.5,-0.5C 402.833,0.833333 439.167,0.833333 475.5,-0.5C 478.833,-0.5 482.167,-0.5 485.5,-0.5C 491.201,-0.213114 494.701,2.78689 496,8.5C 504.275,50.6119 506.609,92.9452 503,135.5C 494.692,141.13 486.692,140.796 479,134.5C 472.449,114.504 463.782,95.5039 453,77.5C 445.305,66.0656 435.138,57.5656 422.5,52C 400.336,43.367 377.336,38.7003 353.5,38C 339.5,37.3333 325.5,37.3333 311.5,38C 306.35,38.2685 301.35,39.2685 296.5,41C 294.951,42.214 293.785,43.714 293,45.5C 292.333,177.167 292.333,308.833 293,440.5C 293.867,453.419 299.701,463.252 310.5,470C 317.105,474.136 324.105,477.469 331.5,480C 345.215,483.774 358.882,487.607 372.5,491.5C 377.173,500.148 375.173,506.815 366.5,511.5C 294.833,511.5 223.167,511.5 151.5,511.5C 142.034,500.877 144.034,492.71 157.5,487C 167.755,482.804 178.088,478.804 188.5,475C 195.942,472.113 202.942,468.446 209.5,464C 216.479,456.54 220.646,447.707 222,437.5C 223.647,307.85 223.981,178.183 223,48.5C 222.728,43.5623 220.228,40.3956 215.5,39C 184.256,35.878 153.256,37.5446 122.5,44C 99.2001,49.2269 79.7001,60.7269 64,78.5C 57.8358,86.8249 52.1691,95.4916 47,104.5C 41.5897,116.32 35.923,127.987 30,139.5C 21.7642,143.916 14.0975,142.916 7,136.5C 6.07697,134.966 5.57697,133.299 5.5,131.5C 15.8655,91.1834 20.6989,50.1834 20,8.5C 20.3459,6.15226 21.5125,4.31892 23.5,3C 26.1579,1.52203 28.8245,0.355367 31.5,-0.5 Z"/></g>
</svg>
