<svg
   xmlnsSvg="http://www.w3.org/2000/svg"
   xmlns="http://www.w3.org/2000/svg"
   version="1.1"
   width="258.30151"
   height="314"
   id="svg2">
  <defs
     id="defs4" />
  <g
     transform="translate(-60.08714,-249.33502)"
     id="layer1">
    <g
       transform="translate(491.94429,132.32998)"
       id="g3040">
      <path
         d="m -302.96793,431.00504 -124.88922,0 -2,-2 -2,-2 0,-152.77749 0,-152.7775 1.5567,-2.2225 1.55671,-2.22251 2.28831,0 2.28831,0 1.65498,1.82874 1.65499,1.82874 0,149.67126 0,149.67126 17.5,0 17.5,0 0,-111 0,-111 11.5,0 11.5,0 0,111 0,111 9.5,0 9.5,0 0,-93.5 0,-93.5 11.5,0 11.5,0 0,93.5 0,93.5 9.5,0 9.5,0 0,-75 0,-75 11.5,0 11.5,0 0,75 0,75 9,0 9,0 0,-53.5 0,-53.5 11.5,0 11.5,0 0,53.5 0,53.5 28.9349,0 28.9349,0 2.53717,0.96463 2.53717,0.96463 0.67868,2.70409 0.67869,2.70409 -2.26154,1.83128 -2.26154,1.83128 -124.88921,0 z m 126.86078,-95.17039 c -1.2375,-0.0937 -7.05056,-0.43122 -12.9179,-0.75 l -10.6679,-0.57961 -0.62274,-0.62397 -0.62273,-0.62397 2.1646,-3.66873 c 1.19054,-2.0178 1.99632,-3.82153 1.79064,-4.00829 -0.20568,-0.18676 -5.54897,-3.39159 -11.87397,-7.12185 -6.325,-3.73027 -15.55,-9.48422 -20.5,-12.78657 -4.95,-3.30236 -12.15,-8.57665 -16,-11.72066 -3.85,-3.14401 -10.1723,-9.03054 -14.04955,-13.08117 -3.87725,-4.05063 -9.09696,-10.06479 -11.59934,-13.36479 -2.50238,-3.3 -10.31919,-14.325 -17.37069,-24.5 -7.05149,-10.175 -15.53032,-22.1 -18.84183,-26.5 -3.31152,-4.4 -8.77809,-10.7 -12.14794,-14 l -6.12701,-6 -5.76634,-3.42329 -5.76634,-3.42328 -7.8506,-2.77811 -7.8506,-2.7781 -10.63907,-2.05313 c -5.85149,-1.12922 -11.50568,-2.51693 -12.56488,-3.08379 l -1.92581,-1.03067 0,-1.4058 c 0,-0.77319 0.43299,-1.6734 0.9622,-2.00047 l 0.9622,-0.59467 12.44643,2.56415 c 6.84553,1.41028 15.63537,3.64878 19.53297,4.97444 3.89759,1.32566 9.90121,3.88935 13.34137,5.6971 l 6.25483,3.28682 9.50788,9.5244 9.50788,9.5244 8.49212,12.11453 c 4.67067,6.66299 13.54333,19.28933 19.71702,28.05853 l 11.22491,15.94401 7.04383,8.09824 7.04383,8.09824 8.21681,6.71249 c 4.51925,3.69187 13.17332,9.9697 19.23127,13.95074 6.05795,3.98104 15.40075,9.7561 20.76179,12.83348 l 9.74733,5.59523 2.25267,-3.94504 c 1.23896,-2.16978 2.52868,-3.94851 2.86604,-3.95275 0.33736,-0.004 3.82486,4.84932 7.75,10.78568 3.92514,5.93636 7.13662,11.11136 7.13662,11.5 l 0,0.70662 -2.25,-0.17039 z"
         id="path3062"
         style="fill:#c2d82e" />
      <path
         d="m -302.96793,431.00504 -124.88922,0 -2,-2 -2,-2 0,-152.77749 0,-152.7775 1.5567,-2.2225 1.55671,-2.22251 2.28831,0 2.28831,0 1.65498,1.82874 1.65499,1.82874 0,149.67126 0,149.67126 17.5,0 17.5,0 0,-111 0,-111 11.5,0 11.5,0 0,111 0,111 9.5,0 9.5,0 0,-93.5 0,-93.5 11.5,0 11.5,0 0,93.5 0,93.5 9.5,0 9.5,0 0,-75 0,-75 11.5,0 11.5,0 0,75 0,75 9,0 9,0 0,-53.5 0,-53.5 11.5,0 11.5,0 0,53.5 0,53.5 28.9349,0 28.9349,0 2.53717,0.96463 2.53717,0.96463 0.67868,2.70409 0.67869,2.70409 -2.26154,1.83128 -2.26154,1.83128 -124.88921,0 z m 12.61078,-11 8.5,0 0,-73.5 0,-73.5 -8.5,0 -8.5,0 0,73.5 0,73.5 8.5,0 z m 114.25,-84.17039 c -1.2375,-0.0937 -7.05056,-0.43122 -12.9179,-0.75 l -10.6679,-0.57961 -0.62274,-0.62397 -0.62273,-0.62397 2.1646,-3.66873 c 1.19054,-2.0178 1.99632,-3.82153 1.79064,-4.00829 -0.20568,-0.18676 -5.54897,-3.39159 -11.87397,-7.12185 -6.325,-3.73027 -15.55,-9.48422 -20.5,-12.78657 -4.95,-3.30236 -12.15,-8.57665 -16,-11.72066 -3.85,-3.14401 -10.1723,-9.03054 -14.04955,-13.08117 -3.87725,-4.05063 -9.09696,-10.06479 -11.59934,-13.36479 -2.50238,-3.3 -10.31919,-14.325 -17.37069,-24.5 -7.05149,-10.175 -15.53032,-22.1 -18.84183,-26.5 -3.31152,-4.4 -8.77809,-10.7 -12.14794,-14 l -6.12701,-6 -5.76634,-3.42329 -5.76634,-3.42328 -7.8506,-2.77811 -7.8506,-2.7781 -10.63907,-2.05313 c -5.85149,-1.12922 -11.50568,-2.51693 -12.56488,-3.08379 l -1.92581,-1.03067 0,-1.4058 c 0,-0.77319 0.43299,-1.6734 0.9622,-2.00047 l 0.9622,-0.59467 12.44643,2.56415 c 6.84553,1.41028 15.63537,3.64878 19.53297,4.97444 3.89759,1.32566 9.90121,3.88935 13.34137,5.6971 l 6.25483,3.28682 9.50788,9.5244 9.50788,9.5244 8.49212,12.11453 c 4.67067,6.66299 13.54333,19.28933 19.71702,28.05853 l 11.22491,15.94401 7.04383,8.09824 7.04383,8.09824 8.21681,6.71249 c 4.51925,3.69187 13.17332,9.9697 19.23127,13.95074 6.05795,3.98104 15.40075,9.7561 20.76179,12.83348 l 9.74733,5.59523 2.25267,-3.94504 c 1.23896,-2.16978 2.52868,-3.94851 2.86604,-3.95275 0.33736,-0.004 3.82486,4.84932 7.75,10.78568 3.92514,5.93636 7.13662,11.11136 7.13662,11.5 l 0,0.70662 -2.25,-0.17039 z"
         id="path3060"
         style="fill:#c2d82e" />
      <path
         d="m -302.96793,431.00504 -124.88922,0 -2,-2 -2,-2 0,-152.77749 0,-152.7775 1.5567,-2.2225 1.55671,-2.22251 2.28831,0 2.28831,0 1.65498,1.82874 1.65499,1.82874 0,149.67126 0,149.67126 17.5,0 17.5,0 0,-111 0,-111 11.5,0 11.5,0 0,111 0,111 9.5,0 9.5,0 0,-93.5 0,-93.5 11.5,0 11.5,0 0,93.5 0,93.5 9.5,0 9.5,0 0,-75 0,-75 11.5,0 11.5,0 0,75 0,75 9,0 9,0 0,-53.5 0,-53.5 11.5,0 11.5,0 0,53.5 0,53.5 28.9349,0 28.9349,0 2.53717,0.96463 2.53717,0.96463 0.67868,2.70409 0.67869,2.70409 -2.26154,1.83128 -2.26154,1.83128 -124.88921,0 z m -29.38922,-11 8.5,0 0,-92 0,-92 -8.5,0 -8.5,0 0,92 0,92 8.5,0 z m 42,0 8.5,0 0,-73.5 0,-73.5 -8.5,0 -8.5,0 0,73.5 0,73.5 8.5,0 z m 114.25,-84.17039 c -1.2375,-0.0937 -7.05056,-0.43122 -12.9179,-0.75 l -10.6679,-0.57961 -0.62274,-0.62397 -0.62273,-0.62397 2.1646,-3.66873 c 1.19054,-2.0178 1.99632,-3.82153 1.79064,-4.00829 -0.20568,-0.18676 -5.54897,-3.39159 -11.87397,-7.12185 -6.325,-3.73027 -15.55,-9.48422 -20.5,-12.78657 -4.95,-3.30236 -12.15,-8.57665 -16,-11.72066 -3.85,-3.14401 -10.1723,-9.03054 -14.04955,-13.08117 -3.87725,-4.05063 -9.09696,-10.06479 -11.59934,-13.36479 -2.50238,-3.3 -10.31919,-14.325 -17.37069,-24.5 -7.05149,-10.175 -15.53032,-22.1 -18.84183,-26.5 -3.31152,-4.4 -8.77809,-10.7 -12.14794,-14 l -6.12701,-6 -5.76634,-3.42329 -5.76634,-3.42328 -7.8506,-2.77811 -7.8506,-2.7781 -10.63907,-2.05313 c -5.85149,-1.12922 -11.50568,-2.51693 -12.56488,-3.08379 l -1.92581,-1.03067 0,-1.4058 c 0,-0.77319 0.43299,-1.6734 0.9622,-2.00047 l 0.9622,-0.59467 12.44643,2.56415 c 6.84553,1.41028 15.63537,3.64878 19.53297,4.97444 3.89759,1.32566 9.90121,3.88935 13.34137,5.6971 l 6.25483,3.28682 9.50788,9.5244 9.50788,9.5244 8.49212,12.11453 c 4.67067,6.66299 13.54333,19.28933 19.71702,28.05853 l 11.22491,15.94401 7.04383,8.09824 7.04383,8.09824 8.21681,6.71249 c 4.51925,3.69187 13.17332,9.9697 19.23127,13.95074 6.05795,3.98104 15.40075,9.7561 20.76179,12.83348 l 9.74733,5.59523 2.25267,-3.94504 c 1.23896,-2.16978 2.52868,-3.94851 2.86604,-3.95275 0.33736,-0.004 3.82486,4.84932 7.75,10.78568 3.92514,5.93636 7.13662,11.11136 7.13662,11.5 l 0,0.70662 -2.25,-0.17039 z"
         id="path3058"
         style="fill:#c2d82e" />
      <path
         d="m -303.24176,430.27115 -123.88462,0.23389 -1.86538,-1.3067 -1.86539,-1.30671 0,-153.87187 0,-153.87186 1.57143,-1.57143 c 0.86428,-0.86429 2.12828,-1.57143 2.80887,-1.57143 0.68059,0 1.99949,0.5625 2.93089,1.25 l 1.69345,1.25 0.24768,150.5 0.24768,150.5 17.75,0.27307 17.75,0.27308 0,-111.52308 0,-111.52307 11.5,0 11.5,0 0,111.5 0,111.5 9.5,0 9.5,0 0,-94 0,-94 11.5,0 11.5,0 0,94 0,94 9.5,0 9.5,0 0,-75.5 0,-75.5 11.5,0 11.5,0 0,75.5 0,75.5 9,0 9,0 0,-54 0,-54 11.5,0 11.5,0 0,54 0,54 30.3,0 30.3,0 1.2,1.2 1.2,1.2 0,2.78095 0,2.78095 -2.25,0.53516 -2.25,0.53515 -123.88461,0.2339 z m -29.11539,-10.26611 8.5,0 0,-92 0,-92 -8.5,0 -8.5,0 0,92 0,92 8.5,0 z m 42,0 8.5,0 0,-73.5 0,-73.5 -8.5,0 -8.5,0 0,73.5 0,73.5 8.5,0 z m 107.77237,-85.18025 c -4.82481,-0.0991 -10.91428,-0.34897 -13.53218,-0.55519 l -4.75981,-0.37494 2.47776,-4.22797 2.47775,-4.22797 -10.08267,-5.77201 c -5.54548,-3.1746 -15.23162,-9.15768 -21.52477,-13.29572 l -11.44208,-7.52371 -8.97021,-7.46591 -8.9702,-7.4659 -7.95288,-9.60274 c -4.37408,-5.2815 -12.98678,-16.84884 -19.13933,-25.70521 -6.15255,-8.85636 -14.56687,-20.82748 -18.69849,-26.60248 l -7.51204,-10.5 -8.66144,-8.64389 -8.66143,-8.64389 -8.41018,-4.04029 -8.41017,-4.0403 -6.11319,-1.55774 c -3.36226,-0.85676 -10.52583,-2.44541 -15.91905,-3.53033 l -9.80586,-1.97258 -0.77375,-1.25195 -0.77374,-1.25195 0.93102,-1.12183 0.93103,-1.12182 13.23601,2.8324 c 7.2798,1.55782 15.4976,3.57227 18.26177,4.47656 2.76417,0.90429 7.27576,2.76071 10.02576,4.12538 2.75,1.36466 7.82809,4.4863 11.28465,6.93697 l 6.28466,4.45577 6.39764,7.498 c 3.51871,4.1239 10.36561,13.15919 15.21535,20.07843 4.84973,6.91924 13.69767,19.46553 19.66208,27.88064 l 10.84439,15.3002 8.10421,8.66197 8.10422,8.66198 6.61559,5.27847 c 3.63857,2.90316 11.4549,8.46795 17.3696,12.3662 5.91471,3.89825 15.2409,9.62823 20.72487,12.73328 5.48397,3.10505 10.10013,5.47562 10.25814,5.26793 0.15801,-0.20769 1.31676,-2.08878 2.57501,-4.18021 1.25825,-2.09143 2.39604,-3.66643 2.52843,-3.5 0.13239,0.16643 3.46613,5.1401 7.4083,11.0526 l 7.16759,10.75 -8.77236,-0.18025 z"
         id="path3056"
         style="fill:#c2d82e" />
      <path
         d="m -303.24176,430.27115 -123.88462,0.23389 -1.86538,-1.3067 -1.86539,-1.30671 0,-153.87187 0,-153.87186 1.57143,-1.57143 c 0.86428,-0.86429 2.12828,-1.57143 2.80887,-1.57143 0.68059,0 1.99949,0.5625 2.93089,1.25 l 1.69345,1.25 0.24768,150.5 0.24768,150.5 17.75,0.27307 17.75,0.27308 0,-111.52308 0,-111.52307 11.5,0 11.5,0 0,111.5 0,111.5 9.5,0 9.5,0 0,-94 0,-94 11.5,0 11.5,0 0,94 0,94 9.5,0 9.5,0 0,-75.5 0,-75.5 11.5,0 11.5,0 0,75.5 0,75.5 9,0 9,0 0,-54 0,-54 11.5,0 11.5,0 0,54 0,54 30.3,0 30.3,0 1.2,1.2 1.2,1.2 0,2.78095 0,2.78095 -2.25,0.53516 -2.25,0.53515 -123.88461,0.2339 z m -29.11539,-10.26611 9.5,0 0,-92.5 0,-92.5 -9.5,0 -9.5,0 0,92.5 0,92.5 9.5,0 z m 42,0 9.5129,0 -0.25645,-73.75 -0.25645,-73.75 -9,0 -9,0 -0.25645,73.75 -0.25645,73.75 9.5129,0 z m 107.77237,-85.18025 c -4.82481,-0.0991 -10.91428,-0.34897 -13.53218,-0.55519 l -4.75981,-0.37494 2.47776,-4.22797 2.47775,-4.22797 -10.08267,-5.77201 c -5.54548,-3.1746 -15.23162,-9.15768 -21.52477,-13.29572 l -11.44208,-7.52371 -8.97021,-7.46591 -8.9702,-7.4659 -7.95288,-9.60274 c -4.37408,-5.2815 -12.98678,-16.84884 -19.13933,-25.70521 -6.15255,-8.85636 -14.56687,-20.82748 -18.69849,-26.60248 l -7.51204,-10.5 -8.66144,-8.64389 -8.66143,-8.64389 -8.41018,-4.04029 -8.41017,-4.0403 -6.11319,-1.55774 c -3.36226,-0.85676 -10.52583,-2.44541 -15.91905,-3.53033 l -9.80586,-1.97258 -0.77375,-1.25195 -0.77374,-1.25195 0.93102,-1.12183 0.93103,-1.12182 13.23601,2.8324 c 7.2798,1.55782 15.4976,3.57227 18.26177,4.47656 2.76417,0.90429 7.27576,2.76071 10.02576,4.12538 2.75,1.36466 7.82809,4.4863 11.28465,6.93697 l 6.28466,4.45577 6.39764,7.498 c 3.51871,4.1239 10.36561,13.15919 15.21535,20.07843 4.84973,6.91924 13.69767,19.46553 19.66208,27.88064 l 10.84439,15.3002 8.10421,8.66197 8.10422,8.66198 6.61559,5.27847 c 3.63857,2.90316 11.4549,8.46795 17.3696,12.3662 5.91471,3.89825 15.2409,9.62823 20.72487,12.73328 5.48397,3.10505 10.10013,5.47562 10.25814,5.26793 0.15801,-0.20769 1.31676,-2.08878 2.57501,-4.18021 1.25825,-2.09143 2.39604,-3.66643 2.52843,-3.5 0.13239,0.16643 3.46613,5.1401 7.4083,11.0526 l 7.16759,10.75 -8.77236,-0.18025 z"
         id="path3054"
         style="fill:#c2d82e" />
      <path
         d="m -303.24176,430.27115 -123.88462,0.23389 -1.86538,-1.3067 -1.86539,-1.30671 0,-153.87187 0,-153.87186 1.57143,-1.57143 c 0.86428,-0.86429 2.12828,-1.57143 2.80887,-1.57143 0.68059,0 1.99949,0.5625 2.93089,1.25 l 1.69345,1.25 0.24768,150.5 0.24768,150.5 17.75,0.27307 17.75,0.27308 0,-111.52308 0,-111.52307 11.5,0 11.5,0 0,111.5 0,111.5 9.5,0 9.5,0 0,-94 0,-94 11.5,0 11.5,0 0,94 0,94 9.5,0 9.5,0 0,-75.5 0,-75.5 11.5,0 11.5,0 0,75.5 0,75.5 9,0 9,0 0,-54 0,-54 11.5,0 11.5,0 0,54 0,54 30.3,0 30.3,0 1.2,1.2 1.2,1.2 0,2.78095 0,2.78095 -2.25,0.53516 -2.25,0.53515 -123.88461,0.2339 z m -29.11539,-10.26611 9.5,0 0,-92.5 0,-92.5 -9.5,0 -9.5,0 0,92.5 0,92.5 9.5,0 z m 42,0 9.5129,0 -0.25645,-73.75 -0.25645,-73.75 -9,0 -9,0 -0.25645,73.75 -0.25645,73.75 9.5129,0 z m 41,0 8.5,0 0,-52 0,-52 -8.5,0 -8.5,0 0,52 0,52 8.5,0 z m 66.77237,-85.18025 c -4.82481,-0.0991 -10.91428,-0.34897 -13.53218,-0.55519 l -4.75981,-0.37494 2.47776,-4.22797 2.47775,-4.22797 -10.08267,-5.77201 c -5.54548,-3.1746 -15.23162,-9.15768 -21.52477,-13.29572 l -11.44208,-7.52371 -8.97021,-7.46591 -8.9702,-7.4659 -7.95288,-9.60274 c -4.37408,-5.2815 -12.98678,-16.84884 -19.13933,-25.70521 -6.15255,-8.85636 -14.56687,-20.82748 -18.69849,-26.60248 l -7.51204,-10.5 -8.66144,-8.64389 -8.66143,-8.64389 -8.41018,-4.04029 -8.41017,-4.0403 -6.11319,-1.55774 c -3.36226,-0.85676 -10.52583,-2.44541 -15.91905,-3.53033 l -9.80586,-1.97258 -0.77375,-1.25195 -0.77374,-1.25195 0.93102,-1.12183 0.93103,-1.12182 13.23601,2.8324 c 7.2798,1.55782 15.4976,3.57227 18.26177,4.47656 2.76417,0.90429 7.27576,2.76071 10.02576,4.12538 2.75,1.36466 7.82809,4.4863 11.28465,6.93697 l 6.28466,4.45577 6.39764,7.498 c 3.51871,4.1239 10.36561,13.15919 15.21535,20.07843 4.84973,6.91924 13.69767,19.46553 19.66208,27.88064 l 10.84439,15.3002 8.10421,8.66197 8.10422,8.66198 6.61559,5.27847 c 3.63857,2.90316 11.4549,8.46795 17.3696,12.3662 5.91471,3.89825 15.2409,9.62823 20.72487,12.73328 5.48397,3.10505 10.10013,5.47562 10.25814,5.26793 0.15801,-0.20769 1.31676,-2.08878 2.57501,-4.18021 1.25825,-2.09143 2.39604,-3.66643 2.52843,-3.5 0.13239,0.16643 3.46613,5.1401 7.4083,11.0526 l 7.16759,10.75 -8.77236,-0.18025 z"
         id="path3052"
         style="fill:#c2d82e" />
      <path
         d="m -303.24176,430.27115 -123.88462,0.23389 -1.86538,-1.3067 -1.86539,-1.30671 0,-153.87187 0,-153.87186 1.57143,-1.57143 c 0.86428,-0.86429 2.12828,-1.57143 2.80887,-1.57143 0.68059,0 1.99949,0.5625 2.93089,1.25 l 1.69345,1.25 0.24768,150.5 0.24768,150.5 17.75,0.27307 17.75,0.27308 0,-111.52308 0,-111.52307 11.5,0 11.5,0 0,111.5 0,111.5 9.5,0 9.5,0 0,-94 0,-94 11.5,0 11.5,0 0,94 0,94 9.5,0 9.5,0 0,-75.5 0,-75.5 11.5,0 11.5,0 0,75.5 0,75.5 9,0 9,0 0,-54 0,-54 11.5,0 11.5,0 0,54 0,54 30.3,0 30.3,0 1.2,1.2 1.2,1.2 0,2.78095 0,2.78095 -2.25,0.53516 -2.25,0.53515 -123.88461,0.2339 z m -71.11539,-10.26611 8.5,0 0,-109.5 0,-109.5 -8.5,0 -8.5,0 0,109.5 0,109.5 8.5,0 z m 42,0 9.5,0 0,-92.5 0,-92.5 -9.5,0 -9.5,0 0,92.5 0,92.5 9.5,0 z m 42,0 9.5129,0 -0.25645,-73.75 -0.25645,-73.75 -9,0 -9,0 -0.25645,73.75 -0.25645,73.75 9.5129,0 z m 41,0 8.5,0 0,-52 0,-52 -8.5,0 -8.5,0 0,52 0,52 8.5,0 z m 66.77237,-85.18025 c -4.82481,-0.0991 -10.91428,-0.34897 -13.53218,-0.55519 l -4.75981,-0.37494 2.47776,-4.22797 2.47775,-4.22797 -10.08267,-5.77201 c -5.54548,-3.1746 -15.23162,-9.15768 -21.52477,-13.29572 l -11.44208,-7.52371 -8.97021,-7.46591 -8.9702,-7.4659 -7.95288,-9.60274 c -4.37408,-5.2815 -12.98678,-16.84884 -19.13933,-25.70521 -6.15255,-8.85636 -14.56687,-20.82748 -18.69849,-26.60248 l -7.51204,-10.5 -8.66144,-8.64389 -8.66143,-8.64389 -8.41018,-4.04029 -8.41017,-4.0403 -6.11319,-1.55774 c -3.36226,-0.85676 -10.52583,-2.44541 -15.91905,-3.53033 l -9.80586,-1.97258 -0.77375,-1.25195 -0.77374,-1.25195 0.93102,-1.12183 0.93103,-1.12182 13.23601,2.8324 c 7.2798,1.55782 15.4976,3.57227 18.26177,4.47656 2.76417,0.90429 7.27576,2.76071 10.02576,4.12538 2.75,1.36466 7.82809,4.4863 11.28465,6.93697 l 6.28466,4.45577 6.39764,7.498 c 3.51871,4.1239 10.36561,13.15919 15.21535,20.07843 4.84973,6.91924 13.69767,19.46553 19.66208,27.88064 l 10.84439,15.3002 8.10421,8.66197 8.10422,8.66198 6.61559,5.27847 c 3.63857,2.90316 11.4549,8.46795 17.3696,12.3662 5.91471,3.89825 15.2409,9.62823 20.72487,12.73328 5.48397,3.10505 10.10013,5.47562 10.25814,5.26793 0.15801,-0.20769 1.31676,-2.08878 2.57501,-4.18021 1.25825,-2.09143 2.39604,-3.66643 2.52843,-3.5 0.13239,0.16643 3.46613,5.1401 7.4083,11.0526 l 7.16759,10.75 -8.77236,-0.18025 z"
         id="path3050"
         style="fill:#c2d82e" />
      <path
         d="m -303.24176,430.27115 -123.88462,0.23389 -1.86538,-1.3067 -1.86539,-1.30671 0,-153.87187 0,-153.87186 1.57143,-1.57143 c 0.86428,-0.86429 2.12828,-1.57143 2.80887,-1.57143 0.68059,0 1.99949,0.5625 2.93089,1.25 l 1.69345,1.25 0.24768,150.5 0.24768,150.5 17.75,0.27307 17.75,0.27308 0,-111.52308 0,-111.52307 11.5,0 11.5,0 0,111.5 0,111.5 9.5,0 9.5,0 0,-94 0,-94 11.5,0 11.5,0 0,94 0,94 9.5,0 9.5,0 0,-75.5 0,-75.5 11.5,0 11.5,0 0,75.5 0,75.5 9,0 9,0 0,-54 0,-54 11.5,0 11.5,0 0,54 0,54 30.3,0 30.3,0 1.2,1.2 1.2,1.2 0,2.78095 0,2.78095 -2.25,0.53516 -2.25,0.53515 -123.88461,0.2339 z m -71.11539,-10.26611 9.5,0 0,-110 0,-110 -9.5,0 -9.5,0 0,110 0,110 9.5,0 z m 42,0 9.5,0 0,-92.5 0,-92.5 -9.5,0 -9.5,0 0,92.5 0,92.5 9.5,0 z m 42,0 9.5129,0 -0.25645,-73.75 -0.25645,-73.75 -9,0 -9,0 -0.25645,73.75 -0.25645,73.75 9.5129,0 z m 41,0 8.5,0 0,-52 0,-52 -8.5,0 -8.5,0 0,52 0,52 8.5,0 z m 66.77237,-85.18025 c -4.82481,-0.0991 -10.91428,-0.34897 -13.53218,-0.55519 l -4.75981,-0.37494 2.47776,-4.22797 2.47775,-4.22797 -10.08267,-5.77201 c -5.54548,-3.1746 -15.23162,-9.15768 -21.52477,-13.29572 l -11.44208,-7.52371 -8.97021,-7.46591 -8.9702,-7.4659 -7.95288,-9.60274 c -4.37408,-5.2815 -12.98678,-16.84884 -19.13933,-25.70521 -6.15255,-8.85636 -14.56687,-20.82748 -18.69849,-26.60248 l -7.51204,-10.5 -8.66144,-8.64389 -8.66143,-8.64389 -8.41018,-4.04029 -8.41017,-4.0403 -6.11319,-1.55774 c -3.36226,-0.85676 -10.52583,-2.44541 -15.91905,-3.53033 l -9.80586,-1.97258 -0.77375,-1.25195 -0.77374,-1.25195 0.93102,-1.12183 0.93103,-1.12182 13.23601,2.8324 c 7.2798,1.55782 15.4976,3.57227 18.26177,4.47656 2.76417,0.90429 7.27576,2.76071 10.02576,4.12538 2.75,1.36466 7.82809,4.4863 11.28465,6.93697 l 6.28466,4.45577 6.39764,7.498 c 3.51871,4.1239 10.36561,13.15919 15.21535,20.07843 4.84973,6.91924 13.69767,19.46553 19.66208,27.88064 l 10.84439,15.3002 8.10421,8.66197 8.10422,8.66198 6.61559,5.27847 c 3.63857,2.90316 11.4549,8.46795 17.3696,12.3662 5.91471,3.89825 15.2409,9.62823 20.72487,12.73328 5.48397,3.10505 10.10013,5.47562 10.25814,5.26793 0.15801,-0.20769 1.31676,-2.08878 2.57501,-4.18021 1.25825,-2.09143 2.39604,-3.66643 2.52843,-3.5 0.13239,0.16643 3.46613,5.1401 7.4083,11.0526 l 7.16759,10.75 -8.77236,-0.18025 z"
         id="path3048"
         style="fill:#c2d82e" />
      <path
         d="m -301.24182,429.9935 -125.88467,0.51154 -1.86533,-1.3067 -1.86533,-1.30671 0,-153.87187 0,-153.87186 1.57143,-1.57143 c 0.86428,-0.86429 2.12828,-1.57143 2.80887,-1.57143 0.68059,0 1.99949,0.5625 2.93089,1.25 l 1.69345,1.25 0.24768,150.5 0.24768,150.5 59.75,0.19258 59.75,0.19258 0,-75.44258 0,-75.44258 11.5,0 11.5,0 0,75.5 0,75.5 9,0 9,0 0,-54 0,-54 11.5,0 11.5,0 0,54 0,54 30.3,0 30.3,0 1.2,1.2 1.2,1.2 0,2.8 c 0,1.54 -0.1125,2.90731 -0.25,3.03846 -0.1375,0.13115 -56.8981,0.46865 -126.13467,0.75 z m 11.33731,-9.20248 8.54736,-0.28598 0.25641,-74.25 0.2564,-74.25 -9.5064,0 -9.50641,0 0,73.83333 0,73.83334 0.70264,0.70264 0.70265,0.70264 8.54735,-0.28597 z m 40.54736,-0.78598 8.5,0 0,-52 0,-52 -8.5,0 -8.5,0 0,52 0,52 8.5,0 z m 66.77237,-85.18025 c -4.82481,-0.0991 -10.91428,-0.34897 -13.53218,-0.55519 l -4.75981,-0.37494 2.47776,-4.22797 2.47775,-4.22797 -10.08267,-5.77201 c -5.54548,-3.1746 -15.23162,-9.15768 -21.52477,-13.29572 l -11.44208,-7.52371 -8.97021,-7.46591 -8.9702,-7.4659 -7.95288,-9.60274 c -4.37408,-5.2815 -12.98678,-16.84884 -19.13933,-25.70521 -6.15255,-8.85636 -14.56687,-20.82748 -18.69849,-26.60248 l -7.51204,-10.5 -8.66144,-8.64389 -8.66143,-8.64389 -8.41018,-4.04029 -8.41017,-4.0403 -6.11319,-1.55774 c -3.36226,-0.85676 -10.52583,-2.44541 -15.91905,-3.53033 l -9.80586,-1.97258 -0.77375,-1.25195 -0.77374,-1.25195 0.93102,-1.12183 0.93103,-1.12182 13.23601,2.8324 c 7.2798,1.55782 15.4976,3.57227 18.26177,4.47656 2.76417,0.90429 7.27576,2.76071 10.02576,4.12538 2.75,1.36466 7.82809,4.4863 11.28465,6.93697 l 6.28466,4.45577 6.39764,7.498 c 3.51871,4.1239 10.36561,13.15919 15.21535,20.07843 4.84973,6.91924 13.69767,19.46553 19.66208,27.88064 l 10.84439,15.3002 8.10421,8.66197 8.10422,8.66198 6.61559,5.27847 c 3.63857,2.90316 11.4549,8.46795 17.3696,12.3662 5.91471,3.89825 15.2409,9.62823 20.72487,12.73328 5.48397,3.10505 10.10013,5.47562 10.25814,5.26793 0.15801,-0.20769 1.31676,-2.08878 2.57501,-4.18021 1.25825,-2.09143 2.39604,-3.66643 2.52843,-3.5 0.13239,0.16643 3.46613,5.1401 7.4083,11.0526 l 7.16759,10.75 -8.77236,-0.18025 z"
         id="path3046"
         style="fill:#c2d82e" />
      <path
         d="m -301.24182,429.9935 -125.88467,0.51154 -1.86533,-1.3067 -1.86533,-1.30671 0,-153.87187 0,-153.87186 1.57143,-1.57143 c 0.86428,-0.86429 2.12828,-1.57143 2.80887,-1.57143 0.68059,0 1.99949,0.5625 2.93089,1.25 l 1.69345,1.25 0.24768,150.5 0.24768,150.5 59.75,0.19258 59.75,0.19258 0,-75.44258 0,-75.44258 11.5,0 11.5,0 0,75.5 0,75.5 9,0 9,0 0,-54 0,-54 11.5,0 11.5,0 0,54 0,54 30.3,0 30.3,0 1.2,1.2 1.2,1.2 0,2.8 c 0,1.54 -0.1125,2.90731 -0.25,3.03846 -0.1375,0.13115 -56.8981,0.46865 -126.13467,0.75 z m 11.33731,-9.20248 8.54736,-0.28598 0.25641,-74.25 0.2564,-74.25 -9.5064,0 -9.50641,0 0,73.83333 0,73.83334 0.70264,0.70264 0.70265,0.70264 8.54735,-0.28597 z m 40.54736,-0.78598 9.51784,0 -0.25892,-52.25 -0.25892,-52.25 -9,0 -9,0 -0.25892,52.25 -0.25892,52.25 9.51784,0 z m 66.77237,-85.18025 c -4.82481,-0.0991 -10.91428,-0.34897 -13.53218,-0.55519 l -4.75981,-0.37494 2.47776,-4.22797 2.47775,-4.22797 -10.08267,-5.77201 c -5.54548,-3.1746 -15.23162,-9.15768 -21.52477,-13.29572 l -11.44208,-7.52371 -8.97021,-7.46591 -8.9702,-7.4659 -7.95288,-9.60274 c -4.37408,-5.2815 -12.98678,-16.84884 -19.13933,-25.70521 -6.15255,-8.85636 -14.56687,-20.82748 -18.69849,-26.60248 l -7.51204,-10.5 -8.66144,-8.64389 -8.66143,-8.64389 -8.41018,-4.04029 -8.41017,-4.0403 -6.11319,-1.55774 c -3.36226,-0.85676 -10.52583,-2.44541 -15.91905,-3.53033 l -9.80586,-1.97258 -0.77375,-1.25195 -0.77374,-1.25195 0.93102,-1.12183 0.93103,-1.12182 13.23601,2.8324 c 7.2798,1.55782 15.4976,3.57227 18.26177,4.47656 2.76417,0.90429 7.27576,2.76071 10.02576,4.12538 2.75,1.36466 7.82809,4.4863 11.28465,6.93697 l 6.28466,4.45577 6.39764,7.498 c 3.51871,4.1239 10.36561,13.15919 15.21535,20.07843 4.84973,6.91924 13.69767,19.46553 19.66208,27.88064 l 10.84439,15.3002 8.10421,8.66197 8.10422,8.66198 6.61559,5.27847 c 3.63857,2.90316 11.4549,8.46795 17.3696,12.3662 5.91471,3.89825 15.2409,9.62823 20.72487,12.73328 5.48397,3.10505 10.10013,5.47562 10.25814,5.26793 0.15801,-0.20769 1.31676,-2.08878 2.57501,-4.18021 1.25825,-2.09143 2.39604,-3.66643 2.52843,-3.5 0.13239,0.16643 3.46613,5.1401 7.4083,11.0526 l 7.16759,10.75 -8.77236,-0.18025 z"
         id="path3044"
         style="fill:#c2d82e" />
      <path
         d="m -302.85715,430.00504 -125.6,0 -1.2,-1.2 -1.2,-1.2 0,-153.7433 0,-153.74329 2.22251,-1.55671 c 1.22238,-0.85618 2.54023,-1.5567 2.92857,-1.5567 0.38833,0 1.41321,0.70714 2.27749,1.57143 l 1.57143,1.57143 0,150.39812 0,150.39812 122.12715,0.0135 122.12714,0.0135 1.37286,1.13937 1.37285,1.13937 0,2.17755 0,2.17756 -1.2,1.2 -1.2,1.2 -125.6,0 z m 121.75,-95.19586 c -3.4375,-0.10772 -9.29433,-0.35344 -13.01518,-0.54604 l -6.76517,-0.35017 2.48138,-4.23416 2.48139,-4.23416 -9.21621,-5.35948 c -5.06892,-2.94772 -13.49121,-8.08802 -18.71621,-11.4229 -5.225,-3.33488 -12.2,-8.08135 -15.5,-10.5477 -3.3,-2.46636 -8.61336,-6.7169 -11.80746,-9.44563 l -5.80745,-4.96134 -7.92188,-9.49086 -7.92187,-9.49086 -13.20664,-19.11042 c -7.26366,-10.51073 -16.2499,-23.1938 -19.96942,-28.18461 l -6.76278,-9.07419 -7.30779,-6.92581 -7.30778,-6.92581 -6.21817,-3.29516 c -3.41999,-1.81233 -8.80085,-4.18373 -11.95746,-5.26976 -3.15662,-1.08604 -11.35484,-3.09216 -18.21827,-4.45805 l -12.47896,-2.48345 -0.76539,-1.23843 -0.7654,-1.23843 0.88584,-0.88584 0.88583,-0.88583 11.54545,2.15165 c 6.35,1.1834 14.59514,3.09201 18.32253,4.24135 3.72739,1.14934 9.02707,3.21723 11.77707,4.59532 2.75,1.37808 7.77632,4.47375 11.16959,6.87927 l 6.1696,4.37366 6.64732,7.75685 6.64732,7.75685 11.68308,16.89504 c 6.4257,9.29228 16.22983,23.01728 21.78695,30.5 l 10.10386,13.60496 9.46327,9.03899 9.46326,9.03899 11.93287,8.05554 c 6.56309,4.43055 17.00098,11.05051 23.19533,14.71101 6.19435,3.66051 11.60452,6.65547 12.0226,6.65547 0.41808,0 1.60834,-1.575 2.64502,-3.5 1.03668,-1.925 2.19538,-3.5 2.57489,-3.5 0.37951,0 3.68365,4.49626 7.34253,9.99169 3.65888,5.49544 6.65251,10.22044 6.65251,10.5 0,0.27957 -2.8125,0.42017 -6.25,0.31245 z"
         id="path3042"
         style="fill:#c2d82e" />
    </g>
  </g>
</svg>
