<?xml version="1.0" encoding="UTF-8"?>
<!DOCTYPE svg PUBLIC "-//W3C//DTD SVG 1.1//EN" "http://www.w3.org/Graphics/SVG/1.1/DTD/svg11.dtd">
<svg xmlns="http://www.w3.org/2000/svg" version="1.1" width="512px" height="512px" style="shape-rendering:geometricPrecision; text-rendering:geometricPrecision; image-rendering:optimizeQuality; fill-rule:evenodd; clip-rule:evenodd" xmlns:xlink="http://www.w3.org/1999/xlink">
<g><path style="opacity:0.021" fill="#43443f" d="M -0.5,-0.5 C 0.166667,-0.5 0.833333,-0.5 1.5,-0.5C 1.16667,0.5 0.5,1.16667 -0.5,1.5C -0.5,0.833333 -0.5,0.166667 -0.5,-0.5 Z"/></g>
<g><path style="opacity:0.022" fill="#43443f" d="M 16.5,-0.5 C 18.1667,-0.5 19.8333,-0.5 21.5,-0.5C 14.5,7.16667 7.16667,14.5 -0.5,21.5C -0.5,19.8333 -0.5,18.1667 -0.5,16.5C 5.5,11.1667 11.1667,5.5 16.5,-0.5 Z"/></g>
<g><path style="opacity:0.022" fill="#43443f" d="M 36.5,-0.5 C 38.1667,-0.5 39.8333,-0.5 41.5,-0.5C 27.8333,13.8333 13.8333,27.8333 -0.5,41.5C -0.5,39.8333 -0.5,38.1667 -0.5,36.5C 12.1667,24.5 24.5,12.1667 36.5,-0.5 Z"/></g>
<g><path style="opacity:0.022" fill="#43443f" d="M 56.5,-0.5 C 58.1667,-0.5 59.8333,-0.5 61.5,-0.5C 41.1667,20.5 20.5,41.1667 -0.5,61.5C -0.5,59.8333 -0.5,58.1667 -0.5,56.5C 18.8333,37.8333 37.8333,18.8333 56.5,-0.5 Z"/></g>
<g><path style="opacity:0.022" fill="#43443f" d="M 76.5,-0.5 C 78.1667,-0.5 79.8333,-0.5 81.5,-0.5C 67.8333,13.5 54.1667,27.5 40.5,41.5C 39.5,41.5 38.5,41.5 37.5,41.5C 37.5,42.5 37.5,43.5 37.5,44.5C 24.8333,56.8333 12.1667,69.1667 -0.5,81.5C -0.5,79.8333 -0.5,78.1667 -0.5,76.5C 25.5,51.1667 51.1667,25.5 76.5,-0.5 Z"/></g>
<g><path style="opacity:0.022" fill="#43443f" d="M 96.5,-0.5 C 98.1667,-0.5 99.8333,-0.5 101.5,-0.5C 84.1667,17.5 66.5,35.1667 48.5,52.5C 48.5,50.8333 48.5,49.1667 48.5,47.5C 64.8333,31.8333 80.8333,15.8333 96.5,-0.5 Z"/></g>
<g><path style="opacity:0.022" fill="#43443f" d="M 116.5,-0.5 C 118.167,-0.5 119.833,-0.5 121.5,-0.5C 97.5,24.1667 73.1667,48.5 48.5,72.5C 48.5,70.8333 48.5,69.1667 48.5,67.5C 71.5,45.1667 94.1667,22.5 116.5,-0.5 Z"/></g>
<g><path style="opacity:0.022" fill="#43443f" d="M 136.5,-0.5 C 138.167,-0.5 139.833,-0.5 141.5,-0.5C 110.833,30.8333 79.8333,61.8333 48.5,92.5C 48.5,90.8333 48.5,89.1667 48.5,87.5C 78.1667,58.5 107.5,29.1667 136.5,-0.5 Z"/></g>
<g><path style="opacity:0.022" fill="#43443f" d="M 156.5,-0.5 C 158.167,-0.5 159.833,-0.5 161.5,-0.5C 124.167,37.5 86.5,75.1667 48.5,112.5C 48.5,110.833 48.5,109.167 48.5,107.5C 84.8333,71.8333 120.833,35.8333 156.5,-0.5 Z"/></g>
<g><path style="opacity:0.022" fill="#43443f" d="M 176.5,-0.5 C 178.167,-0.5 179.833,-0.5 181.5,-0.5C 137.5,44.1667 93.1667,88.5 48.5,132.5C 48.5,130.833 48.5,129.167 48.5,127.5C 91.5,85.1667 134.167,42.5 176.5,-0.5 Z"/></g>
<g><path style="opacity:0.022" fill="#43443f" d="M 196.5,-0.5 C 198.167,-0.5 199.833,-0.5 201.5,-0.5C 150.833,50.8333 99.8333,101.833 48.5,152.5C 48.5,150.833 48.5,149.167 48.5,147.5C 98.1667,98.5 147.5,49.1667 196.5,-0.5 Z"/></g>
<g><path style="opacity:0.022" fill="#444440" d="M 216.5,-0.5 C 218.167,-0.5 219.833,-0.5 221.5,-0.5C 204.5,16.8333 187.5,34.1667 170.5,51.5C 169.833,51.5 169.5,51.8333 169.5,52.5C 156.833,60.5 146.5,70.8333 138.5,83.5C 137.833,83.5 137.5,83.8333 137.5,84.5C 107.833,113.833 78.1667,143.167 48.5,172.5C 48.5,170.833 48.5,169.167 48.5,167.5C 104.833,111.833 160.833,55.8333 216.5,-0.5 Z"/></g>
<g><path style="opacity:0.022" fill="#43443f" d="M 236.5,-0.5 C 238.167,-0.5 239.833,-0.5 241.5,-0.5C 227.833,13.5 214.167,27.5 200.5,41.5C 198.621,42.3414 196.621,42.6747 194.5,42.5C 208.5,28.1667 222.5,13.8333 236.5,-0.5 Z"/></g>
<g><path style="opacity:0.022" fill="#43443f" d="M 256.5,-0.5 C 258.167,-0.5 259.833,-0.5 261.5,-0.5C 247.833,13.5 234.167,27.5 220.5,41.5C 218.833,41.5 217.167,41.5 215.5,41.5C 229.167,27.5 242.833,13.5 256.5,-0.5 Z"/></g>
<g><path style="opacity:0.022" fill="#43443f" d="M 276.5,-0.5 C 278.167,-0.5 279.833,-0.5 281.5,-0.5C 266.833,14.5 252.167,29.5 237.5,44.5C 236.167,44.1667 234.833,43.8333 233.5,43.5C 247.833,28.8333 262.167,14.1667 276.5,-0.5 Z"/></g>
<g><path style="opacity:0.022" fill="#43443f" d="M 296.5,-0.5 C 298.167,-0.5 299.833,-0.5 301.5,-0.5C 285.167,16.5 268.5,33.1667 251.5,49.5C 250.391,49.4431 249.391,49.1098 248.5,48.5C 264.5,32.1667 280.5,15.8333 296.5,-0.5 Z"/></g>
<g><path style="opacity:0.022" fill="#43443f" d="M 316.5,-0.5 C 318.167,-0.5 319.833,-0.5 321.5,-0.5C 302.5,18.8333 283.5,38.1667 264.5,57.5C 263.29,57.0679 262.29,56.4013 261.5,55.5C 279.833,36.8333 298.167,18.1667 316.5,-0.5 Z"/></g>
<g><path style="opacity:0.022" fill="#43443f" d="M 336.5,-0.5 C 338.167,-0.5 339.833,-0.5 341.5,-0.5C 319.5,22.1667 297.167,44.5 274.5,66.5C 273.5,66.1667 272.833,65.5 272.5,64.5C 293.833,42.8333 315.167,21.1667 336.5,-0.5 Z"/></g>
<g><path style="opacity:0.022" fill="#444440" d="M 356.5,-0.5 C 358.167,-0.5 359.833,-0.5 361.5,-0.5C 335.833,25.8333 309.833,51.8333 283.5,77.5C 282.599,76.7095 281.932,75.7095 281.5,74.5C 306.833,49.8333 331.833,24.8333 356.5,-0.5 Z"/></g>
<g><path style="opacity:0.022" fill="#43443f" d="M 376.5,-0.5 C 378.167,-0.5 379.833,-0.5 381.5,-0.5C 351.5,29.8333 321.5,60.1667 291.5,90.5C 290.326,89.4863 289.66,88.153 289.5,86.5C 318.833,57.8333 347.833,28.8333 376.5,-0.5 Z"/></g>
<g><path style="opacity:0.022" fill="#43443f" d="M 396.5,-0.5 C 398.167,-0.5 399.833,-0.5 401.5,-0.5C 366.833,34.8333 331.833,69.8333 296.5,104.5C 295.566,103.432 295.232,102.099 295.5,100.5C 329.5,67.1667 363.167,33.5 396.5,-0.5 Z"/></g>
<g><path style="opacity:0.022" fill="#444440" d="M 416.5,-0.5 C 418.167,-0.5 419.833,-0.5 421.5,-0.5C 407.5,13.8333 393.5,28.1667 379.5,42.5C 377.435,42.5172 375.435,42.8505 373.5,43.5C 387.833,28.8333 402.167,14.1667 416.5,-0.5 Z"/></g>
<g><path style="opacity:0.022" fill="#43443f" d="M 436.5,-0.5 C 438.167,-0.5 439.833,-0.5 441.5,-0.5C 427.167,14.5 412.5,29.1667 397.5,43.5C 395.901,43.7678 394.568,43.4345 393.5,42.5C 408.167,28.5 422.5,14.1667 436.5,-0.5 Z"/></g>
<g><path style="opacity:0.022" fill="#43443f" d="M 456.5,-0.5 C 458.167,-0.5 459.833,-0.5 461.5,-0.5C 444.833,16.8333 427.833,33.8333 410.5,50.5C 409.29,50.0679 408.29,49.4013 407.5,48.5C 424.167,32.5 440.5,16.1667 456.5,-0.5 Z"/></g>
<g><path style="opacity:0.022" fill="#43443f" d="M 476.5,-0.5 C 478.167,-0.5 479.833,-0.5 481.5,-0.5C 461.167,20.1667 440.833,40.8333 420.5,61.5C 419.599,60.7095 418.932,59.7095 418.5,58.5C 437.833,38.8333 457.167,19.1667 476.5,-0.5 Z"/></g>
<g><path style="opacity:0.022" fill="#43443f" d="M 496.5,-0.5 C 498.167,-0.5 499.833,-0.5 501.5,-0.5C 476.5,24.8333 451.5,50.1667 426.5,75.5C 425.566,74.4324 425.232,73.099 425.5,71.5C 449.167,47.5 472.833,23.5 496.5,-0.5 Z"/></g>
<g><path style="opacity:0.022" fill="#43443f" d="M 511.5,5.5 C 511.5,7.16667 511.5,8.83333 511.5,10.5C 483.167,38.5 454.833,66.5 426.5,94.5C 426.5,92.8333 426.5,91.1667 426.5,89.5C 454.833,61.5 483.167,33.5 511.5,5.5 Z"/></g>
<g><path style="opacity:0.022" fill="#434440" d="M 511.5,25.5 C 511.5,27.1667 511.5,28.8333 511.5,30.5C 474.167,67.1667 437.167,104.167 400.5,141.5C 399.29,141.068 398.29,140.401 397.5,139.5C 435.167,101.167 473.167,63.1667 511.5,25.5 Z"/></g>
<g><path style="opacity:0.022" fill="#43433f" d="M 511.5,45.5 C 511.5,47.1667 511.5,48.8333 511.5,50.5C 478.5,82.8333 445.833,115.5 413.5,148.5C 411.973,148.573 410.973,147.906 410.5,146.5C 443.833,112.5 477.5,78.8333 511.5,45.5 Z"/></g>
<g><path style="opacity:0.998" fill="#c2d82e" d="M 379.5,42.5 C 384.167,42.5 388.833,42.5 393.5,42.5C 394.568,43.4345 395.901,43.7678 397.5,43.5C 400.768,45.134 404.101,46.8007 407.5,48.5C 408.29,49.4013 409.29,50.0679 410.5,50.5C 412.833,53.5 415.5,56.1667 418.5,58.5C 418.932,59.7095 419.599,60.7095 420.5,61.5C 422.199,64.8987 423.866,68.232 425.5,71.5C 425.232,73.099 425.566,74.4324 426.5,75.5C 426.5,80.1667 426.5,84.8333 426.5,89.5C 426.5,91.1667 426.5,92.8333 426.5,94.5C 421.167,111.167 410.167,122.167 393.5,127.5C 391.833,127.5 390.167,127.5 388.5,127.5C 383.833,127.5 379.167,127.5 374.5,127.5C 373.432,126.566 372.099,126.232 370.5,126.5C 367.241,124.847 363.907,123.181 360.5,121.5C 359.71,120.599 358.71,119.932 357.5,119.5C 355.167,116.5 352.5,113.833 349.5,111.5C 349.573,109.973 348.906,108.973 347.5,108.5C 345.819,105.093 344.153,101.759 342.5,98.5C 342.768,96.901 342.434,95.5676 341.5,94.5C 341.5,89.8333 341.5,85.1667 341.5,80.5C 341.517,78.4352 341.85,76.4352 342.5,74.5C 346.833,58.1667 357.167,47.8333 373.5,43.5C 375.435,42.8505 377.435,42.5172 379.5,42.5 Z"/></g>
<g><path style="opacity:0.022" fill="#43443f" d="M 37.5,59.5 C 37.5,61.1667 37.5,62.8333 37.5,64.5C 24.8333,76.8333 12.1667,89.1667 -0.5,101.5C -0.5,99.8333 -0.5,98.1667 -0.5,96.5C 12.1667,84.1667 24.8333,71.8333 37.5,59.5 Z"/></g>
<g><path style="opacity:0.022" fill="#43433f" d="M 511.5,65.5 C 511.5,67.1667 511.5,68.8333 511.5,70.5C 482.167,99.1667 453.167,128.167 424.5,157.5C 423.167,156.833 422.167,155.833 421.5,154.5C 451.5,124.833 481.5,95.1667 511.5,65.5 Z"/></g>
<g><path style="opacity:0.999" fill="#d7dfe6" d="M 200.5,41.5 C 205.5,41.5 210.5,41.5 215.5,41.5C 217.167,41.5 218.833,41.5 220.5,41.5C 224.924,41.652 229.257,42.3187 233.5,43.5C 234.833,43.8333 236.167,44.1667 237.5,44.5C 241.279,45.5578 244.946,46.8911 248.5,48.5C 249.391,49.1098 250.391,49.4431 251.5,49.5C 254.798,51.4854 258.131,53.4854 261.5,55.5C 262.29,56.4013 263.29,57.0679 264.5,57.5C 267.141,59.8044 269.808,62.1377 272.5,64.5C 272.833,65.5 273.5,66.1667 274.5,66.5C 276.862,69.192 279.196,71.8587 281.5,74.5C 281.932,75.7095 282.599,76.7095 283.5,77.5C 285.533,80.5229 287.533,83.5229 289.5,86.5C 289.66,88.153 290.326,89.4863 291.5,90.5C 292.321,94.1267 293.654,97.46 295.5,100.5C 295.232,102.099 295.566,103.432 296.5,104.5C 297.167,108.833 297.833,113.167 298.5,117.5C 298.5,119.167 298.5,120.833 298.5,122.5C 298.5,126.5 298.5,130.5 298.5,134.5C 261.5,149.5 235.5,175.5 220.5,212.5C 216.5,212.5 212.5,212.5 208.5,212.5C 205.5,212.5 202.5,212.5 199.5,212.5C 196.727,211.343 193.727,210.676 190.5,210.5C 189.432,209.566 188.099,209.232 186.5,209.5C 183.46,207.654 180.127,206.321 176.5,205.5C 175.486,204.326 174.153,203.66 172.5,203.5C 169.523,201.533 166.523,199.533 163.5,197.5C 162.71,196.599 161.71,195.932 160.5,195.5C 157.859,193.196 155.192,190.862 152.5,188.5C 152.167,187.5 151.5,186.833 150.5,186.5C 148.138,183.808 145.804,181.141 143.5,178.5C 143.068,177.29 142.401,176.29 141.5,175.5C 139.485,172.131 137.485,168.798 135.5,165.5C 135.443,164.391 135.11,163.391 134.5,162.5C 132.891,158.946 131.558,155.279 130.5,151.5C 130.167,150.167 129.833,148.833 129.5,147.5C 128.319,143.257 127.652,138.924 127.5,134.5C 127.5,132.833 127.5,131.167 127.5,129.5C 127.5,124.5 127.5,119.5 127.5,114.5C 128.341,112.621 128.675,110.621 128.5,108.5C 130.935,100.295 133.935,92.295 137.5,84.5C 138.167,84.5 138.5,84.1667 138.5,83.5C 146.5,70.8333 156.833,60.5 169.5,52.5C 170.167,52.5 170.5,52.1667 170.5,51.5C 178.295,47.9351 186.295,44.9351 194.5,42.5C 196.621,42.6747 198.621,42.3414 200.5,41.5 Z"/></g>
<g><path style="opacity:0.022" fill="#444440" d="M 342.5,74.5 C 341.85,76.4352 341.517,78.4352 341.5,80.5C 327.167,94.5 312.833,108.5 298.5,122.5C 298.5,120.833 298.5,119.167 298.5,117.5C 313.167,103.167 327.833,88.8333 342.5,74.5 Z"/></g>
<g><path style="opacity:0.022" fill="#43443f" d="M 37.5,79.5 C 37.5,81.1667 37.5,82.8333 37.5,84.5C 24.8333,96.8333 12.1667,109.167 -0.5,121.5C -0.5,119.833 -0.5,118.167 -0.5,116.5C 12.1667,104.167 24.8333,91.8333 37.5,79.5 Z"/></g>
<g><path style="opacity:0.022" fill="#43443f" d="M 511.5,85.5 C 511.5,87.1667 511.5,88.8333 511.5,90.5C 485.833,115.833 460.167,141.167 434.5,166.5C 433.5,166.167 432.833,165.5 432.5,164.5C 458.5,137.833 484.833,111.5 511.5,85.5 Z"/></g>
<g><path style="opacity:0.022" fill="#43433f" d="M 341.5,94.5 C 342.434,95.5676 342.768,96.901 342.5,98.5C 332.167,109.167 321.833,119.833 311.5,130.5C 309.167,131.167 306.833,131.833 304.5,132.5C 316.833,119.833 329.167,107.167 341.5,94.5 Z"/></g>
<g><path style="opacity:0.022" fill="#43443f" d="M 37.5,99.5 C 37.5,101.167 37.5,102.833 37.5,104.5C 24.8333,116.833 12.1667,129.167 -0.5,141.5C -0.5,139.833 -0.5,138.167 -0.5,136.5C 12.1667,124.167 24.8333,111.833 37.5,99.5 Z"/></g>
<g><path style="opacity:0.022" fill="#43433f" d="M 511.5,105.5 C 511.5,107.167 511.5,108.833 511.5,110.5C 488.449,132.55 466.116,155.217 444.5,178.5C 443.512,177.205 442.512,175.872 441.5,174.5C 464.833,151.5 488.167,128.5 511.5,105.5 Z"/></g>
<g><path style="opacity:0.022" fill="#43443f" d="M 128.5,108.5 C 128.675,110.621 128.341,112.621 127.5,114.5C 101.167,140.5 74.8333,166.5 48.5,192.5C 48.5,190.833 48.5,189.167 48.5,187.5C 75.1667,161.167 101.833,134.833 128.5,108.5 Z"/></g>
<g><path style="opacity:0.022" fill="#444440" d="M 347.5,108.5 C 348.906,108.973 349.573,109.973 349.5,111.5C 344.5,116.833 339.5,122.167 334.5,127.5C 332.833,127.5 331.167,127.5 329.5,127.5C 335.5,121.167 341.5,114.833 347.5,108.5 Z"/></g>
<g><path style="opacity:0.022" fill="#43443f" d="M 37.5,119.5 C 37.5,121.167 37.5,122.833 37.5,124.5C 24.8333,136.833 12.1667,149.167 -0.5,161.5C -0.5,159.833 -0.5,158.167 -0.5,156.5C 12.1667,144.167 24.8333,131.833 37.5,119.5 Z"/></g>
<g><path style="opacity:0.022" fill="#43443f" d="M 357.5,119.5 C 358.71,119.932 359.71,120.599 360.5,121.5C 358.167,123.167 356.167,125.167 354.5,127.5C 352.833,127.5 351.167,127.5 349.5,127.5C 351.833,124.5 354.5,121.833 357.5,119.5 Z"/></g>
<g><path style="opacity:0.022" fill="#43433f" d="M 511.5,125.5 C 511.5,127.167 511.5,128.833 511.5,130.5C 491.5,149.833 471.833,169.5 452.5,189.5C 451.094,189.027 450.427,188.027 450.5,186.5C 470.5,165.833 490.833,145.5 511.5,125.5 Z"/></g>
<g><path style="opacity:0.998" fill="#282c37" d="M 370.5,126.5 C 372.099,126.232 373.432,126.566 374.5,127.5C 373.373,128.122 372.373,128.955 371.5,130C 375.417,131.479 379.417,132.646 383.5,133.5C 384.209,134.404 385.209,134.737 386.5,134.5C 389.983,136.406 393.65,138.072 397.5,139.5C 398.29,140.401 399.29,141.068 400.5,141.5C 403.807,143.153 407.14,144.82 410.5,146.5C 410.973,147.906 411.973,148.573 413.5,148.5C 415.86,150.853 418.527,152.853 421.5,154.5C 422.167,155.833 423.167,156.833 424.5,157.5C 427.167,159.833 429.833,162.167 432.5,164.5C 432.833,165.5 433.5,166.167 434.5,166.5C 436.833,169.167 439.167,171.833 441.5,174.5C 442.512,175.872 443.512,177.205 444.5,178.5C 446.512,181.205 448.512,183.872 450.5,186.5C 450.427,188.027 451.094,189.027 452.5,189.5C 453.833,192.5 455.167,195.5 456.5,198.5C 457.167,199.833 457.833,201.167 458.5,202.5C 460.377,206.155 462.043,209.822 463.5,213.5C 463.263,214.791 463.596,215.791 464.5,216.5C 465.192,220.6 466.192,224.6 467.5,228.5C 467.216,230.415 467.549,232.081 468.5,233.5C 468.927,237.824 469.261,242.158 469.5,246.5C 469.5,248.167 469.5,249.833 469.5,251.5C 469.5,256.5 469.5,261.5 469.5,266.5C 469.5,268.167 469.5,269.833 469.5,271.5C 468.172,277.805 466.839,284.139 465.5,290.5C 464.388,292.599 463.721,294.933 463.5,297.5C 459.621,307.59 454.954,317.257 449.5,326.5C 448.833,326.5 448.5,326.833 448.5,327.5C 447.833,327.5 447.5,327.833 447.5,328.5C 439.506,339.827 429.839,349.494 418.5,357.5C 401.348,339.038 381.682,335.871 359.5,348C 347.569,356.781 341.569,368.614 341.5,383.5C 340.167,383.5 338.833,383.5 337.5,383.5C 335.833,383.5 334.167,383.5 332.5,383.5C 328.158,383.261 323.824,382.927 319.5,382.5C 318.081,381.549 316.415,381.216 314.5,381.5C 310.6,380.192 306.6,379.192 302.5,378.5C 301.791,377.596 300.791,377.263 299.5,377.5C 296.128,375.754 292.628,374.088 289,372.5C 286.63,375.039 284.13,377.372 281.5,379.5C 283.258,376.663 284.425,373.663 285,370.5C 234.203,342.256 210.537,298.923 214,240.5C 215.68,232.116 217.513,223.783 219.5,215.5C 219.557,214.391 219.89,213.391 220.5,212.5C 235.5,175.5 261.5,149.5 298.5,134.5C 300.421,133.637 302.421,132.971 304.5,132.5C 306.833,131.833 309.167,131.167 311.5,130.5C 317.428,129.129 323.428,128.129 329.5,127.5C 331.167,127.5 332.833,127.5 334.5,127.5C 339.5,127.5 344.5,127.5 349.5,127.5C 351.167,127.5 352.833,127.5 354.5,127.5C 358.35,128.026 362.184,128.693 366,129.5C 367.643,128.685 369.143,127.685 370.5,126.5 Z"/></g>
<g><path style="opacity:0.022" fill="#43443f" d="M 388.5,127.5 C 390.167,127.5 391.833,127.5 393.5,127.5C 391.5,130.167 389.167,132.5 386.5,134.5C 385.209,134.737 384.209,134.404 383.5,133.5C 385.167,131.5 386.833,129.5 388.5,127.5 Z"/></g>
<g><path style="opacity:0.022" fill="#43443f" d="M 127.5,129.5 C 127.5,131.167 127.5,132.833 127.5,134.5C 101.167,160.5 74.8333,186.5 48.5,212.5C 48.5,210.833 48.5,209.167 48.5,207.5C 74.8333,181.5 101.167,155.5 127.5,129.5 Z"/></g>
<g><path style="opacity:0.022" fill="#43443f" d="M 37.5,139.5 C 37.5,141.167 37.5,142.833 37.5,144.5C 24.8333,156.833 12.1667,169.167 -0.5,181.5C -0.5,179.833 -0.5,178.167 -0.5,176.5C 12.1667,164.167 24.8333,151.833 37.5,139.5 Z"/></g>
<g><path style="opacity:0.022" fill="#43433f" d="M 511.5,145.5 C 511.5,147.167 511.5,148.833 511.5,150.5C 493.833,167.833 476.167,185.167 458.5,202.5C 457.833,201.167 457.167,199.833 456.5,198.5C 457.239,198.631 457.906,198.464 458.5,198C 476.035,180.298 493.701,162.798 511.5,145.5 Z"/></g>
<g><path style="opacity:0.022" fill="#43443f" d="M 129.5,147.5 C 129.833,148.833 130.167,150.167 130.5,151.5C 123.833,157.5 117.5,163.833 111.5,170.5C 109.833,170.5 108.167,170.5 106.5,170.5C 113.833,162.5 121.5,154.833 129.5,147.5 Z"/></g>
<g><path style="opacity:0.022" fill="#43443f" d="M 37.5,159.5 C 37.5,161.167 37.5,162.833 37.5,164.5C 24.8333,176.833 12.1667,189.167 -0.5,201.5C -0.5,199.833 -0.5,198.167 -0.5,196.5C 12.1667,184.167 24.8333,171.833 37.5,159.5 Z"/></g>
<g><path style="opacity:0.022" fill="#43443f" d="M 134.5,162.5 C 135.11,163.391 135.443,164.391 135.5,165.5C 131.833,169.833 127.833,173.833 123.5,177.5C 122.5,177.167 121.833,176.5 121.5,175.5C 125.5,170.833 129.833,166.5 134.5,162.5 Z"/></g>
<g><path style="opacity:0.022" fill="#43443f" d="M 511.5,165.5 C 511.5,167.167 511.5,168.833 511.5,170.5C 495.833,185.833 480.167,201.167 464.5,216.5C 463.596,215.791 463.263,214.791 463.5,213.5C 479.167,197.167 495.167,181.167 511.5,165.5 Z"/></g>
<g><path style="opacity:0.984" fill="#272b36" d="M 106.5,170.5 C 108.167,170.5 109.833,170.5 111.5,170.5C 115.117,171.642 118.45,173.308 121.5,175.5C 121.833,176.5 122.5,177.167 123.5,177.5C 125.683,180.864 127.016,184.53 127.5,188.5C 127.5,190.167 127.5,191.833 127.5,193.5C 126.167,204.833 119.833,211.167 108.5,212.5C 106.833,212.5 105.167,212.5 103.5,212.5C 99.5304,212.016 95.8637,210.683 92.5,208.5C 92.1667,207.5 91.5,206.833 90.5,206.5C 88.3084,203.45 86.6417,200.117 85.5,196.5C 85.5,194.833 85.5,193.167 85.5,191.5C 86.1667,178.167 93.1667,171.167 106.5,170.5 Z"/></g>
<g><path style="opacity:0.022" fill="#43443f" d="M 141.5,175.5 C 142.401,176.29 143.068,177.29 143.5,178.5C 138.167,183.5 132.833,188.5 127.5,193.5C 127.5,191.833 127.5,190.167 127.5,188.5C 132.167,184.167 136.833,179.833 141.5,175.5 Z"/></g>
<g><path style="opacity:0.022" fill="#43443f" d="M 37.5,179.5 C 37.5,181.167 37.5,182.833 37.5,184.5C 24.8333,196.833 12.1667,209.167 -0.5,221.5C -0.5,219.833 -0.5,218.167 -0.5,216.5C 12.1667,204.167 24.8333,191.833 37.5,179.5 Z"/></g>
<g><path style="opacity:0.022" fill="#43433f" d="M 511.5,185.5 C 511.5,187.167 511.5,188.833 511.5,190.5C 496.833,204.5 482.5,218.833 468.5,233.5C 467.549,232.081 467.216,230.415 467.5,228.5C 482.167,214.167 496.833,199.833 511.5,185.5 Z"/></g>
<g><path style="opacity:0.022" fill="#43443f" d="M 150.5,186.5 C 151.5,186.833 152.167,187.5 152.5,188.5C 118.167,223.5 83.5,258.167 48.5,292.5C 48.5,290.833 48.5,289.167 48.5,287.5C 82.5,253.833 116.5,220.167 150.5,186.5 Z"/></g>
<g><path style="opacity:0.022" fill="#43443f" d="M 85.5,191.5 C 85.5,193.167 85.5,194.833 85.5,196.5C 73.1667,208.5 60.8333,220.5 48.5,232.5C 48.5,230.833 48.5,229.167 48.5,227.5C 60.8333,215.5 73.1667,203.5 85.5,191.5 Z"/></g>
<g><path style="opacity:0.022" fill="#444440" d="M 160.5,195.5 C 161.71,195.932 162.71,196.599 163.5,197.5C 153.833,207.5 144.167,217.5 134.5,227.5C 133.833,227.5 133.5,227.833 133.5,228.5C 132.833,228.5 132.5,228.833 132.5,229.5C 119.833,237.5 109.5,247.833 101.5,260.5C 100.833,260.5 100.5,260.833 100.5,261.5C 99.8333,261.5 99.5,261.833 99.5,262.5C 82.5,279.167 65.5,295.833 48.5,312.5C 48.5,310.833 48.5,309.167 48.5,307.5C 86.1667,270.5 123.5,233.167 160.5,195.5 Z"/></g>
<g><path style="opacity:0.022" fill="#43443f" d="M 37.5,199.5 C 37.5,201.167 37.5,202.833 37.5,204.5C 24.8333,216.833 12.1667,229.167 -0.5,241.5C -0.5,239.833 -0.5,238.167 -0.5,236.5C 12.1667,224.167 24.8333,211.833 37.5,199.5 Z"/></g>
<g><path style="opacity:0.022" fill="#43443f" d="M 172.5,203.5 C 174.153,203.66 175.486,204.326 176.5,205.5C 173.167,208.167 170.167,211.167 167.5,214.5C 165.228,215.319 162.894,215.985 160.5,216.5C 164.5,212.167 168.5,207.833 172.5,203.5 Z"/></g>
<g><path style="opacity:0.022" fill="#43443f" d="M 511.5,205.5 C 511.5,207.167 511.5,208.833 511.5,210.5C 497.5,224.167 483.5,237.833 469.5,251.5C 469.5,249.833 469.5,248.167 469.5,246.5C 483.5,232.833 497.5,219.167 511.5,205.5 Z"/></g>
<g><path style="opacity:0.022" fill="#43443f" d="M 90.5,206.5 C 91.5,206.833 92.1667,207.5 92.5,208.5C 78.1667,223.5 63.5,238.167 48.5,252.5C 48.5,250.833 48.5,249.167 48.5,247.5C 62.5,233.833 76.5,220.167 90.5,206.5 Z"/></g>
<g><path style="opacity:0.022" fill="#43443f" d="M 186.5,209.5 C 188.099,209.232 189.432,209.566 190.5,210.5C 190.167,211.167 189.833,211.833 189.5,212.5C 187.833,212.5 186.167,212.5 184.5,212.5C 185.167,211.5 185.833,210.5 186.5,209.5 Z"/></g>
<g><path style="opacity:0.022" fill="#43443f" d="M 103.5,212.5 C 105.167,212.5 106.833,212.5 108.5,212.5C 88.8333,232.833 68.8333,252.833 48.5,272.5C 48.5,270.833 48.5,269.167 48.5,267.5C 67.1667,249.5 85.5,231.167 103.5,212.5 Z"/></g>
<g><path style="opacity:0.022" fill="#43443f" d="M 37.5,219.5 C 37.5,221.167 37.5,222.833 37.5,224.5C 24.8333,236.833 12.1667,249.167 -0.5,261.5C -0.5,259.833 -0.5,258.167 -0.5,256.5C 12.1667,244.167 24.8333,231.833 37.5,219.5 Z"/></g>
<g><path style="opacity:0.022" fill="#43443f" d="M 511.5,225.5 C 511.5,227.167 511.5,228.833 511.5,230.5C 497.5,244.167 483.5,257.833 469.5,271.5C 469.5,269.833 469.5,268.167 469.5,266.5C 483.5,252.833 497.5,239.167 511.5,225.5 Z"/></g>
<g><path style="opacity:0.998" fill="#c2d82e" d="M 184.5,212.5 C 186.167,212.5 187.833,212.5 189.5,212.5C 192.833,212.5 196.167,212.5 199.5,212.5C 202.5,212.5 205.5,212.5 208.5,212.5C 211.937,213.945 215.603,214.945 219.5,215.5C 217.513,223.783 215.68,232.116 214,240.5C 210.537,298.923 234.203,342.256 285,370.5C 284.425,373.663 283.258,376.663 281.5,379.5C 273.167,391.167 263.167,401.167 251.5,409.5C 247.7,411.234 244.034,413.234 240.5,415.5C 239.833,415.5 239.5,415.833 239.5,416.5C 231.925,419.455 224.259,422.122 216.5,424.5C 214.435,424.517 212.435,424.85 210.5,425.5C 205.203,426.275 199.87,426.608 194.5,426.5C 192.833,426.5 191.167,426.5 189.5,426.5C 184.737,426.774 180.07,426.441 175.5,425.5C 173.833,425.5 172.167,425.5 170.5,425.5C 166.761,423.898 162.761,422.898 158.5,422.5C 157.71,421.599 156.71,420.932 155.5,420.5C 151.721,419.442 148.054,418.109 144.5,416.5C 143.71,415.599 142.71,414.932 141.5,414.5C 138.167,412.833 134.833,411.167 131.5,409.5C 131.027,408.094 130.027,407.427 128.5,407.5C 125.874,405.177 123.207,402.843 120.5,400.5C 120.027,399.094 119.027,398.427 117.5,398.5C 115.138,395.808 112.804,393.141 110.5,390.5C 110.167,389.5 109.5,388.833 108.5,388.5C 106.518,385.19 104.185,382.19 101.5,379.5C 101.573,377.973 100.906,376.973 99.5,376.5C 98.2262,373.24 96.5595,370.24 94.5,367.5C 94.5674,366.041 94.2341,364.708 93.5,363.5C 92.011,359.677 90.3443,356.01 88.5,352.5C 88.7678,350.901 88.4345,349.568 87.5,348.5C 86.7048,344.524 86.0381,340.524 85.5,336.5C 85.5674,335.041 85.2341,333.708 84.5,332.5C 84.5,327.5 84.5,322.5 84.5,317.5C 84.5,315.833 84.5,314.167 84.5,312.5C 84.6233,306.762 85.29,301.096 86.5,295.5C 87.3186,293.228 87.9853,290.894 88.5,288.5C 91.3954,279.473 95.062,270.806 99.5,262.5C 100.167,262.5 100.5,262.167 100.5,261.5C 101.167,261.5 101.5,261.167 101.5,260.5C 109.5,247.833 119.833,237.5 132.5,229.5C 133.167,229.5 133.5,229.167 133.5,228.5C 134.167,228.5 134.5,228.167 134.5,227.5C 142.806,223.062 151.473,219.395 160.5,216.5C 162.894,215.985 165.228,215.319 167.5,214.5C 173.096,213.29 178.762,212.623 184.5,212.5 Z"/></g>
<g><path style="opacity:0.022" fill="#43443f" d="M 37.5,239.5 C 37.5,241.167 37.5,242.833 37.5,244.5C 24.8333,256.833 12.1667,269.167 -0.5,281.5C -0.5,279.833 -0.5,278.167 -0.5,276.5C 12.1667,264.167 24.8333,251.833 37.5,239.5 Z"/></g>
<g><path style="opacity:0.022" fill="#43433f" d="M 511.5,245.5 C 511.5,247.167 511.5,248.833 511.5,250.5C 495.5,266.167 479.5,281.833 463.5,297.5C 463.721,294.933 464.388,292.599 465.5,290.5C 480.833,275.5 496.167,260.5 511.5,245.5 Z"/></g>
<g><path style="opacity:0.022" fill="#43443f" d="M 37.5,259.5 C 37.5,261.167 37.5,262.833 37.5,264.5C 24.8333,276.833 12.1667,289.167 -0.5,301.5C -0.5,299.833 -0.5,298.167 -0.5,296.5C 12.1667,284.167 24.8333,271.833 37.5,259.5 Z"/></g>
<g><path style="opacity:0.022" fill="#434340" d="M 511.5,265.5 C 511.5,267.167 511.5,268.833 511.5,270.5C 481.167,300.167 451.167,330.167 421.5,360.5C 420.167,359.833 419.167,358.833 418.5,357.5C 429.839,349.494 439.506,339.827 447.5,328.5C 448.167,328.5 448.5,328.167 448.5,327.5C 449.167,327.5 449.5,327.167 449.5,326.5C 470.167,306.167 490.833,285.833 511.5,265.5 Z"/></g>
<g><path style="opacity:0.022" fill="#43443f" d="M 37.5,279.5 C 37.5,281.167 37.5,282.833 37.5,284.5C 24.8333,296.833 12.1667,309.167 -0.5,321.5C -0.5,319.833 -0.5,318.167 -0.5,316.5C 12.1667,304.167 24.8333,291.833 37.5,279.5 Z"/></g>
<g><path style="opacity:0.022" fill="#43443f" d="M 511.5,285.5 C 511.5,287.167 511.5,288.833 511.5,290.5C 483.167,318.5 454.833,346.5 426.5,374.5C 425.766,373.292 425.433,371.959 425.5,370.5C 454.167,342.167 482.833,313.833 511.5,285.5 Z"/></g>
<g><path style="opacity:0.022" fill="#434440" d="M 88.5,288.5 C 87.9853,290.894 87.3186,293.228 86.5,295.5C 73.8333,307.833 61.1667,320.167 48.5,332.5C 48.5,330.833 48.5,329.167 48.5,327.5C 61.8333,314.5 75.1667,301.5 88.5,288.5 Z"/></g>
<g><path style="opacity:0.022" fill="#43443f" d="M 37.5,299.5 C 37.5,301.167 37.5,302.833 37.5,304.5C 24.8333,316.833 12.1667,329.167 -0.5,341.5C -0.5,339.833 -0.5,338.167 -0.5,336.5C 12.1667,324.167 24.8333,311.833 37.5,299.5 Z"/></g>
<g><path style="opacity:0.022" fill="#43443f" d="M 511.5,305.5 C 511.5,307.167 511.5,308.833 511.5,310.5C 482.833,338.833 454.167,367.167 425.5,395.5C 425.833,393.5 426.167,391.5 426.5,389.5C 454.833,361.5 483.167,333.5 511.5,305.5 Z"/></g>
<g><path style="opacity:0.022" fill="#43443f" d="M 84.5,312.5 C 84.5,314.167 84.5,315.833 84.5,317.5C 72.5,329.167 60.5,340.833 48.5,352.5C 48.5,350.833 48.5,349.167 48.5,347.5C 60.5,335.833 72.5,324.167 84.5,312.5 Z"/></g>
<g><path style="opacity:0.022" fill="#43443f" d="M 37.5,319.5 C 37.5,321.167 37.5,322.833 37.5,324.5C 24.8333,336.833 12.1667,349.167 -0.5,361.5C -0.5,359.833 -0.5,358.167 -0.5,356.5C 12.1667,344.167 24.8333,331.833 37.5,319.5 Z"/></g>
<g><path style="opacity:0.022" fill="#43443f" d="M 511.5,325.5 C 511.5,327.167 511.5,328.833 511.5,330.5C 466.833,374.5 422.5,418.833 378.5,463.5C 376.833,463.5 375.167,463.5 373.5,463.5C 419.167,417.167 465.167,371.167 511.5,325.5 Z"/></g>
<g><path style="opacity:0.022" fill="#444440" d="M 84.5,332.5 C 85.2341,333.708 85.5674,335.041 85.5,336.5C 73.1667,348.5 60.8333,360.5 48.5,372.5C 48.5,370.833 48.5,369.167 48.5,367.5C 60.5,355.833 72.5,344.167 84.5,332.5 Z"/></g>
<g><path style="opacity:0.022" fill="#43443f" d="M 37.5,339.5 C 37.5,341.167 37.5,342.833 37.5,344.5C 24.8333,356.833 12.1667,369.167 -0.5,381.5C -0.5,379.833 -0.5,378.167 -0.5,376.5C 12.1667,364.167 24.8333,351.833 37.5,339.5 Z"/></g>
<g><path style="opacity:0.022" fill="#43443f" d="M 511.5,345.5 C 511.5,347.167 511.5,348.833 511.5,350.5C 473.5,387.833 435.833,425.5 398.5,463.5C 396.833,463.5 395.167,463.5 393.5,463.5C 432.5,423.833 471.833,384.5 511.5,345.5 Z"/></g>
<g><path style="opacity:0.022" fill="#43443f" d="M 87.5,348.5 C 88.4345,349.568 88.7678,350.901 88.5,352.5C 75.5,366.167 62.1667,379.5 48.5,392.5C 48.5,390.833 48.5,389.167 48.5,387.5C 61.8333,374.833 74.8333,361.833 87.5,348.5 Z"/></g>
<g><path style="opacity:0.999" fill="#d7dfe6" d="M 418.5,357.5 C 419.167,358.833 420.167,359.833 421.5,360.5C 422.836,363.838 424.169,367.171 425.5,370.5C 425.433,371.959 425.766,373.292 426.5,374.5C 426.5,379.5 426.5,384.5 426.5,389.5C 426.167,391.5 425.833,393.5 425.5,395.5C 420.167,409.5 410.5,419.167 396.5,424.5C 394.5,424.833 392.5,425.167 390.5,425.5C 385.5,425.5 380.5,425.5 375.5,425.5C 374.292,424.766 372.959,424.433 371.5,424.5C 368.251,422.972 364.918,421.639 361.5,420.5C 361.027,419.094 360.027,418.427 358.5,418.5C 356.167,415.5 353.5,412.833 350.5,410.5C 350.068,409.29 349.401,408.29 348.5,407.5C 346.55,404.594 344.883,401.594 343.5,398.5C 343.167,397.167 342.833,395.833 342.5,394.5C 341.656,390.901 341.323,387.234 341.5,383.5C 341.569,368.614 347.569,356.781 359.5,348C 381.682,335.871 401.348,339.038 418.5,357.5 Z"/></g>
<g><path style="opacity:0.022" fill="#43443f" d="M 37.5,359.5 C 37.5,361.167 37.5,362.833 37.5,364.5C 24.8333,376.833 12.1667,389.167 -0.5,401.5C -0.5,399.833 -0.5,398.167 -0.5,396.5C 12.1667,384.167 24.8333,371.833 37.5,359.5 Z"/></g>
<g><path style="opacity:0.022" fill="#434440" d="M 93.5,363.5 C 94.2341,364.708 94.5674,366.041 94.5,367.5C 79.1667,382.5 63.8333,397.5 48.5,412.5C 48.5,410.833 48.5,409.167 48.5,407.5C 63.5,392.833 78.5,378.167 93.5,363.5 Z"/></g>
<g><path style="opacity:0.022" fill="#43443f" d="M 511.5,365.5 C 511.5,367.167 511.5,368.833 511.5,370.5C 480.167,401.167 449.167,432.167 418.5,463.5C 416.833,463.5 415.167,463.5 413.5,463.5C 445.833,430.5 478.5,397.833 511.5,365.5 Z"/></g>
<g><path style="opacity:0.022" fill="#43443f" d="M 99.5,376.5 C 100.906,376.973 101.573,377.973 101.5,379.5C 84.1667,397.5 66.5,415.167 48.5,432.5C 48.5,430.833 48.5,429.167 48.5,427.5C 65.8333,410.833 82.8333,393.833 99.5,376.5 Z"/></g>
<g><path style="opacity:0.022" fill="#43443f" d="M 299.5,377.5 C 300.791,377.263 301.791,377.596 302.5,378.5C 274.5,406.833 246.5,435.167 218.5,463.5C 216.833,463.5 215.167,463.5 213.5,463.5C 241.833,434.5 270.5,405.833 299.5,377.5 Z"/></g>
<g><path style="opacity:0.022" fill="#43443f" d="M 37.5,379.5 C 37.5,381.167 37.5,382.833 37.5,384.5C 24.8333,396.833 12.1667,409.167 -0.5,421.5C -0.5,419.833 -0.5,418.167 -0.5,416.5C 12.1667,404.167 24.8333,391.833 37.5,379.5 Z"/></g>
<g><path style="opacity:0.022" fill="#43433f" d="M 314.5,381.5 C 316.415,381.216 318.081,381.549 319.5,382.5C 292.167,409.167 265.167,436.167 238.5,463.5C 236.833,463.5 235.167,463.5 233.5,463.5C 260.5,436.167 287.5,408.833 314.5,381.5 Z"/></g>
<g><path style="opacity:0.022" fill="#43443f" d="M 332.5,383.5 C 334.167,383.5 335.833,383.5 337.5,383.5C 311.167,410.167 284.833,436.833 258.5,463.5C 256.833,463.5 255.167,463.5 253.5,463.5C 279.833,436.833 306.167,410.167 332.5,383.5 Z"/></g>
<g><path style="opacity:0.022" fill="#43443f" d="M 511.5,385.5 C 511.5,387.167 511.5,388.833 511.5,390.5C 486.833,414.5 462.5,438.833 438.5,463.5C 436.833,463.5 435.167,463.5 433.5,463.5C 459.167,437.167 485.167,411.167 511.5,385.5 Z"/></g>
<g><path style="opacity:0.022" fill="#43443f" d="M 108.5,388.5 C 109.5,388.833 110.167,389.5 110.5,390.5C 90.1667,411.5 69.5,432.167 48.5,452.5C 48.5,450.833 48.5,449.167 48.5,447.5C 68.5,427.833 88.5,408.167 108.5,388.5 Z"/></g>
<g><path style="opacity:0.022" fill="#43443f" d="M 342.5,394.5 C 342.833,395.833 343.167,397.167 343.5,398.5C 321.5,419.833 299.833,441.5 278.5,463.5C 276.833,463.5 275.167,463.5 273.5,463.5C 296.167,440.167 319.167,417.167 342.5,394.5 Z"/></g>
<g><path style="opacity:0.022" fill="#444440" d="M 117.5,398.5 C 119.027,398.427 120.027,399.094 120.5,400.5C 99.8333,421.5 79.1667,442.5 58.5,463.5C 56.8333,463.5 55.1667,463.5 53.5,463.5C 74.8333,441.833 96.1667,420.167 117.5,398.5 Z"/></g>
<g><path style="opacity:0.022" fill="#43443f" d="M 37.5,399.5 C 37.5,401.167 37.5,402.833 37.5,404.5C 24.8333,416.833 12.1667,429.167 -0.5,441.5C -0.5,439.833 -0.5,438.167 -0.5,436.5C 12.1667,424.167 24.8333,411.833 37.5,399.5 Z"/></g>
<g><path style="opacity:0.022" fill="#43443f" d="M 511.5,405.5 C 511.5,407.167 511.5,408.833 511.5,410.5C 493.5,427.833 475.833,445.5 458.5,463.5C 456.833,463.5 455.167,463.5 453.5,463.5C 472.5,443.833 491.833,424.5 511.5,405.5 Z"/></g>
<g><path style="opacity:0.022" fill="#43443f" d="M 128.5,407.5 C 130.027,407.427 131.027,408.094 131.5,409.5C 113.833,427.5 96.1667,445.5 78.5,463.5C 76.8333,463.5 75.1667,463.5 73.5,463.5C 91.8333,444.833 110.167,426.167 128.5,407.5 Z"/></g>
<g><path style="opacity:0.022" fill="#444440" d="M 348.5,407.5 C 349.401,408.29 350.068,409.29 350.5,410.5C 333.167,428.167 315.833,445.833 298.5,463.5C 296.833,463.5 295.167,463.5 293.5,463.5C 311.833,444.833 330.167,426.167 348.5,407.5 Z"/></g>
<g><path style="opacity:0.022" fill="#434440" d="M 251.5,409.5 C 233.833,427.5 216.167,445.5 198.5,463.5C 196.833,463.5 195.167,463.5 193.5,463.5C 208.833,447.833 224.167,432.167 239.5,416.5C 240.167,416.5 240.5,416.167 240.5,415.5C 244.034,413.234 247.7,411.234 251.5,409.5 Z"/></g>
<g><path style="opacity:0.022" fill="#434440" d="M 141.5,414.5 C 142.71,414.932 143.71,415.599 144.5,416.5C 129.167,432.167 113.833,447.833 98.5,463.5C 96.8333,463.5 95.1667,463.5 93.5,463.5C 109.5,447.167 125.5,430.833 141.5,414.5 Z"/></g>
<g><path style="opacity:0.022" fill="#43443f" d="M 358.5,418.5 C 360.027,418.427 361.027,419.094 361.5,420.5C 346.833,434.5 332.5,448.833 318.5,463.5C 316.833,463.5 315.167,463.5 313.5,463.5C 328.167,448.167 343.167,433.167 358.5,418.5 Z"/></g>
<g><path style="opacity:0.022" fill="#43443f" d="M 37.5,419.5 C 37.5,421.167 37.5,422.833 37.5,424.5C 24.8333,436.833 12.1667,449.167 -0.5,461.5C -0.5,459.833 -0.5,458.167 -0.5,456.5C 12.1667,444.167 24.8333,431.833 37.5,419.5 Z"/></g>
<g><path style="opacity:0.022" fill="#444440" d="M 155.5,420.5 C 156.71,420.932 157.71,421.599 158.5,422.5C 145.167,436.167 131.833,449.833 118.5,463.5C 116.833,463.5 115.167,463.5 113.5,463.5C 127.5,449.167 141.5,434.833 155.5,420.5 Z"/></g>
<g><path style="opacity:0.022" fill="#43443f" d="M 216.5,424.5 C 203.833,437.5 191.167,450.5 178.5,463.5C 176.833,463.5 175.167,463.5 173.5,463.5C 185.833,450.833 198.167,438.167 210.5,425.5C 212.435,424.85 214.435,424.517 216.5,424.5 Z"/></g>
<g><path style="opacity:0.022" fill="#43443f" d="M 371.5,424.5 C 372.959,424.433 374.292,424.766 375.5,425.5C 363.167,438.167 350.833,450.833 338.5,463.5C 336.833,463.5 335.167,463.5 333.5,463.5C 346.167,450.5 358.833,437.5 371.5,424.5 Z"/></g>
<g><path style="opacity:0.022" fill="#43443f" d="M 396.5,424.5 C 383.833,437.5 371.167,450.5 358.5,463.5C 356.833,463.5 355.167,463.5 353.5,463.5C 365.833,450.833 378.167,438.167 390.5,425.5C 392.5,425.167 394.5,424.833 396.5,424.5 Z"/></g>
<g><path style="opacity:0.022" fill="#43443f" d="M 170.5,425.5 C 172.167,425.5 173.833,425.5 175.5,425.5C 163.167,438.167 150.833,450.833 138.5,463.5C 136.833,463.5 135.167,463.5 133.5,463.5C 145.833,450.833 158.167,438.167 170.5,425.5 Z"/></g>
<g><path style="opacity:0.022" fill="#43443f" d="M 511.5,425.5 C 511.5,427.167 511.5,428.833 511.5,430.5C 497.833,443.833 484.167,457.167 470.5,470.5C 470.5,468.833 470.5,467.167 470.5,465.5C 484.167,452.167 497.833,438.833 511.5,425.5 Z"/></g>
<g><path style="opacity:0.022" fill="#43443f" d="M 189.5,426.5 C 191.167,426.5 192.833,426.5 194.5,426.5C 182.5,438.833 170.5,451.167 158.5,463.5C 156.833,463.5 155.167,463.5 153.5,463.5C 165.5,451.167 177.5,438.833 189.5,426.5 Z"/></g>
<g><path style="opacity:0.022" fill="#43443f" d="M 37.5,439.5 C 37.5,441.167 37.5,442.833 37.5,444.5C 24.8333,456.833 12.1667,469.167 -0.5,481.5C -0.5,479.833 -0.5,478.167 -0.5,476.5C 12.1667,464.167 24.8333,451.833 37.5,439.5 Z"/></g>
<g><path style="opacity:0.022" fill="#43443f" d="M 511.5,445.5 C 511.5,447.167 511.5,448.833 511.5,450.5C 490.833,470.5 470.5,490.833 450.5,511.5C 448.833,511.5 447.167,511.5 445.5,511.5C 467.167,489.167 489.167,467.167 511.5,445.5 Z"/></g>
<g><path style="opacity:0.022" fill="#43443f" d="M 37.5,459.5 C 37.5,461.167 37.5,462.833 37.5,464.5C 24.8333,476.833 12.1667,489.167 -0.5,501.5C -0.5,499.833 -0.5,498.167 -0.5,496.5C 12.1667,484.167 24.8333,471.833 37.5,459.5 Z"/></g>
<g><path style="opacity:0.913" fill="#9aadc6" d="M 40.5,41.5 C 43.1667,41.5 45.8333,41.5 48.5,41.5C 48.5,43.5 48.5,45.5 48.5,47.5C 48.5,49.1667 48.5,50.8333 48.5,52.5C 48.5,57.5 48.5,62.5 48.5,67.5C 48.5,69.1667 48.5,70.8333 48.5,72.5C 48.5,77.5 48.5,82.5 48.5,87.5C 48.5,89.1667 48.5,90.8333 48.5,92.5C 48.5,97.5 48.5,102.5 48.5,107.5C 48.5,109.167 48.5,110.833 48.5,112.5C 48.5,117.5 48.5,122.5 48.5,127.5C 48.5,129.167 48.5,130.833 48.5,132.5C 48.5,137.5 48.5,142.5 48.5,147.5C 48.5,149.167 48.5,150.833 48.5,152.5C 48.5,157.5 48.5,162.5 48.5,167.5C 48.5,169.167 48.5,170.833 48.5,172.5C 48.5,177.5 48.5,182.5 48.5,187.5C 48.5,189.167 48.5,190.833 48.5,192.5C 48.5,197.5 48.5,202.5 48.5,207.5C 48.5,209.167 48.5,210.833 48.5,212.5C 48.5,217.5 48.5,222.5 48.5,227.5C 48.5,229.167 48.5,230.833 48.5,232.5C 48.5,237.5 48.5,242.5 48.5,247.5C 48.5,249.167 48.5,250.833 48.5,252.5C 48.5,257.5 48.5,262.5 48.5,267.5C 48.5,269.167 48.5,270.833 48.5,272.5C 48.5,277.5 48.5,282.5 48.5,287.5C 48.5,289.167 48.5,290.833 48.5,292.5C 48.5,297.5 48.5,302.5 48.5,307.5C 48.5,309.167 48.5,310.833 48.5,312.5C 48.5,317.5 48.5,322.5 48.5,327.5C 48.5,329.167 48.5,330.833 48.5,332.5C 48.5,337.5 48.5,342.5 48.5,347.5C 48.5,349.167 48.5,350.833 48.5,352.5C 48.5,357.5 48.5,362.5 48.5,367.5C 48.5,369.167 48.5,370.833 48.5,372.5C 48.5,377.5 48.5,382.5 48.5,387.5C 48.5,389.167 48.5,390.833 48.5,392.5C 48.5,397.5 48.5,402.5 48.5,407.5C 48.5,409.167 48.5,410.833 48.5,412.5C 48.5,417.5 48.5,422.5 48.5,427.5C 48.5,429.167 48.5,430.833 48.5,432.5C 48.5,437.5 48.5,442.5 48.5,447.5C 48.5,449.167 48.5,450.833 48.5,452.5C 48.5,456.167 48.5,459.833 48.5,463.5C 50.1667,463.5 51.8333,463.5 53.5,463.5C 55.1667,463.5 56.8333,463.5 58.5,463.5C 63.5,463.5 68.5,463.5 73.5,463.5C 75.1667,463.5 76.8333,463.5 78.5,463.5C 83.5,463.5 88.5,463.5 93.5,463.5C 95.1667,463.5 96.8333,463.5 98.5,463.5C 103.5,463.5 108.5,463.5 113.5,463.5C 115.167,463.5 116.833,463.5 118.5,463.5C 123.5,463.5 128.5,463.5 133.5,463.5C 135.167,463.5 136.833,463.5 138.5,463.5C 143.5,463.5 148.5,463.5 153.5,463.5C 155.167,463.5 156.833,463.5 158.5,463.5C 163.5,463.5 168.5,463.5 173.5,463.5C 175.167,463.5 176.833,463.5 178.5,463.5C 183.5,463.5 188.5,463.5 193.5,463.5C 195.167,463.5 196.833,463.5 198.5,463.5C 203.5,463.5 208.5,463.5 213.5,463.5C 215.167,463.5 216.833,463.5 218.5,463.5C 223.5,463.5 228.5,463.5 233.5,463.5C 235.167,463.5 236.833,463.5 238.5,463.5C 243.5,463.5 248.5,463.5 253.5,463.5C 255.167,463.5 256.833,463.5 258.5,463.5C 263.5,463.5 268.5,463.5 273.5,463.5C 275.167,463.5 276.833,463.5 278.5,463.5C 283.5,463.5 288.5,463.5 293.5,463.5C 295.167,463.5 296.833,463.5 298.5,463.5C 303.5,463.5 308.5,463.5 313.5,463.5C 315.167,463.5 316.833,463.5 318.5,463.5C 323.5,463.5 328.5,463.5 333.5,463.5C 335.167,463.5 336.833,463.5 338.5,463.5C 343.5,463.5 348.5,463.5 353.5,463.5C 355.167,463.5 356.833,463.5 358.5,463.5C 363.5,463.5 368.5,463.5 373.5,463.5C 375.167,463.5 376.833,463.5 378.5,463.5C 383.5,463.5 388.5,463.5 393.5,463.5C 395.167,463.5 396.833,463.5 398.5,463.5C 403.5,463.5 408.5,463.5 413.5,463.5C 415.167,463.5 416.833,463.5 418.5,463.5C 423.5,463.5 428.5,463.5 433.5,463.5C 435.167,463.5 436.833,463.5 438.5,463.5C 443.5,463.5 448.5,463.5 453.5,463.5C 455.167,463.5 456.833,463.5 458.5,463.5C 462.971,462.911 466.971,463.577 470.5,465.5C 470.5,467.167 470.5,468.833 470.5,470.5C 470.5,471.833 470.5,473.167 470.5,474.5C 469.167,474.5 467.833,474.5 466.5,474.5C 464.833,474.5 463.167,474.5 461.5,474.5C 456.5,474.5 451.5,474.5 446.5,474.5C 444.833,474.5 443.167,474.5 441.5,474.5C 436.5,474.5 431.5,474.5 426.5,474.5C 424.833,474.5 423.167,474.5 421.5,474.5C 416.5,474.5 411.5,474.5 406.5,474.5C 404.833,474.5 403.167,474.5 401.5,474.5C 396.5,474.5 391.5,474.5 386.5,474.5C 384.833,474.5 383.167,474.5 381.5,474.5C 376.5,474.5 371.5,474.5 366.5,474.5C 364.833,474.5 363.167,474.5 361.5,474.5C 356.5,474.5 351.5,474.5 346.5,474.5C 344.833,474.5 343.167,474.5 341.5,474.5C 336.5,474.5 331.5,474.5 326.5,474.5C 324.833,474.5 323.167,474.5 321.5,474.5C 316.5,474.5 311.5,474.5 306.5,474.5C 304.833,474.5 303.167,474.5 301.5,474.5C 296.5,474.5 291.5,474.5 286.5,474.5C 284.833,474.5 283.167,474.5 281.5,474.5C 276.5,474.5 271.5,474.5 266.5,474.5C 264.833,474.5 263.167,474.5 261.5,474.5C 256.5,474.5 251.5,474.5 246.5,474.5C 244.833,474.5 243.167,474.5 241.5,474.5C 236.5,474.5 231.5,474.5 226.5,474.5C 224.833,474.5 223.167,474.5 221.5,474.5C 216.5,474.5 211.5,474.5 206.5,474.5C 204.833,474.5 203.167,474.5 201.5,474.5C 196.5,474.5 191.5,474.5 186.5,474.5C 184.833,474.5 183.167,474.5 181.5,474.5C 176.5,474.5 171.5,474.5 166.5,474.5C 164.833,474.5 163.167,474.5 161.5,474.5C 156.5,474.5 151.5,474.5 146.5,474.5C 144.833,474.5 143.167,474.5 141.5,474.5C 136.5,474.5 131.5,474.5 126.5,474.5C 124.833,474.5 123.167,474.5 121.5,474.5C 116.5,474.5 111.5,474.5 106.5,474.5C 104.833,474.5 103.167,474.5 101.5,474.5C 96.5,474.5 91.5,474.5 86.5,474.5C 84.8333,474.5 83.1667,474.5 81.5,474.5C 76.5,474.5 71.5,474.5 66.5,474.5C 64.8333,474.5 63.1667,474.5 61.5,474.5C 56.5,474.5 51.5,474.5 46.5,474.5C 44.8333,474.5 43.1667,474.5 41.5,474.5C 40.1667,474.5 38.8333,474.5 37.5,474.5C 37.5,471.167 37.5,467.833 37.5,464.5C 37.5,462.833 37.5,461.167 37.5,459.5C 37.5,454.5 37.5,449.5 37.5,444.5C 37.5,442.833 37.5,441.167 37.5,439.5C 37.5,434.5 37.5,429.5 37.5,424.5C 37.5,422.833 37.5,421.167 37.5,419.5C 37.5,414.5 37.5,409.5 37.5,404.5C 37.5,402.833 37.5,401.167 37.5,399.5C 37.5,394.5 37.5,389.5 37.5,384.5C 37.5,382.833 37.5,381.167 37.5,379.5C 37.5,374.5 37.5,369.5 37.5,364.5C 37.5,362.833 37.5,361.167 37.5,359.5C 37.5,354.5 37.5,349.5 37.5,344.5C 37.5,342.833 37.5,341.167 37.5,339.5C 37.5,334.5 37.5,329.5 37.5,324.5C 37.5,322.833 37.5,321.167 37.5,319.5C 37.5,314.5 37.5,309.5 37.5,304.5C 37.5,302.833 37.5,301.167 37.5,299.5C 37.5,294.5 37.5,289.5 37.5,284.5C 37.5,282.833 37.5,281.167 37.5,279.5C 37.5,274.5 37.5,269.5 37.5,264.5C 37.5,262.833 37.5,261.167 37.5,259.5C 37.5,254.5 37.5,249.5 37.5,244.5C 37.5,242.833 37.5,241.167 37.5,239.5C 37.5,234.5 37.5,229.5 37.5,224.5C 37.5,222.833 37.5,221.167 37.5,219.5C 37.5,214.5 37.5,209.5 37.5,204.5C 37.5,202.833 37.5,201.167 37.5,199.5C 37.5,194.5 37.5,189.5 37.5,184.5C 37.5,182.833 37.5,181.167 37.5,179.5C 37.5,174.5 37.5,169.5 37.5,164.5C 37.5,162.833 37.5,161.167 37.5,159.5C 37.5,154.5 37.5,149.5 37.5,144.5C 37.5,142.833 37.5,141.167 37.5,139.5C 37.5,134.5 37.5,129.5 37.5,124.5C 37.5,122.833 37.5,121.167 37.5,119.5C 37.5,114.5 37.5,109.5 37.5,104.5C 37.5,102.833 37.5,101.167 37.5,99.5C 37.5,94.5 37.5,89.5 37.5,84.5C 37.5,82.8333 37.5,81.1667 37.5,79.5C 37.5,74.5 37.5,69.5 37.5,64.5C 37.5,62.8333 37.5,61.1667 37.5,59.5C 37.5,54.5 37.5,49.5 37.5,44.5C 37.5,43.5 37.5,42.5 37.5,41.5C 38.5,41.5 39.5,41.5 40.5,41.5 Z"/></g>
<g><path style="opacity:0.022" fill="#43443f" d="M 511.5,465.5 C 511.5,467.167 511.5,468.833 511.5,470.5C 497.5,483.833 483.833,497.5 470.5,511.5C 468.833,511.5 467.167,511.5 465.5,511.5C 480.5,495.833 495.833,480.5 511.5,465.5 Z"/></g>
<g><path style="opacity:0.022" fill="#43443f" d="M 41.5,474.5 C 43.1667,474.5 44.8333,474.5 46.5,474.5C 34.5,486.833 22.5,499.167 10.5,511.5C 8.83333,511.5 7.16667,511.5 5.5,511.5C 17.5,499.167 29.5,486.833 41.5,474.5 Z"/></g>
<g><path style="opacity:0.022" fill="#43443f" d="M 61.5,474.5 C 63.1667,474.5 64.8333,474.5 66.5,474.5C 54.5,486.833 42.5,499.167 30.5,511.5C 28.8333,511.5 27.1667,511.5 25.5,511.5C 37.5,499.167 49.5,486.833 61.5,474.5 Z"/></g>
<g><path style="opacity:0.022" fill="#43443f" d="M 81.5,474.5 C 83.1667,474.5 84.8333,474.5 86.5,474.5C 74.5,486.833 62.5,499.167 50.5,511.5C 48.8333,511.5 47.1667,511.5 45.5,511.5C 57.5,499.167 69.5,486.833 81.5,474.5 Z"/></g>
<g><path style="opacity:0.022" fill="#43443f" d="M 101.5,474.5 C 103.167,474.5 104.833,474.5 106.5,474.5C 94.5,486.833 82.5,499.167 70.5,511.5C 68.8333,511.5 67.1667,511.5 65.5,511.5C 77.5,499.167 89.5,486.833 101.5,474.5 Z"/></g>
<g><path style="opacity:0.022" fill="#43443f" d="M 121.5,474.5 C 123.167,474.5 124.833,474.5 126.5,474.5C 114.5,486.833 102.5,499.167 90.5,511.5C 88.8333,511.5 87.1667,511.5 85.5,511.5C 97.5,499.167 109.5,486.833 121.5,474.5 Z"/></g>
<g><path style="opacity:0.022" fill="#43443f" d="M 141.5,474.5 C 143.167,474.5 144.833,474.5 146.5,474.5C 134.5,486.833 122.5,499.167 110.5,511.5C 108.833,511.5 107.167,511.5 105.5,511.5C 117.5,499.167 129.5,486.833 141.5,474.5 Z"/></g>
<g><path style="opacity:0.022" fill="#43443f" d="M 161.5,474.5 C 163.167,474.5 164.833,474.5 166.5,474.5C 154.5,486.833 142.5,499.167 130.5,511.5C 128.833,511.5 127.167,511.5 125.5,511.5C 137.5,499.167 149.5,486.833 161.5,474.5 Z"/></g>
<g><path style="opacity:0.022" fill="#43443f" d="M 181.5,474.5 C 183.167,474.5 184.833,474.5 186.5,474.5C 174.5,486.833 162.5,499.167 150.5,511.5C 148.833,511.5 147.167,511.5 145.5,511.5C 157.5,499.167 169.5,486.833 181.5,474.5 Z"/></g>
<g><path style="opacity:0.022" fill="#43443f" d="M 201.5,474.5 C 203.167,474.5 204.833,474.5 206.5,474.5C 194.5,486.833 182.5,499.167 170.5,511.5C 168.833,511.5 167.167,511.5 165.5,511.5C 177.5,499.167 189.5,486.833 201.5,474.5 Z"/></g>
<g><path style="opacity:0.022" fill="#43443f" d="M 221.5,474.5 C 223.167,474.5 224.833,474.5 226.5,474.5C 214.5,486.833 202.5,499.167 190.5,511.5C 188.833,511.5 187.167,511.5 185.5,511.5C 197.5,499.167 209.5,486.833 221.5,474.5 Z"/></g>
<g><path style="opacity:0.022" fill="#43443f" d="M 241.5,474.5 C 243.167,474.5 244.833,474.5 246.5,474.5C 234.5,486.833 222.5,499.167 210.5,511.5C 208.833,511.5 207.167,511.5 205.5,511.5C 217.5,499.167 229.5,486.833 241.5,474.5 Z"/></g>
<g><path style="opacity:0.022" fill="#43443f" d="M 261.5,474.5 C 263.167,474.5 264.833,474.5 266.5,474.5C 254.5,486.833 242.5,499.167 230.5,511.5C 228.833,511.5 227.167,511.5 225.5,511.5C 237.5,499.167 249.5,486.833 261.5,474.5 Z"/></g>
<g><path style="opacity:0.022" fill="#43443f" d="M 281.5,474.5 C 283.167,474.5 284.833,474.5 286.5,474.5C 274.5,486.833 262.5,499.167 250.5,511.5C 248.833,511.5 247.167,511.5 245.5,511.5C 257.5,499.167 269.5,486.833 281.5,474.5 Z"/></g>
<g><path style="opacity:0.022" fill="#43443f" d="M 301.5,474.5 C 303.167,474.5 304.833,474.5 306.5,474.5C 294.5,486.833 282.5,499.167 270.5,511.5C 268.833,511.5 267.167,511.5 265.5,511.5C 277.5,499.167 289.5,486.833 301.5,474.5 Z"/></g>
<g><path style="opacity:0.022" fill="#43443f" d="M 321.5,474.5 C 323.167,474.5 324.833,474.5 326.5,474.5C 314.5,486.833 302.5,499.167 290.5,511.5C 288.833,511.5 287.167,511.5 285.5,511.5C 297.5,499.167 309.5,486.833 321.5,474.5 Z"/></g>
<g><path style="opacity:0.022" fill="#43443f" d="M 341.5,474.5 C 343.167,474.5 344.833,474.5 346.5,474.5C 334.5,486.833 322.5,499.167 310.5,511.5C 308.833,511.5 307.167,511.5 305.5,511.5C 317.5,499.167 329.5,486.833 341.5,474.5 Z"/></g>
<g><path style="opacity:0.022" fill="#43443f" d="M 361.5,474.5 C 363.167,474.5 364.833,474.5 366.5,474.5C 354.5,486.833 342.5,499.167 330.5,511.5C 328.833,511.5 327.167,511.5 325.5,511.5C 337.5,499.167 349.5,486.833 361.5,474.5 Z"/></g>
<g><path style="opacity:0.022" fill="#43443f" d="M 381.5,474.5 C 383.167,474.5 384.833,474.5 386.5,474.5C 374.5,486.833 362.5,499.167 350.5,511.5C 348.833,511.5 347.167,511.5 345.5,511.5C 357.5,499.167 369.5,486.833 381.5,474.5 Z"/></g>
<g><path style="opacity:0.022" fill="#43443f" d="M 401.5,474.5 C 403.167,474.5 404.833,474.5 406.5,474.5C 394.5,486.833 382.5,499.167 370.5,511.5C 368.833,511.5 367.167,511.5 365.5,511.5C 377.5,499.167 389.5,486.833 401.5,474.5 Z"/></g>
<g><path style="opacity:0.022" fill="#43443f" d="M 421.5,474.5 C 423.167,474.5 424.833,474.5 426.5,474.5C 414.5,486.833 402.5,499.167 390.5,511.5C 388.833,511.5 387.167,511.5 385.5,511.5C 397.5,499.167 409.5,486.833 421.5,474.5 Z"/></g>
<g><path style="opacity:0.022" fill="#43443f" d="M 441.5,474.5 C 443.167,474.5 444.833,474.5 446.5,474.5C 434.5,486.833 422.5,499.167 410.5,511.5C 408.833,511.5 407.167,511.5 405.5,511.5C 417.5,499.167 429.5,486.833 441.5,474.5 Z"/></g>
<g><path style="opacity:0.022" fill="#43443f" d="M 461.5,474.5 C 463.167,474.5 464.833,474.5 466.5,474.5C 454.5,486.833 442.5,499.167 430.5,511.5C 428.833,511.5 427.167,511.5 425.5,511.5C 437.5,499.167 449.5,486.833 461.5,474.5 Z"/></g>
<g><path style="opacity:0.022" fill="#43443f" d="M 511.5,485.5 C 511.5,487.167 511.5,488.833 511.5,490.5C 504.167,497.167 497.167,504.167 490.5,511.5C 488.833,511.5 487.167,511.5 485.5,511.5C 493.833,502.5 502.5,493.833 511.5,485.5 Z"/></g>
<g><path style="opacity:0.022" fill="#43443f" d="M 511.5,505.5 C 511.5,507.167 511.5,508.833 511.5,510.5C 510.833,510.5 510.5,510.833 510.5,511.5C 508.833,511.5 507.167,511.5 505.5,511.5C 507.167,509.167 509.167,507.167 511.5,505.5 Z"/></g>
</svg>
